<svg width="260" height="200" viewBox="0 0 260 200" fill="none" xmlns="http://www.w3.org/2000/svg">
<g opacity="0.49">
<path fill-rule="evenodd" clip-rule="evenodd" d="M239.348 7.08026C246.979 11.6978 249.393 13.4218 249.675 14.4564C250.231 16.5011 250.213 20.3476 249.642 21.4156C249.211 22.2218 249.841 22.7714 253.821 25.0629C256.398 26.5472 264.695 31.411 272.257 35.8725C279.819 40.3334 296.683 50.2586 309.732 57.9284C322.781 65.5982 334.942 72.7815 336.755 73.8911L340.052 75.9083L342.337 74.6092C343.594 73.8944 345.271 73.3096 346.065 73.3096C347.765 73.3096 364.865 83.3854 365.832 84.9571C366.293 85.7066 366.399 88.8495 366.209 96.1781L365.946 106.358L362.912 108.327L359.879 110.295L360.032 115.756L360.185 121.216L362.308 122.175C366.319 123.986 366.311 123.961 366.147 135.293C366.041 142.621 365.802 145.701 365.276 146.519C364.286 148.06 349.013 157 347.371 157C346.003 157 341.822 154.799 340.763 153.522C340.274 152.932 337.725 154.232 327.372 160.356C313.392 168.625 265.926 196.356 236.939 213.189C202.195 233.364 199.145 235.146 184.635 243.743C176.628 248.487 168.829 253.068 167.305 253.922C164.753 255.352 164.507 255.666 164.204 257.877C164.023 259.198 163.875 261.175 163.875 262.269C163.875 264.868 163.296 265.355 153.05 271.384C146.298 275.358 144.237 276.325 142.536 276.321C140.844 276.317 138.772 275.34 132.207 271.455C123.46 266.278 122.356 265.163 122.356 261.505C122.356 260.45 122.136 259.588 121.866 259.588C121.442 259.588 99.5539 246.764 93.9089 243.207C92.7986 242.508 88.7362 240.156 84.8808 237.981C81.0255 235.807 72.2903 230.577 65.4692 226.359C58.6482 222.142 47.0562 215.003 39.7089 210.495L26.3499 202.3L24.797 203.407C22.3279 205.168 20.5911 204.813 15.2939 201.468C12.6404 199.793 8.49661 197.249 6.08527 195.816C3.67392 194.383 1.52405 192.777 1.30835 192.248C1.09213 191.719 0.787506 186.762 0.631134 181.233L0.346954 171.18L3.10178 169C4.61749 167.8 6.08578 166.736 6.36508 166.634C6.64441 166.532 6.94418 164.331 7.03101 161.743L7.18903 157.037L3.84158 154.87L0.494171 152.704V142.138C0.494171 131.654 0.504395 131.562 1.79636 130.382C4.25623 128.137 20.2271 119.744 22.0416 119.744C23.0591 119.744 24.6989 120.394 26.0771 121.344L28.3979 122.943L53.674 108.472C67.5754 100.513 88.7766 88.3037 100.788 81.3396C112.799 74.3754 141.122 58.1179 163.728 45.2118L204.829 21.7455L204.85 18.5059C204.861 16.7241 205.004 14.7674 205.168 14.1572C205.349 13.4823 207.76 11.6195 211.32 9.40362C222.073 2.71055 225.455 0.954672 227.49 1.00597C228.905 1.0416 231.926 2.58906 239.348 7.08026ZM238.137 8.14232C243.245 11.1698 247.423 13.7679 247.422 13.9164C247.421 14.0649 244.213 15.9477 240.292 18.1004C236.372 20.2531 231.83 22.7703 230.198 23.6942L227.233 25.3739L218.336 20.1181C213.442 17.2273 209.026 14.5741 208.522 14.2226C207.735 13.6734 208.913 12.8031 216.834 8.08024C222.417 4.75152 226.613 2.5896 227.457 2.60796C228.223 2.6247 233.029 5.11543 238.137 8.14232ZM216.179 20.6997C222.864 24.6844 226.119 26.3253 227.344 26.3296C228.321 26.3328 230.313 25.6007 231.927 24.6455C236.672 21.8368 247.968 15.5362 248.259 15.5362C248.409 15.5362 248.532 16.9903 248.532 18.7678V21.9998L246.779 20.9297C245.815 20.3411 244.684 19.859 244.264 19.8579C243.845 19.8568 239.976 21.9691 235.667 24.5521C231.357 27.1352 227.353 29.2123 226.768 29.1686C226.183 29.1243 224.714 28.377 223.503 27.5083C222.292 26.6395 218.779 24.4128 215.695 22.5597L210.09 19.1911L208.215 20.0868C207.183 20.5793 206.308 20.9108 206.269 20.8238C206.231 20.7369 206.321 19.4076 206.47 17.8704L206.743 15.0751L216.179 20.6997ZM215.213 24.0678C218.092 25.76 220.449 27.2664 220.451 27.4149C220.453 27.5634 217.37 29.3635 213.599 31.4153C198.117 39.8394 173.852 53.6094 146.89 69.2719C131.172 78.4028 101.58 95.4573 81.1295 107.171C60.6788 118.885 43.2979 128.932 42.5047 129.497L41.0628 130.525L35.592 127.202C32.5827 125.374 30.3093 123.702 30.5401 123.487C30.7709 123.271 35.9538 120.297 42.0577 116.876C52.4283 111.065 89.441 89.7539 112.111 76.5411C117.598 73.3431 127.425 67.704 133.949 64.0092C140.474 60.3144 154.911 52.0647 166.032 45.6772C190.17 31.8127 208.34 21.5403 209.289 21.2218C209.668 21.0944 212.334 22.3751 215.213 24.0678ZM247.453 23.0527C250.445 24.9047 266.492 34.3574 301.644 54.976C316.472 63.6733 330.862 72.1163 333.622 73.7378L338.64 76.6869L337.094 77.628C336.243 78.1458 333.686 79.5923 331.412 80.8428L327.276 83.1154L325.784 82.0647C324.962 81.4869 316.162 76.2139 306.227 70.347C276.967 53.0673 258.757 42.302 245.907 34.6873L233.847 27.5396L238.921 24.5078C241.712 22.84 244.227 21.4923 244.511 21.5134C244.795 21.5339 246.119 22.2266 247.453 23.0527ZM223.673 29.3511C225.899 30.9353 228.261 31.0109 230.616 29.5725L232.381 28.4947L251.529 39.8523C262.061 46.0989 278.008 55.5208 286.969 60.79C324.052 82.5949 326.097 83.8427 325.601 84.3513C325.325 84.6337 325.1 85.9209 325.1 87.2119C325.1 89.3144 325.271 89.6319 326.733 90.2474L328.366 90.9348L317.701 97.1856C311.835 100.623 303.882 105.192 300.026 107.337C296.171 109.483 288.528 113.849 283.041 117.04C277.555 120.231 263.845 128.133 252.576 134.6C221.95 152.172 205.67 161.612 189.218 171.335C173.416 180.675 159.295 188.702 153.736 191.506L150.336 193.221L147.358 191.515C143.651 189.391 142.115 189.558 137.298 192.604L133.798 194.818L123.629 188.808C118.035 185.502 103.632 176.905 91.621 169.701C79.61 162.498 63.0233 152.563 54.7621 147.623C46.5002 142.684 40.1138 138.642 40.5689 138.642C42.7053 138.642 43.912 134.706 42.5543 132.166C42.1133 131.341 42.2826 131.027 43.4979 130.419C46.5089 128.911 105.382 95.1517 137.454 76.5422C174.837 54.8507 182.685 50.3606 201.081 40.138C211.609 34.2877 220.493 29.1535 220.822 28.728C221.552 27.7842 221.435 27.7588 223.673 29.3511ZM178.811 74.849C183.911 78.0114 189.189 81.2607 190.539 82.0701C192.002 82.948 192.986 83.9286 192.976 84.4998C192.96 85.4512 185.297 90.1508 160.093 104.667C154.603 107.829 145.019 113.449 138.795 117.155C120.789 127.877 119.533 128.513 117.705 127.822C114.897 126.761 93.2381 113.678 93.2661 113.06C93.2947 112.429 101.471 107.486 121.547 95.9594C128.072 92.2134 136.928 87.0672 141.229 84.5225C153.327 77.364 168.348 68.9842 168.974 69.0446C169.284 69.0749 173.711 71.6865 178.811 74.849ZM179.782 77.405C185.417 80.8212 190.35 83.8087 190.745 84.0436C191.246 84.3416 190.482 85.0554 188.204 86.4139L184.945 88.3577L177.107 83.4718L169.268 78.5853V74.8679C169.268 72.8231 169.328 71.1596 169.402 71.1714C169.477 71.1833 174.147 73.9883 179.782 77.405ZM167.65 73.4462C167.65 74.7815 167.789 76.573 167.959 77.4266C168.258 78.9314 168.039 79.1128 160.814 83.3562C156.715 85.7638 130.714 100.846 130.714 100.846C134.758 98.5001 168.928 80.3288 169.011 80.3288C169.238 80.3288 182.409 88.5002 182.903 88.9473C183.295 89.3026 176.591 93.3559 161.179 102.081C157.769 104.012 150.247 108.441 144.464 111.923C132.191 119.313 119.315 126.763 118.816 126.763C118.624 126.763 115.884 125.215 112.728 123.322C109.571 121.429 106.304 119.53 105.469 119.103L103.948 118.325L153.091 88.7774C156.893 86.5448 130.714 100.846 130.714 100.846C130.714 100.846 112.965 110.974 107.528 114.353L102.675 117.37L98.9936 115.249L95.3125 113.129L98.9936 111.127C101.018 110.026 104.616 107.907 106.989 106.417C109.361 104.927 115.306 101.451 120.199 98.6921C125.093 95.933 132.615 91.5546 136.915 88.9624C141.215 86.3696 149.586 81.514 155.518 78.1717C161.449 74.8295 166.605 71.8523 166.976 71.5564C167.495 71.1412 167.65 71.5759 167.65 73.4462ZM355.775 80.061C360.338 82.8444 364.285 85.3345 364.545 85.5948C365.049 86.0996 348.244 95.987 346.883 95.987C346.448 95.987 341.883 93.4919 336.739 90.4429L327.386 84.8988L333.117 81.7207C336.27 79.9724 340.216 77.7295 341.886 76.736C343.556 75.7426 345.497 74.9451 346.2 74.9645C346.902 74.9839 351.211 77.2776 355.775 80.061ZM336.065 91.9315C341.057 94.9843 345.37 97.711 345.65 97.9907C345.937 98.2785 346.093 102.185 346.008 107L345.859 115.501L343.972 114.228L342.085 112.955L341.815 104.927L341.546 96.8995L334.581 92.9487C330.75 90.7755 327.39 88.9224 327.114 88.8301C326.838 88.7378 326.696 88.1492 326.799 87.5218C326.969 86.4927 327.88 86.9268 336.065 91.9315ZM364.805 90.9332C364.617 92.3106 364.462 96.1571 364.462 99.4798V105.522L356.659 110.204C352.368 112.778 348.607 114.885 348.302 114.885C347.946 114.885 347.747 111.977 347.747 106.786C347.747 99.4064 347.843 98.5906 348.825 97.6068C349.418 97.0129 350.125 96.5269 350.396 96.5269C351.103 96.5269 363.281 89.5709 363.666 88.9478C363.842 88.6622 364.248 88.4279 364.567 88.4279C364.948 88.4279 365.03 89.2912 364.805 90.9332ZM334.72 94.6982C337.49 96.3628 339.553 97.9184 339.303 98.1548C339.054 98.3919 331.934 102.523 323.482 107.337C315.03 112.15 306.659 116.995 304.879 118.103C303.1 119.212 296.549 123.047 290.321 126.625C284.093 130.202 274.751 135.612 269.561 138.646C264.371 141.681 252.845 148.351 243.948 153.469C218.383 168.176 197.302 180.402 179.349 190.933L162.738 200.676L158.589 198.201C156.306 196.839 153.882 195.381 153.2 194.961C151.987 194.213 152.04 194.155 155.627 192.273C162.436 188.699 173.782 182.231 188.14 173.738C195.999 169.089 210.679 160.533 220.762 154.726C258.443 133.022 279.375 120.991 292.208 113.661C320.921 97.2602 324.382 95.2456 326.853 93.4887C328.263 92.4871 329.476 91.6686 329.549 91.6696C329.623 91.6707 331.949 93.0335 334.72 94.6982ZM340.563 100.343C340.37 101.065 340.206 103.843 340.198 106.516L340.184 111.375L334.664 114.586C331.628 116.352 318.346 124.028 305.149 131.642C266.476 153.956 210.867 186.307 190.566 198.303C184.932 201.632 176.863 206.354 172.638 208.796C168.412 211.237 164.954 213.581 164.954 214.004C164.954 214.427 165.079 214.773 165.233 214.773C165.61 214.773 181.365 205.669 193.262 198.577C206.823 190.492 240.985 170.555 263.09 157.826C273.322 151.934 288.366 143.226 296.522 138.475C304.677 133.723 316.809 126.681 323.482 122.826C330.155 118.97 336.629 115.12 337.868 114.27C340.395 112.538 340.736 112.435 340.738 113.4C340.739 114.116 345.008 117.045 346.051 117.045C346.482 117.045 346.668 119.084 346.668 123.794V130.543H344.74C341.95 130.543 339.659 132.942 339.659 135.865C339.659 137.609 339.432 138.101 338.494 138.4C337.854 138.603 335.136 140.102 332.455 141.729C329.774 143.357 322.715 147.496 316.77 150.927C300.074 160.56 207.088 214.848 188.949 225.552C161.956 241.48 161.998 241.459 158.38 241.481L155.249 241.5L155.249 236.01C155.248 232.99 155.107 230.151 154.934 229.699C154.706 229.104 155.826 228.177 159.006 226.326C161.42 224.921 163.642 223.308 163.946 222.741C164.285 222.106 164.43 217.776 164.321 211.491C164.224 205.871 164.299 201.274 164.487 201.274C164.676 201.275 168.315 199.243 172.576 196.758C176.836 194.275 191.362 185.803 204.856 177.934C218.349 170.064 236.184 159.737 244.488 154.985C258.324 147.066 271.041 139.7 294.095 126.252C298.84 123.483 310.487 116.73 319.977 111.243C329.467 105.757 338.061 100.764 339.073 100.149L340.914 99.0285L340.563 100.343ZM358.411 118.713L358.261 126.421L353.176 129.554C350.379 131.277 348.041 132.63 347.979 132.56C347.918 132.49 347.995 129.012 348.149 124.831L348.43 117.229L353.049 114.302C355.59 112.692 357.869 111.292 358.115 111.19C358.36 111.089 358.494 114.473 358.411 118.713ZM24.4891 122.231C25.0822 122.69 29.0578 125.164 33.3241 127.729C38.7685 131.003 40.8585 132.525 40.3338 132.834C35.5052 135.682 22.3409 142.962 22.02 142.962C21.7887 142.962 19.702 141.775 17.3828 140.325C15.0631 138.874 10.7737 136.299 7.85062 134.603L2.53561 131.519L4.27185 130.462C9.97672 126.988 21.0257 121.367 22.1203 121.381C22.8299 121.391 23.896 121.773 24.4891 122.231ZM362.448 124.199C363.565 124.84 364.404 125.59 364.312 125.864C364.115 126.457 353.735 133.023 350.2 134.791L347.726 136.028L345.348 134.522C344.04 133.694 343.088 132.824 343.234 132.589C343.743 131.765 345.558 132.175 346.129 133.243C346.998 134.868 348.22 134.583 353.178 131.6C358.913 128.148 360.053 127.058 360.255 124.831L360.418 123.032L362.448 124.199ZM364.572 136.961C364.436 144.248 364.274 145.657 363.493 146.32C362.988 146.749 359.906 148.64 356.644 150.521C353.381 152.401 350.167 154.292 349.499 154.723L348.286 155.504L348.288 146.668L348.29 137.832L353.006 135.159C355.6 133.689 359.204 131.562 361.016 130.434C362.827 129.306 364.404 128.383 364.521 128.383C364.637 128.382 364.66 132.242 364.572 136.961ZM3.45984 133.975C4.05298 134.39 7.81396 136.607 11.8176 138.902C15.8213 141.197 19.5219 143.451 20.0406 143.911C20.8694 144.647 20.9842 145.864 20.9842 153.902C20.9842 164.498 21.6593 163.913 14.5218 159.491C11.9966 157.926 8.51874 155.814 6.79269 154.798C1.86215 151.894 2.06485 152.453 2.23309 142.218C2.37921 133.343 2.39597 133.231 3.45984 133.975ZM344.377 135.749L346.668 137.132L346.704 143.422C346.724 146.88 346.797 150.986 346.866 152.545C346.935 154.105 346.792 155.38 346.549 155.38C346.305 155.38 345.177 154.765 344.041 154.012L341.977 152.644L341.627 146.909C341.162 139.302 341.183 134.318 341.681 134.344C341.903 134.355 343.116 134.987 344.377 135.749ZM41.3772 135.514C41.2537 136.368 40.5166 136.961 38.7782 137.607C34.3184 139.263 26.6702 143.947 26.2954 145.251C25.7508 147.146 25.7778 158.04 26.33 159.073C26.7263 159.815 26.4103 160.221 24.7123 161.152L22.6019 162.31V153.502V144.694L31.7523 139.508C36.7847 136.656 41.0483 134.323 41.2262 134.323C41.4036 134.323 41.4716 134.859 41.3772 135.514ZM340.198 145.391C340.198 148.806 339.978 151.601 339.709 151.601C339.44 151.601 336.71 153.095 333.643 154.92C323.956 160.687 228.886 216.198 218.947 221.892C213.717 224.888 201.553 232.006 191.914 237.71C167.443 252.193 164.954 253.649 164.668 253.649C164.528 253.649 164.415 251.621 164.415 249.143C164.415 245.343 164.248 244.486 163.35 243.673C162.311 242.731 162.478 242.599 170.495 238.034C175.01 235.463 188.046 227.871 199.463 221.162C228.471 204.118 294.769 165.417 317.012 152.544C327.243 146.622 336.519 141.193 337.625 140.48C338.731 139.766 339.762 139.182 339.917 139.182C340.071 139.182 340.198 141.976 340.198 145.391ZM39.0748 139.68C39.9057 140.488 59.0326 152.209 67.1488 156.884C71.2668 159.257 87.2534 168.756 102.675 177.994C118.096 187.232 131.072 194.997 131.51 195.249C132.127 195.604 131.762 196.047 129.893 197.214C128.565 198.043 126.421 199.426 125.129 200.289L122.779 201.857L115.693 197.711C88.4159 181.756 53.4485 160.827 36.445 150.279L27.9109 144.985L31.8051 142.869C33.9469 141.705 36.2035 140.4 36.8198 139.968C38.1328 139.046 38.3894 139.014 39.0748 139.68ZM36.891 152.506C41.9326 155.655 49.8186 160.458 54.4154 163.178C59.0121 165.899 73.8135 174.7 87.3073 182.737C100.801 190.774 114.208 198.732 117.099 200.423L122.356 203.498V209.405C122.356 212.655 122.165 215.313 121.931 215.313C121.697 215.313 113.386 210.43 103.463 204.46C93.539 198.491 80.9311 190.923 75.4446 187.641C49.6433 172.212 34.9471 163.404 31.4072 161.246L27.5405 158.89L27.3631 152.814C27.265 149.473 27.3065 146.748 27.4548 146.759C27.6031 146.77 31.8493 149.356 36.891 152.506ZM13.0309 160.39L17.2097 163.046V170V176.954L13.1236 174.47C10.8761 173.104 8.92688 171.699 8.79208 171.347C8.65781 170.996 8.61578 167.79 8.69989 164.222L8.85196 157.735L13.0309 160.39ZM34.4645 164.795C37.875 166.955 50.25 174.433 61.9643 181.414C73.6787 188.395 92.0588 199.404 102.81 205.878L122.356 217.649V219.756C122.356 222.777 123.038 223.705 127.241 226.403L130.983 228.805V235.867V242.928L129.563 241.81C128.781 241.194 127.867 240.69 127.531 240.69C126.306 240.69 122.895 243.452 122.895 244.443C122.895 245.229 113.759 239.98 82.3196 221.131C60.0027 207.751 38.3469 194.707 34.1949 192.142L26.6459 187.48L26.3763 183.989L26.1068 180.497L22.4848 178.332L18.8629 176.168L18.8452 170.187L18.8274 164.206L20.3749 164.434C21.8653 164.653 25.7842 162.716 26.6324 161.342C27.2277 160.377 28.0872 160.756 34.4645 164.795ZM7.06824 170.605C7.23215 172.848 7.29202 172.909 12.0872 175.71C16.7617 178.441 18.5351 179.08 18.9174 178.169C19.0161 177.933 20.2493 178.502 21.6577 179.434L24.2184 181.128L22.3958 182.11L20.5739 183.093L11.747 177.529C6.89246 174.468 2.80307 171.861 2.65909 171.734C2.39108 171.499 4.35492 169.805 5.98981 168.861C6.77759 168.406 6.92535 168.644 7.06824 170.605ZM11.3862 179.099L20.3916 184.807L20.418 193.817L20.445 202.827L14.6485 199.187C11.4601 197.186 7.45697 194.754 5.75198 193.783C3.87177 192.712 2.53775 191.554 2.36197 190.842C2.20291 190.195 2.14197 186.004 2.22717 181.528L2.38141 173.39L11.3862 179.099ZM24.8682 191.621C25.0143 200.193 24.9415 201.086 24.0248 201.95C23.4732 202.469 22.8057 202.895 22.542 202.895C22.2783 202.895 22.0627 198.806 22.0627 193.81C22.0627 184.863 22.0826 184.706 23.3853 183.481L24.7085 182.236L24.8682 191.621ZM27.7513 189.892C28.4086 190.529 53.3078 205.598 76.5231 219.409C86.458 225.32 100.867 233.939 108.543 238.563L122.498 246.971L122.394 252.593C122.337 255.685 122.244 258.247 122.188 258.286C122.132 258.325 115.414 254.357 107.258 249.468C99.1026 244.578 89.2754 238.747 85.42 236.509C79.3027 232.957 32.8641 204.653 28.1353 201.595L26.3898 200.465L26.3828 194.931C26.3769 189.64 26.6087 188.786 27.7513 189.892ZM153.223 196.826C158.189 199.718 162.253 202.21 162.255 202.362C162.257 202.514 157.972 205.173 152.733 208.27L143.207 213.902L139.926 212.088C132.903 208.205 124.457 202.737 124.879 202.346C126.471 200.87 142.202 191.557 143.095 191.561C143.699 191.564 148.257 193.933 153.223 196.826ZM162.797 213.351V222.187L153.674 227.659C148.655 230.669 144.409 233.131 144.237 233.131C144.065 233.131 143.925 229.256 143.925 224.52V215.908L145.677 214.595C146.641 213.873 150.463 211.53 154.17 209.389C157.877 207.248 161.141 205.276 161.422 205.006C161.703 204.735 162.128 204.515 162.366 204.515C162.603 204.515 162.797 208.491 162.797 213.351ZM133.274 210.164L142.304 215.583L142.306 224.659C142.306 231.764 142.16 233.652 141.633 233.354C141.262 233.144 137.26 230.686 132.739 227.892C127.07 224.39 124.428 222.445 124.227 221.628C124.066 220.976 124.004 216.911 124.089 212.594L124.243 204.746L133.274 210.164ZM153.51 237.528L153.361 245.165L148.777 248.016L144.194 250.865L143.857 247.263C143.343 241.774 143.331 235.291 143.836 235.291C144.083 235.291 146.283 234.076 148.725 232.591C151.166 231.106 153.275 229.892 153.412 229.892C153.548 229.892 153.593 233.328 153.51 237.528ZM137.236 232.585L141.601 235.283L141.966 242.925C142.166 247.128 142.212 250.685 142.066 250.83C141.921 250.976 140.144 250.091 138.117 248.864C132.009 245.169 132.55 246.3 132.72 237.579L132.871 229.887L137.236 232.585ZM129.027 243.345C129.867 243.896 130.832 244.905 131.173 245.587C131.825 246.894 141.421 253.109 142.785 253.109C144.081 253.109 154.709 246.579 154.709 245.783C154.709 244.765 156.872 242.85 158.021 242.85C159.271 242.85 161.719 243.98 161.719 244.557C161.719 244.806 161.498 245.01 161.228 245.01C160.582 245.01 146.82 252.892 144.695 254.479L143.038 255.717L137.415 252.248C134.323 250.34 130.281 247.869 128.434 246.759C126.586 245.649 125.143 244.518 125.228 244.246C125.312 243.975 125.858 243.435 126.441 243.048C127.341 242.449 127.734 242.495 129.027 243.345ZM162.734 251.624C162.699 254.668 162.517 258.711 162.329 260.609L161.988 264.059L153.091 269.376L144.194 274.694L144.041 265.926L143.888 257.158L145.389 255.951C146.955 254.69 161.832 246.09 162.445 246.09C162.639 246.09 162.768 248.58 162.734 251.624ZM132.777 251.182C137.174 253.942 141.123 256.551 141.553 256.982C142.185 257.615 142.306 259.448 142.186 266.552L142.037 275.339L134.758 270.931C130.754 268.506 126.69 265.922 125.726 265.188L123.974 263.853L124.027 257.806C124.056 254.48 124.238 250.5 124.432 248.963L124.783 246.166L132.777 251.182Z" fill="url(#paint0_linear_408_802)"/>
</g>
<defs>
<linearGradient id="paint0_linear_408_802" x1="183.323" y1="1.00488" x2="183.323" y2="276.321" gradientUnits="userSpaceOnUse">
<stop stop-color="#3F6075" stop-opacity="0"/>
<stop offset="1" stop-color="#3F6075"/>
</linearGradient>
</defs>
</svg>
