<svg width="444" height="267" viewBox="0 0 444 267" fill="none" xmlns="http://www.w3.org/2000/svg">
<path opacity="0.59" fill-rule="evenodd" clip-rule="evenodd" d="M165.128 2.01372C163.331 3.12167 157.272 6.77415 151.662 10.1308C146.052 13.488 135.496 19.8119 128.203 24.1848C120.91 28.5578 111.845 33.9562 108.059 36.1812C104.272 38.4058 95.2074 43.8443 87.9148 48.2664C80.6221 52.6886 71.9015 57.9359 68.5357 59.927C44.3648 74.2256 3.93639 99.4702 2.56302 101.122C-0.119963 104.35 -0.0980344 103.9 0.0559785 152.3L0.198771 197.125L1.39874 199.939C2.05814 201.487 3.32034 203.534 4.20362 204.487C6.46332 206.928 19.2071 214.838 20.3342 214.499C20.9028 214.329 23.5914 215.657 27.7951 218.184C35.4912 222.812 59.6794 237.409 73.8904 246.002C79.3599 249.31 89.3427 255.373 96.0744 259.476C102.806 263.579 116.92 272.157 127.438 278.538C155.019 295.27 183.512 312.762 193.225 318.927C197.853 321.864 201.965 324.27 202.363 324.273C203.39 324.281 207.653 321.936 216.074 316.727C220.088 314.246 223.477 312.215 223.606 312.215C223.735 312.215 226.235 313.637 229.161 315.375L234.482 318.536L234.635 321.045L234.788 323.555L243.395 328.743C248.13 331.596 252.174 333.93 252.382 333.93C252.591 333.93 255.086 332.495 257.927 330.74L263.092 327.55V325.248V322.947L276.734 314.405C284.236 309.707 303.112 297.976 318.679 288.335C334.246 278.695 355.474 265.493 365.852 258.998C376.23 252.502 394.884 240.945 407.306 233.316C428.488 220.306 429.947 219.494 430.805 220.228C431.308 220.659 432.078 221.012 432.516 221.012C433.67 221.012 442.434 215.458 443.078 214.318C443.398 213.753 443.624 210.267 443.624 205.893V198.431L436.101 193.863C431.964 191.351 428.298 189.147 427.953 188.966C427.609 188.785 426.068 189.399 424.529 190.33C422.991 191.261 421.601 191.823 421.441 191.577C421.169 191.161 395.353 175.536 380.004 166.497L373.247 162.518V144.974C373.247 129.009 373.161 127.223 372.297 125.121C371.774 123.85 371.189 121.994 370.997 120.995C370.673 119.307 370.169 118.874 363.915 114.915C355.761 109.753 354.335 109.033 352.951 109.375C352.185 109.565 349.792 108.405 344.586 105.322C340.575 102.947 334.884 99.5894 331.939 97.8604C328.994 96.1314 308.569 84.0799 286.551 71.0789C235.769 41.0946 210.625 26.3211 201.843 21.3073C191.507 15.4076 187.983 12.9943 187.092 11.2089C186.661 10.346 185.153 8.9032 183.74 8.00323C177.751 4.18668 170.218 0 169.341 0C168.82 0 166.924 0.906246 165.128 2.01372ZM162.24 4.94622C158.549 7.13559 155.52 9.0359 155.511 9.1686C155.502 9.30131 158.878 11.4849 163.013 14.0207L170.531 18.6316L177.781 14.5033C181.769 12.2328 185.035 10.2664 185.039 10.1337C185.05 9.79062 170.038 0.965116 169.444 0.965116C169.174 0.965116 165.932 2.75685 162.24 4.94622ZM138.353 19.3583C129.965 24.4314 119.546 30.6579 115.199 33.1942C110.851 35.731 102.819 40.5098 97.3493 43.8134C91.8798 47.117 83.5489 52.1283 78.8367 54.9494C56.7215 68.1879 16.6685 92.7288 16.8934 92.9025C17.9077 93.6877 32.081 101.82 32.4349 101.82C32.7026 101.82 35.0827 100.456 37.7239 98.7898C40.3656 97.123 46.4282 93.3977 51.1964 90.511C55.9647 87.6243 67.8982 80.3314 77.7152 74.3048C87.5323 68.2776 105.891 57.2029 118.513 49.6938C137.921 38.1477 149.103 31.4546 166.644 20.8875L169.386 19.2357L162.054 14.6963C158.021 12.1996 154.47 10.1516 154.162 10.1453C153.854 10.139 146.74 14.2847 138.353 19.3583ZM182.388 13.0392C181.055 13.8306 179.966 14.567 179.966 14.6751C179.966 14.7832 182.892 16.5985 186.468 18.7083C192.908 22.5084 220.621 38.8126 237.338 48.6361C242.106 51.4383 250.827 56.593 256.717 60.091C276.004 71.545 327.396 101.879 336.986 107.469C342.536 110.704 346.703 112.836 347.186 112.688C347.635 112.55 348.666 111.934 349.477 111.318L350.952 110.198L330.098 97.9559C318.629 91.2228 302.245 81.562 293.69 76.4874C285.136 71.4133 268.612 61.6516 256.972 54.7949C245.332 47.9383 231.284 39.646 225.754 36.3675C220.225 33.0885 211.275 27.8721 205.865 24.7745C194.455 18.2407 187.764 14.0613 186.389 12.6083C185.854 12.0432 185.281 11.5857 185.114 11.5906C184.947 11.5954 183.721 12.2473 182.388 13.0392ZM169.256 20.6805C164.348 23.5566 150.808 31.6206 139.167 38.6008C127.527 45.581 112.61 54.4856 106.019 58.3885C99.4275 62.291 81.2978 73.3088 65.7308 82.8721C30.6551 104.42 27.5631 106.345 27.5366 106.645C27.5162 106.876 39.3257 113.931 62.4159 127.483C79.7521 137.657 94.5848 146.465 110.354 155.946C118.488 160.837 127.323 166.119 129.988 167.682C132.652 169.246 143.324 175.652 153.702 181.917C164.08 188.181 174.225 194.274 176.246 195.457C178.267 196.64 183.156 199.604 187.109 202.045L194.298 206.483L197.969 204.256C199.988 203.03 203.131 201.122 204.954 200.014C213.513 194.813 242.052 177.177 252.126 170.865C258.303 166.995 273.517 157.64 285.937 150.076C298.357 142.511 313.616 133.215 319.846 129.417C326.076 125.619 334.329 120.628 338.186 118.326C342.042 116.024 345.198 113.989 345.198 113.804C345.198 113.618 342.501 111.89 339.206 109.964C335.91 108.038 324.722 101.432 314.344 95.2849C296.552 84.7464 235.511 48.7205 212.604 35.2388C206.854 31.8546 196.937 26.0161 190.565 22.2638C184.193 18.5119 178.8 15.4443 178.58 15.4472C178.361 15.4496 174.165 17.8049 169.256 20.6805ZM180.476 26.8756C179.653 27.1535 178.436 28.4285 178.436 29.0114C178.436 29.8843 180.182 30.8837 181.708 30.8837C184.889 30.8837 185.979 27.9942 183.178 26.9861C181.826 26.5002 181.612 26.491 180.476 26.8756ZM180.072 28.3146C179.065 28.6968 180.344 29.9186 181.75 29.9186C182.967 29.9186 184.268 28.8425 183.701 28.3059C183.315 27.9401 181.044 27.9459 180.072 28.3146ZM176.906 50.9099C176.906 51.3524 177.153 51.6361 177.454 51.5411C177.755 51.446 178.002 51.1618 178.002 50.9099C178.002 50.658 177.755 50.3737 177.454 50.2787C177.153 50.1836 176.906 50.4674 176.906 50.9099ZM180.829 52.4246C180.422 52.8102 180.882 53.5639 181.526 53.5639C181.79 53.5639 182.005 53.2382 182.005 52.8401C182.005 52.0941 181.404 51.8813 180.829 52.4246ZM172.55 53.1137C172.365 53.3965 172.336 53.7439 172.486 53.8858C172.851 54.2313 173.846 53.6223 173.846 53.0529C173.846 52.4362 172.966 52.4772 172.55 53.1137ZM184.386 54.3684C183.799 54.9233 184.014 55.4942 184.81 55.4942C185.231 55.4942 185.575 55.1684 185.575 54.7703C185.575 54.0166 184.972 53.8129 184.386 54.3684ZM176.396 55.2529C176.396 55.6954 176.643 55.9791 176.944 55.8841C177.245 55.789 177.492 55.5048 177.492 55.2529C177.492 55.001 177.245 54.7168 176.944 54.6217C176.643 54.5266 176.396 54.8104 176.396 55.2529ZM168.513 55.4609C168.136 56.0385 169.095 56.6103 169.774 56.2132C170.345 55.8797 169.97 55.0116 169.256 55.0116C169.009 55.0116 168.674 55.2138 168.513 55.4609ZM188.125 56.9418C188.125 57.2073 188.355 57.4244 188.635 57.4244C188.916 57.4244 189.145 57.2073 189.145 56.9418C189.145 56.6764 188.916 56.4593 188.635 56.4593C188.355 56.4593 188.125 56.6764 188.125 56.9418ZM164.482 57.2767C163.908 57.8201 164.133 58.3895 164.921 58.3895C165.342 58.3895 165.686 58.1854 165.686 57.9354C165.686 57.3269 164.89 56.8912 164.482 57.2767ZM172.656 57.2637C172.069 57.8187 172.284 58.3895 173.081 58.3895C173.502 58.3895 173.846 58.0638 173.846 57.6657C173.846 56.9119 173.243 56.7083 172.656 57.2637ZM179.966 57.6657C179.966 58.1082 180.212 58.3919 180.514 58.2969C180.815 58.2018 181.062 57.9176 181.062 57.6657C181.062 57.4138 180.815 57.1296 180.514 57.0345C180.212 56.9394 179.966 57.2232 179.966 57.6657ZM190.952 58.8388C190.604 59.372 191.408 59.9482 191.879 59.5023C192.364 59.0434 192.273 58.3895 191.725 58.3895C191.461 58.3895 191.113 58.5917 190.952 58.8388ZM168.313 59.8131C168.532 60.4351 169.231 60.547 169.294 59.9699C169.315 59.7774 169.057 59.5332 168.721 59.427C168.384 59.3209 168.2 59.4946 168.313 59.8131ZM175.493 59.9279C175.808 60.8226 176.906 60.9707 176.906 60.1185C176.906 59.6982 176.543 59.3546 176.098 59.3546C175.654 59.3546 175.381 59.6123 175.493 59.9279ZM183.535 59.8372C183.535 60.1026 183.88 60.3198 184.3 60.3198C184.721 60.3198 185.065 60.1026 185.065 59.8372C185.065 59.5718 184.721 59.3546 184.3 59.3546C183.88 59.3546 183.535 59.5718 183.535 59.8372ZM160.374 60.2551C160.154 60.5914 160.112 60.9968 160.28 61.156C160.737 61.5879 161.235 60.9529 160.988 60.2532C160.815 59.7629 160.695 59.7629 160.374 60.2551ZM194.484 60.8264C194 61.5686 194.663 62.0473 195.318 61.4277C195.684 61.0812 195.693 60.8115 195.344 60.6078C195.059 60.4409 194.672 60.5393 194.484 60.8264ZM187.431 61.1372C186.857 61.6806 187.082 62.25 187.87 62.25C188.291 62.25 188.635 62.0459 188.635 61.7959C188.635 61.1874 187.839 60.7516 187.431 61.1372ZM179.781 61.6198C179.207 62.1631 179.432 62.7325 180.221 62.7325C180.641 62.7325 180.986 62.5284 180.986 62.2785C180.986 61.6699 180.189 61.2342 179.781 61.6198ZM171.806 62.4913C171.806 62.9338 172.053 63.2175 172.354 63.1225C172.656 63.0274 172.902 62.7432 172.902 62.4913C172.902 62.2394 172.656 61.9551 172.354 61.8601C172.053 61.765 171.806 62.0488 171.806 62.4913ZM156.095 62.7687C156.195 63.0539 156.495 63.2875 156.762 63.2875C157.028 63.2875 157.328 63.0539 157.429 62.7687C157.529 62.4835 157.229 62.25 156.762 62.25C156.294 62.25 155.994 62.4835 156.095 62.7687ZM164.156 62.7325C164.156 62.9979 164.372 63.2151 164.636 63.2151C164.9 63.2151 165.258 62.9979 165.431 62.7325C165.605 62.4671 165.388 62.25 164.951 62.25C164.514 62.25 164.156 62.4671 164.156 62.7325ZM198.049 62.7649C197.58 63.4834 198.124 63.8738 199.1 63.5196C199.551 63.356 199.777 63.0033 199.602 62.7359C199.189 62.1033 198.472 62.1163 198.049 62.7649ZM183.025 64.4215C183.025 64.864 183.272 65.1478 183.574 65.0527C183.875 64.9576 184.122 64.6734 184.122 64.4215C184.122 64.1696 183.875 63.8854 183.574 63.7903C183.272 63.6952 183.025 63.979 183.025 64.4215ZM190.675 64.1802C190.675 64.4456 190.891 64.6628 191.155 64.6628C191.419 64.6628 191.777 64.4456 191.95 64.1802C192.123 63.9148 191.907 63.6977 191.47 63.6977C191.033 63.6977 190.675 63.9148 190.675 64.1802ZM160.076 64.9041C160.076 65.3466 160.323 65.6303 160.625 65.5352C160.926 65.4402 161.173 65.1559 161.173 64.9041C161.173 64.6522 160.926 64.3679 160.625 64.2729C160.323 64.1778 160.076 64.4615 160.076 64.9041ZM167.726 64.6628C167.726 64.9282 168.07 65.1453 168.491 65.1453C168.912 65.1453 169.256 64.9282 169.256 64.6628C169.256 64.3974 168.912 64.1802 168.491 64.1802C168.07 64.1802 167.726 64.3974 167.726 64.6628ZM175.376 64.6628C175.376 64.9282 175.605 65.1453 175.886 65.1453C176.166 65.1453 176.396 64.9282 176.396 64.6628C176.396 64.3974 176.166 64.1802 175.886 64.1802C175.605 64.1802 175.376 64.3974 175.376 64.6628ZM152.194 65.112C151.845 65.6453 152.65 66.2214 153.121 65.7756C153.605 65.3166 153.515 64.6628 152.967 64.6628C152.703 64.6628 152.355 64.865 152.194 65.112ZM202.235 64.9846C201.648 65.5396 201.863 66.1105 202.66 66.1105C203.08 66.1105 203.424 65.7847 203.424 65.3866C203.424 64.6329 202.821 64.4292 202.235 64.9846ZM186.439 65.9362C186.032 66.3218 186.492 67.0756 187.135 67.0756C187.399 67.0756 187.615 66.7498 187.615 66.3517C187.615 65.6057 187.013 65.3929 186.439 65.9362ZM193.833 66.1466C193.933 66.4318 194.234 66.6654 194.5 66.6654C194.766 66.6654 195.066 66.4318 195.167 66.1466C195.267 65.8615 194.968 65.6279 194.5 65.6279C194.032 65.6279 193.732 65.8615 193.833 66.1466ZM171.14 66.4188C170.732 66.8044 171.193 67.5581 171.836 67.5581C172.1 67.5581 172.316 67.2324 172.316 66.8343C172.316 66.0882 171.714 65.8755 171.14 66.4188ZM178.534 66.6292C178.634 66.9144 178.934 67.1479 179.201 67.1479C179.467 67.1479 179.767 66.9144 179.868 66.6292C179.968 66.344 179.668 66.1105 179.201 66.1105C178.733 66.1105 178.433 66.344 178.534 66.6292ZM148.076 67.0997C147.592 67.8419 148.255 68.3206 148.91 67.701C149.276 67.3545 149.285 67.0847 148.937 66.8811C148.651 66.7141 148.264 66.8126 148.076 67.0997ZM155.813 66.9279C155.238 67.4713 155.463 68.0407 156.252 68.0407C156.672 68.0407 157.017 67.8365 157.017 67.5866C157.017 66.9781 156.22 66.5423 155.813 66.9279ZM163.391 67.0756C163.218 67.341 163.434 67.5581 163.871 67.5581C164.308 67.5581 164.666 67.341 164.666 67.0756C164.666 66.8102 164.451 66.593 164.186 66.593C163.922 66.593 163.565 66.8102 163.391 67.0756ZM205.974 67.8395C205.974 68.2598 206.247 68.5179 206.58 68.4127C207.526 68.1145 207.682 67.0756 206.782 67.0756C206.337 67.0756 205.974 67.4191 205.974 67.8395ZM197.659 67.8665C197.251 68.252 197.712 69.0058 198.355 69.0058C198.619 69.0058 198.835 68.6801 198.835 68.282C198.835 67.5359 198.233 67.3231 197.659 67.8665ZM167.06 68.349C166.653 68.7346 167.113 69.4884 167.756 69.4884C168.02 69.4884 168.236 69.1626 168.236 68.7645C168.236 68.0185 167.634 67.8057 167.06 68.349ZM174.454 68.5594C174.554 68.8446 174.855 69.0782 175.121 69.0782C175.387 69.0782 175.687 68.8446 175.788 68.5594C175.888 68.2742 175.588 68.0407 175.121 68.0407C174.653 68.0407 174.353 68.2742 174.454 68.5594ZM182.282 68.4899C181.934 69.0232 182.738 69.5993 183.21 69.1535C183.694 68.6945 183.604 68.0407 183.056 68.0407C182.791 68.0407 182.444 68.2429 182.282 68.4899ZM189.91 68.5232C189.737 68.7886 189.953 69.0058 190.39 69.0058C190.827 69.0058 191.185 68.7886 191.185 68.5232C191.185 68.2578 190.969 68.0407 190.705 68.0407C190.441 68.0407 190.084 68.2578 189.91 68.5232ZM144.083 69.3407C143.509 69.884 143.734 70.4535 144.522 70.4535C144.943 70.4535 145.287 70.2493 145.287 69.9994C145.287 69.3909 144.491 68.9551 144.083 69.3407ZM151.505 69.5246C151.605 69.8097 151.906 70.0433 152.172 70.0433C152.438 70.0433 152.738 69.8097 152.839 69.5246C152.939 69.2394 152.639 69.0058 152.172 69.0058C151.704 69.0058 151.404 69.2394 151.505 69.5246ZM159.057 69.4884C159.057 69.7538 159.401 69.9709 159.821 69.9709C160.242 69.9709 160.586 69.7538 160.586 69.4884C160.586 69.223 160.242 69.0058 159.821 69.0058C159.401 69.0058 159.057 69.223 159.057 69.4884ZM201.661 69.9376C201.284 70.5152 202.243 71.0871 202.923 70.6899C203.493 70.3565 203.119 69.4884 202.405 69.4884C202.157 69.4884 201.823 69.6905 201.661 69.9376ZM209.821 69.9376C209.473 70.4708 210.277 71.047 210.748 70.6011C211.233 70.1422 211.142 69.4884 210.594 69.4884C210.33 69.4884 209.982 69.6905 209.821 69.9376ZM170.63 70.2793C170.222 70.6648 170.683 71.4186 171.326 71.4186C171.59 71.4186 171.806 71.0929 171.806 70.6947C171.806 69.9487 171.204 69.7359 170.63 70.2793ZM178.037 70.5278C178.301 71.2796 179.442 71.4109 179.483 70.6947C179.497 70.4293 179.127 70.1374 178.659 70.0452C178.127 69.9415 177.894 70.1219 178.037 70.5278ZM186.158 70.4086C185.645 70.7102 185.621 70.9056 186.065 71.1652C186.765 71.5745 187.29 71.2121 187.031 70.4993C186.925 70.2069 186.565 70.1697 186.158 70.4086ZM193.735 70.7348C193.735 71.1551 194.007 71.4133 194.341 71.3081C195.286 71.0099 195.443 69.9709 194.542 69.9709C194.098 69.9709 193.735 70.3145 193.735 70.7348ZM162.952 70.7884C162.378 71.3317 162.603 71.9011 163.391 71.9011C163.812 71.9011 164.156 71.697 164.156 71.4471C164.156 70.8385 163.36 70.4028 162.952 70.7884ZM155.317 71.2579C154.73 71.8128 154.945 72.3837 155.742 72.3837C156.162 72.3837 156.507 72.058 156.507 71.6599C156.507 70.9061 155.903 70.7025 155.317 71.2579ZM140.003 71.7535C139.429 72.2968 139.654 72.8663 140.442 72.8663C140.863 72.8663 141.207 72.6621 141.207 72.4122C141.207 71.8037 140.411 71.3679 140.003 71.7535ZM147.425 71.9373C147.525 72.2225 147.826 72.4561 148.092 72.4561C148.358 72.4561 148.659 72.2225 148.759 71.9373C148.86 71.6521 148.56 71.4186 148.092 71.4186C147.624 71.4186 147.324 71.6521 147.425 71.9373ZM213.391 71.8678C213.014 72.4455 213.973 73.0173 214.652 72.6201C215.223 72.2867 214.848 71.4186 214.134 71.4186C213.887 71.4186 213.552 71.6208 213.391 71.8678ZM197.568 72.3716C197.156 73.0023 198.329 73.5375 198.913 72.985C199.24 72.6761 199.142 72.4131 198.63 72.2273C198.2 72.071 197.721 72.1362 197.568 72.3716ZM205.464 72.665C205.464 73.0854 205.737 73.3435 206.07 73.2383C207.016 72.9401 207.172 71.9011 206.272 71.9011C205.828 71.9011 205.464 72.2447 205.464 72.665ZM166.522 72.7186C165.948 73.262 166.173 73.8314 166.961 73.8314C167.382 73.8314 167.726 73.6272 167.726 73.3773C167.726 72.7688 166.93 72.333 166.522 72.7186ZM173.942 72.8967C174.064 73.2446 174.466 73.6248 174.834 73.7411C175.217 73.8618 175.408 73.6808 175.28 73.3189C175.158 72.9705 174.756 72.5902 174.388 72.4744C174.005 72.3538 173.814 72.5347 173.942 72.8967ZM181.73 72.8986C181.26 73.6171 181.805 74.0075 182.781 73.6533C183.231 73.4897 183.457 73.137 183.282 72.8696C182.869 72.237 182.153 72.25 181.73 72.8986ZM189.753 72.9025C189.853 73.1877 190.154 73.4212 190.42 73.4212C190.686 73.4212 190.987 73.1877 191.087 72.9025C191.188 72.6173 190.888 72.3837 190.42 72.3837C189.952 72.3837 189.653 72.6173 189.753 72.9025ZM158.663 73.4395C158.979 74.3342 160.076 74.4823 160.076 73.6301C160.076 73.2098 159.713 72.8663 159.269 72.8663C158.825 72.8663 158.552 73.1239 158.663 73.4395ZM150.973 73.8073C151.193 74.4293 151.892 74.5412 151.955 73.9641C151.976 73.7715 151.718 73.5274 151.381 73.4212C151.045 73.315 150.861 73.4888 150.973 73.8073ZM217.449 73.8314C217.245 74.1431 217.308 74.6151 217.589 74.8805C217.929 75.2023 218.222 75.1743 218.469 74.7965C218.672 74.4848 218.61 74.0128 218.329 73.7474C217.989 73.4255 217.696 73.4535 217.449 73.8314ZM135.874 74.2806C135.526 74.8139 136.33 75.39 136.802 74.9442C137.286 74.4852 137.196 73.8314 136.648 73.8314C136.383 73.8314 136.036 74.0336 135.874 74.2806ZM143.247 74.3139C143.247 74.5793 143.591 74.7965 144.012 74.7965C144.433 74.7965 144.777 74.5793 144.777 74.3139C144.777 74.0485 144.433 73.8314 144.012 73.8314C143.591 73.8314 143.247 74.0485 143.247 74.3139ZM185.814 74.8206C185.33 75.5628 185.993 76.0415 186.648 75.4219C187.014 75.0754 187.023 74.8056 186.675 74.602C186.389 74.4351 186.002 74.5335 185.814 74.8206ZM193.502 74.7632C193.124 75.3408 194.084 75.9126 194.763 75.5155C195.334 75.182 194.959 74.3139 194.245 74.3139C193.998 74.3139 193.663 74.5161 193.502 74.7632ZM201.385 75.0778C201.385 75.4981 201.657 75.7563 201.99 75.6511C202.936 75.3529 203.092 74.3139 202.192 74.3139C201.748 74.3139 201.385 74.6575 201.385 75.0778ZM209.388 74.6223C208.981 75.0079 209.441 75.7616 210.084 75.7616C210.348 75.7616 210.564 75.4359 210.564 75.0378C210.564 74.2917 209.962 74.0789 209.388 74.6223ZM170.043 75.2458C169.695 75.779 170.499 76.3552 170.97 75.9093C171.455 75.4504 171.364 74.7965 170.816 74.7965C170.552 74.7965 170.204 74.9987 170.043 75.2458ZM177.514 75.3152C177.614 75.6004 177.914 75.834 178.181 75.834C178.447 75.834 178.747 75.6004 178.848 75.3152C178.948 75.0301 178.648 74.7965 178.181 74.7965C177.713 74.7965 177.413 75.0301 177.514 75.3152ZM154.467 76.0029C154.467 76.4454 154.714 76.7291 155.015 76.6341C155.316 76.539 155.563 76.2548 155.563 76.0029C155.563 75.751 155.316 75.4668 155.015 75.3717C154.714 75.2766 154.467 75.5604 154.467 76.0029ZM162.116 75.7616C162.116 76.027 162.346 76.2442 162.626 76.2442C162.907 76.2442 163.136 76.027 163.136 75.7616C163.136 75.4962 162.907 75.2791 162.626 75.2791C162.346 75.2791 162.116 75.4962 162.116 75.7616ZM139.472 76.1689C139.295 76.4391 139.399 76.8054 139.703 76.983C140.487 77.4414 140.993 76.8136 140.338 76.194C139.972 75.8475 139.687 75.8393 139.472 76.1689ZM146.584 76.2109C146.422 76.4579 146.524 76.7962 146.809 76.9632C147.417 77.3188 148.347 76.8671 148.347 76.2157C148.347 75.6284 146.967 75.6246 146.584 76.2109ZM221.513 76.2683C221.028 77.0105 221.692 77.4892 222.347 76.8696C222.713 76.5231 222.721 76.2533 222.373 76.0497C222.088 75.8827 221.701 75.9812 221.513 76.2683ZM131.795 76.6934C131.446 77.2267 132.251 77.8028 132.722 77.3569C133.206 76.898 133.116 76.2442 132.568 76.2442C132.304 76.2442 131.956 76.4464 131.795 76.6934ZM213.353 76.7508C212.869 77.493 213.532 77.9717 214.187 77.3521C214.553 77.0056 214.562 76.7359 214.214 76.5322C213.928 76.3653 213.541 76.4637 213.353 76.7508ZM166.012 77.0616C165.438 77.605 165.663 78.1744 166.451 78.1744C166.872 78.1744 167.216 77.9703 167.216 77.7203C167.216 77.1118 166.42 76.6761 166.012 77.0616ZM189.499 77.0351C189.092 77.4206 189.552 78.1744 190.195 78.1744C190.459 78.1744 190.675 77.8487 190.675 77.4506C190.675 76.7045 190.073 76.4917 189.499 77.0351ZM197.305 77.4506C197.305 77.8487 197.534 78.1744 197.815 78.1744C198.095 78.1744 198.325 77.8487 198.325 77.4506C198.325 77.0525 198.095 76.7267 197.815 76.7267C197.534 76.7267 197.305 77.0525 197.305 77.4506ZM205.052 77.2455C205.153 77.5307 205.453 77.7642 205.719 77.7642C205.986 77.7642 206.286 77.5307 206.386 77.2455C206.487 76.9603 206.187 76.7267 205.719 76.7267C205.252 76.7267 204.952 76.9603 205.052 77.2455ZM158.037 77.9331C158.037 78.3756 158.283 78.6594 158.585 78.5643C158.886 78.4692 159.133 78.185 159.133 77.9331C159.133 77.6812 158.886 77.397 158.585 77.3019C158.283 77.2069 158.037 77.4906 158.037 77.9331ZM173.591 77.6918C173.417 77.9572 173.748 78.1744 174.326 78.1744C174.903 78.1744 175.376 77.9572 175.376 77.6918C175.376 77.4264 175.045 77.2093 174.641 77.2093C174.236 77.2093 173.764 77.4264 173.591 77.6918ZM181.495 77.6918C181.495 77.9572 181.84 78.1744 182.26 78.1744C182.681 78.1744 183.025 77.9572 183.025 77.6918C183.025 77.4264 182.681 77.2093 182.26 77.2093C181.84 77.2093 181.495 77.4264 181.495 77.6918ZM150.485 78.2106C150.585 78.4958 150.886 78.7293 151.152 78.7293C151.418 78.7293 151.718 78.4958 151.819 78.2106C151.919 77.9254 151.62 77.6918 151.152 77.6918C150.684 77.6918 150.384 77.9254 150.485 78.2106ZM143.324 78.6328C143.436 78.9513 143.694 79.1955 143.897 79.1757C144.507 79.1159 144.389 78.4543 143.732 78.2468C143.395 78.1406 143.212 78.3143 143.324 78.6328ZM224.941 78.6932C225.042 78.9783 225.342 79.2119 225.608 79.2119C225.875 79.2119 226.175 78.9783 226.276 78.6932C226.376 78.408 226.076 78.1744 225.608 78.1744C225.141 78.1744 224.841 78.408 224.941 78.6932ZM127.948 79.1395C127.948 79.4049 128.177 79.6221 128.458 79.6221C128.738 79.6221 128.968 79.4049 128.968 79.1395C128.968 78.8741 128.738 78.657 128.458 78.657C128.177 78.657 127.948 78.8741 127.948 79.1395ZM135.088 79.1395C135.088 79.4049 135.432 79.6221 135.853 79.6221C136.273 79.6221 136.618 79.4049 136.618 79.1395C136.618 78.8741 136.273 78.657 135.853 78.657C135.432 78.657 135.088 78.8741 135.088 79.1395ZM185.391 78.9919C184.817 79.5352 185.042 80.1046 185.83 80.1046C186.251 80.1046 186.595 79.9005 186.595 79.6505C186.595 79.042 185.799 78.6063 185.391 78.9919ZM193.551 78.9919C192.977 79.5352 193.202 80.1046 193.99 80.1046C194.411 80.1046 194.755 79.9005 194.755 79.6505C194.755 79.042 193.958 78.6063 193.551 78.9919ZM201.2 78.9919C200.626 79.5352 200.851 80.1046 201.64 80.1046C202.06 80.1046 202.405 79.9005 202.405 79.6505C202.405 79.042 201.608 78.6063 201.2 78.9919ZM209.034 79.3808C209.034 79.8233 209.281 80.107 209.582 80.012C209.884 79.9169 210.131 79.6327 210.131 79.3808C210.131 79.1289 209.884 78.8447 209.582 78.7496C209.281 78.6545 209.034 78.9383 209.034 79.3808ZM216.782 79.1757C216.882 79.4609 217.183 79.6945 217.449 79.6945C217.715 79.6945 218.015 79.4609 218.116 79.1757C218.216 78.8905 217.917 78.657 217.449 78.657C216.981 78.657 216.681 78.8905 216.782 79.1757ZM161.932 79.4744C161.358 80.0178 161.583 80.5872 162.371 80.5872C162.792 80.5872 163.136 80.3831 163.136 80.1331C163.136 79.5246 162.34 79.0888 161.932 79.4744ZM169.533 79.5888C169.156 80.1664 170.115 80.7382 170.794 80.3411C171.365 80.0076 170.99 79.1395 170.276 79.1395C170.029 79.1395 169.694 79.3417 169.533 79.5888ZM177.756 79.4614C177.169 80.0163 177.384 80.5872 178.181 80.5872C178.601 80.5872 178.946 80.2615 178.946 79.8633C178.946 79.1096 178.342 78.906 177.756 79.4614ZM154.234 80.0713C153.885 80.6046 154.69 81.1807 155.161 80.7348C155.645 80.2759 155.555 79.6221 155.007 79.6221C154.743 79.6221 154.395 79.8243 154.234 80.0713ZM138.897 80.6113C138.412 81.3535 139.076 81.8322 139.73 81.2126C140.097 80.8661 140.105 80.5963 139.757 80.3927C139.471 80.2257 139.084 80.3242 138.897 80.6113ZM146.612 80.5119C146.435 80.7821 146.539 81.1484 146.843 81.326C147.627 81.7844 148.133 81.1566 147.478 80.537C147.112 80.1905 146.827 80.1823 146.612 80.5119ZM131.594 81.0456C131.706 81.3641 131.965 81.6083 132.168 81.5885C132.778 81.5287 132.66 80.8671 132.002 80.6596C131.666 80.5534 131.482 80.7271 131.594 81.0456ZM228.923 81.0697C228.923 81.3352 229.153 81.5523 229.433 81.5523C229.714 81.5523 229.943 81.3352 229.943 81.0697C229.943 80.8043 229.714 80.5872 229.433 80.5872C229.153 80.5872 228.923 80.8043 228.923 81.0697ZM123.712 81.3781C123.305 81.7637 123.765 82.5174 124.408 82.5174C124.672 82.5174 124.888 82.1917 124.888 81.7936C124.888 81.0476 124.286 80.8347 123.712 81.3781ZM189.485 81.3916C188.898 81.9465 189.114 82.5174 189.91 82.5174C190.331 82.5174 190.675 82.1917 190.675 81.7936C190.675 81.0398 190.072 80.8362 189.485 81.3916ZM197.149 81.3781C196.741 81.7637 197.202 82.5174 197.845 82.5174C198.109 82.5174 198.325 82.1917 198.325 81.7936C198.325 81.0476 197.723 80.8347 197.149 81.3781ZM205.052 81.5885C205.153 81.8737 205.453 82.1072 205.719 82.1072C205.986 82.1072 206.286 81.8737 206.386 81.5885C206.487 81.3033 206.187 81.0697 205.719 81.0697C205.252 81.0697 204.952 81.3033 205.052 81.5885ZM212.702 81.5885C212.802 81.8737 213.103 82.1072 213.369 82.1072C213.635 82.1072 213.936 81.8737 214.036 81.5885C214.137 81.3033 213.837 81.0697 213.369 81.0697C212.901 81.0697 212.602 81.3033 212.702 81.5885ZM220.764 81.8221C220.764 82.2356 220.993 82.4402 221.274 82.2761C221.554 82.1121 221.784 81.7738 221.784 81.5238C221.784 81.2739 221.554 81.0697 221.274 81.0697C220.993 81.0697 220.764 81.4085 220.764 81.8221ZM165.686 82.0349C165.686 82.3003 166.044 82.5174 166.481 82.5174C166.918 82.5174 167.135 82.3003 166.961 82.0349C166.788 81.7695 166.43 81.5523 166.166 81.5523C165.902 81.5523 165.686 81.7695 165.686 82.0349ZM173.453 82.1256C173.768 83.0202 174.866 83.1684 174.866 82.3162C174.866 81.8959 174.503 81.5523 174.059 81.5523C173.614 81.5523 173.341 81.81 173.453 82.1256ZM181.593 82.0711C181.694 82.3563 181.994 82.5898 182.26 82.5898C182.527 82.5898 182.827 82.3563 182.928 82.0711C183.028 81.7859 182.728 81.5523 182.26 81.5523C181.793 81.5523 181.493 81.7859 181.593 82.0711ZM157.527 82.5174C157.527 82.7828 157.871 83 158.292 83C158.712 83 159.057 82.7828 159.057 82.5174C159.057 82.252 158.712 82.0349 158.292 82.0349C157.871 82.0349 157.527 82.252 157.527 82.5174ZM142.581 82.8258C142.174 83.2113 142.634 83.9651 143.277 83.9651C143.541 83.9651 143.757 83.6394 143.757 83.2413C143.757 82.4952 143.155 82.2824 142.581 82.8258ZM149.994 83.0907C150.309 83.9854 151.407 84.1335 151.407 83.2813C151.407 82.861 151.044 82.5174 150.6 82.5174C150.155 82.5174 149.883 82.7751 149.994 83.0907ZM232.493 83C232.493 83.2654 232.723 83.4825 233.003 83.4825C233.284 83.4825 233.513 83.2654 233.513 83C233.513 82.7346 233.284 82.5174 233.003 82.5174C232.723 82.5174 232.493 82.7346 232.493 83ZM127.72 83.4415C127.556 83.6929 127.639 84.0254 127.905 84.1808C128.17 84.3362 128.522 84.2575 128.686 84.0061C128.85 83.7547 128.767 83.4222 128.501 83.2668C128.236 83.1115 127.884 83.1901 127.72 83.4415ZM135.088 83.4825C135.088 83.7479 135.432 83.9651 135.853 83.9651C136.273 83.9651 136.618 83.7479 136.618 83.4825C136.618 83.2171 136.273 83 135.853 83C135.432 83 135.088 83.2171 135.088 83.4825ZM201.2 83.3349C200.626 83.8782 200.851 84.4477 201.64 84.4477C202.06 84.4477 202.405 84.2435 202.405 83.9936C202.405 83.3851 201.608 82.9493 201.2 83.3349ZM224.431 83.5187C224.532 83.8039 224.832 84.0375 225.098 84.0375C225.365 84.0375 225.665 83.8039 225.766 83.5187C225.866 83.2335 225.566 83 225.098 83C224.631 83 224.331 83.2335 224.431 83.5187ZM120.093 83.8898C119.916 84.16 120.02 84.5263 120.324 84.7039C121.108 85.1623 121.614 84.5345 120.959 83.9149C120.593 83.5684 120.308 83.5602 120.093 83.8898ZM177.464 83.9366C176.957 84.2334 176.943 84.4124 177.405 84.6831C177.741 84.8791 178.244 84.8221 178.524 84.5567C179.189 83.9279 178.334 83.428 177.464 83.9366ZM185.419 83.7909C185.012 84.1765 185.472 84.9302 186.115 84.9302C186.38 84.9302 186.595 84.6045 186.595 84.2064C186.595 83.4603 185.993 83.2475 185.419 83.7909ZM193.225 83.9651C193.225 84.2305 193.569 84.4477 193.99 84.4477C194.411 84.4477 194.755 84.2305 194.755 83.9651C194.755 83.6997 194.411 83.4825 193.99 83.4825C193.569 83.4825 193.225 83.6997 193.225 83.9651ZM208.524 83.9651C208.524 84.2305 208.868 84.4477 209.289 84.4477C209.71 84.4477 210.054 84.2305 210.054 83.9651C210.054 83.6997 209.71 83.4825 209.289 83.4825C208.868 83.4825 208.524 83.6997 208.524 83.9651ZM216.174 83.8845C216.174 84.5644 216.748 84.8766 217.499 84.604C218.563 84.2175 218.363 83.4825 217.194 83.4825C216.633 83.4825 216.174 83.6635 216.174 83.8845ZM161.883 84.4144C161.506 84.992 162.465 85.5638 163.144 85.1667C163.715 84.8332 163.34 83.9651 162.626 83.9651C162.379 83.9651 162.044 84.1673 161.883 84.4144ZM169.49 84.48C169.305 84.7628 169.276 85.1102 169.426 85.2521C169.792 85.5976 170.786 84.9886 170.786 84.4192C170.786 83.8025 169.906 83.8435 169.49 84.48ZM154.311 84.756C153.903 85.1416 154.364 85.8953 155.007 85.8953C155.271 85.8953 155.487 85.5696 155.487 85.1715C155.487 84.4255 154.885 84.2127 154.311 84.756ZM236.063 84.9302C236.063 85.1956 236.407 85.4128 236.828 85.4128C237.249 85.4128 237.593 85.1956 237.593 84.9302C237.593 84.6648 237.249 84.4477 236.828 84.4477C236.407 84.4477 236.063 84.6648 236.063 84.9302ZM131.285 85.3795C130.907 85.9571 131.867 86.5289 132.546 86.1318C133.117 85.7983 132.742 84.9302 132.028 84.9302C131.78 84.9302 131.446 85.1324 131.285 85.3795ZM138.983 85.2651C138.409 85.8085 138.634 86.3779 139.422 86.3779C139.843 86.3779 140.187 86.1738 140.187 85.9238C140.187 85.3153 139.391 84.8795 138.983 85.2651ZM146.661 85.2386C146.254 85.6241 146.714 86.3779 147.357 86.3779C147.621 86.3779 147.837 86.0522 147.837 85.654C147.837 84.908 147.235 84.6952 146.661 85.2386ZM228.413 85.654C228.413 86.0965 228.66 86.3803 228.962 86.2852C229.263 86.1902 229.51 85.9059 229.51 85.654C229.51 85.4022 229.263 85.1179 228.962 85.0229C228.66 84.9278 228.413 85.2115 228.413 85.654ZM123.966 85.9315C124.066 86.2167 124.367 86.4503 124.633 86.4503C124.899 86.4503 125.2 86.2167 125.3 85.9315C125.401 85.6463 125.101 85.4128 124.633 85.4128C124.165 85.4128 123.866 85.6463 123.966 85.9315ZM220.608 85.7211C220.2 86.1067 220.661 86.8604 221.304 86.8604C221.568 86.8604 221.784 86.5347 221.784 86.1366C221.784 85.3906 221.182 85.1778 220.608 85.7211ZM116.218 86.3494C116.218 86.5994 116.448 86.9377 116.728 87.1017C117.009 87.2658 117.238 87.0612 117.238 86.6476C117.238 86.2341 117.009 85.8953 116.728 85.8953C116.448 85.8953 116.218 86.0995 116.218 86.3494ZM173.846 86.6192C173.846 87.0173 174.075 87.343 174.356 87.343C174.636 87.343 174.866 87.0173 174.866 86.6192C174.866 86.2211 174.636 85.8953 174.356 85.8953C174.075 85.8953 173.846 86.2211 173.846 86.6192ZM181.339 86.2037C180.932 86.5892 181.392 87.343 182.036 87.343C182.3 87.343 182.515 87.0173 182.515 86.6192C182.515 85.8731 181.914 85.6603 181.339 86.2037ZM189.243 86.4141C189.344 86.6993 189.644 86.9328 189.91 86.9328C190.176 86.9328 190.477 86.6993 190.577 86.4141C190.678 86.1289 190.378 85.8953 189.91 85.8953C189.442 85.8953 189.143 86.1289 189.243 86.4141ZM196.795 86.3779C196.795 86.6433 197.139 86.8604 197.56 86.8604C197.98 86.8604 198.325 86.6433 198.325 86.3779C198.325 86.1125 197.98 85.8953 197.56 85.8953C197.139 85.8953 196.795 86.1125 196.795 86.3779ZM204.444 86.3779C204.444 86.6433 204.789 86.8604 205.209 86.8604C205.63 86.8604 205.974 86.6433 205.974 86.3779C205.974 86.1125 205.63 85.8953 205.209 85.8953C204.789 85.8953 204.444 86.1125 204.444 86.3779ZM212.094 86.3779C212.094 86.6433 212.438 86.8604 212.859 86.8604C213.28 86.8604 213.624 86.6433 213.624 86.3779C213.624 86.1125 213.28 85.8953 212.859 85.8953C212.438 85.8953 212.094 86.1125 212.094 86.3779ZM158.362 86.7128C157.788 87.2561 158.013 87.8256 158.802 87.8256C159.222 87.8256 159.566 87.6214 159.566 87.3715C159.566 86.763 158.77 86.3272 158.362 86.7128ZM165.784 86.8966C165.885 87.1818 166.185 87.4154 166.451 87.4154C166.717 87.4154 167.018 87.1818 167.118 86.8966C167.219 86.6114 166.919 86.3779 166.451 86.3779C165.984 86.3779 165.684 86.6114 165.784 86.8966ZM150.387 87.5843C150.387 88.0268 150.634 88.3105 150.935 88.2155C151.237 88.1204 151.483 87.8362 151.483 87.5843C151.483 87.3324 151.237 87.0481 150.935 86.9531C150.634 86.858 150.387 87.1418 150.387 87.5843ZM232.309 87.1953C231.735 87.7387 231.96 88.3081 232.748 88.3081C233.169 88.3081 233.513 88.104 233.513 87.854C233.513 87.2455 232.717 86.8098 232.309 87.1953ZM127.715 87.7923C127.338 88.3699 128.297 88.9417 128.976 88.5446C129.547 88.2111 129.172 87.343 128.458 87.343C128.211 87.343 127.876 87.5452 127.715 87.7923ZM135.413 87.6779C134.839 88.2213 135.064 88.7907 135.853 88.7907C136.273 88.7907 136.618 88.5865 136.618 88.3366C136.618 87.7281 135.821 87.2923 135.413 87.6779ZM143.014 87.7923C142.666 88.3255 143.47 88.9017 143.941 88.4558C144.426 87.9969 144.336 87.343 143.787 87.343C143.523 87.343 143.175 87.5452 143.014 87.7923ZM216.413 87.8497C215.929 88.5919 216.592 89.0706 217.247 88.451C217.613 88.1045 217.622 87.8347 217.273 87.6311C216.988 87.4641 216.601 87.5626 216.413 87.8497ZM224.594 87.8333C224.77 88.103 225.128 88.1991 225.389 88.0461C226.096 87.6325 225.964 87.343 225.068 87.343C224.631 87.343 224.418 87.5635 224.594 87.8333ZM120.107 88.1672C119.947 88.3187 119.938 88.6295 120.087 88.8577C120.445 89.4059 121.828 89.3939 121.828 88.8423C121.828 88.3096 120.505 87.7908 120.107 88.1672ZM192.992 88.2748C192.615 88.8524 193.574 89.4243 194.253 89.0271C194.824 88.6937 194.449 87.8256 193.735 87.8256C193.488 87.8256 193.153 88.0277 192.992 88.2748ZM201.152 88.2748C200.774 88.8524 201.733 89.4243 202.413 89.0271C202.983 88.6937 202.609 87.8256 201.895 87.8256C201.647 87.8256 201.313 88.0277 201.152 88.2748ZM208.091 88.284C208.203 88.6025 208.461 88.8467 208.665 88.8269C209.274 88.767 209.156 88.1054 208.499 87.8979C208.162 87.7918 207.979 87.9655 208.091 88.284ZM112.649 88.7907C112.649 89.0561 112.878 89.2732 113.159 89.2732C113.439 89.2732 113.669 89.0561 113.669 88.7907C113.669 88.5253 113.439 88.3081 113.159 88.3081C112.878 88.3081 112.649 88.5253 112.649 88.7907ZM169.766 89.032C169.766 89.4745 170.013 89.7582 170.314 89.6631C170.616 89.5681 170.862 89.2838 170.862 89.032C170.862 88.7801 170.616 88.4958 170.314 88.4008C170.013 88.3057 169.766 88.5894 169.766 89.032ZM177.183 88.7574C177.021 89.0044 177.122 89.3427 177.408 89.5097C178.016 89.8653 178.946 89.4137 178.946 88.7622C178.946 88.1749 177.565 88.1711 177.183 88.7574ZM185.065 88.7907C185.065 89.0561 185.41 89.2732 185.83 89.2732C186.251 89.2732 186.595 89.0561 186.595 88.7907C186.595 88.5253 186.251 88.3081 185.83 88.3081C185.41 88.3081 185.065 88.5253 185.065 88.7907ZM161.895 89.2226C161.739 89.4605 161.948 89.7765 162.358 89.9256C163.155 90.2147 163.836 89.613 163.292 89.099C162.831 88.6628 162.225 88.7164 161.895 89.2226ZM147.143 89.6081C146.569 90.1515 146.794 90.7209 147.582 90.7209C148.003 90.7209 148.347 90.5168 148.347 90.2668C148.347 89.6583 147.55 89.2226 147.143 89.6081ZM154.467 90.0371C154.467 90.4574 154.739 90.7156 155.073 90.6104C156.018 90.3122 156.175 89.2732 155.274 89.2732C154.83 89.2732 154.467 89.6168 154.467 90.0371ZM220.493 89.7799C220.008 90.5221 220.672 91.0008 221.327 90.3812C221.693 90.0347 221.702 89.7649 221.353 89.5613C221.068 89.3943 220.681 89.4928 220.493 89.7799ZM228.001 89.792C228.102 90.0772 228.402 90.3107 228.668 90.3107C228.935 90.3107 229.235 90.0772 229.335 89.792C229.436 89.5068 229.136 89.2732 228.668 89.2732C228.201 89.2732 227.901 89.5068 228.001 89.792ZM131.616 90.2745C131.716 90.5597 132.017 90.7933 132.283 90.7933C132.549 90.7933 132.849 90.5597 132.95 90.2745C133.05 89.9893 132.75 89.7558 132.283 89.7558C131.815 89.7558 131.515 89.9893 131.616 90.2745ZM139.167 90.2383C139.167 90.5038 139.512 90.7209 139.932 90.7209C140.353 90.7209 140.697 90.5038 140.697 90.2383C140.697 89.9729 140.353 89.7558 139.932 89.7558C139.512 89.7558 139.167 89.9729 139.167 90.2383ZM212.42 90.0907C211.846 90.634 212.071 91.2035 212.859 91.2035C213.28 91.2035 213.624 90.9993 213.624 90.7494C213.624 90.1409 212.827 89.7051 212.42 90.0907ZM108.895 90.5732C108.32 91.1166 108.545 91.686 109.334 91.686C109.755 91.686 110.099 91.4819 110.099 91.2319C110.099 90.6234 109.302 90.1877 108.895 90.5732ZM123.966 90.7571C124.066 91.0423 124.367 91.2758 124.633 91.2758C124.899 91.2758 125.2 91.0423 125.3 90.7571C125.401 90.4719 125.101 90.2383 124.633 90.2383C124.165 90.2383 123.866 90.4719 123.966 90.7571ZM181.821 90.5732C181.247 91.1166 181.472 91.686 182.26 91.686C182.681 91.686 183.025 91.4819 183.025 91.2319C183.025 90.6234 182.229 90.1877 181.821 90.5732ZM189.145 90.9622C189.145 91.4047 189.392 91.6884 189.693 91.5934C189.995 91.4983 190.242 91.2141 190.242 90.9622C190.242 90.7103 189.995 90.4261 189.693 90.331C189.392 90.2359 189.145 90.5197 189.145 90.9622ZM197.072 90.6876C196.723 91.2208 197.528 91.797 197.999 91.3511C198.483 90.8922 198.393 90.2383 197.845 90.2383C197.581 90.2383 197.233 90.4405 197.072 90.6876ZM204.444 90.7209C204.444 90.9863 204.789 91.2035 205.209 91.2035C205.63 91.2035 205.974 90.9863 205.974 90.7209C205.974 90.4555 205.63 90.2383 205.209 90.2383C204.789 90.2383 204.444 90.4555 204.444 90.7209ZM116.479 91.2112C116.655 91.4809 117.013 91.577 117.274 91.424C117.981 91.0104 117.849 90.7209 116.953 90.7209C116.516 90.7209 116.303 90.9414 116.479 91.2112ZM165.991 91.1282C165.814 91.3984 165.918 91.7647 166.222 91.9423C167.006 92.4007 167.512 91.7729 166.857 91.1533C166.491 90.8068 166.206 90.7986 165.991 91.1282ZM173.613 91.1702C173.235 91.7478 174.195 92.3196 174.874 91.9225C175.445 91.589 175.07 90.7209 174.356 90.7209C174.108 90.7209 173.774 90.9231 173.613 91.1702ZM158.844 91.6214C158.624 91.9577 158.582 92.3631 158.751 92.5223C159.207 92.9542 159.705 92.3191 159.458 91.6194C159.285 91.1292 159.165 91.1292 158.844 91.6214ZM224.149 91.5384C223.575 92.0817 223.8 92.6511 224.589 92.6511C225.009 92.6511 225.353 92.447 225.353 92.197C225.353 91.5885 224.557 91.1528 224.149 91.5384ZM143.257 92.1628C142.624 92.5329 142.648 92.6487 143.411 92.9262C144.475 93.3122 145.17 92.8297 144.484 92.1806C144.194 91.9065 143.708 91.8993 143.257 92.1628ZM150.664 92.1353C150.286 92.7129 151.246 93.2847 151.925 92.8876C152.496 92.5541 152.121 91.686 151.407 91.686C151.16 91.686 150.825 91.8882 150.664 92.1353ZM208.829 92.0933C208.652 92.3635 208.756 92.7298 209.06 92.9074C209.844 93.3658 210.35 92.738 209.695 92.1184C209.329 91.7719 209.044 91.7637 208.829 92.0933ZM216.174 92.4099C216.174 92.8524 216.421 93.1361 216.722 93.0411C217.024 92.946 217.27 92.6618 217.27 92.4099C217.27 92.158 217.024 91.8737 216.722 91.7787C216.421 91.6836 216.174 91.9674 216.174 92.4099ZM120.298 92.8924C120.298 93.3349 120.545 93.6187 120.847 93.5236C121.148 93.4286 121.395 93.1443 121.395 92.8924C121.395 92.6405 121.148 92.3563 120.847 92.2612C120.545 92.1662 120.298 92.4499 120.298 92.8924ZM128.252 92.5759C128.076 92.8461 128.18 93.2124 128.483 93.3899C129.268 93.8484 129.774 93.2206 129.119 92.601C128.753 92.2545 128.468 92.2463 128.252 92.5759ZM135.695 92.6873C135.796 92.9725 136.096 93.2061 136.363 93.2061C136.629 93.2061 136.929 92.9725 137.03 92.6873C137.13 92.4021 136.83 92.1686 136.363 92.1686C135.895 92.1686 135.595 92.4021 135.695 92.6873ZM201.229 92.4769C200.821 92.8625 201.282 93.6163 201.925 93.6163C202.189 93.6163 202.405 93.2905 202.405 92.8924C202.405 92.1464 201.803 91.9336 201.229 92.4769ZM104.999 93.375C104.999 93.8175 105.246 94.1012 105.547 94.0062C105.849 93.9111 106.095 93.6269 106.095 93.375C106.095 93.1231 105.849 92.8388 105.547 92.7438C105.246 92.6487 104.999 92.9325 104.999 93.375ZM112.649 93.1337C112.649 93.3991 112.993 93.6163 113.414 93.6163C113.834 93.6163 114.179 93.3991 114.179 93.1337C114.179 92.8683 113.834 92.6511 113.414 92.6511C112.993 92.6511 112.649 92.8683 112.649 93.1337ZM177.721 93.0063C177.173 93.5241 177.399 94.0988 178.151 94.0988C178.555 94.0988 179.012 93.9044 179.167 93.6669C179.492 93.1699 178.18 92.571 177.721 93.0063ZM185.575 93.375C185.575 93.8175 185.822 94.1012 186.124 94.0062C186.425 93.9111 186.672 93.6269 186.672 93.375C186.672 93.1231 186.425 92.8388 186.124 92.7438C185.822 92.6487 185.575 92.9325 185.575 93.375ZM193.225 93.3349C193.225 93.7552 193.588 94.0988 194.032 94.0988C194.933 94.0988 194.776 93.0599 193.831 92.7616C193.497 92.6564 193.225 92.9146 193.225 93.3349ZM162.442 93.4686C161.868 94.0119 162.093 94.5814 162.881 94.5814C163.302 94.5814 163.646 94.3772 163.646 94.1273C163.646 93.5188 162.85 93.083 162.442 93.4686ZM169.766 93.8575C169.766 94.3 170.013 94.5838 170.314 94.4887C170.616 94.3937 170.862 94.1094 170.862 93.8575C170.862 93.6056 170.616 93.3214 170.314 93.2263C170.013 93.1313 169.766 93.415 169.766 93.8575ZM9.51707 97.3561C6.22721 99.4127 3.54116 101.204 3.54779 101.337C3.55493 101.47 7.00084 103.61 11.2066 106.093L18.8532 110.608L24.8108 106.978C28.0874 104.982 30.8219 103.168 30.8871 102.947C30.9907 102.594 17.6925 94.3941 16.1024 93.83C15.7699 93.7123 12.8064 95.2989 9.51707 97.3561ZM147.122 94.0235C146.945 94.2938 147.049 94.66 147.353 94.8376C148.137 95.296 148.643 94.6682 147.988 94.0486C147.622 93.7021 147.337 93.6939 147.122 94.0235ZM154.793 93.9511C154.218 94.4945 154.443 95.0639 155.232 95.0639C155.652 95.0639 155.997 94.8598 155.997 94.6098C155.997 94.0013 155.2 93.5656 154.793 93.9511ZM220.07 93.9511C219.495 94.4945 219.72 95.0639 220.509 95.0639C220.929 95.0639 221.274 94.8598 221.274 94.6098C221.274 94.0013 220.477 93.5656 220.07 93.9511ZM124.145 94.5481C123.768 95.1257 124.727 95.6975 125.406 95.3004C125.977 94.9669 125.602 94.0988 124.888 94.0988C124.641 94.0988 124.306 94.301 124.145 94.5481ZM131.635 94.6721C131.95 95.5667 133.048 95.7149 133.048 94.8627C133.048 94.4424 132.685 94.0988 132.24 94.0988C131.796 94.0988 131.523 94.3565 131.635 94.6721ZM139.444 94.5481C139.096 95.0813 139.9 95.6575 140.371 95.2116C140.856 94.7527 140.766 94.0988 140.217 94.0988C139.953 94.0988 139.605 94.301 139.444 94.5481ZM212.42 94.4337C211.846 94.9771 212.071 95.5465 212.859 95.5465C213.28 95.5465 213.624 95.3424 213.624 95.0924C213.624 94.4839 212.827 94.0481 212.42 94.4337ZM108.569 95.3052C108.569 95.7477 108.816 96.0315 109.117 95.9364C109.418 95.8413 109.665 95.5571 109.665 95.3052C109.665 95.0533 109.418 94.7691 109.117 94.674C108.816 94.5789 108.569 94.8627 108.569 95.3052ZM116.316 95.1001C116.417 95.3853 116.717 95.6189 116.983 95.6189C117.25 95.6189 117.55 95.3853 117.65 95.1001C117.751 94.8149 117.451 94.5814 116.983 94.5814C116.516 94.5814 116.216 94.8149 116.316 95.1001ZM197.544 95.0881C197.059 95.8302 197.723 96.3089 198.378 95.6893C198.744 95.3428 198.753 95.0731 198.404 94.8695C198.119 94.7025 197.732 94.8009 197.544 95.0881ZM205.308 94.8897C204.901 95.2753 205.361 96.029 206.004 96.029C206.269 96.029 206.484 95.7033 206.484 95.3052C206.484 94.5592 205.883 94.3464 205.308 94.8897ZM100.919 95.5465C100.919 95.8119 101.263 96.029 101.684 96.029C102.105 96.029 102.449 95.8119 102.449 95.5465C102.449 95.2811 102.105 95.0639 101.684 95.0639C101.263 95.0639 100.919 95.2811 100.919 95.5465ZM174.085 95.5706C173.601 96.3128 174.264 96.7915 174.919 96.1719C175.285 95.8254 175.294 95.5556 174.945 95.352C174.66 95.185 174.273 95.2835 174.085 95.5706ZM181.772 95.5132C181.395 96.0908 182.354 96.6626 183.034 96.2655C183.604 95.932 183.229 95.0639 182.515 95.0639C182.268 95.0639 181.934 95.2661 181.772 95.5132ZM189.655 95.5465C189.655 95.8119 189.885 96.029 190.165 96.029C190.446 96.029 190.675 95.8119 190.675 95.5465C190.675 95.2811 190.446 95.0639 190.165 95.0639C189.885 95.0639 189.655 95.2811 189.655 95.5465ZM165.963 95.9958C165.586 96.5734 166.545 97.1452 167.224 96.7481C167.795 96.4146 167.42 95.5465 166.706 95.5465C166.459 95.5465 166.124 95.7487 165.963 95.9958ZM143.573 96.3639C142.999 96.9073 143.224 97.4767 144.012 97.4767C144.433 97.4767 144.777 97.2726 144.777 97.0226C144.777 96.4141 143.981 95.9784 143.573 96.3639ZM151.174 96.4783C150.796 97.0559 151.756 97.6278 152.435 97.2306C153.006 96.8972 152.631 96.029 151.917 96.029C151.67 96.029 151.335 96.2312 151.174 96.4783ZM158.644 96.5478C158.745 96.833 159.045 97.0665 159.312 97.0665C159.578 97.0665 159.878 96.833 159.979 96.5478C160.079 96.2626 159.779 96.029 159.312 96.029C158.844 96.029 158.544 96.2626 158.644 96.5478ZM216.5 96.3639C215.926 96.9073 216.15 97.4767 216.939 97.4767C217.36 97.4767 217.704 97.2726 217.704 97.0226C217.704 96.4141 216.907 95.9784 216.5 96.3639ZM104.815 96.8465C104.241 97.3899 104.466 97.9593 105.254 97.9593C105.675 97.9593 106.019 97.7551 106.019 97.5052C106.019 96.8967 105.222 96.4609 104.815 96.8465ZM112.479 96.8335C111.892 97.3884 112.107 97.9593 112.904 97.9593C113.324 97.9593 113.669 97.6336 113.669 97.2354C113.669 96.4817 113.065 96.278 112.479 96.8335ZM120.298 97.2354C120.298 97.6779 120.545 97.9617 120.847 97.8666C121.148 97.7716 121.395 97.4873 121.395 97.2354C121.395 96.9836 121.148 96.6993 120.847 96.6042C120.545 96.5092 120.298 96.7929 120.298 97.2354ZM128.024 96.97C128.137 97.2885 128.395 97.5327 128.598 97.5129C129.208 97.4531 129.09 96.7915 128.432 96.584C128.096 96.4778 127.912 96.6516 128.024 96.97ZM135.695 97.0304C135.796 97.3156 136.096 97.5491 136.363 97.5491C136.629 97.5491 136.929 97.3156 137.03 97.0304C137.13 96.7452 136.83 96.5116 136.363 96.5116C135.895 96.5116 135.595 96.7452 135.695 97.0304ZM208.85 96.8465C208.276 97.3899 208.501 97.9593 209.289 97.9593C209.71 97.9593 210.054 97.7551 210.054 97.5052C210.054 96.8967 209.258 96.4609 208.85 96.8465ZM193.579 97.3025C193.171 97.6881 193.632 98.4418 194.275 98.4418C194.539 98.4418 194.755 98.1161 194.755 97.718C194.755 96.972 194.153 96.7592 193.579 97.3025ZM201.385 97.4767C201.385 97.7421 201.729 97.9593 202.15 97.9593C202.57 97.9593 202.915 97.7421 202.915 97.4767C202.915 97.2113 202.57 96.9942 202.15 96.9942C201.729 96.9942 201.385 97.2113 201.385 97.4767ZM96.8394 97.9593C96.8394 98.2247 97.1836 98.4418 97.6043 98.4418C98.0251 98.4418 98.3693 98.2247 98.3693 97.9593C98.3693 97.6939 98.0251 97.4767 97.6043 97.4767C97.1836 97.4767 96.8394 97.6939 96.8394 97.9593ZM170.12 97.7851C169.712 98.1706 170.173 98.9244 170.816 98.9244C171.08 98.9244 171.296 98.5987 171.296 98.2006C171.296 97.4545 170.694 97.2417 170.12 97.7851ZM177.514 97.9955C177.614 98.2807 177.914 98.5142 178.181 98.5142C178.447 98.5142 178.747 98.2807 178.848 97.9955C178.948 97.7103 178.648 97.4767 178.181 97.4767C177.713 97.4767 177.413 97.7103 177.514 97.9955ZM185.575 97.9593C185.575 98.2247 185.92 98.4418 186.34 98.4418C186.761 98.4418 187.105 98.2247 187.105 97.9593C187.105 97.6939 186.761 97.4767 186.34 97.4767C185.92 97.4767 185.575 97.6939 185.575 97.9593ZM162.952 98.2942C162.378 98.8375 162.603 99.407 163.391 99.407C163.812 99.407 164.156 99.2028 164.156 98.9529C164.156 98.3444 163.36 97.9086 162.952 98.2942ZM116.544 98.7767C115.97 99.3201 116.195 99.8895 116.983 99.8895C117.404 99.8895 117.748 99.6854 117.748 99.4354C117.748 98.8269 116.952 98.3912 116.544 98.7767ZM131.822 98.8491C131.646 99.1193 131.75 99.4856 132.053 99.6632C132.838 100.122 133.343 99.4938 132.689 98.8742C132.323 98.5277 132.037 98.5195 131.822 98.8491ZM139.444 98.8911C139.067 99.4687 140.026 100.041 140.706 99.6434C141.276 99.31 140.901 98.4418 140.187 98.4418C139.94 98.4418 139.605 98.644 139.444 98.8911ZM147.681 98.7502C147.273 99.1358 147.734 99.8895 148.377 99.8895C148.641 99.8895 148.857 99.5638 148.857 99.1657C148.857 98.4196 148.255 98.2068 147.681 98.7502ZM154.977 98.9244C154.977 99.1898 155.321 99.407 155.742 99.407C156.162 99.407 156.507 99.1898 156.507 98.9244C156.507 98.659 156.162 98.4418 155.742 98.4418C155.321 98.4418 154.977 98.659 154.977 98.9244ZM108.157 99.4431C108.257 99.7283 108.558 99.9619 108.824 99.9619C109.09 99.9619 109.39 99.7283 109.491 99.4431C109.591 99.158 109.291 98.9244 108.824 98.9244C108.356 98.9244 108.056 99.158 108.157 99.4431ZM124.123 99.407C124.297 99.6724 124.654 99.8895 124.918 99.8895C125.182 99.8895 125.398 99.6724 125.398 99.407C125.398 99.1415 125.04 98.9244 124.603 98.9244C124.166 98.9244 123.95 99.1415 124.123 99.407ZM212.094 99.407C212.094 99.6724 212.438 99.8895 212.859 99.8895C213.28 99.8895 213.624 99.6724 213.624 99.407C213.624 99.1415 213.28 98.9244 212.859 98.9244C212.438 98.9244 212.094 99.1415 212.094 99.407ZM100.919 99.8895C100.919 100.155 101.135 100.372 101.399 100.372C101.663 100.372 102.021 100.155 102.194 99.8895C102.368 99.6241 102.151 99.407 101.714 99.407C101.277 99.407 100.919 99.6241 100.919 99.8895ZM181.821 99.7418C181.247 100.285 181.472 100.855 182.26 100.855C182.681 100.855 183.025 100.65 183.025 100.401C183.025 99.792 182.229 99.3563 181.821 99.7418ZM189.655 100.171C189.655 100.591 189.927 100.849 190.261 100.744C191.206 100.446 191.363 99.407 190.462 99.407C190.018 99.407 189.655 99.7505 189.655 100.171ZM197.56 99.8895C197.733 100.155 198.091 100.372 198.355 100.372C198.619 100.372 198.835 100.155 198.835 99.8895C198.835 99.6241 198.477 99.407 198.04 99.407C197.603 99.407 197.386 99.6241 197.56 99.8895ZM204.699 99.8895C204.873 100.155 205.23 100.372 205.494 100.372C205.759 100.372 205.974 100.155 205.974 99.8895C205.974 99.6241 205.616 99.407 205.179 99.407C204.742 99.407 204.526 99.6241 204.699 99.8895ZM93.0145 100.372C93.1879 100.637 93.5454 100.855 93.8096 100.855C94.0738 100.855 94.2895 100.637 94.2895 100.372C94.2895 100.107 93.9315 99.8895 93.4944 99.8895C93.0574 99.8895 92.8411 100.107 93.0145 100.372ZM173.846 100.291C173.846 100.971 174.42 101.284 175.168 101.012C175.559 100.87 175.753 100.559 175.598 100.321C175.242 99.7766 173.846 99.7529 173.846 100.291ZM143.552 100.779C143.375 101.05 143.479 101.416 143.783 101.593C144.567 102.052 145.073 101.424 144.418 100.804C144.052 100.458 143.767 100.45 143.552 100.779ZM151.483 100.831C151.596 101.149 151.854 101.393 152.057 101.373C152.667 101.314 152.549 100.652 151.891 100.444C151.555 100.338 151.371 100.512 151.483 100.831ZM159.133 100.831C159.245 101.149 159.503 101.393 159.707 101.373C160.317 101.314 160.198 100.652 159.541 100.444C159.204 100.338 159.021 100.512 159.133 100.831ZM166.706 100.855C166.706 101.12 166.922 101.337 167.186 101.337C167.45 101.337 167.808 101.12 167.981 100.855C168.155 100.589 167.938 100.372 167.501 100.372C167.064 100.372 166.706 100.589 166.706 100.855ZM112.465 101.19C111.89 101.733 112.115 102.302 112.904 102.302C113.324 102.302 113.669 102.098 113.669 101.848C113.669 101.24 112.872 100.804 112.465 101.19ZM120.298 101.578C120.298 102.021 120.545 102.305 120.847 102.21C121.148 102.115 121.395 101.83 121.395 101.578C121.395 101.327 121.148 101.042 120.847 100.947C120.545 100.852 120.298 101.136 120.298 101.578ZM128.274 101.19C127.7 101.733 127.924 102.302 128.713 102.302C129.134 102.302 129.478 102.098 129.478 101.848C129.478 101.24 128.681 100.804 128.274 101.19ZM135.837 101.361C135.352 102.103 136.016 102.582 136.671 101.963C137.037 101.616 137.045 101.346 136.697 101.143C136.412 100.976 136.024 101.074 135.837 101.361ZM208.85 101.19C208.276 101.733 208.501 102.302 209.289 102.302C209.71 102.302 210.054 102.098 210.054 101.848C210.054 101.24 209.258 100.804 208.85 101.19ZM89.5156 101.672C88.9414 102.215 89.1663 102.785 89.9547 102.785C90.3754 102.785 90.7196 102.581 90.7196 102.331C90.7196 101.722 89.9231 101.287 89.5156 101.672ZM96.8394 102.101C96.8394 102.521 97.1117 102.78 97.4452 102.674C98.3907 102.376 98.5473 101.337 97.6467 101.337C97.2025 101.337 96.8394 101.681 96.8394 102.101ZM104.489 101.82C104.489 102.085 104.833 102.302 105.254 102.302C105.675 102.302 106.019 102.085 106.019 101.82C106.019 101.554 105.675 101.337 105.254 101.337C104.833 101.337 104.489 101.554 104.489 101.82ZM201.152 101.786C200.803 102.32 201.607 102.896 202.079 102.45C202.563 101.991 202.473 101.337 201.925 101.337C201.66 101.337 201.313 101.539 201.152 101.786ZM178.266 102.142C177.679 102.697 177.894 103.267 178.691 103.267C179.111 103.267 179.456 102.942 179.456 102.544C179.456 101.79 178.852 101.586 178.266 102.142ZM185.673 102.338C185.774 102.624 186.074 102.857 186.34 102.857C186.606 102.857 186.907 102.624 187.007 102.338C187.108 102.053 186.808 101.82 186.34 101.82C185.873 101.82 185.573 102.053 185.673 102.338ZM193.735 102.302C193.735 102.568 193.964 102.785 194.245 102.785C194.525 102.785 194.755 102.568 194.755 102.302C194.755 102.037 194.525 101.82 194.245 101.82C193.964 101.82 193.735 102.037 193.735 102.302ZM1.72819 105.2C1.16314 106.965 0.978016 108.292 1.26054 108.549C1.51808 108.782 5.17104 111.048 9.37835 113.585L17.028 118.196L17.643 115.437C17.9817 113.919 18.2683 112.436 18.2805 112.141C18.2978 111.732 4.74623 103.101 3.0016 102.409C2.81597 102.336 2.24276 103.591 1.72819 105.2ZM162.98 102.611C162.573 102.996 163.033 103.75 163.676 103.75C163.941 103.75 164.156 103.424 164.156 103.026C164.156 102.28 163.555 102.067 162.98 102.611ZM170.602 102.637C170.028 103.181 170.253 103.75 171.041 103.75C171.462 103.75 171.806 103.546 171.806 103.296C171.806 102.687 171.009 102.252 170.602 102.637ZM131.858 103.107C131.271 103.662 131.486 104.233 132.283 104.233C132.703 104.233 133.048 103.907 133.048 103.509C133.048 102.755 132.444 102.551 131.858 103.107ZM139.42 103.271C139.245 103.538 139.471 103.891 139.922 104.054C140.898 104.409 141.442 104.018 140.973 103.3C140.55 102.651 139.833 102.638 139.42 103.271ZM147.604 103.234C147.227 103.812 148.186 104.384 148.865 103.986C149.436 103.653 149.061 102.785 148.347 102.785C148.1 102.785 147.765 102.987 147.604 103.234ZM155.075 103.304C155.175 103.589 155.475 103.822 155.742 103.822C156.008 103.822 156.308 103.589 156.409 103.304C156.509 103.018 156.209 102.785 155.742 102.785C155.274 102.785 154.974 103.018 155.075 103.304ZM100.919 103.991C100.919 104.389 101.149 104.715 101.429 104.715C101.71 104.715 101.939 104.389 101.939 103.991C101.939 103.593 101.71 103.267 101.429 103.267C101.149 103.267 100.919 103.593 100.919 103.991ZM108.336 103.717C107.987 104.25 108.792 104.826 109.263 104.38C109.747 103.921 109.657 103.267 109.109 103.267C108.845 103.267 108.497 103.47 108.336 103.717ZM115.708 103.75C115.708 104.015 116.053 104.233 116.473 104.233C116.894 104.233 117.238 104.015 117.238 103.75C117.238 103.485 116.894 103.267 116.473 103.267C116.053 103.267 115.708 103.485 115.708 103.75ZM123.868 103.75C123.868 104.015 124.212 104.233 124.633 104.233C125.054 104.233 125.398 104.015 125.398 103.75C125.398 103.485 125.054 103.267 124.633 103.267C124.212 103.267 123.868 103.485 123.868 103.75ZM85.859 104.257C85.3746 104.999 86.0381 105.478 86.6929 104.858C87.059 104.511 87.0677 104.242 86.7194 104.038C86.4338 103.871 86.0467 103.97 85.859 104.257ZM92.7595 104.233C92.7595 104.498 93.1038 104.715 93.5245 104.715C93.9452 104.715 94.2895 104.498 94.2895 104.233C94.2895 103.967 93.9452 103.75 93.5245 103.75C93.1038 103.75 92.7595 103.967 92.7595 104.233ZM197.149 104.058C196.741 104.444 197.202 105.198 197.845 105.198C198.109 105.198 198.325 104.872 198.325 104.474C198.325 103.728 197.723 103.515 197.149 104.058ZM204.444 104.233C204.444 104.498 204.789 104.715 205.209 104.715C205.63 104.715 205.974 104.498 205.974 104.233C205.974 103.967 205.63 103.75 205.209 103.75C204.789 103.75 204.444 103.967 204.444 104.233ZM174.454 104.751C174.554 105.036 174.855 105.27 175.121 105.27C175.387 105.27 175.687 105.036 175.788 104.751C175.888 104.466 175.588 104.233 175.121 104.233C174.653 104.233 174.353 104.466 174.454 104.751ZM181.772 104.682C181.395 105.259 182.354 105.831 183.034 105.434C183.604 105.101 183.229 104.233 182.515 104.233C182.268 104.233 181.934 104.435 181.772 104.682ZM189.655 104.715C189.655 104.98 189.999 105.198 190.42 105.198C190.841 105.198 191.185 104.98 191.185 104.715C191.185 104.45 190.841 104.233 190.42 104.233C189.999 104.233 189.655 104.45 189.655 104.715ZM151.407 105.439C151.407 105.881 151.654 106.165 151.955 106.07C152.257 105.975 152.503 105.691 152.503 105.439C152.503 105.187 152.257 104.903 151.955 104.808C151.654 104.713 151.407 104.996 151.407 105.439ZM159.382 105.05C158.808 105.593 159.033 106.163 159.821 106.163C160.242 106.163 160.586 105.959 160.586 105.709C160.586 105.1 159.79 104.664 159.382 105.05ZM166.706 105.198C166.706 105.463 167.05 105.68 167.471 105.68C167.892 105.68 168.236 105.463 168.236 105.198C168.236 104.932 167.892 104.715 167.471 104.715C167.05 104.715 166.706 104.932 166.706 105.198ZM104.499 105.674C103.866 106.045 103.889 106.16 104.653 106.438C105.717 106.824 106.412 106.341 105.726 105.692C105.436 105.418 104.95 105.411 104.499 105.674ZM112.443 105.605C112.267 105.875 112.371 106.241 112.674 106.419C113.458 106.877 113.964 106.25 113.31 105.63C112.943 105.284 112.658 105.275 112.443 105.605ZM120.022 105.713C119.837 105.995 119.809 106.343 119.958 106.485C120.324 106.83 121.318 106.221 121.318 105.652C121.318 105.035 120.438 105.076 120.022 105.713ZM127.715 105.647C127.338 106.225 128.297 106.796 128.976 106.399C129.547 106.066 129.172 105.198 128.458 105.198C128.211 105.198 127.876 105.4 127.715 105.647ZM135.695 105.716C135.796 106.002 136.096 106.235 136.363 106.235C136.629 106.235 136.929 106.002 137.03 105.716C137.13 105.431 136.83 105.198 136.363 105.198C135.895 105.198 135.595 105.431 135.695 105.716ZM143.524 105.647C143.363 105.894 143.464 106.232 143.749 106.399C144.357 106.755 145.287 106.303 145.287 105.652C145.287 105.064 143.907 105.061 143.524 105.647ZM89.4447 106.163C89.2412 106.474 89.3039 106.946 89.5844 107.212C89.9246 107.534 90.2178 107.506 90.4647 107.128C90.6681 106.816 90.6054 106.344 90.3249 106.079C89.9848 105.757 89.6915 105.785 89.4447 106.163ZM96.4273 106.199C96.5278 106.484 96.8281 106.718 97.0943 106.718C97.3606 106.718 97.6609 106.484 97.7614 106.199C97.8619 105.914 97.562 105.68 97.0943 105.68C96.6267 105.68 96.3268 105.914 96.4273 106.199ZM178.436 106.887C178.436 107.329 178.682 107.613 178.984 107.518C179.285 107.423 179.532 107.138 179.532 106.887C179.532 106.635 179.285 106.35 178.984 106.255C178.682 106.16 178.436 106.444 178.436 106.887ZM185.915 106.485C185.328 107.04 185.544 107.61 186.34 107.61C186.761 107.61 187.105 107.285 187.105 106.887C187.105 106.133 186.502 105.929 185.915 106.485ZM193.464 106.669C192.98 107.412 193.643 107.89 194.298 107.271C194.664 106.924 194.673 106.654 194.324 106.451C194.039 106.284 193.652 106.382 193.464 106.669ZM200.365 106.645C200.365 106.911 200.709 107.128 201.13 107.128C201.55 107.128 201.895 106.911 201.895 106.645C201.895 106.38 201.55 106.163 201.13 106.163C200.709 106.163 200.365 106.38 200.365 106.645ZM49.6772 107.428C48.5721 108.474 48.8745 109.595 50.4927 110.455C53.1879 111.886 56.4727 109.177 54.4093 107.224C53.526 106.389 50.6446 106.513 49.6772 107.428ZM170.786 107.369C170.786 107.812 171.033 108.095 171.334 108C171.636 107.905 171.882 107.621 171.882 107.369C171.882 107.117 171.636 106.833 171.334 106.738C171.033 106.643 170.786 106.927 170.786 107.369ZM23.7694 108.778L21.3312 110.375L22.7494 111.257C26.5829 113.64 42.8384 123.289 59.1011 132.835C69.0584 138.68 83.9752 147.526 92.2496 152.493C100.524 157.46 111.884 164.254 117.493 167.59C123.103 170.926 131.709 176.106 136.618 179.102C162.31 194.784 187.628 209.913 188.178 209.913C188.712 209.913 193.194 207.321 193.186 207.017C193.182 206.885 189.349 204.496 184.668 201.709C179.987 198.922 168.466 191.994 159.065 186.314C149.664 180.633 136.579 172.804 129.988 168.915C123.396 165.027 111.692 158.033 103.979 153.373C96.2656 148.714 80.4309 139.305 68.7906 132.465C42.6028 117.076 36.5933 113.504 30.8887 109.939C28.4148 108.393 26.3494 107.14 26.2989 107.154C26.2489 107.169 25.1106 107.899 23.7694 108.778ZM100.763 107.436C100.356 107.822 100.816 108.576 101.459 108.576C101.723 108.576 101.939 108.25 101.939 107.852C101.939 107.106 101.337 106.893 100.763 107.436ZM108.385 107.463C107.81 108.006 108.035 108.576 108.824 108.576C109.245 108.576 109.589 108.371 109.589 108.121C109.589 107.513 108.792 107.077 108.385 107.463ZM116.013 107.535C115.836 107.805 115.941 108.172 116.244 108.349C117.028 108.808 117.534 108.18 116.879 107.56C116.513 107.214 116.228 107.206 116.013 107.535ZM131.844 107.463C131.269 108.006 131.494 108.576 132.283 108.576C132.703 108.576 133.048 108.371 133.048 108.121C133.048 107.513 132.251 107.077 131.844 107.463ZM140.003 107.463C139.429 108.006 139.654 108.576 140.442 108.576C140.863 108.576 141.207 108.371 141.207 108.121C141.207 107.513 140.411 107.077 140.003 107.463ZM147.885 107.582C147.379 107.879 147.364 108.058 147.827 108.328C148.162 108.524 148.665 108.467 148.946 108.202C149.61 107.573 148.755 107.073 147.885 107.582ZM155.232 107.61C155.405 107.876 155.891 108.093 156.312 108.093C156.733 108.093 156.935 107.876 156.762 107.61C156.588 107.345 156.102 107.128 155.681 107.128C155.261 107.128 155.058 107.345 155.232 107.61ZM163.136 107.61C163.136 107.876 163.481 108.093 163.901 108.093C164.322 108.093 164.666 107.876 164.666 107.61C164.666 107.345 164.322 107.128 163.901 107.128C163.481 107.128 163.136 107.345 163.136 107.61ZM50.4937 108.035C49.3697 108.727 50.3366 109.541 52.2837 109.541C53.7152 109.541 54.0421 109.371 53.907 108.696C53.7188 107.757 51.6085 107.348 50.4937 108.035ZM123.868 108.093C123.868 108.358 124.212 108.576 124.633 108.576C125.054 108.576 125.398 108.358 125.398 108.093C125.398 107.828 125.054 107.61 124.633 107.61C124.212 107.61 123.868 107.828 123.868 108.093ZM92.8575 108.612C92.9579 108.897 93.2583 109.13 93.5245 109.13C93.7907 109.13 94.0911 108.897 94.1916 108.612C94.292 108.327 93.9922 108.093 93.5245 108.093C93.0569 108.093 92.757 108.327 92.8575 108.612ZM196.795 108.576C196.795 108.841 197.024 109.058 197.305 109.058C197.585 109.058 197.815 108.841 197.815 108.576C197.815 108.31 197.585 108.093 197.305 108.093C197.024 108.093 196.795 108.31 196.795 108.576ZM174.682 108.91C174.107 109.454 174.332 110.023 175.121 110.023C175.542 110.023 175.886 109.819 175.886 109.569C175.886 108.961 175.089 108.525 174.682 108.91ZM182.282 109.025C182.121 109.272 182.222 109.61 182.507 109.777C182.792 109.944 183.025 109.741 183.025 109.328C183.025 108.48 182.719 108.355 182.282 109.025ZM189.655 109.328C189.655 109.741 189.885 109.946 190.165 109.782C190.446 109.618 190.675 109.28 190.675 109.03C190.675 108.78 190.446 108.576 190.165 108.576C189.885 108.576 189.655 108.914 189.655 109.328ZM144.083 109.393C143.509 109.936 143.734 110.506 144.522 110.506C144.943 110.506 145.287 110.302 145.287 110.052C145.287 109.443 144.491 109.007 144.083 109.393ZM151.917 109.782C151.917 110.18 152.146 110.506 152.427 110.506C152.707 110.506 152.937 110.18 152.937 109.782C152.937 109.384 152.707 109.058 152.427 109.058C152.146 109.058 151.917 109.384 151.917 109.782ZM159.382 109.393C158.808 109.936 159.033 110.506 159.821 110.506C160.242 110.506 160.586 110.302 160.586 110.052C160.586 109.443 159.79 109.007 159.382 109.393ZM167.032 109.393C166.458 109.936 166.683 110.506 167.471 110.506C167.892 110.506 168.236 110.302 168.236 110.052C168.236 109.443 167.44 109.007 167.032 109.393ZM104.256 109.99C103.908 110.523 104.712 111.099 105.183 110.653C105.668 110.195 105.577 109.541 105.029 109.541C104.765 109.541 104.417 109.743 104.256 109.99ZM112.139 110.265C112.139 110.707 112.385 110.991 112.687 110.896C112.988 110.801 113.235 110.516 113.235 110.265C113.235 110.013 112.988 109.728 112.687 109.633C112.385 109.538 112.139 109.822 112.139 110.265ZM120.065 109.99C119.688 110.568 120.647 111.139 121.326 110.742C121.897 110.409 121.522 109.541 120.808 109.541C120.561 109.541 120.226 109.743 120.065 109.99ZM128.044 110.054C128.166 110.402 128.568 110.782 128.936 110.898C129.319 111.019 129.51 110.838 129.382 110.476C129.26 110.127 128.858 109.747 128.49 109.631C128.108 109.511 127.916 109.692 128.044 110.054ZM135.874 109.99C135.526 110.523 136.33 111.099 136.802 110.653C137.286 110.195 137.196 109.541 136.648 109.541C136.383 109.541 136.036 109.743 135.874 109.99ZM0.963736 151.942C0.963736 181.201 1.13764 194.716 1.53695 196.498C2.29019 199.857 4.03686 203.041 6.14561 204.899C7.66585 206.239 17.3957 212.5 17.4972 212.203C17.5196 212.138 17.4676 191.238 17.3814 165.759L17.2249 119.433L9.52981 114.849C5.29803 112.327 1.63894 110.192 1.39925 110.104C1.16008 110.015 0.963736 128.842 0.963736 151.942ZM96.5844 110.506C96.411 110.771 96.6272 110.988 97.0643 110.988C97.5013 110.988 97.8593 110.771 97.8593 110.506C97.8593 110.24 97.6436 110.023 97.3794 110.023C97.1152 110.023 96.7578 110.24 96.5844 110.506ZM348.266 113.395C345.326 115.231 342.871 116.905 342.813 117.118C342.714 117.477 354.946 125.147 356.545 125.727C357.206 125.967 368.505 119.353 368.076 118.977C367.661 118.613 353.909 110.025 353.767 110.04C353.682 110.049 351.207 111.559 348.266 113.395ZM193.225 110.96C193.225 111.21 193.454 111.548 193.735 111.712C194.015 111.876 194.245 111.672 194.245 111.258C194.245 110.845 194.015 110.506 193.735 110.506C193.454 110.506 193.225 110.71 193.225 110.96ZM19.6896 111.318C19.5544 111.535 19.1694 113.232 18.8338 115.09C18.0525 119.418 18.2734 212.163 19.0679 213.291C19.4101 213.777 19.6615 197.124 19.8329 162.622C19.9731 134.356 20.0537 111.161 20.0114 111.077C19.9695 110.993 19.8242 111.101 19.6896 111.318ZM170.834 111.442C170.328 111.739 170.313 111.918 170.776 112.189C171.111 112.385 171.614 112.328 171.895 112.063C172.559 111.434 171.704 110.934 170.834 111.442ZM177.926 111.471C177.926 111.736 178.27 111.953 178.691 111.953C179.111 111.953 179.456 111.736 179.456 111.471C179.456 111.205 179.111 110.988 178.691 110.988C178.27 110.988 177.926 111.205 177.926 111.471ZM185.575 111.471C185.575 111.736 185.92 111.953 186.34 111.953C186.761 111.953 187.105 111.736 187.105 111.471C187.105 111.205 186.761 110.988 186.34 110.988C185.92 110.988 185.575 111.205 185.575 111.471ZM320.082 111.509C319.057 112.074 318.9 113.899 319.801 114.752C320.674 115.578 323.561 115.468 324.508 114.573C325.615 113.525 325.51 112.624 324.175 111.74C322.88 110.881 321.376 110.796 320.082 111.509ZM116.034 111.806C115.46 112.349 115.685 112.919 116.473 112.919C116.894 112.919 117.238 112.714 117.238 112.464C117.238 111.856 116.442 111.42 116.034 111.806ZM131.781 111.941C131.369 112.572 132.542 113.107 133.126 112.555C133.453 112.246 133.355 111.983 132.843 111.797C132.413 111.641 131.934 111.706 131.781 111.941ZM139.959 111.912C139.795 112.164 139.878 112.496 140.144 112.652C140.41 112.807 140.761 112.728 140.925 112.477C141.09 112.226 141.006 111.893 140.741 111.738C140.475 111.582 140.124 111.661 139.959 111.912ZM147.935 111.99C148.035 112.275 148.336 112.508 148.602 112.508C148.868 112.508 149.169 112.275 149.269 111.99C149.37 111.704 149.07 111.471 148.602 111.471C148.134 111.471 147.834 111.704 147.935 111.99ZM155.764 111.92C155.386 112.498 156.345 113.07 157.025 112.672C157.595 112.339 157.221 111.471 156.507 111.471C156.259 111.471 155.925 111.673 155.764 111.92ZM163.247 112.028C163.512 112.78 164.653 112.911 164.693 112.195C164.708 111.929 164.337 111.637 163.87 111.545C163.338 111.441 163.105 111.622 163.247 112.028ZM21.1772 114.193C20.9987 115.424 20.8528 138.097 20.8528 164.577V212.722L28.12 217.151C32.1172 219.587 42.6161 225.939 51.4514 231.266C71.697 243.474 134.844 281.808 162.371 298.602C187.138 313.711 185.643 312.815 185.747 312.616C185.793 312.528 185.716 307.271 185.575 300.934L185.32 289.412L174.611 282.855C168.721 279.249 159.085 273.438 153.197 269.941L142.493 263.585L141.046 264.737C139.153 266.245 135.307 266.31 132.2 264.886C126.476 262.264 120.808 252.636 120.808 245.534C120.808 242.434 122.63 239.33 125.143 238.148C126.265 237.62 129.586 235.916 132.522 234.361C138.886 230.99 140.25 230.699 143.432 232.031C146.297 233.23 151.033 237.366 152.79 240.204C154.6 243.127 155.997 247.678 155.997 250.656V253.19L166.069 259.15C171.609 262.428 178.14 266.371 180.584 267.912C183.027 269.454 185.155 270.715 185.312 270.715C185.469 270.715 185.589 258.718 185.578 244.054C185.559 218.761 185.611 217.232 186.574 214.268C187.133 212.55 187.424 210.996 187.22 210.815C187.017 210.633 179.851 206.307 171.296 201.2C162.741 196.092 149.086 187.858 140.952 182.901C132.818 177.944 122.491 171.706 118.003 169.039C113.516 166.372 101.697 159.314 91.7396 153.355C81.7823 147.397 64.8001 137.346 54.0013 131.018C43.2026 124.691 31.5919 117.813 28.1996 115.734C24.8072 113.654 21.9126 111.953 21.7667 111.953C21.6209 111.953 21.3557 112.961 21.1772 114.193ZM100.735 112.288C100.161 112.832 100.386 113.401 101.174 113.401C101.595 113.401 101.939 113.197 101.939 112.947C101.939 112.339 101.143 111.903 100.735 112.288ZM108.157 112.472C108.257 112.757 108.558 112.991 108.824 112.991C109.09 112.991 109.39 112.757 109.491 112.472C109.591 112.187 109.291 111.953 108.824 111.953C108.356 111.953 108.056 112.187 108.157 112.472ZM123.868 112.436C123.868 112.701 124.212 112.919 124.633 112.919C125.054 112.919 125.398 112.701 125.398 112.436C125.398 112.171 125.054 111.953 124.633 111.953C124.212 111.953 123.868 112.171 123.868 112.436ZM320.847 112.273C318.936 113.003 321.212 114.743 323.269 114.125C324.558 113.738 324.571 113.095 323.303 112.453C322.248 111.919 321.851 111.89 320.847 112.273ZM189.655 113.16C189.655 113.558 189.885 113.884 190.165 113.884C190.446 113.884 190.675 113.558 190.675 113.16C190.675 112.762 190.446 112.436 190.165 112.436C189.885 112.436 189.655 112.762 189.655 113.16ZM181.75 113.401C181.577 113.667 181.793 113.884 182.23 113.884C182.667 113.884 183.025 113.667 183.025 113.401C183.025 113.136 182.81 112.919 182.546 112.919C182.281 112.919 181.924 113.136 181.75 113.401ZM144.083 113.736C143.509 114.279 143.734 114.849 144.522 114.849C144.943 114.849 145.287 114.645 145.287 114.395C145.287 113.786 144.491 113.35 144.083 113.736ZM151.917 114.125C151.917 114.567 152.164 114.851 152.465 114.756C152.766 114.661 153.013 114.377 153.013 114.125C153.013 113.873 152.766 113.589 152.465 113.494C152.164 113.399 151.917 113.682 151.917 114.125ZM174.123 113.85C173.774 114.384 174.579 114.96 175.05 114.514C175.534 114.055 175.444 113.401 174.896 113.401C174.632 113.401 174.284 113.603 174.123 113.85ZM111.983 114.192C111.575 114.578 112.036 115.331 112.679 115.331C112.943 115.331 113.159 115.006 113.159 114.608C113.159 113.861 112.557 113.649 111.983 114.192ZM119.788 114.608C119.788 115.05 120.035 115.334 120.337 115.239C120.638 115.144 120.885 114.859 120.885 114.608C120.885 114.356 120.638 114.071 120.337 113.976C120.035 113.881 119.788 114.165 119.788 114.608ZM127.715 114.333C127.338 114.911 128.297 115.482 128.976 115.085C129.547 114.752 129.172 113.884 128.458 113.884C128.211 113.884 127.876 114.086 127.715 114.333ZM135.695 114.402C135.796 114.688 136.096 114.921 136.363 114.921C136.629 114.921 136.929 114.688 137.03 114.402C137.13 114.117 136.83 113.884 136.363 113.884C135.895 113.884 135.595 114.117 135.695 114.402ZM160.076 114.366C160.076 114.632 160.306 114.849 160.586 114.849C160.867 114.849 161.096 114.632 161.096 114.366C161.096 114.101 160.867 113.884 160.586 113.884C160.306 113.884 160.076 114.101 160.076 114.366ZM167.726 114.636C167.726 115.05 167.956 115.254 168.236 115.09C168.517 114.926 168.746 114.588 168.746 114.338C168.746 114.088 168.517 113.884 168.236 113.884C167.956 113.884 167.726 114.222 167.726 114.636ZM104.256 114.816C103.908 115.349 104.712 115.925 105.183 115.479C105.668 115.02 105.577 114.366 105.029 114.366C104.765 114.366 104.417 114.568 104.256 114.816ZM178.024 115.85C178.124 116.135 178.424 116.369 178.691 116.369C178.957 116.369 179.257 116.135 179.358 115.85C179.458 115.565 179.158 115.331 178.691 115.331C178.223 115.331 177.923 115.565 178.024 115.85ZM185.575 115.814C185.575 116.079 185.791 116.296 186.055 116.296C186.319 116.296 186.677 116.079 186.85 115.814C187.024 115.549 186.807 115.331 186.37 115.331C185.933 115.331 185.575 115.549 185.575 115.814ZM139.677 116.498C139.677 116.918 140.041 117.262 140.485 117.262C141.385 117.262 141.229 116.223 140.283 115.924C139.95 115.819 139.677 116.077 139.677 116.498ZM147.837 116.578C147.837 116.998 148.109 117.256 148.443 117.151C149.388 116.853 149.545 115.814 148.644 115.814C148.2 115.814 147.837 116.158 147.837 116.578ZM155.764 116.263C155.386 116.841 156.345 117.413 157.025 117.015C157.595 116.682 157.221 115.814 156.507 115.814C156.259 115.814 155.925 116.016 155.764 116.263ZM163.646 116.498C163.646 116.918 164.009 117.262 164.454 117.262C165.354 117.262 165.198 116.223 164.252 115.924C163.919 115.819 163.646 116.077 163.646 116.498ZM170.903 116.387C171.218 117.282 172.316 117.43 172.316 116.578C172.316 116.158 171.953 115.814 171.509 115.814C171.064 115.814 170.792 116.072 170.903 116.387ZM108.059 117.32C108.059 118.173 108.186 118.245 108.818 117.748C109.586 117.146 109.422 116.296 108.539 116.296C108.275 116.296 108.059 116.757 108.059 117.32ZM115.708 117.02C115.708 117.463 115.955 117.747 116.257 117.652C116.558 117.556 116.805 117.272 116.805 117.02C116.805 116.768 116.558 116.484 116.257 116.389C115.955 116.294 115.708 116.578 115.708 117.02ZM123.635 116.746C123.258 117.323 124.217 117.895 124.896 117.498C125.467 117.165 125.092 116.296 124.378 116.296C124.131 116.296 123.796 116.499 123.635 116.746ZM131.616 116.815C131.716 117.1 132.017 117.334 132.283 117.334C132.549 117.334 132.849 117.1 132.95 116.815C133.05 116.53 132.75 116.296 132.283 116.296C131.815 116.296 131.515 116.53 131.616 116.815ZM182.005 118.014C182.005 118.427 182.235 118.632 182.515 118.468C182.796 118.304 183.025 117.966 183.025 117.716C183.025 117.466 182.796 117.262 182.515 117.262C182.235 117.262 182.005 117.6 182.005 118.014ZM143.757 118.508C143.757 118.928 144.03 119.187 144.363 119.081C145.309 118.783 145.465 117.744 144.565 117.744C144.12 117.744 143.757 118.088 143.757 118.508ZM151.917 118.508C151.917 118.928 152.189 119.187 152.523 119.081C153.468 118.783 153.625 117.744 152.724 117.744C152.28 117.744 151.917 118.088 151.917 118.508ZM159.849 118.186C159.684 118.437 159.767 118.77 160.033 118.925C160.299 119.08 160.65 119.002 160.814 118.75C160.979 118.499 160.895 118.166 160.63 118.011C160.364 117.856 160.013 117.934 159.849 118.186ZM167.216 118.468C167.216 118.866 167.446 119.192 167.726 119.192C168.007 119.192 168.236 118.866 168.236 118.468C168.236 118.07 168.007 117.744 167.726 117.744C167.446 117.744 167.216 118.07 167.216 118.468ZM174.356 118.227C174.356 118.492 174.7 118.709 175.121 118.709C175.542 118.709 175.886 118.492 175.886 118.227C175.886 117.961 175.542 117.744 175.121 117.744C174.7 117.744 174.356 117.961 174.356 118.227ZM331.174 123.724C325.844 126.979 313.452 134.53 303.635 140.503C271.995 159.754 251.515 172.336 233.003 183.895C223.046 190.112 212.29 196.783 209.102 198.719C205.913 200.655 203.389 202.309 203.492 202.394C203.595 202.478 207.055 204.541 211.181 206.978L218.681 211.409L223.93 208.085C226.817 206.256 237.44 199.695 247.537 193.503C257.635 187.312 270.257 179.494 275.586 176.13C280.915 172.765 295.144 163.976 307.205 156.597C319.266 149.219 334.672 139.684 341.441 135.409C348.21 131.134 354.152 127.411 354.645 127.135C355.402 126.711 354.436 125.946 348.394 122.189C344.463 119.744 341.16 117.758 341.055 117.775C340.949 117.791 336.503 120.469 331.174 123.724ZM127.555 118.8C127.87 119.695 128.968 119.843 128.968 118.991C128.968 118.57 128.605 118.227 128.161 118.227C127.716 118.227 127.444 118.484 127.555 118.8ZM135.598 118.991C135.598 119.411 135.87 119.669 136.203 119.564C137.149 119.266 137.305 118.227 136.405 118.227C135.961 118.227 135.598 118.57 135.598 118.991ZM111.983 119.018C111.575 119.403 112.036 120.157 112.679 120.157C112.943 120.157 113.159 119.831 113.159 119.433C113.159 118.687 112.557 118.474 111.983 119.018ZM119.555 119.159C119.394 119.406 119.495 119.744 119.78 119.911C120.389 120.266 121.318 119.815 121.318 119.163C121.318 118.576 119.938 118.572 119.555 119.159ZM147.667 119.996C147.08 120.551 147.295 121.122 148.092 121.122C148.513 121.122 148.857 120.796 148.857 120.398C148.857 119.644 148.254 119.441 147.667 119.996ZM155.813 120.009C155.238 120.553 155.463 121.122 156.252 121.122C156.672 121.122 157.017 120.918 157.017 120.668C157.017 120.059 156.22 119.624 155.813 120.009ZM163.462 120.009C162.888 120.553 163.113 121.122 163.901 121.122C164.322 121.122 164.666 120.918 164.666 120.668C164.666 120.059 163.87 119.624 163.462 120.009ZM170.553 120.124C170.205 120.657 171.009 121.233 171.48 120.787C171.965 120.328 171.874 119.674 171.326 119.674C171.062 119.674 170.714 119.877 170.553 120.124ZM177.926 120.157C177.926 120.422 178.284 120.64 178.721 120.64C179.158 120.64 179.374 120.422 179.201 120.157C179.027 119.892 178.67 119.674 178.406 119.674C178.141 119.674 177.926 119.892 177.926 120.157ZM363.716 123.212L358.036 126.671L357.864 131.014C357.769 133.403 357.695 135.397 357.7 135.445C357.719 135.67 370.038 128.179 370.809 127.474C371.602 126.749 371.616 126.486 370.958 124.741C370.559 123.68 370.222 122.227 370.209 121.512C370.197 120.798 370.009 120.11 369.791 119.983C369.574 119.855 366.839 121.308 363.716 123.212ZM139.444 120.606C139.067 121.184 140.026 121.756 140.706 121.359C141.276 121.025 140.901 120.157 140.187 120.157C139.94 120.157 139.605 120.359 139.444 120.606ZM116.034 120.974C115.46 121.518 115.685 122.087 116.473 122.087C116.894 122.087 117.238 121.883 117.238 121.633C117.238 121.025 116.442 120.589 116.034 120.974ZM124.165 121.057C123.946 121.394 123.904 121.799 124.072 121.958C124.529 122.39 125.026 121.755 124.779 121.055C124.607 120.565 124.487 120.565 124.165 121.057ZM131.616 121.158C131.716 121.443 132.017 121.677 132.283 121.677C132.549 121.677 132.849 121.443 132.95 121.158C133.05 120.873 132.75 120.64 132.283 120.64C131.815 120.64 131.515 120.873 131.616 121.158ZM174.356 122.3C174.356 122.714 174.585 123.052 174.866 123.052C175.146 123.052 175.376 122.848 175.376 122.598C175.376 122.348 175.146 122.01 174.866 121.846C174.585 121.682 174.356 121.886 174.356 122.3ZM151.505 122.606C151.605 122.891 151.906 123.125 152.172 123.125C152.438 123.125 152.738 122.891 152.839 122.606C152.939 122.321 152.639 122.087 152.172 122.087C151.704 122.087 151.404 122.321 151.505 122.606ZM159.566 122.811C159.566 123.209 159.796 123.535 160.076 123.535C160.357 123.535 160.586 123.209 160.586 122.811C160.586 122.413 160.357 122.087 160.076 122.087C159.796 122.087 159.566 122.413 159.566 122.811ZM166.783 122.546C166.895 122.864 167.153 123.108 167.356 123.088C167.966 123.029 167.848 122.367 167.191 122.16C166.854 122.053 166.67 122.227 166.783 122.546ZM135.365 123.019C134.987 123.597 135.946 124.168 136.626 123.771C137.196 123.438 136.822 122.57 136.108 122.57C135.86 122.57 135.526 122.772 135.365 123.019ZM143.757 123.322C143.757 123.736 143.987 123.94 144.267 123.776C144.548 123.612 144.777 123.274 144.777 123.024C144.777 122.774 144.548 122.57 144.267 122.57C143.987 122.57 143.757 122.908 143.757 123.322ZM119.788 123.776C119.788 124.219 120.035 124.502 120.337 124.407C120.638 124.312 120.885 124.028 120.885 123.776C120.885 123.524 120.638 123.24 120.337 123.145C120.035 123.05 119.788 123.334 119.788 123.776ZM127.536 123.571C127.636 123.856 127.937 124.09 128.203 124.09C128.469 124.09 128.77 123.856 128.87 123.571C128.97 123.286 128.671 123.052 128.203 123.052C127.735 123.052 127.435 123.286 127.536 123.571ZM155.254 124.467C154.876 125.044 155.836 125.616 156.515 125.219C157.085 124.886 156.711 124.017 155.997 124.017C155.749 124.017 155.415 124.22 155.254 124.467ZM170.515 124.524C170.031 125.266 170.694 125.745 171.349 125.125C171.715 124.779 171.724 124.509 171.376 124.305C171.09 124.139 170.703 124.237 170.515 124.524ZM147.425 125.019C147.525 125.304 147.826 125.537 148.092 125.537C148.358 125.537 148.659 125.304 148.759 125.019C148.86 124.734 148.56 124.5 148.092 124.5C147.624 124.5 147.324 124.734 147.425 125.019ZM162.724 125.019C162.825 125.304 163.125 125.537 163.391 125.537C163.658 125.537 163.958 125.304 164.058 125.019C164.159 124.734 163.859 124.5 163.391 124.5C162.924 124.5 162.624 124.734 162.724 125.019ZM131.844 125.317C131.269 125.861 131.494 126.43 132.283 126.43C132.703 126.43 133.048 126.226 133.048 125.976C133.048 125.368 132.251 124.932 131.844 125.317ZM139.167 125.706C139.167 126.104 139.512 126.43 139.932 126.43C140.353 126.43 140.697 126.104 140.697 125.706C140.697 125.308 140.353 124.983 139.932 124.983C139.512 124.983 139.167 125.308 139.167 125.706ZM123.868 126.229C123.868 126.649 124.14 126.907 124.474 126.802C125.419 126.504 125.576 125.465 124.675 125.465C124.231 125.465 123.868 125.809 123.868 126.229ZM151.223 126.765C150.649 127.308 150.873 127.878 151.662 127.878C152.083 127.878 152.427 127.674 152.427 127.424C152.427 126.815 151.63 126.38 151.223 126.765ZM158.823 126.879C158.475 127.413 159.279 127.989 159.751 127.543C160.235 127.084 160.145 126.43 159.597 126.43C159.332 126.43 158.985 126.632 158.823 126.879ZM143.545 127.331C143.325 127.667 143.283 128.072 143.451 128.232C143.908 128.663 144.405 128.028 144.159 127.329C143.986 126.838 143.866 126.838 143.545 127.331ZM166.196 127.395C166.196 127.661 166.54 127.878 166.961 127.878C167.382 127.878 167.726 127.661 167.726 127.395C167.726 127.13 167.382 126.913 166.961 126.913C166.54 126.913 166.196 127.13 166.196 127.395ZM127.555 127.969C127.87 128.863 128.968 129.011 128.968 128.159C128.968 127.739 128.605 127.395 128.161 127.395C127.716 127.395 127.444 127.653 127.555 127.969ZM135.365 127.845C134.987 128.422 135.946 128.994 136.626 128.597C137.196 128.263 136.822 127.395 136.108 127.395C135.86 127.395 135.526 127.598 135.365 127.845ZM344.943 134.475C338.772 138.372 323.328 147.932 310.622 155.72C297.916 163.508 283.37 172.503 278.297 175.71C273.224 178.918 262.852 185.348 255.246 190C247.64 194.652 236.197 201.711 229.816 205.687L218.214 212.916V217.486C218.214 220 218.414 221.985 218.659 221.896C219.094 221.739 223.858 218.805 278.646 184.958C293.512 175.774 314.395 162.907 325.054 156.365C344.175 144.628 353.763 138.646 355.544 137.34C356.328 136.766 356.435 136.02 356.309 132.031L356.163 127.39L344.943 134.475ZM367.276 130.957L362.581 133.91L362.559 173.361L362.537 212.813L367.37 209.795L372.203 206.776L372.215 167.327C372.221 145.63 372.17 127.906 372.099 127.941C372.029 127.976 369.859 129.333 367.276 130.957ZM154.744 128.81C154.366 129.387 155.326 129.959 156.005 129.562C156.575 129.229 156.201 128.36 155.487 128.36C155.239 128.36 154.905 128.563 154.744 128.81ZM162.442 129.178C161.868 129.721 162.093 130.291 162.881 130.291C163.302 130.291 163.646 130.087 163.646 129.837C163.646 129.228 162.85 128.792 162.442 129.178ZM146.915 129.844C147.015 130.129 147.316 130.363 147.582 130.363C147.848 130.363 148.149 130.129 148.249 129.844C148.35 129.559 148.05 129.326 147.582 129.326C147.114 129.326 146.815 129.559 146.915 129.844ZM131.518 130.532C131.518 130.974 131.765 131.258 132.066 131.163C132.367 131.068 132.614 130.784 132.614 130.532C132.614 130.28 132.367 129.996 132.066 129.901C131.765 129.806 131.518 130.089 131.518 130.532ZM139.677 130.532C139.677 130.93 139.907 131.256 140.187 131.256C140.468 131.256 140.697 130.93 140.697 130.532C140.697 130.134 140.468 129.808 140.187 129.808C139.907 129.808 139.677 130.134 139.677 130.532ZM150.713 131.591C150.139 132.134 150.363 132.703 151.152 132.703C151.573 132.703 151.917 132.499 151.917 132.249C151.917 131.641 151.12 131.205 150.713 131.591ZM158.276 131.762C157.791 132.505 158.455 132.983 159.11 132.364C159.476 132.017 159.484 131.747 159.136 131.544C158.85 131.377 158.463 131.475 158.276 131.762ZM142.971 132.253C142.786 132.536 142.758 132.883 142.907 133.025C143.273 133.371 144.267 132.762 144.267 132.192C144.267 131.576 143.387 131.617 142.971 132.253ZM135.365 132.67C134.987 133.248 135.946 133.82 136.626 133.422C137.196 133.089 136.822 132.221 136.108 132.221C135.86 132.221 135.526 132.423 135.365 132.67ZM154.055 134.187C154.155 134.473 154.456 134.706 154.722 134.706C154.988 134.706 155.288 134.473 155.389 134.187C155.489 133.902 155.189 133.669 154.722 133.669C154.254 133.669 153.954 133.902 154.055 134.187ZM146.817 134.634C146.817 134.899 147.047 135.116 147.327 135.116C147.608 135.116 147.837 134.899 147.837 134.634C147.837 134.368 147.608 134.151 147.327 134.151C147.047 134.151 146.817 134.368 146.817 134.634ZM139.167 135.116C139.167 135.382 139.383 135.599 139.647 135.599C139.911 135.599 140.269 135.382 140.442 135.116C140.616 134.851 140.4 134.634 139.962 134.634C139.525 134.634 139.167 134.851 139.167 135.116ZM358.88 136.295C357.665 137.208 355.697 138.565 354.506 139.311L352.34 140.666L352.339 174.33L352.338 207.995L356.29 210.393C358.464 211.712 360.524 212.795 360.868 212.799C361.357 212.806 361.498 204.276 361.511 173.721C361.521 152.223 361.429 134.634 361.308 134.634C361.186 134.634 360.093 135.381 358.88 136.295ZM142.553 136.416C141.979 136.96 142.204 137.529 142.992 137.529C143.413 137.529 143.757 137.325 143.757 137.075C143.757 136.466 142.961 136.031 142.553 136.416ZM150.387 136.805C150.387 137.203 150.616 137.529 150.897 137.529C151.177 137.529 151.407 137.203 151.407 136.805C151.407 136.407 151.177 136.081 150.897 136.081C150.616 136.081 150.387 136.407 150.387 136.805ZM146.307 139.218C146.307 139.66 146.554 139.944 146.855 139.849C147.157 139.754 147.404 139.47 147.404 139.218C147.404 138.966 147.157 138.682 146.855 138.587C146.554 138.492 146.307 138.775 146.307 139.218ZM348.385 143.178C346.772 144.219 345.708 145.262 345.708 145.802C345.708 146.998 345.971 146.948 348.85 145.2C350.673 144.093 351.318 143.399 351.318 142.546C351.318 141.91 351.261 141.403 351.19 141.42C351.12 141.436 349.858 142.228 348.385 143.178ZM348.13 146.809C346.17 148.003 345.708 148.547 345.708 149.662C345.708 150.421 345.819 151.041 345.955 151.041C346.091 151.041 347.354 150.37 348.76 149.551C350.885 148.314 351.318 147.825 351.318 146.656C351.318 144.946 351.178 144.953 348.13 146.809ZM342.776 146.54L341.628 147.298V177.536V207.775L343.158 208.63L344.688 209.485V177.609C344.688 160.077 344.516 145.744 344.306 145.758C344.095 145.772 343.406 146.124 342.776 146.54ZM326.01 156.959C300.756 172.452 295.241 175.887 295.232 176.134C295.218 176.498 340.139 202.797 340.382 202.567C340.687 202.278 340.913 148.143 340.608 148.153C340.468 148.156 333.898 152.12 326.01 156.959ZM348.13 151.152C346.009 152.444 345.708 152.834 345.708 154.295V155.962L347.365 155.032C351.216 152.873 351.318 152.774 351.318 151.166C351.318 150.301 351.146 149.612 350.935 149.635C350.725 149.658 349.462 150.341 348.13 151.152ZM348.385 155.674C346.006 157.157 345.708 157.529 345.708 159.022V160.701L348.513 158.94C350.986 157.385 351.318 156.986 351.318 155.556C351.318 154.665 351.261 153.952 351.19 153.971C351.12 153.991 349.858 154.757 348.385 155.674ZM348.13 160.321C346.031 161.599 345.708 162.012 345.708 163.415C345.708 164.306 345.807 165.035 345.929 165.035C346.051 165.035 347.313 164.351 348.734 163.515C351.005 162.179 351.318 161.8 351.318 160.379C351.318 159.489 351.146 158.78 350.935 158.804C350.725 158.827 349.462 159.51 348.13 160.321ZM348.385 164.893L345.708 166.621V171.618C345.708 174.367 345.819 176.616 345.955 176.616C346.091 176.616 347.354 175.946 348.76 175.127L351.318 173.638V168.371C351.318 165.474 351.261 163.118 351.19 163.135C351.12 163.151 349.858 163.943 348.385 164.893ZM373.26 165.658L373.274 167.689L388.624 176.858C421.792 196.67 417.998 194.602 419.404 193.635C420.085 193.166 420.65 192.65 420.659 192.489C420.682 192.068 404.528 182.192 380.259 167.789L373.247 163.627L373.26 165.658ZM373.247 174.349V179.859L393.974 192.316C414.242 204.498 414.73 204.758 416.03 204.068C416.865 203.624 417.346 202.964 417.324 202.294C417.303 201.707 417.246 199.835 417.196 198.134L417.105 195.04L408.053 189.612C395.315 181.974 374.645 169.623 373.884 169.196C373.39 168.918 373.247 170.071 373.247 174.349ZM348.13 176.691C345.992 177.975 345.708 178.344 345.708 179.841V181.537L347.365 180.608C351.216 178.449 351.318 178.35 351.318 176.741C351.318 175.876 351.146 175.184 350.935 175.202C350.725 175.221 349.462 175.89 348.13 176.691ZM292.685 177.563C292.273 177.81 292.043 178.109 292.175 178.228C292.307 178.348 295.628 180.277 299.555 182.515C303.482 184.754 312.317 189.916 319.189 193.986C341.058 206.939 340.608 206.701 340.608 205.353C340.608 204.446 339.912 203.792 337.421 202.362C335.668 201.356 325.296 195.26 314.372 188.815C303.448 182.371 294.268 177.102 293.973 177.106C293.677 177.11 293.098 177.315 292.685 177.563ZM286.781 181.142C284.617 182.501 267.329 193.171 248.363 204.852L213.879 226.091L213.748 256.968L213.617 287.846L216.719 289.68L219.82 291.513L267.592 261.414C293.867 244.86 323.454 226.242 333.341 220.042C346.138 212.016 351.318 208.511 351.318 207.88C351.318 207.121 350.929 207.24 348.647 208.693C347.178 209.629 345.508 210.395 344.936 210.395C343.896 210.395 341.827 209.304 340.863 208.247C340.583 207.94 335.779 205.013 330.189 201.744C324.599 198.475 318.403 194.813 316.419 193.606C314.437 192.399 307.842 188.545 301.765 185.041L290.716 178.67L286.781 181.142ZM348.138 181.351C345.92 182.543 345.722 182.799 345.715 184.498C345.711 185.516 345.88 186.273 346.09 186.182C346.301 186.091 347.563 185.369 348.895 184.577C350.978 183.34 351.318 182.917 351.318 181.566C351.318 180.702 351.146 180.007 350.935 180.024C350.725 180.04 349.466 180.636 348.138 181.351ZM373.339 182.01C373.462 182.807 378.184 185.879 392.881 194.725C409.996 205.027 413.535 206.896 413.535 205.631C413.535 205.456 405.79 200.663 396.323 194.979C386.857 189.294 377.776 183.815 376.144 182.802C373.421 181.112 373.189 181.047 373.339 182.01ZM348.385 186.126L345.708 187.853V193.575C345.708 196.722 345.86 199.296 346.046 199.296C346.232 199.296 347.494 198.622 348.85 197.799L351.318 196.301V190.319C351.318 187.029 351.261 184.351 351.19 184.368C351.12 184.384 349.858 185.175 348.385 186.126ZM373.237 195.557C373.226 207.536 372.865 211.251 371.233 216.201L370.204 219.323L353.749 229.634C309.831 257.156 241.714 300.04 240.254 301.086C238.312 302.478 238.28 302.617 239.709 303.462C240.66 304.024 241.123 303.968 243.219 303.039L245.634 301.969L248.825 304.019L252.016 306.07L253.601 305.211C254.474 304.739 266.547 297.249 280.431 288.568C294.315 279.887 313.248 268.111 322.504 262.399C339.656 251.816 407.694 209.387 409.942 207.873C410.622 207.415 411.077 206.946 410.954 206.832C410.504 206.415 373.742 184.337 373.498 184.337C373.36 184.337 373.242 189.386 373.237 195.557ZM424.668 191.451C423.173 192.388 421.191 193.688 420.265 194.34L418.58 195.525L423.579 198.437C426.329 200.039 429.543 201.976 430.72 202.741L432.86 204.133L437.282 201.434C439.756 199.923 441.509 198.553 441.261 198.322C441.018 198.094 437.797 196.072 434.102 193.828L427.386 189.747L424.668 191.451ZM189.921 191.393C188.784 192.468 189.139 193.615 190.846 194.39C192.613 195.191 194.539 194.788 195.291 193.46C196.543 191.246 191.946 189.477 189.921 191.393ZM190.763 192.199C189.963 193.112 190.512 193.506 192.582 193.506C193.961 193.506 194.285 193.332 194.151 192.661C193.938 191.604 191.569 191.28 190.763 192.199ZM418.228 199.021C418.358 200.499 418.597 201.834 418.76 201.989C418.923 202.143 419.646 201.903 420.367 201.456C421.651 200.66 421.764 200.691 425.795 202.927C428.06 204.183 430.254 205.535 430.673 205.931C431.278 206.503 431.416 207.938 431.352 212.968C431.308 216.444 431.469 219.35 431.71 219.426C431.952 219.503 432.034 216.182 431.894 212.046L431.639 204.526L424.816 200.43L417.993 196.335L418.228 199.021ZM348.13 199.408C346.043 200.679 345.708 201.104 345.708 202.48V204.076L348.503 202.531C350.975 201.164 351.299 200.804 351.308 199.417C351.313 198.554 351.146 197.868 350.935 197.891C350.725 197.914 349.462 198.597 348.13 199.408ZM437.376 202.554L432.914 205.243V212.404C432.914 216.342 433.021 219.564 433.151 219.564C433.282 219.564 435.347 218.368 437.741 216.907L442.094 214.25V207.778C442.094 204.218 442.233 200.962 442.403 200.542C442.876 199.376 442.207 199.644 437.376 202.554ZM348.385 203.772C345.904 205.206 345.708 205.455 345.708 207.174C345.708 208.194 345.88 208.953 346.09 208.861C346.301 208.769 347.556 208.045 348.879 207.252C351.04 205.958 351.287 205.627 351.301 204.001C351.311 203.006 351.261 202.199 351.19 202.208C351.12 202.217 349.858 202.921 348.385 203.772ZM414.785 206.103C406.02 211.729 354.874 243.606 325.054 262.029C311.03 270.693 294.047 281.257 287.316 285.504C280.584 289.75 270.372 296.115 264.622 299.649C258.872 303.182 253.984 306.228 253.759 306.417C253.395 306.725 259.362 310.767 260.181 310.767C260.478 310.767 269.778 305.088 283.491 296.53C286.155 294.868 295.106 289.328 303.38 284.219C318.882 274.649 345.499 258.098 394.549 227.527C410.053 217.864 424.109 209.158 425.786 208.178C427.462 207.199 428.832 206.266 428.829 206.104C428.819 205.59 422.68 202.192 421.761 202.192C421.276 202.192 418.137 203.952 414.785 206.103ZM195.647 206.825C192.352 208.837 189.655 210.65 189.655 210.854C189.655 211.238 202.572 219.285 204.053 219.823C204.612 220.025 207.074 218.783 211.312 216.158L217.726 212.188L216.058 211.137C211.789 208.45 202.536 203.157 202.112 203.161C201.852 203.164 198.943 204.812 195.647 206.825ZM414.028 216.69C405.482 222.01 391.77 230.533 383.555 235.63C375.341 240.727 357.651 251.738 344.244 260.099C330.837 268.459 314.38 278.692 307.671 282.839C269.345 306.532 262.284 310.916 261.875 311.275C261.619 311.499 261.784 312.012 262.257 312.46C262.898 313.066 263.092 314.194 263.092 317.316C263.092 319.553 263.214 321.384 263.364 321.384C263.514 321.384 266.095 319.822 269.101 317.913C275.074 314.12 295.52 301.436 326.839 282.095C337.918 275.253 353.638 265.467 361.772 260.349C374.537 252.316 398.483 237.497 423.352 222.24L430.364 217.938V212.478C430.364 209.475 430.184 207.017 429.964 207.017C429.745 207.017 422.573 211.37 414.028 216.69ZM364.45 212.911L357.437 217.343V221.631C357.437 223.988 357.609 225.845 357.82 225.757C358.031 225.668 360.768 223.967 363.903 221.977C369.546 218.394 369.611 218.331 370.398 215.694C371.471 212.099 372.166 208.464 371.779 208.471C371.604 208.475 368.307 210.473 364.45 212.911ZM333.214 221.288C311.798 234.743 242.838 278.174 229.586 286.554L220.813 292.1L224.897 294.478C227.181 295.808 229.316 296.734 229.741 296.58C230.709 296.228 358.683 215.446 360.102 214.291C360.395 214.053 352.927 209.427 352.257 209.432C352.161 209.432 343.592 214.767 333.214 221.288ZM187.952 213.151C187.782 213.891 187.309 215.511 186.901 216.75L186.159 219.003L194.609 224.121C199.257 226.936 203.132 229.17 203.221 229.086C203.31 229.001 203.534 227.205 203.717 225.093L204.052 221.253L196.504 216.669C192.353 214.147 188.8 212.022 188.609 211.945C188.417 211.868 188.122 212.411 187.952 213.151ZM210.819 217.757L205.209 221.253L204.652 225.837C204.346 228.359 204.146 230.487 204.209 230.566C204.273 230.645 207.101 229.016 210.495 226.947L216.665 223.183L216.675 218.719C216.68 216.265 216.626 214.257 216.556 214.259C216.487 214.261 213.905 215.835 210.819 217.757ZM305.643 250.04C277.892 267.598 249.614 285.482 242.802 289.783L230.417 297.602L233.801 299.688C236.117 301.116 237.385 301.633 237.821 301.325C239.501 300.138 325.735 245.925 345.071 233.9L356.418 226.843V222.48C356.418 220.08 356.346 218.116 356.258 218.116C356.17 218.116 333.393 232.482 305.643 250.04ZM186.595 245.575C186.595 259.402 186.594 270.878 186.593 271.077C186.591 271.399 201.68 280.849 202.196 280.849C202.311 280.849 202.4 269.394 202.394 255.394L202.384 229.939L195.95 226.078C192.411 223.955 188.858 221.816 188.055 221.326L186.595 220.434V245.575ZM207.917 229.669L203.484 232.352L203.455 257.036L203.424 281.721L207.887 284.395L212.349 287.068L212.484 271.86C212.558 263.495 212.558 249.976 212.484 241.818L212.349 226.985L207.917 229.669ZM136.745 233.2C135.553 233.767 134.579 234.351 134.58 234.498C134.581 234.644 135.614 235.166 136.876 235.658C140.391 237.025 143.987 240.379 145.909 244.083C146.829 245.856 148.363 247.959 149.318 248.756C151.202 250.33 154.242 252.378 154.695 252.378C155.245 252.378 154.965 248.679 154.206 245.921C152.745 240.611 148.382 235.306 143.724 233.175C140.867 231.869 139.537 231.873 136.745 233.2ZM131.088 236.305L129.383 237.1L131.912 237.993C134.988 239.079 139.443 243.299 141.429 247.007C142.177 248.404 142.949 249.471 143.146 249.378C146.841 247.636 146.757 247.812 145.315 244.807C143.832 241.715 140.322 238.413 136.873 236.864C133.312 235.264 133.319 235.265 131.088 236.305ZM125.255 239.241C123.445 240.302 121.827 243.451 121.834 245.895C121.855 252.497 127.234 261.413 132.71 263.921C140.442 267.464 145.383 260.947 142.246 251.343C139.264 242.214 130.649 236.078 125.255 239.241ZM128.695 248.362C126.895 250.064 128.708 254.76 131.699 256.148C135.883 258.089 137.547 253.065 133.99 249.231C132.241 247.347 130.133 247.001 128.695 248.362ZM129.58 249.096C128.105 250.492 129.532 254.009 132.1 255.31C134.785 256.669 135.587 252.294 133.087 249.928C131.479 248.406 130.543 248.185 129.58 249.096ZM145.216 249.441C144.554 249.949 144.127 250.453 144.267 250.562C144.407 250.67 148.538 253.17 153.447 256.118C162.716 261.684 176.344 269.94 192.97 280.061C198.299 283.305 209.2 289.843 217.194 294.59C225.188 299.337 232.876 304.011 234.278 304.975C236.741 306.669 236.876 306.703 238.229 305.973C239 305.558 239.631 305.08 239.632 304.911C239.633 304.525 230.001 298.57 217.704 291.353C212.515 288.308 202.073 282.061 194.5 277.472C186.927 272.882 174.764 265.562 167.471 261.205C160.178 256.849 152.551 252.211 150.521 250.901C148.491 249.59 146.738 248.517 146.625 248.517C146.513 248.517 145.878 248.933 145.216 249.441ZM144.36 254.308C144.794 256.566 144.419 260.109 143.537 262.088C143.264 262.702 144.761 263.787 150.485 267.127C154.498 269.469 165.469 276.082 174.866 281.823C193.224 293.039 209.762 302.886 224.844 311.582L234.278 317.021L234.533 313.05C234.673 310.865 235.055 308.651 235.381 308.128C236.09 306.991 235.692 306.722 216.434 295.317C204.823 288.44 196.041 283.151 176.396 271.201C164.93 264.227 144.294 251.895 144.089 251.895C143.983 251.895 144.105 252.981 144.36 254.308ZM186.595 298.881V307.686L194.084 312.243C198.203 314.749 201.76 316.872 201.989 316.96C202.217 317.049 202.405 313.192 202.405 308.389V299.656L197.787 296.888C195.247 295.365 191.69 293.209 189.882 292.098L186.595 290.076V298.881ZM203.424 306.666V313.135L207.887 310.347C210.341 308.813 212.769 307.339 213.282 307.071C214.08 306.655 213.43 306.119 208.82 303.391L203.424 300.197V306.666ZM240.78 305.6C238.466 306.968 236.573 308.263 236.573 308.477C236.573 308.939 251.388 318.161 252.127 318.158C252.581 318.157 259.664 314.044 260.693 313.184C261.03 312.903 245.797 302.977 245.184 303.079C245.076 303.097 243.095 304.231 240.78 305.6ZM209.162 310.687L203.424 314.273V318.604C203.424 322.054 203.565 322.883 204.117 322.683C204.499 322.545 207.482 320.79 210.747 318.784L216.684 315.137V311.522C216.684 306.296 216.261 306.249 209.162 310.687ZM186.932 311.139C187.105 312.395 187.473 313.694 187.75 314.027C188.622 315.074 201.279 322.831 202.116 322.831C202.274 322.831 202.405 321.857 202.405 320.666C202.405 318.689 202.238 318.401 200.492 317.356C199.441 316.726 195.888 314.556 192.599 312.534L186.618 308.857L186.932 311.139ZM218.214 311.491V314.159L220.254 312.881C221.376 312.179 222.294 311.553 222.294 311.491C222.294 311.429 221.376 310.804 220.254 310.101L218.214 308.824V311.491ZM236.063 316.516V323.187L243.84 327.849L251.617 332.511L251.76 326.142C251.839 322.638 251.724 319.605 251.505 319.401C251.286 319.196 247.722 316.962 243.585 314.437L236.063 309.844V316.516ZM257.38 316.452L252.943 319.197L252.79 325.841C252.706 329.494 252.726 332.484 252.835 332.483C252.943 332.483 255.066 331.245 257.552 329.733L262.072 326.983V320.323C262.072 316.66 262.015 313.673 261.944 313.685C261.874 313.697 259.82 314.942 257.38 316.452Z" fill="url(#paint0_linear_408_798)"/>
<defs>
<linearGradient id="paint0_linear_408_798" x1="221.812" y1="0" x2="221.812" y2="333.93" gradientUnits="userSpaceOnUse">
<stop stop-color="#3F6075" stop-opacity="0"/>
<stop offset="1" stop-color="#3F6075"/>
</linearGradient>
</defs>
</svg>
