<svg xmlns="http://www.w3.org/2000/svg" width="51" height="51" viewBox="0 0 51 51" fill="none">
    <path fill-rule="evenodd" clip-rule="evenodd" d="M22.5934 5.85913C20.4455 7.99197 20.042 8.48224 20.1596 8.81733C20.3315 9.30711 20.394 9.32056 22.4916 9.32056H24.4701L24.4435 11.9773L24.417 14.634L17.7767 18.5267C14.1247 20.6676 11.0429 22.5046 10.9286 22.6089C10.7211 22.7983 10.7207 22.8151 10.7196 30.7769L10.7186 38.7551L8.50987 40.05C7.29504 40.7623 6.27155 41.3575 6.23549 41.373C6.19953 41.3883 5.75617 40.6826 5.25036 39.8045C4.12537 37.8517 3.86489 37.6264 3.31763 38.1326C3.11921 38.3161 2.92906 38.9102 2.26626 41.4157C1.8212 43.0982 1.45703 44.5388 1.45703 44.6171C1.45703 45.0434 1.76951 45.1684 4.94336 46.0118C8.31852 46.9086 8.48218 46.9259 8.71786 46.4086C8.87424 46.0654 8.8346 45.9679 7.8658 44.3144C7.40381 43.5261 7.00288 42.8212 6.97479 42.7479C6.94033 42.6582 7.62723 42.2016 9.07177 41.3538C10.2532 40.6604 11.2785 40.0707 11.3501 40.0432C11.4217 40.0157 14.5031 41.7672 18.1977 43.9354C23.6605 47.1414 24.9708 47.8717 25.2139 47.8454C25.3847 47.8268 28.2865 46.1888 31.9873 44.0216C35.5483 41.9362 38.5659 40.1752 38.693 40.1079C38.9035 39.9967 39.1101 40.0943 41.0072 41.201C42.1529 41.8694 43.1661 42.4715 43.2586 42.5393C43.4105 42.6503 43.3384 42.8136 42.5139 44.2248C42.0118 45.0842 41.5757 45.888 41.5448 46.0109C41.4589 46.3535 41.8369 46.774 42.2294 46.7724C42.4035 46.7717 43.8906 46.4131 45.5342 45.9754C48.5553 45.1709 48.8711 45.0423 48.8711 44.6171C48.8711 44.5388 48.5069 43.0982 48.0619 41.4157C47.3991 38.9102 47.2089 38.3161 47.0105 38.1326C46.4633 37.6264 46.2027 37.8518 45.079 39.8023L44.1606 41.3967L43.5927 41.072C43.2804 40.8934 42.2564 40.2991 41.3171 39.7512L39.6094 38.7551L39.6084 30.7658L39.6074 22.7763L39.2837 22.5215C39.1056 22.3813 36.024 20.5475 32.4355 18.4465L25.9111 14.6262L25.8846 11.9735L25.858 9.32056H27.8365C29.5972 9.32056 29.8313 9.30133 29.9645 9.14624C30.2109 8.85936 30.2507 8.62578 30.1015 8.34309C30.0238 8.19587 28.9573 7.07815 27.7314 5.85913C25.7033 3.84254 25.4721 3.64282 25.1641 3.64282C24.8562 3.64282 24.6238 3.84314 22.5934 5.85913ZM23.8193 6.6311L22.5273 7.92602H25.1641H27.8008L26.5088 6.6311C25.7982 5.9189 25.193 5.33618 25.1641 5.33618C25.1351 5.33618 24.5299 5.9189 23.8193 6.6311ZM18.9634 19.459C15.6351 21.413 12.9129 23.0353 12.914 23.0641C12.9174 23.1614 25.0069 30.1887 25.1707 30.1887C25.3386 30.1887 37.4134 23.1597 37.4151 23.0611C37.4166 22.9711 25.292 15.8943 25.147 15.9005C25.0742 15.9036 22.2916 17.505 18.9634 19.459ZM12.1194 31.5583L12.1236 38.7551L14.0867 39.8953C15.1664 40.5224 17.9439 42.1441 20.259 43.4992L24.4681 45.963L24.4426 38.7234L24.417 31.4836L18.3408 27.9229C14.9989 25.9645 12.231 24.3621 12.1899 24.3619C12.1489 24.3617 12.1171 27.6001 12.1194 31.5583ZM31.9873 27.9265L25.9111 31.4881L25.8855 38.7285L25.86 45.9689L27.0898 45.2508C27.7662 44.8557 30.5443 43.2326 33.2634 41.6438L38.2073 38.7551L38.2101 31.5583C38.2116 27.6001 38.1793 24.3624 38.1382 24.3633C38.097 24.3642 35.3292 25.9677 31.9873 27.9265ZM3.51566 42.2581C3.25936 43.2253 3.06114 44.0256 3.07509 44.0364C3.08913 44.0472 3.81777 44.2444 4.69434 44.4747C5.5709 44.7049 6.36449 44.9154 6.45792 44.9423C6.5661 44.9735 6.16367 44.1925 5.34827 42.7889C4.64453 41.5777 4.04917 40.5669 4.02516 40.543C4.00115 40.519 3.77195 41.2908 3.51566 42.2581ZM45.0063 42.7429C44.1823 44.1624 43.7638 44.9725 43.8707 44.941C43.9638 44.9134 44.7572 44.7047 45.6338 44.4771C46.5104 44.2495 47.2393 44.0525 47.2536 44.0393C47.2797 44.0155 46.3805 40.572 46.335 40.5215C46.3218 40.5069 45.7238 41.5065 45.0063 42.7429Z" fill="currentColor"/>
</svg>
