<svg width="51" height="51" viewBox="0 0 51 51" fill="none" xmlns="http://www.w3.org/2000/svg">
<path fill-rule="evenodd" clip-rule="evenodd" d="M7.47282 1.49668C7.09586 1.66421 7.11325 1.36975 7.11325 7.59767V13.3268L7.30945 13.523L7.50564 13.7192H13.4846H19.4636L19.464 17.4277L19.4643 21.1361L20.9231 23.2169L22.3817 25.2976L22.4221 26.5058C22.4592 27.6151 22.4767 27.7454 22.6365 28.0979C22.8217 28.5065 23.3073 29.0749 23.6515 29.2858C23.7662 29.3561 24.0186 29.4651 24.2124 29.528L24.5648 29.6424V31.2154C24.5648 33.1022 24.6073 33.2515 25.1453 33.2515C25.6497 33.2515 25.7059 33.0427 25.7059 31.1659V29.6374L25.9576 29.5559C26.9473 29.2358 27.5974 28.5086 27.7803 27.5171C27.8206 27.298 27.8539 26.694 27.8541 26.1746L27.8545 25.2305L28.4079 24.444C28.7122 24.0115 29.3614 23.0848 29.8506 22.3847L30.74 21.1119V17.4156V13.7192H36.71H42.68L42.8684 13.5572L43.0567 13.3952V7.58525C43.0567 1.85665 43.0548 1.77342 42.9219 1.64052C42.7878 1.50641 42.698 1.50554 25.2019 1.46922C14.1256 1.44627 7.56343 1.4564 7.47282 1.49668ZM8.18719 7.5776V12.5781H13.8254H19.4636V7.5776V2.57706H13.8254H8.18719V7.5776ZM20.5375 11.4706V20.3642H25.1018H29.666V11.4706V2.57706H25.1018H20.5375V11.4706ZM30.74 7.5776V12.5781H36.3446H41.9492V7.5776V2.57706H36.3446H30.74V7.5776ZM24.4818 3.85042C23.9251 3.95144 23.506 4.12226 22.9923 4.45753C22.2487 4.94295 21.6701 5.75257 21.4341 6.6379C21.3156 7.08218 21.3201 8.08994 21.4426 8.55032C21.8049 9.91168 22.9355 10.9762 24.3299 11.269C24.9228 11.3934 25.2817 11.3934 25.8737 11.2685C27.8972 10.8418 29.2082 8.82733 28.7869 6.79221C28.6048 5.91265 27.8909 4.88697 27.1135 4.38806C26.4108 3.93721 25.2787 3.70591 24.4818 3.85042ZM24.3155 5.01987C23.6165 5.24768 22.9488 5.84305 22.6304 6.52259C22.4726 6.85907 22.4505 6.98955 22.4505 7.58109C22.4505 8.22613 22.4616 8.27828 22.7037 8.76813C23.8658 11.1195 27.292 10.5906 27.7373 7.99113C27.9289 6.87256 27.3127 5.69995 26.2612 5.18231C25.8776 4.99343 25.7408 4.96275 25.2093 4.94644C24.8239 4.93463 24.494 4.96175 24.3155 5.01987ZM24.5984 5.66048C23.1726 6.00911 22.6405 7.78836 23.6262 8.91096C23.7481 9.04991 24.0016 9.24429 24.1896 9.34289C24.4814 9.49606 24.6145 9.52237 25.1018 9.52318C25.6165 9.52405 25.7084 9.50378 26.0415 9.31611C26.4526 9.08447 26.855 8.60972 26.9724 8.2178C27.0142 8.07866 27.0483 7.76923 27.0483 7.53021C27.0483 6.28202 25.837 5.35763 24.5984 5.66048ZM24.7685 6.75912C24.0794 6.99653 24.0545 8.10403 24.7319 8.38708C25.0386 8.51528 25.2247 8.50898 25.5003 8.36111C26.1297 8.02355 26.1152 7.08896 25.476 6.79866C25.159 6.65468 25.084 6.65052 24.7685 6.75912ZM21.0745 21.4778C21.0745 21.4996 21.5449 22.1943 22.1198 23.0216L23.1652 24.5257L25.09 24.5256L27.0147 24.5254L27.7195 23.5076C28.1071 22.9478 28.5828 22.2664 28.7767 21.9934C28.9705 21.7205 29.129 21.4839 29.129 21.4676C29.129 21.4514 27.3168 21.4382 25.1018 21.4382C22.8868 21.4382 21.0745 21.456 21.0745 21.4778ZM23.5045 26.5562C23.5396 27.5585 23.6304 27.83 24.0556 28.2033C24.3372 28.4506 24.6633 28.5521 25.1775 28.5526C25.8116 28.5533 26.3522 28.2326 26.5865 27.7168C26.6859 27.498 26.71 27.2735 26.7112 26.5562L26.7127 25.6668H25.093H23.4733L23.5045 26.5562ZM17.7054 31.1063C17.329 31.4827 17.3348 31.4903 19.8859 34.0402C21.9685 36.1217 22.2067 36.3391 22.4052 36.3391C22.7008 36.3391 22.9539 36.0845 22.9539 35.7871C22.9539 35.5842 22.7489 35.36 20.6192 33.2335C18.0468 30.6649 18.1046 30.7071 17.7054 31.1063ZM29.6515 33.2335C27.5218 35.36 27.3168 35.5842 27.3168 35.7871C27.3168 36.0845 27.5698 36.3391 27.8655 36.3391C28.064 36.3391 28.3035 36.1205 30.399 34.0276C32.6047 31.8246 32.7133 31.7044 32.7133 31.4682C32.7133 31.281 32.6681 31.1816 32.5283 31.0613C32.1475 30.7337 32.178 30.7107 29.6515 33.2335ZM17.7319 34.6629C17.531 34.85 17.4868 35.0798 17.6075 35.3082C17.6632 35.4138 18.7164 36.5043 19.9477 37.7319C21.9711 39.7489 22.2077 39.9636 22.4055 39.9636C22.7024 39.9636 22.9539 39.709 22.9539 39.4083C22.9539 39.2011 22.7622 38.9904 20.6295 36.8546C18.5481 34.7701 18.2829 34.5268 18.0916 34.5268C17.9698 34.5268 17.8152 34.5853 17.7319 34.6629ZM29.6333 36.845C27.47 39.0098 27.3168 39.1787 27.3168 39.3986C27.3168 39.7025 27.564 39.9636 27.8518 39.9636C28.0319 39.9636 28.343 39.6805 30.3684 37.6733C31.9816 36.0745 32.6919 35.326 32.7208 35.1947C32.7678 34.9804 32.6169 34.6331 32.4485 34.5685C32.059 34.419 32.0522 34.4245 29.6333 36.845ZM5.39494 39.5892C5.28043 39.6392 5.1672 39.7313 5.14324 39.7939C5.11921 39.8564 5.09961 41.8697 5.09961 44.2679V48.6284L5.26439 48.7931L5.42911 48.9579H25.1353H44.8415L45.0063 48.7931L45.171 48.6284V44.2406V39.8528L44.9978 39.6901L44.8246 39.5274H37.7155H30.6065L28.4411 41.692L26.2757 43.8567H25.1353H23.995L21.8296 41.692L19.6642 39.5274L12.6336 39.5127C6.83637 39.5006 5.5665 39.5141 5.39494 39.5892ZM6.17355 44.2594V47.884H25.1353H44.0971V44.2594V40.6349H37.5709H31.0447L28.8931 42.7827L26.7415 44.9306H25.1326H23.5236L21.3765 42.7827L19.2295 40.6349H12.7015H6.17355V44.2594Z" fill="currentColor"/>
</svg>
