<svg width="51" height="51" viewBox="0 0 51 51" fill="none" xmlns="http://www.w3.org/2000/svg">
    <path fill-rule="evenodd" clip-rule="evenodd" d="M18.73 1.5728C18.6466 1.63644 18.2376 2.44799 17.8212 3.37645L17.064 5.06447H15.0558C13.2278 5.06447 13.034 5.07964 12.8946 5.23364C12.7545 5.38838 12.7415 6.11854 12.7415 13.8356V22.2684H11.642H10.5425L10.5071 21.6441C10.4635 20.876 10.2258 20.3846 9.70446 19.9849C8.79006 19.2839 7.44574 19.593 6.89041 20.632C6.68775 21.0111 6.68248 21.0986 6.65436 24.5345C6.63855 26.4677 6.65085 28.222 6.68174 28.433C6.87811 29.7751 8.42147 30.5052 9.56609 29.7976C10.1639 29.428 10.5216 28.7522 10.5216 27.9925V27.4481H11.6316H12.7415V28.4656C12.7415 29.7364 12.8192 29.853 13.6665 29.853H14.2214V30.7642C14.2214 31.557 14.2485 31.7153 14.4295 31.9813C14.7232 32.4128 15.0551 32.6332 15.5013 32.693L15.8863 32.7446V38.8834V45.0221L13.9208 45.0241C11.7565 45.0263 11.5022 45.0785 10.948 45.6332C10.5215 46.0602 10.4292 46.3926 10.4292 47.5021C10.4292 48.3593 10.4542 48.5308 10.5983 48.6612C10.7542 48.8023 11.8946 48.8143 25.1199 48.8143C41.8219 48.8143 39.8427 48.9791 39.8418 47.5888C39.8415 47.1182 39.7952 46.5668 39.7387 46.3635C39.6048 45.881 38.9835 45.2597 38.5009 45.1257C38.2864 45.0662 37.3447 45.0229 36.2582 45.0226L34.3852 45.0221V38.8834V32.7446L34.7703 32.693C35.2165 32.6332 35.5483 32.4128 35.842 31.9813C36.023 31.7153 36.0501 31.557 36.0501 30.7642V29.853H36.6051C37.4523 29.853 37.53 29.7364 37.53 28.4656V27.4481H38.64H39.7499L39.7508 27.98C39.7526 29.0276 40.3624 29.8325 41.3166 30.047C42.0799 30.2185 42.9501 29.8112 43.364 29.0886L43.5884 28.6968V24.8583C43.5884 21.0592 43.5863 21.0158 43.3811 20.632C42.8258 19.593 41.4815 19.2839 40.5671 19.9849C40.0458 20.3846 39.8081 20.876 39.7644 21.6441L39.729 22.2684H38.6295H37.53V13.8721C37.53 6.42229 37.5137 5.45239 37.386 5.27008C37.2448 5.06826 37.2045 5.06447 35.2248 5.06447H33.2076L32.4503 3.37645C32.0339 2.44808 31.6249 1.63635 31.5416 1.5728C31.3207 1.40428 18.9508 1.40428 18.73 1.5728ZM19.2758 2.86699C18.6166 4.41442 17.8792 5.96453 17.7576 6.05878C17.6495 6.14258 17.0914 6.1744 15.7299 6.1744H13.8514V17.4587V28.743H25.1358H36.4201V17.4587V6.1744H34.5416C33.18 6.1744 32.6222 6.14258 32.5141 6.05878C32.4322 5.99515 32.0307 5.19396 31.622 4.27827L30.879 2.61337L25.1416 2.5895L19.4042 2.56573L19.2758 2.86699ZM17.0169 11.3131L16.8113 11.457V17.4001C16.8113 22.0143 16.8371 23.3759 16.9269 23.4901C17.1252 23.7423 17.4086 23.7681 17.6754 23.5583L17.9212 23.365V17.452C17.9212 11.6624 17.9173 11.5352 17.7362 11.3541C17.5139 11.1318 17.2935 11.1193 17.0169 11.3131ZM22.1759 11.3541C21.9948 11.5352 21.991 11.6624 21.991 17.4049C21.991 20.6311 22.0174 23.3398 22.0498 23.4241C22.1818 23.7681 22.8028 23.7743 23.0301 23.4339C23.0675 23.3779 23.0987 20.6787 23.0995 17.4356C23.1009 11.6614 23.0971 11.5353 22.9159 11.3541C22.8142 11.2523 22.6477 11.1691 22.5459 11.1691C22.4442 11.1691 22.2777 11.2523 22.1759 11.3541ZM27.3556 11.3541C27.1744 11.5353 27.1706 11.6614 27.172 17.4356C27.1729 20.6787 27.204 23.3779 27.2414 23.4339C27.3926 23.6603 27.7171 23.7593 27.9337 23.6452C28.0482 23.585 28.1724 23.4898 28.2098 23.4339C28.2472 23.3779 28.2784 20.6787 28.2792 17.4356C28.2806 11.6614 28.2768 11.5353 28.0956 11.3541C27.9938 11.2523 27.8274 11.1691 27.7256 11.1691C27.6239 11.1691 27.4574 11.2523 27.3556 11.3541ZM32.5353 11.3541C32.3542 11.5352 32.3503 11.6624 32.3503 17.452V23.365L32.5961 23.5583C32.8629 23.7681 33.1463 23.7423 33.3446 23.4901C33.4345 23.3759 33.4603 22.0143 33.4603 17.4001V11.457L33.2546 11.3131C32.978 11.1193 32.7576 11.1318 32.5353 11.3541ZM8.1894 20.8398C7.76975 21.0675 7.73571 21.4089 7.76568 25.0849L7.79306 28.4508L8.01727 28.6895C8.16896 28.8508 8.33869 28.928 8.54162 28.928C9.40986 28.928 9.41171 28.9193 9.41171 24.8583C9.41171 21.1242 9.39266 20.9747 8.89254 20.7845C8.58787 20.6687 8.49038 20.6763 8.1894 20.8398ZM41.3502 20.7896C40.8817 20.9783 40.8598 21.1605 40.8598 24.8598C40.8598 28.365 40.8762 28.5442 41.2217 28.8094C41.4866 29.0128 42.0073 28.9523 42.2543 28.6895L42.4785 28.4508L42.5058 25.0849C42.5362 21.3691 42.5044 21.0634 42.0634 20.8354C41.7611 20.679 41.6435 20.6715 41.3502 20.7896ZM10.5216 24.8583V26.3382H11.6316H12.7415V24.8583V23.3784H11.6316H10.5216V24.8583ZM37.53 24.8583V26.3382H38.64H39.7499V24.8583V23.3784H38.64H37.53V24.8583ZM15.3314 30.6207C15.3314 31.0944 15.3738 31.4308 15.4423 31.4994C15.5222 31.5792 16.1441 31.6104 17.6569 31.6104C20.1463 31.6104 20.0486 31.6547 20.0486 30.5261V29.853H17.69H15.3314V30.6207ZM21.1437 30.7566C21.1138 31.5005 21.0694 31.7217 20.8924 32.0082C20.6508 32.3991 20.1049 32.7203 19.6823 32.7203H19.4011V38.8712V45.0221H25.1358H30.8704V38.8712V32.7203L30.5698 32.7188C30.1333 32.7166 29.5657 32.358 29.3246 31.9322C29.1502 31.6244 29.1158 31.4239 29.1145 30.7085L29.113 29.853H28.743H28.3731V30.6648C28.3731 31.7338 28.2734 31.8878 27.5816 31.8878H27.0781V33.784C27.0781 36.2388 27.2399 36.0501 25.1358 36.0501C23.0316 36.0501 23.1934 36.2388 23.1934 33.784V31.8878H22.6899C21.9982 31.8878 21.8985 31.7338 21.8985 30.6648V29.853H21.5392H21.1801L21.1437 30.7566ZM23.0084 30.3154V30.7779H25.1358H27.2631V30.3154V29.853H25.1358H23.0084V30.3154ZM30.223 30.5864C30.223 31.1297 30.2606 31.3573 30.3683 31.4651C30.4919 31.5886 30.8281 31.6104 32.6159 31.6104C34.1277 31.6104 34.7494 31.5792 34.8292 31.4994C34.8977 31.4308 34.9402 31.0944 34.9402 30.6207V29.853H32.5816H30.223V30.5864ZM24.3033 33.414V34.9402H25.0895H25.8757V33.414V31.8878H25.0895H24.3033V33.414ZM16.9963 38.8712V45.0221H17.6437H18.2912V38.8712V32.7203H17.6437H16.9963V38.8712ZM31.9804 38.8712V45.0221H32.6278H33.2753V38.8712V32.7203H32.6278H31.9804V38.8712ZM12.0346 46.2232C11.7041 46.3574 11.5391 46.6881 11.5391 47.2163V47.7044H25.1469H38.7546L38.7143 47.1458C38.6841 46.7287 38.6221 46.5354 38.4694 46.3827L38.2649 46.1782L25.2488 46.1605C18.0314 46.1506 12.1445 46.1786 12.0346 46.2232Z" fill="currentColor"/>
</svg>
