<svg xmlns="http://www.w3.org/2000/svg" width="53" height="53" viewBox="0 0 53 53" fill="none">
    <path fill-rule="evenodd" clip-rule="evenodd" d="M15.545 3.49361C15.2282 3.76409 9.10937 14.8492 9.10937 15.1529C9.10937 15.2955 9.22169 15.5429 9.35905 15.7027L9.60873 15.9931L11.2532 16.0277L12.8977 16.0623L12.0394 19.3402C11.5672 21.143 11.1807 22.7695 11.1803 22.9545C11.18 23.1536 11.2642 23.3754 11.3867 23.498C11.6456 23.7569 12.2204 23.7702 12.5039 23.5239C12.6677 23.3814 17.7103 14.4186 18.7359 12.4467C18.9966 11.9457 18.9609 11.611 18.612 11.2861C18.4053 11.0934 18.2512 11.0761 16.743 11.0761C15.2267 11.0761 15.1033 11.062 15.1516 10.895C15.5532 9.50176 16.873 4.27929 16.873 4.08323C16.873 3.47363 16.0149 3.09259 15.545 3.49361ZM41.1137 9.03832C40.6851 9.49472 40.7993 9.86738 41.6308 10.7249L42.3729 11.4902H34.237H26.1009L25.8865 11.763C25.5892 12.1409 25.6173 12.4866 25.9745 12.8439L26.277 13.1464H34.3307H42.3845L41.6366 13.8994C41.0362 14.5037 40.8887 14.7146 40.8887 14.9682C40.8887 15.4775 41.4929 15.9179 41.952 15.7433C42.1591 15.6646 44.9407 12.9342 45.1504 12.6038C45.3983 12.2135 45.2346 11.9693 43.6621 10.385C42.2095 8.92145 42.0588 8.79878 41.7133 8.79878C41.4557 8.79878 41.2686 8.87352 41.1137 9.03832ZM12.3991 12.4495L11.4068 14.2334L12.9071 14.2851C14.3515 14.3349 14.4152 14.3465 14.6159 14.5945C14.784 14.8024 14.8138 14.9525 14.7703 15.3709C14.7407 15.6562 14.6824 16.0061 14.6408 16.1484C14.5152 16.5782 14.6473 16.3715 15.6681 14.5405L16.6474 12.7841L15.0954 12.7324C13.7128 12.6863 13.5272 12.6587 13.3967 12.4797C13.2265 12.2465 13.2055 11.5924 13.3518 11.0823C13.4077 10.8872 13.4395 10.7136 13.4225 10.6965C13.4055 10.6795 12.9449 11.4682 12.3991 12.4495ZM26.4919 18.8682C26.2998 18.9976 26.0349 19.2634 25.9032 19.4588L25.6638 19.8141L25.6937 23.0978C25.7222 26.2281 25.7336 26.395 25.9371 26.6673C26.0545 26.8245 26.2791 27.049 26.4363 27.1664C26.7189 27.3775 26.8194 27.3801 35.3129 27.4075C44.8877 27.4383 44.3326 27.4777 44.9057 26.7263L45.1846 26.3608V23.0219C45.1846 19.7964 45.1772 19.6732 44.968 19.3908C44.8489 19.2301 44.5974 18.9938 44.4092 18.8657L44.067 18.6328H35.4541H26.8412L26.4919 18.8682ZM27.3281 23.0322V25.7753H35.4541H43.5801V23.0322V20.289H35.4541H27.3281V23.0322ZM38.9736 29.3392C38.7091 29.4567 38.1984 30.3153 35.5317 35.1253C32.1499 41.2254 32.1265 41.2792 32.6732 41.7092C32.9222 41.9052 33.0841 41.9238 34.5364 41.9238C35.5236 41.9238 36.127 41.9629 36.127 42.0269C36.127 42.0836 35.731 43.6375 35.2471 45.4801C34.7631 47.3226 34.3672 48.8797 34.3672 48.9403C34.3672 49.0009 34.4878 49.1938 34.6352 49.3689C34.962 49.7573 35.3824 49.7896 35.7496 49.4545C36.0126 49.2148 42.0983 38.3278 42.1461 38.0115C42.1609 37.9144 42.1384 37.7038 42.0964 37.5434C41.9726 37.0713 41.5301 36.955 39.8568 36.955C39.0579 36.955 38.4043 36.9278 38.4043 36.8945C38.4043 36.8612 38.8002 35.332 39.2842 33.4963C39.7681 31.6605 40.1641 30.0833 40.1641 29.9912C40.1641 29.7731 39.7554 29.3269 39.4912 29.2564C39.3773 29.226 39.1444 29.2633 38.9736 29.3392ZM8.99696 29.3926C8.52037 29.5392 8.19243 29.8201 7.97578 30.2678C7.77651 30.6794 7.76367 30.8928 7.76367 33.7955V36.8851L8.02101 37.3242C8.19254 37.6169 8.42772 37.8355 8.72657 37.9803C9.17035 38.1951 9.25595 38.1972 17.5527 38.1949C25.4992 38.1928 25.9525 38.1827 26.355 38C26.5883 37.894 26.8911 37.6505 27.0278 37.4588C27.2757 37.1112 27.2765 37.1019 27.3064 33.8795C27.3349 30.8154 27.3257 30.6276 27.1284 30.241C27.0141 30.0168 26.7444 29.7238 26.5291 29.59L26.1377 29.3466L17.7012 29.3284C13.0611 29.3185 9.14416 29.3474 8.99696 29.3926ZM9.41992 33.746V36.4375H17.5459H25.6719V33.746V31.0546H17.5459H9.41992V33.746ZM35.6232 38.4476C35.1032 39.3862 34.6777 40.1795 34.6777 40.2108C34.6777 40.242 35.332 40.2675 36.1316 40.2675C37.5564 40.2675 37.591 40.2729 37.8526 40.5346C38.1278 40.8097 38.1423 41.0994 37.9259 42.0013C37.8884 42.1579 37.885 42.2613 37.9185 42.2311C37.9951 42.162 39.8535 38.833 39.8535 38.765C39.8535 38.7374 39.2457 38.7148 38.5026 38.7148C36.5794 38.7148 36.2761 38.4994 36.5402 37.3212C36.6015 37.0478 36.6329 36.8055 36.6102 36.7827C36.5874 36.7599 36.1433 37.5092 35.6232 38.4476ZM9.40212 42.5142C8.55815 43.3515 7.84007 44.1234 7.80632 44.2297C7.77257 44.3361 7.7763 44.5478 7.8145 44.7003C7.89369 45.0155 10.4466 47.6517 10.9062 47.8929C11.4565 48.1815 12.1113 47.7939 12.1113 47.1797C12.1113 46.9036 11.9815 46.715 11.3634 46.0928L10.6155 45.3398H18.6164C24.5005 45.3398 26.6769 45.3079 26.8433 45.2194C27.3831 44.9318 27.4876 44.3512 27.074 43.9377L26.82 43.6835H18.7235H10.6271L11.3692 42.9183C11.9709 42.2978 12.1113 42.0912 12.1113 41.8266C12.1113 41.3877 11.7125 40.9921 11.2697 40.9921C10.979 40.9921 10.7405 41.1865 9.40212 42.5142Z" fill="currentColor"/>
</svg>
