<svg width="61" height="61" viewBox="0 0 61 61" fill="none" xmlns="http://www.w3.org/2000/svg">
    <path d="M15.25 55.9168C13.2277 55.9168 11.2883 55.1135 9.85831 53.6835C8.42835 52.2536 7.625 50.3141 7.625 48.2918C7.625 46.7668 8.0825 45.3435 8.89583 44.1489L22.875 19.8506V15.2502C22.2009 15.2502 21.5544 14.9824 21.0778 14.5057C20.6011 14.0291 20.3333 13.3826 20.3333 12.7085V10.1668C20.3333 8.81865 20.8689 7.52568 21.8222 6.57237C22.7755 5.61906 24.0685 5.0835 25.4167 5.0835H35.5833C36.9315 5.0835 38.2245 5.61906 39.1778 6.57237C40.1311 7.52568 40.6667 8.81865 40.6667 10.1668V12.7085C40.6667 13.3826 40.3989 14.0291 39.9222 14.5057C39.4456 14.9824 38.7991 15.2502 38.125 15.2502V19.8506L52.1042 44.1489C52.9175 45.3435 53.375 46.7668 53.375 48.2918C53.375 50.3141 52.5717 52.2536 51.1417 53.6835C49.7117 55.1135 47.7723 55.9168 45.75 55.9168H15.25ZM12.7083 48.2918C12.7083 48.9659 12.9761 49.6124 13.4528 50.0891C13.9294 50.5657 14.5759 50.8335 15.25 50.8335H45.75C46.4241 50.8335 47.0706 50.5657 47.5472 50.0891C48.0239 49.6124 48.2917 48.9659 48.2917 48.2918C48.2917 47.7581 48.1138 47.2497 47.8342 46.8431L42.0138 36.7781L35.5833 43.2085L22.6971 30.3222L13.1658 46.8431C12.8862 47.2497 12.7083 47.7581 12.7083 48.2918ZM33.0417 25.4168C32.3676 25.4168 31.7211 25.6846 31.2444 26.1613C30.7678 26.6379 30.5 27.2844 30.5 27.9585C30.5 28.6326 30.7678 29.2791 31.2444 29.7557C31.7211 30.2324 32.3676 30.5002 33.0417 30.5002C33.7158 30.5002 34.3622 30.2324 34.8389 29.7557C35.3156 29.2791 35.5833 28.6326 35.5833 27.9585C35.5833 27.2844 35.3156 26.6379 34.8389 26.1613C34.3622 25.6846 33.7158 25.4168 33.0417 25.4168Z" fill="currentColor"/>
</svg>
