<svg width="60" height="60" viewBox="0 0 60 60" fill="none" xmlns="http://www.w3.org/2000/svg">
    <path d="M24.0548 40.1826V43.9153H29.6539V47.648H10.9903V43.9153H16.5894V40.1826H3.60268C2.91835 40.1826 1.56369 38.7113 1.65856 37.9274L1.65234 15.2139C1.67878 14.2372 2.43777 13.164 3.39739 12.9152H37.2453C38.1971 13.2091 38.8955 14.063 38.9857 15.063L38.8784 38.4422C38.8612 39.0488 37.519 40.1811 37.04 40.1811H24.0533L24.0548 40.1826ZM35.253 16.5421H5.39128V36.4499H35.253V16.5421Z" fill="currentColor"/>
    <path d="M43.4541 12.8466C47.6192 13.1204 52.5635 12.3521 56.6368 12.8093C57.9044 12.9508 58.8469 13.9307 58.8982 15.2138L58.892 45.3928C58.7644 46.6914 57.7457 47.536 56.4875 47.6542C52.4499 48.0337 47.8292 47.3587 43.7278 47.6479C42.7729 47.5484 41.9968 46.8921 41.6204 46.0227L41.4727 15.0645C41.5909 14.0364 42.4105 13.0224 43.4541 12.8466ZM56.4035 15.2978H43.9611V19.0305H56.4035V15.2978ZM56.4035 21.519H43.9611V25.2517H56.4035V21.519ZM51.5292 43.3958C53.0269 41.898 51.0813 39.2587 49.1698 40.492C46.8369 41.9991 49.6411 45.2823 51.5292 43.3958Z" fill="currentColor"/>
</svg>
