<svg width="61" height="61" viewBox="0 0 61 61" fill="none" xmlns="http://www.w3.org/2000/svg">
    <path d="M50.3903 16.6968H44.2642V3.26465C44.2642 1.97974 43.1677 0.938477 41.8138 0.938477C40.4599 0.938477 39.3634 1.97974 39.3634 3.26465V16.6968H19.7599V3.26465C19.7599 1.97974 18.6634 0.938477 17.3083 0.938477C15.9532 0.938477 14.8591 1.97974 14.8591 3.26465V16.6968H8.73303C8.05548 16.6968 7.50781 17.7502 7.50781 18.3927V24.2123C7.50781 31.1933 19.7599 39.2991 19.7599 50.5118V54.2744H24.6608V59.1231H34.4625V54.2744H39.3634V50.5118C39.3634 39.2991 51.6155 31.1921 51.6155 24.2123V18.3927C51.6155 17.7502 51.0678 16.6968 50.3903 16.6968ZM28.2225 36.562C28.3021 36.3075 28.1404 36.0917 27.8598 36.0917H23.0999C22.8181 36.0917 22.7384 35.9341 22.9173 35.7292C22.9173 35.7292 32.7252 23.4147 32.9163 23.1771C33.0609 22.9517 33.2201 23.0304 33.1699 23.2899C33.0939 23.6184 31.0001 32.02 31.0001 32.02C30.8984 32.2673 31.0454 32.4551 31.3235 32.4551H36.0859C36.3665 32.4551 36.4559 32.6418 36.2844 32.8527C36.2844 32.8527 26.4619 45.4618 26.2854 45.6727C26.109 45.8837 25.9436 45.8194 26.033 45.4606L28.2225 36.562Z" fill="currentColor"/>
</svg>
