<svg width="60" height="60" viewBox="0 0 60 60" fill="none" xmlns="http://www.w3.org/2000/svg">
    <path d="M14.8458 31.566C11.507 31.0114 12.8512 25.8772 12.5961 23.5702C9.99942 22.5078 8.95235 19.235 10.9562 17.0823L12.7299 18.7366C11.6268 20.2444 13.5327 22.1106 14.9344 20.9065C16.1075 19.8986 15.034 18.8986 15.1523 18.6353C15.2052 18.5185 16.512 17.3689 16.7096 17.2318C16.8403 17.1399 16.873 17.0199 17.1001 17.0807C18.8162 19.6868 17.9123 22.4938 15.0807 23.6995V28.8399L15.3141 29.0736H20.0593V25.3351H39.9737V28.4505H43.941C44.081 28.4505 45.0067 28.935 45.1841 29.0752C46.9655 30.4646 45.892 34.2904 46.2203 36.2936C46.6154 36.7002 47.1569 36.8669 47.5972 37.2516C49.2572 38.6988 49.4937 41.2939 47.9845 42.9358L46.2171 41.512C46.0227 41.1771 46.9499 40.5042 46.1954 39.4325C45.5466 38.5103 44.4902 38.4791 43.7792 39.3499C42.8753 40.4574 43.9083 41.107 43.6345 41.5338L41.9216 42.9358C39.8943 40.621 41.0907 37.5133 43.7045 36.3155V31.175L43.4711 30.9413H39.9706V42.78H20.0562V31.5644C18.4801 31.379 16.3487 31.8136 14.8442 31.5644L14.8458 31.566ZM25.5031 32.8121H23.1694V34.0583H26.0476L27.6797 31.0986L29.4704 38.1068L32.0406 32.8121C32.3969 32.7374 32.288 32.8511 32.3891 33.01C32.8714 33.7795 33.2712 35.197 33.5964 36.0818C34.9624 34.9929 35.4105 33.5941 37.4844 34.0583V32.8106C36.0157 32.7124 35.0573 32.7296 34.0632 33.901C33.5326 32.6984 33.1048 31.2279 32.5198 30.0721C32.4373 29.907 32.5991 29.7792 32.1962 29.8525L29.8625 34.5241L27.9161 27.3586L25.5046 32.8121H25.5031Z" fill="currentColor"/>
    <path d="M18.8737 45.1376H40.6718C45.9445 46.2722 45.8855 53.524 40.5399 54.4954L18.7154 54.475C13.5032 53.3482 13.6041 46.0493 18.8737 45.1376ZM20.4253 47.9561C18.3818 48.2542 18.3756 51.352 20.4253 51.6533C23.2572 52.0692 23.2417 47.5449 20.4253 47.9561ZM29.4252 47.9561C27.0883 48.2982 27.5554 52.0206 29.9931 51.68C32.3687 51.3489 31.9451 47.5873 29.4252 47.9561ZM38.425 47.9561C36.3814 48.2542 36.3752 51.352 38.425 51.6533C41.2599 52.0692 41.2615 47.5418 38.425 47.9561Z" fill="currentColor"/>
    <path d="M31.5188 8.46171V11.4636H36.2829C36.3407 11.4636 37.1732 11.9392 37.2888 12.0261C37.8464 12.4511 38.2838 13.219 38.379 13.9252C38.5899 15.4894 38.5696 20.0554 38.3931 21.6543C38.2463 22.9736 37.2076 23.8473 35.9751 24.1064C32.367 23.8299 28.2636 24.4619 24.7179 24.1112C23.2231 23.9627 22.2734 22.8267 22.1422 21.3447C22.0001 19.7426 21.9376 15.2871 22.186 13.7925C22.3078 13.0578 22.8139 12.2884 23.4434 11.9044C23.5683 11.827 24.3602 11.4636 24.4134 11.4636H29.0212V8.46171C29.0212 8.43485 28.7135 8.42537 28.5464 8.23894C26.3205 5.74893 29.3336 2.62062 31.7562 4.35383C33.1417 5.34446 33.1839 7.79971 31.5204 8.46329L31.5188 8.46171ZM28.4979 19.1517C30.3708 17.2573 27.089 14.3786 25.6098 16.7833C24.3696 18.7994 27.0203 20.6463 28.4979 19.1517ZM34.7459 19.1517C36.5937 17.1957 33.3229 14.4023 31.8578 16.7833C30.5988 18.831 33.337 20.6432 34.7459 19.1517Z" fill="currentColor"/>
    <path d="M25.4539 33.1089L27.8649 27.5229L29.8108 34.8624L32.144 30.0774C32.5469 30.0024 32.3835 30.1348 32.4675 30.3024C33.0524 31.4863 33.4802 32.9924 34.0106 34.2242C35.0045 33.0227 35.9627 33.0068 37.4311 33.1073V34.3853C35.3576 33.9099 34.9096 35.3442 33.5439 36.4579C33.2188 35.5501 32.8191 34.0997 32.3369 33.3115C32.2373 33.1488 32.3462 33.0323 31.9885 33.1089L29.4188 38.5321L27.6285 31.3538L25.9968 34.3853H23.1191V33.1089H25.4524H25.4539Z" fill="currentColor" fill-opacity="0.09"/>
    <path d="M29.6791 47.9158C32.3286 47.539 32.7737 51.3841 30.2759 51.7208C27.7145 52.0672 27.2237 48.2638 29.6791 47.9158Z" fill="currentColor" fill-opacity="0.09"/>
    <path d="M39.0469 47.9175C42.0317 47.4919 42.03 52.1425 39.0469 51.7153C36.89 51.4058 36.8965 48.2253 39.0469 47.9175Z" fill="currentColor" fill-opacity="0.09"/>
    <path d="M20.8847 47.9173C23.8553 47.4933 23.8717 52.1425 20.8847 51.7153C18.7227 51.4058 18.7292 48.2252 20.8847 47.9173Z" fill="currentColor" fill-opacity="0.09"/>
    <path d="M28.0501 18.7184C26.5405 20.2228 23.8324 18.3637 25.0995 16.3345C26.6107 13.9141 29.9635 16.8116 28.0501 18.7184ZM26.6235 16.4156C25.425 16.7671 26.0027 18.6118 27.1916 18.2667C28.2352 17.963 27.857 16.0531 26.6235 16.4156Z" fill="currentColor" fill-opacity="0.09"/>
    <path d="M34.6657 18.7155C33.2224 20.2156 30.4176 18.3929 31.7072 16.3335C33.208 13.9389 36.5585 16.7483 34.6657 18.7155ZM33.2352 16.4146C32.0336 16.7658 32.6128 18.609 33.8049 18.2642C34.8513 17.9607 34.4721 16.0523 33.2352 16.4146Z" fill="currentColor" fill-opacity="0.09"/>
    <path d="M27.0166 16.5526C28.1266 16.2439 28.4669 17.8715 27.5278 18.1287C26.458 18.4226 25.9382 16.8518 27.0166 16.5526Z" fill="currentColor"/>
    <path d="M33.0713 16.5526C34.1813 16.2439 34.5216 17.8715 33.5825 18.1287C32.5127 18.4226 31.9928 16.8518 33.0713 16.5526Z" fill="currentColor"/>
</svg>
