<svg width="49" height="49" viewBox="0 0 49 49" fill="none" xmlns="http://www.w3.org/2000/svg">
    <g clip-path="url(#clip0_1040_374)">
        <path fill-rule="evenodd" clip-rule="evenodd" d="M22.9144 35.9204L13.0794 26.0854C14.1609 24.2759 15.2389 22.4034 16.3064 20.5414C19.8624 14.3604 23.3344 8.32641 26.5894 5.1869C35.4234 -3.6471 47.5229 1.4769 47.5229 1.4769C47.5229 1.4769 52.6469 13.5764 43.8129 22.4104C40.6979 25.6374 34.7584 29.0604 28.6229 32.5884C26.7119 33.6909 24.7834 34.8004 22.9144 35.9204ZM30.4044 13.0584C30.4044 11.5899 30.9878 10.1815 32.0262 9.14316C33.0646 8.10477 34.4729 7.5214 35.9414 7.5214C37.4099 7.5214 38.8183 8.10477 39.8567 9.14316C40.8951 10.1815 41.4784 11.5899 41.4784 13.0584C41.4421 14.5023 40.843 15.8749 39.8089 16.8834C38.7748 17.8918 37.3876 18.4562 35.9432 18.4562C34.4988 18.4562 33.1116 17.8918 32.0775 16.8834C31.0434 15.8749 30.4408 14.5023 30.4044 13.0584ZM16.0929 12.2464C11.1299 10.9269 6.47144 13.3699 2.33794 17.1604C2.14732 17.34 2.00132 17.5616 1.9116 17.8076C1.82187 18.0537 1.7909 18.3173 1.82117 18.5774C1.85143 18.8375 1.94208 19.087 2.08589 19.3058C2.22971 19.5247 2.42269 19.7069 2.64944 19.8379L9.31694 23.8559L9.32394 23.8419C10.2864 22.2319 11.3609 20.3664 12.4529 18.4764C13.6954 16.3169 14.9589 14.1259 16.0929 12.2464ZM25.1474 39.6864L29.1654 46.3539C29.2968 46.5804 29.4792 46.7731 29.6982 46.9166C29.9172 47.06 30.1667 47.1503 30.4269 47.1803C30.687 47.2102 30.9505 47.1789 31.1963 47.0889C31.4422 46.9989 31.6636 46.8527 31.8429 46.6619C35.6334 42.5319 38.0799 37.8699 36.7569 32.9069C34.9299 34.0059 33.0119 35.1119 31.1114 36.2074L30.8209 36.3754C28.9029 37.4814 27.0024 38.5734 25.1649 39.6759L25.1474 39.6864ZM9.17694 32.7004C10.5915 32.6753 11.9805 33.0795 13.1608 33.8596C14.3411 34.6398 15.2573 35.7593 15.7886 37.0705C16.3199 38.3818 16.4415 39.8232 16.1371 41.2049C15.8328 42.5866 15.117 43.8437 14.0839 44.8104C13.3069 45.5524 12.0924 46.1369 10.9689 46.5814C9.70847 47.0663 8.42336 47.4846 7.11894 47.8344C5.83444 48.1844 4.60944 48.4644 3.68194 48.6499C3.29198 48.7299 2.89982 48.7987 2.50594 48.8564C2.35194 48.8774 2.19677 48.8926 2.04044 48.9019C1.80661 48.923 1.57094 48.8968 1.34744 48.8249C1.01895 48.7293 0.725689 48.5394 0.50394 48.2789C0.313492 48.0583 0.181154 47.7936 0.11894 47.5089C0.0746657 47.3068 0.0605127 47.0992 0.0769395 46.8929C0.0874395 46.7529 0.10844 46.5919 0.12944 46.4449C0.17494 46.1369 0.24494 45.7344 0.33944 45.2759C0.52494 44.3519 0.81194 43.1339 1.16194 41.8564C1.51194 40.5824 1.93894 39.2174 2.41844 38.0239C2.86644 36.9004 3.44744 35.6894 4.18944 34.9159C4.83006 34.2315 5.60164 33.6827 6.45839 33.3021C7.31514 32.9215 8.23961 32.7169 9.17694 32.7004Z" fill="currentColor"/>
    </g>
    <defs>
        <clipPath id="clip0_1040_374">
            <rect width="49" height="49" fill="white"/>
        </clipPath>
    </defs>
</svg>
