<svg xmlns="http://www.w3.org/2000/svg" width="47" height="47" viewBox="0 0 47 47" fill="none">
    <path d="M23.3747 3.89581C12.6222 3.89581 3.89551 12.6225 3.89551 23.375C3.89551 34.1275 12.6222 42.8541 23.3747 42.8541C34.1272 42.8541 42.8538 34.1275 42.8538 23.375C42.8538 12.6225 34.1272 3.89581 23.3747 3.89581ZM32.413 17.1416C32.1208 20.2194 30.8547 27.6994 30.2119 31.1472C29.9392 32.6081 29.3937 33.0951 28.8873 33.1535C27.7575 33.2509 26.9004 32.4133 25.8096 31.6926C24.0954 30.5628 23.1214 29.8615 21.4657 28.7707C19.5373 27.5046 20.7839 26.8033 21.8943 25.6735C22.1864 25.3813 27.1731 20.8427 27.2705 20.4336C27.284 20.3717 27.2822 20.3073 27.2653 20.2462C27.2483 20.1851 27.2167 20.1291 27.1731 20.083C27.0562 19.9856 26.9004 20.0246 26.764 20.044C26.5887 20.083 23.8617 21.8946 18.5438 25.4787C17.7647 26.0047 17.0634 26.2774 16.4401 26.2579C15.7388 26.2384 14.4143 25.8683 13.4208 25.5372C12.1936 25.1476 11.2392 24.9333 11.3171 24.2515C11.356 23.9009 11.843 23.5503 12.7585 23.1802C18.4464 20.7063 22.2254 19.0701 24.1149 18.2909C29.5301 16.0313 30.6404 15.6417 31.3806 15.6417C31.5364 15.6417 31.9065 15.6807 32.1403 15.8755C32.3351 16.0313 32.3935 16.2456 32.413 16.4014C32.3935 16.5183 32.4325 16.8689 32.413 17.1416Z" fill="#00B3FF"/>
</svg>
