<svg xmlns="http://www.w3.org/2000/svg" width="48" height="47" viewBox="0 0 48 47" fill="none">
  <path d="M24.1246 3.50623C13.1513 3.50623 4.25586 12.4016 4.25586 23.375C4.25586 34.3483 13.1513 43.2437 24.1246 43.2437C35.098 43.2437 43.9934 34.3483 43.9934 23.375C43.9934 12.4016 35.098 3.50623 24.1246 3.50623ZM31.7658 25.9227C31.7658 25.9227 33.5229 27.6571 33.9555 28.4622C33.9679 28.4801 33.9755 28.4939 33.9783 28.5036C34.1535 28.7975 34.197 29.03 34.1087 29.2011C33.9638 29.4867 33.4671 29.6274 33.2973 29.6398H30.1929C29.9776 29.6398 29.5264 29.584 28.98 29.2073C28.5599 28.9134 28.146 28.4312 27.7424 27.9613C27.1401 27.2618 26.6186 26.6575 26.0929 26.6575C26.0261 26.6572 25.9597 26.6676 25.8962 26.6885C25.4989 26.8168 24.9897 27.3839 24.9897 28.8948C24.9897 29.3666 24.6172 29.6378 24.3543 29.6378H22.9325C22.4482 29.6378 19.9253 29.4681 17.69 27.1107C14.9539 24.2235 12.491 18.4326 12.4703 18.3788C12.3151 18.0042 12.6359 17.8034 12.9857 17.8034H16.1212C16.5393 17.8034 16.6759 18.058 16.7711 18.2836C16.8829 18.5465 17.2927 19.5916 17.9653 20.7672C19.056 22.6837 19.7245 23.4619 20.2606 23.4619C20.3611 23.4607 20.4598 23.4352 20.5482 23.3874C21.2478 22.9983 21.1174 20.5044 21.0863 19.9869C21.0863 19.8897 21.0843 18.8714 20.7262 18.383C20.4696 18.029 20.0329 17.8945 19.768 17.8448C19.8752 17.6969 20.0165 17.5769 20.1798 17.4951C20.66 17.255 21.5251 17.2198 22.384 17.2198H22.8621C23.7935 17.2322 24.0335 17.2922 24.3709 17.3771C25.0539 17.5406 25.0684 17.9814 25.0084 19.4902C24.9897 19.9186 24.9711 20.4029 24.9711 20.9742L24.9649 21.3715C24.9442 22.1394 24.9194 23.0107 25.4616 23.3688C25.5315 23.4149 25.6138 23.4387 25.6976 23.4371C25.8859 23.4371 26.453 23.4371 27.9887 20.8024C28.4605 19.9535 28.872 19.0724 29.2201 18.1656C29.2512 18.1118 29.3422 17.9463 29.4498 17.8821C29.5301 17.844 29.6176 17.8235 29.7065 17.8221H33.3926C33.7941 17.8221 34.0693 17.8821 34.1211 18.0373C34.2121 18.2836 34.1045 19.0349 32.4219 21.3136L31.6706 22.305C30.1453 24.3043 30.1453 24.4057 31.7658 25.9227Z" fill="#3F6075"/>
</svg>
