<svg xmlns="http://www.w3.org/2000/svg" width="367" height="277" viewBox="0 0 367 277" fill="none">
    <path fill-rule="evenodd" clip-rule="evenodd" d="M136.632 2.32545C135.148 3.24109 130.14 6.25961 125.504 9.03367C120.868 11.8081 112.144 17.0344 106.117 20.6483C100.09 24.2622 92.5984 28.7236 89.469 30.5625C86.3397 32.401 78.8482 36.8954 72.8214 40.55C66.7945 44.2046 59.5875 48.5412 56.8059 50.1866C36.8304 62.0035 3.41917 82.8663 2.28417 84.2314C0.0668745 86.899 0.0849971 86.5273 0.212278 126.526L0.330286 163.571L1.32198 165.897C1.86693 167.176 2.91004 168.868 3.64001 169.656C5.5075 171.673 16.0394 178.21 16.9708 177.93C17.4407 177.789 19.6626 178.886 23.1367 180.975C29.497 184.8 49.4868 196.863 61.2312 203.965C65.7514 206.698 74.0015 211.709 79.5647 215.1C85.128 218.491 96.7919 225.58 105.484 230.853C128.278 244.681 151.826 259.137 159.853 264.232C163.678 266.659 167.076 268.647 167.405 268.65C168.254 268.657 171.777 266.718 178.736 262.414C182.053 260.363 184.854 258.685 184.961 258.685C185.067 258.685 187.133 259.86 189.552 261.297L193.948 263.908L194.075 265.983L194.202 268.056L201.315 272.344C205.228 274.702 208.57 276.631 208.742 276.631C208.915 276.631 210.976 275.445 213.324 273.994L217.593 271.358V269.456V267.554L228.867 260.495C235.067 256.612 250.667 246.917 263.532 238.95C276.397 230.983 293.94 220.072 302.517 214.704C311.094 209.336 326.51 199.785 336.775 193.481C354.281 182.729 355.487 182.057 356.196 182.664C356.611 183.021 357.248 183.312 357.61 183.312C358.564 183.312 365.806 178.722 366.339 177.78C366.603 177.313 366.79 174.432 366.79 170.817V164.651L360.573 160.875C357.154 158.799 354.124 156.978 353.839 156.828C353.554 156.679 352.281 157.186 351.01 157.956C349.738 158.725 348.589 159.189 348.457 158.986C348.233 158.643 326.898 145.73 314.212 138.26L308.628 134.971V120.472C308.628 107.278 308.557 105.802 307.843 104.065C307.411 103.015 306.928 101.48 306.769 100.655C306.501 99.2602 306.084 98.9025 300.916 95.6307C294.178 91.3644 292.999 90.769 291.855 91.0521C291.222 91.2088 289.244 90.2505 284.942 87.7026C281.627 85.7397 276.924 82.9648 274.49 81.5359C272.056 80.107 255.176 70.1474 236.98 59.4029C195.012 34.6231 174.233 22.4138 166.975 18.2703C158.433 13.3945 155.521 11.4001 154.784 9.92458C154.428 9.21153 153.182 8.01912 152.015 7.27536C147.065 4.12125 140.839 0.661255 140.114 0.661255C139.684 0.661255 138.117 1.4102 136.632 2.32545ZM134.246 4.74896C131.195 6.55831 128.693 8.12879 128.685 8.23846C128.677 8.34813 131.467 10.1527 134.885 12.2484L141.098 16.0589L147.09 12.6472C150.385 10.7708 153.084 9.14573 153.088 9.03606C153.096 8.75251 140.69 1.45886 140.2 1.45886C139.976 1.45886 137.297 2.9396 134.246 4.74896ZM114.505 16.6595C107.573 20.8521 98.9624 25.9978 95.3695 28.0939C91.7765 30.1904 85.1385 34.1397 80.6184 36.8699C76.0982 39.6001 69.2132 43.7416 65.319 46.073C47.0424 57.0137 13.9413 77.2951 14.1272 77.4387C14.9655 78.0875 26.6787 84.8081 26.9712 84.8081C27.1924 84.8081 29.1594 83.6811 31.3421 82.304C33.5253 80.9266 38.5356 77.8478 42.4763 75.4622C46.4169 73.0766 56.2791 67.0495 64.3922 62.0689C72.5053 57.0879 87.6778 47.9354 98.109 41.7297C114.148 32.1876 123.389 26.6562 137.885 17.9233L140.152 16.5582L134.092 12.8067C130.759 10.7433 127.824 9.05081 127.57 9.04563C127.316 9.04045 121.436 12.4665 114.505 16.6595ZM150.897 11.4372C149.796 12.0913 148.895 12.6998 148.895 12.7892C148.895 12.8785 151.313 14.3788 154.268 16.1223C159.591 19.2629 182.494 32.7371 196.309 40.8555C200.25 43.1714 207.457 47.4313 212.325 50.3222C228.264 59.7882 270.736 84.8567 278.661 89.4764C283.248 92.15 286.692 93.9123 287.091 93.7899C287.462 93.6762 288.314 93.1669 288.984 92.6577L290.203 91.7325L272.969 81.6149C263.49 76.0504 249.95 68.0665 242.88 63.8727C235.81 59.6793 222.155 51.612 212.535 45.9454C202.915 40.2789 191.306 33.4259 186.736 30.7164C182.166 28.0066 174.77 23.6956 170.299 21.1357C160.869 15.7359 155.34 12.2819 154.203 11.0811C153.761 10.6141 153.287 10.236 153.149 10.24C153.012 10.244 151.998 10.7828 150.897 11.4372ZM140.044 17.7522C135.988 20.1291 124.798 26.7934 115.178 32.5621C105.558 38.3307 93.2306 45.6898 87.7832 48.9153C82.3358 52.1404 67.3529 61.2458 54.4879 69.1492C25.5003 86.9572 22.945 88.548 22.9231 88.7961C22.9062 88.9867 32.6659 94.8176 51.7484 106.017C66.0755 114.425 78.3336 121.704 91.3656 129.54C98.0879 133.582 105.39 137.947 107.592 139.239C109.794 140.531 118.613 145.825 127.19 151.003C135.766 156.18 144.15 161.215 145.821 162.193C147.491 163.17 151.532 165.62 154.799 167.637L160.74 171.305L163.773 169.464C165.442 168.452 168.04 166.874 169.546 165.958C176.619 161.66 200.205 147.086 208.53 141.869C213.635 138.671 226.209 130.939 236.473 124.688C246.737 118.437 259.347 110.754 264.496 107.615C269.645 104.477 276.466 100.352 279.653 98.4494C282.84 96.5468 285.448 94.865 285.448 94.7119C285.448 94.5588 283.219 93.1306 280.496 91.5386C277.772 89.9466 268.526 84.4878 259.949 79.4075C245.246 70.6981 194.799 40.9253 175.868 29.7836C171.116 26.9868 162.92 22.1618 157.654 19.0607C152.389 15.96 147.932 13.4249 147.75 13.4272C147.569 13.4292 144.101 15.3758 140.044 17.7522ZM149.316 22.872C148.637 23.1017 147.63 24.1554 147.63 24.6371C147.63 25.3585 149.074 26.1845 150.335 26.1845C152.964 26.1845 153.865 23.7964 151.55 22.9634C150.432 22.5618 150.256 22.5542 149.316 22.872ZM148.983 24.0612C148.151 24.3771 149.208 25.3869 150.37 25.3869C151.375 25.3869 152.451 24.4975 151.982 24.0541C151.663 23.7518 149.786 23.7566 148.983 24.0612ZM146.366 42.7347C146.366 43.1004 146.57 43.3349 146.819 43.2563C147.068 43.1777 147.272 42.9428 147.272 42.7347C147.272 42.5265 147.068 42.2916 146.819 42.213C146.57 42.1345 146.366 42.369 146.366 42.7347ZM149.609 43.9865C149.272 44.3051 149.653 44.9281 150.184 44.9281C150.402 44.9281 150.581 44.6589 150.581 44.3299C150.581 43.7133 150.083 43.5375 149.609 43.9865ZM142.766 44.556C142.613 44.7897 142.59 45.0768 142.713 45.1941C143.015 45.4796 143.837 44.9763 143.837 44.5057C143.837 43.9961 143.11 44.03 142.766 44.556ZM152.548 45.5929C152.063 46.0515 152.24 46.5233 152.899 46.5233C153.246 46.5233 153.531 46.2541 153.531 45.9251C153.531 45.3021 153.032 45.1339 152.548 45.5929ZM145.945 46.3239C145.945 46.6896 146.149 46.9241 146.398 46.8455C146.647 46.7669 146.851 46.532 146.851 46.3239C146.851 46.1157 146.647 45.8808 146.398 45.8022C146.149 45.7237 145.945 45.9582 145.945 46.3239ZM139.43 46.4958C139.118 46.9731 139.911 47.4457 140.472 47.1175C140.944 46.8419 140.634 46.1245 140.044 46.1245C139.84 46.1245 139.563 46.2916 139.43 46.4958ZM155.638 47.7197C155.638 47.939 155.828 48.1185 156.06 48.1185C156.291 48.1185 156.481 47.939 156.481 47.7197C156.481 47.5003 156.291 47.3209 156.06 47.3209C155.828 47.3209 155.638 47.5003 155.638 47.7197ZM136.099 47.9964C135.624 48.4455 135.81 48.9161 136.462 48.9161C136.809 48.9161 137.094 48.7474 137.094 48.5408C137.094 48.0379 136.436 47.6778 136.099 47.9964ZM142.854 47.9857C142.369 48.4443 142.547 48.9161 143.205 48.9161C143.553 48.9161 143.837 48.6469 143.837 48.3179C143.837 47.6949 143.339 47.5267 142.854 47.9857ZM148.895 48.3179C148.895 48.6836 149.099 48.9181 149.348 48.8395C149.597 48.7609 149.801 48.526 149.801 48.3179C149.801 48.1097 149.597 47.8748 149.348 47.7962C149.099 47.7177 148.895 47.9522 148.895 48.3179ZM157.974 49.2874C157.687 49.728 158.351 50.2042 158.741 49.8357C159.141 49.4564 159.066 48.9161 158.613 48.9161C158.395 48.9161 158.108 49.0832 157.974 49.2874ZM139.264 50.0925C139.446 50.6066 140.024 50.6991 140.076 50.2221C140.093 50.063 139.88 49.8612 139.602 49.7735C139.324 49.6858 139.172 49.8293 139.264 50.0925ZM145.198 50.1874C145.459 50.9268 146.366 51.0493 146.366 50.345C146.366 49.9976 146.066 49.7137 145.699 49.7137C145.332 49.7137 145.106 49.9266 145.198 50.1874ZM151.845 50.1125C151.845 50.3318 152.13 50.5113 152.477 50.5113C152.825 50.5113 153.109 50.3318 153.109 50.1125C153.109 49.8931 152.825 49.7137 152.477 49.7137C152.13 49.7137 151.845 49.8931 151.845 50.1125ZM132.704 50.4578C132.522 50.7358 132.487 51.0708 132.627 51.2024C133.004 51.5593 133.415 51.0345 133.211 50.4562C133.069 50.0511 132.969 50.0511 132.704 50.4578ZM160.893 50.93C160.493 51.5434 161.041 51.939 161.582 51.4269C161.885 51.1406 161.892 50.9176 161.604 50.7493C161.368 50.6114 161.048 50.6927 160.893 50.93ZM155.065 51.1868C154.59 51.6359 154.776 52.1065 155.427 52.1065C155.775 52.1065 156.06 51.9378 156.06 51.7312C156.06 51.2283 155.401 50.8682 155.065 51.1868ZM148.743 51.5856C148.268 52.0347 148.454 52.5053 149.106 52.5053C149.453 52.5053 149.738 52.3366 149.738 52.13C149.738 51.6271 149.079 51.267 148.743 51.5856ZM142.152 52.3059C142.152 52.6716 142.355 52.9061 142.605 52.8275C142.854 52.7489 143.058 52.514 143.058 52.3059C143.058 52.0977 142.854 51.8628 142.605 51.7842C142.355 51.7057 142.152 51.9402 142.152 52.3059ZM129.167 52.5352C129.25 52.7709 129.498 52.9639 129.718 52.9639C129.938 52.9639 130.187 52.7709 130.27 52.5352C130.353 52.2995 130.105 52.1065 129.718 52.1065C129.332 52.1065 129.084 52.2995 129.167 52.5352ZM135.83 52.5053C135.83 52.7246 136.008 52.9041 136.226 52.9041C136.445 52.9041 136.74 52.7246 136.883 52.5053C137.027 52.2859 136.848 52.1065 136.487 52.1065C136.125 52.1065 135.83 52.2859 135.83 52.5053ZM163.839 52.532C163.452 53.1258 163.901 53.4484 164.708 53.1557C165.081 53.0205 165.267 52.729 165.123 52.5081C164.781 51.9852 164.189 51.996 163.839 52.532ZM151.424 53.9011C151.424 54.2668 151.628 54.5013 151.877 54.4227C152.126 54.3441 152.33 54.1092 152.33 53.9011C152.33 53.6929 152.126 53.458 151.877 53.3794C151.628 53.3009 151.424 53.5354 151.424 53.9011ZM157.746 53.7017C157.746 53.921 157.924 54.1005 158.142 54.1005C158.36 54.1005 158.656 53.921 158.799 53.7017C158.942 53.4823 158.764 53.3029 158.403 53.3029C158.041 53.3029 157.746 53.4823 157.746 53.7017ZM132.458 54.2999C132.458 54.6656 132.662 54.9001 132.911 54.8215C133.16 54.7429 133.364 54.508 133.364 54.2999C133.364 54.0917 133.16 53.8568 132.911 53.7782C132.662 53.6997 132.458 53.9342 132.458 54.2999ZM138.78 54.1005C138.78 54.3198 139.064 54.4993 139.412 54.4993C139.76 54.4993 140.044 54.3198 140.044 54.1005C140.044 53.8811 139.76 53.7017 139.412 53.7017C139.064 53.7017 138.78 53.8811 138.78 54.1005ZM145.102 54.1005C145.102 54.3198 145.291 54.4993 145.523 54.4993C145.755 54.4993 145.945 54.3198 145.945 54.1005C145.945 53.8811 145.755 53.7017 145.523 53.7017C145.291 53.7017 145.102 53.8811 145.102 54.1005ZM125.943 54.4718C125.656 54.9124 126.32 55.3886 126.71 55.0201C127.11 54.6408 127.035 54.1005 126.582 54.1005C126.364 54.1005 126.077 54.2676 125.943 54.4718ZM167.299 54.3665C166.814 54.8251 166.992 55.2969 167.65 55.2969C167.998 55.2969 168.282 55.0277 168.282 54.6987C168.282 54.0757 167.783 53.9075 167.299 54.3665ZM154.245 55.1529C153.908 55.4715 154.289 56.0945 154.82 56.0945C155.038 56.0945 155.217 55.8253 155.217 55.4963C155.217 54.8797 154.719 54.7039 154.245 55.1529ZM160.355 55.3268C160.438 55.5625 160.686 55.7555 160.906 55.7555C161.126 55.7555 161.375 55.5625 161.458 55.3268C161.541 55.0911 161.293 54.8981 160.906 54.8981C160.52 54.8981 160.272 55.0911 160.355 55.3268ZM141.601 55.5517C141.264 55.8703 141.645 56.4933 142.176 56.4933C142.395 56.4933 142.573 56.2241 142.573 55.8951C142.573 55.2785 142.076 55.1027 141.601 55.5517ZM147.711 55.7256C147.794 55.9613 148.043 56.1543 148.263 56.1543C148.483 56.1543 148.731 55.9613 148.814 55.7256C148.897 55.4899 148.649 55.2969 148.263 55.2969C147.876 55.2969 147.628 55.4899 147.711 55.7256ZM122.541 56.1144C122.14 56.7278 122.688 57.1234 123.23 56.6113C123.532 56.325 123.539 56.102 123.252 55.9338C123.016 55.7958 122.696 55.8771 122.541 56.1144ZM128.934 55.9724C128.46 56.4215 128.645 56.8921 129.297 56.8921C129.645 56.8921 129.929 56.7234 129.929 56.5168C129.929 56.0139 129.271 55.6538 128.934 55.9724ZM135.197 56.0945C135.054 56.3138 135.233 56.4933 135.594 56.4933C135.955 56.4933 136.251 56.3138 136.251 56.0945C136.251 55.8751 136.073 55.6957 135.854 55.6957C135.636 55.6957 135.341 55.8751 135.197 56.0945ZM170.389 56.7258C170.389 57.0731 170.614 57.2865 170.89 57.1995C171.671 56.9531 171.801 56.0945 171.056 56.0945C170.689 56.0945 170.389 56.3784 170.389 56.7258ZM163.517 56.7481C163.18 57.0667 163.561 57.6897 164.092 57.6897C164.311 57.6897 164.489 57.4205 164.489 57.0915C164.489 56.4749 163.992 56.2991 163.517 56.7481ZM138.229 57.1469C137.893 57.4656 138.273 58.0885 138.805 58.0885C139.023 58.0885 139.201 57.8193 139.201 57.4903C139.201 56.8737 138.704 56.6979 138.229 57.1469ZM144.34 57.3208C144.423 57.5565 144.671 57.7495 144.891 57.7495C145.111 57.7495 145.359 57.5565 145.442 57.3208C145.525 57.0851 145.277 56.8921 144.891 56.8921C144.505 56.8921 144.257 57.0851 144.34 57.3208ZM150.81 57.2634C150.522 57.704 151.186 58.1802 151.576 57.8117C151.976 57.4324 151.902 56.8921 151.448 56.8921C151.23 56.8921 150.943 57.0592 150.81 57.2634ZM157.113 57.2909C156.97 57.5102 157.149 57.6897 157.51 57.6897C157.871 57.6897 158.167 57.5102 158.167 57.2909C158.167 57.0715 157.989 56.8921 157.77 56.8921C157.552 56.8921 157.257 57.0715 157.113 57.2909ZM119.241 57.9664C118.766 58.4155 118.952 58.8861 119.603 58.8861C119.951 58.8861 120.236 58.7174 120.236 58.5108C120.236 58.0079 119.577 57.6478 119.241 57.9664ZM125.374 58.1184C125.457 58.3541 125.705 58.5471 125.925 58.5471C126.145 58.5471 126.394 58.3541 126.477 58.1184C126.56 57.8827 126.312 57.6897 125.925 57.6897C125.539 57.6897 125.291 57.8827 125.374 58.1184ZM131.615 58.0885C131.615 58.3078 131.899 58.4873 132.247 58.4873C132.595 58.4873 132.879 58.3078 132.879 58.0885C132.879 57.8691 132.595 57.6897 132.247 57.6897C131.899 57.6897 131.615 57.8691 131.615 58.0885ZM166.825 58.4598C166.513 58.9371 167.306 59.4097 167.867 59.0815C168.339 58.8059 168.029 58.0885 167.439 58.0885C167.235 58.0885 166.958 58.2556 166.825 58.4598ZM173.568 58.4598C173.281 58.9004 173.945 59.3766 174.335 59.0081C174.735 58.6288 174.66 58.0885 174.207 58.0885C173.989 58.0885 173.702 58.2556 173.568 58.4598ZM141.18 58.7421C140.843 59.0608 141.223 59.6837 141.755 59.6837C141.973 59.6837 142.152 59.4145 142.152 59.0855C142.152 58.4689 141.654 58.2931 141.18 58.7421ZM147.301 58.9475C147.52 59.5688 148.462 59.6773 148.496 59.0855C148.508 58.8661 148.202 58.6249 147.815 58.5487C147.375 58.4629 147.183 58.6121 147.301 58.9475ZM154.013 58.849C153.589 59.0982 153.569 59.2598 153.936 59.4743C154.514 59.8125 154.948 59.513 154.734 58.924C154.646 58.6823 154.349 58.6516 154.013 58.849ZM160.274 59.1186C160.274 59.4659 160.499 59.6793 160.775 59.5923C161.556 59.3459 161.686 58.4873 160.941 58.4873C160.574 58.4873 160.274 58.7712 160.274 59.1186ZM134.835 59.1628C134.36 59.6119 134.546 60.0825 135.197 60.0825C135.545 60.0825 135.83 59.9138 135.83 59.7072C135.83 59.2043 135.171 58.8442 134.835 59.1628ZM128.524 59.5509C128.039 60.0095 128.217 60.4813 128.876 60.4813C129.223 60.4813 129.508 60.2121 129.508 59.8831C129.508 59.2602 129.009 59.0919 128.524 59.5509ZM115.869 59.9604C115.394 60.4095 115.58 60.8801 116.232 60.8801C116.579 60.8801 116.864 60.7114 116.864 60.5048C116.864 60.0019 116.206 59.6418 115.869 59.9604ZM122.002 60.1124C122.085 60.3481 122.334 60.5411 122.554 60.5411C122.774 60.5411 123.022 60.3481 123.105 60.1124C123.188 59.8767 122.94 59.6837 122.554 59.6837C122.167 59.6837 121.919 59.8767 122.002 60.1124ZM176.519 60.055C176.207 60.5323 176.999 61.0049 177.561 60.6767C178.032 60.4011 177.723 59.6837 177.133 59.6837C176.928 59.6837 176.652 59.8508 176.519 60.055ZM163.442 60.4713C163.101 60.9925 164.071 61.4348 164.554 60.9782C164.824 60.7229 164.743 60.5056 164.32 60.3521C163.964 60.2229 163.569 60.2767 163.442 60.4713ZM169.968 60.7138C169.968 61.0611 170.193 61.2745 170.469 61.1875C171.25 60.9411 171.379 60.0825 170.635 60.0825C170.268 60.0825 169.968 60.3664 169.968 60.7138ZM137.785 60.758C137.31 61.2071 137.496 61.6777 138.148 61.6777C138.495 61.6777 138.78 61.509 138.78 61.3024C138.78 60.7995 138.122 60.4394 137.785 60.758ZM143.917 60.9052C144.018 61.1927 144.35 61.507 144.654 61.6031C144.97 61.7028 145.128 61.5532 145.023 61.2541C144.921 60.9662 144.589 60.652 144.285 60.5562C143.969 60.4565 143.811 60.6061 143.917 60.9052ZM150.353 60.9068C149.965 61.5006 150.415 61.8232 151.221 61.5305C151.594 61.3953 151.781 61.1038 151.636 60.8829C151.295 60.36 150.702 60.3708 150.353 60.9068ZM156.984 60.91C157.067 61.1457 157.315 61.3387 157.535 61.3387C157.755 61.3387 158.003 61.1457 158.086 60.91C158.169 60.6743 157.921 60.4813 157.535 60.4813C157.148 60.4813 156.9 60.6743 156.984 60.91ZM131.29 61.3538C131.551 62.0932 132.458 62.2157 132.458 61.5114C132.458 61.164 132.158 60.8801 131.791 60.8801C131.424 60.8801 131.198 61.093 131.29 61.3538ZM124.935 61.6577C125.116 62.1718 125.694 62.2643 125.746 61.7873C125.763 61.6282 125.55 61.4264 125.272 61.3387C124.994 61.251 124.842 61.3945 124.935 61.6577ZM179.872 61.6777C179.704 61.9353 179.756 62.3253 179.988 62.5447C180.269 62.8107 180.511 62.7875 180.715 62.4753C180.883 62.2177 180.831 61.8276 180.6 61.6083C180.318 61.3423 180.076 61.3654 179.872 61.6777ZM112.457 62.049C112.169 62.4896 112.833 62.9658 113.223 62.5973C113.623 62.218 113.549 61.6777 113.096 61.6777C112.877 61.6777 112.59 61.8448 112.457 62.049ZM118.55 62.0765C118.55 62.2958 118.834 62.4753 119.182 62.4753C119.53 62.4753 119.814 62.2958 119.814 62.0765C119.814 61.8571 119.53 61.6777 119.182 61.6777C118.834 61.6777 118.55 61.8571 118.55 62.0765ZM153.729 62.4952C153.328 63.1086 153.877 63.5042 154.418 62.9921C154.72 62.7058 154.727 62.4828 154.44 62.3146C154.204 62.1766 153.884 62.2579 153.729 62.4952ZM160.082 62.4478C159.77 62.9251 160.563 63.3977 161.124 63.0695C161.596 62.7939 161.286 62.0765 160.696 62.0765C160.491 62.0765 160.215 62.2436 160.082 62.4478ZM166.596 62.7078C166.596 63.0551 166.821 63.2685 167.097 63.1815C167.878 62.9351 168.008 62.0765 167.263 62.0765C166.896 62.0765 166.596 62.3604 166.596 62.7078ZM173.211 62.3313C172.874 62.65 173.254 63.2729 173.786 63.2729C174.004 63.2729 174.182 63.0037 174.182 62.6747C174.182 62.0581 173.685 61.8823 173.211 62.3313ZM140.695 62.8466C140.407 63.2872 141.071 63.7634 141.461 63.3949C141.861 63.0157 141.787 62.4753 141.333 62.4753C141.115 62.4753 140.828 62.6424 140.695 62.8466ZM146.868 62.904C146.951 63.1397 147.2 63.3327 147.42 63.3327C147.64 63.3327 147.888 63.1397 147.971 62.904C148.054 62.6683 147.806 62.4753 147.42 62.4753C147.033 62.4753 146.785 62.6683 146.868 62.904ZM127.822 63.4723C127.822 63.838 128.026 64.0725 128.275 63.9939C128.524 63.9153 128.728 63.6805 128.728 63.4723C128.728 63.2641 128.524 63.0292 128.275 62.9506C128.026 62.8721 127.822 63.1066 127.822 63.4723ZM134.144 63.2729C134.144 63.4922 134.333 63.6717 134.565 63.6717C134.797 63.6717 134.987 63.4922 134.987 63.2729C134.987 63.0535 134.797 62.8741 134.565 62.8741C134.333 62.8741 134.144 63.0535 134.144 63.2729ZM115.43 63.6095C115.284 63.8328 115.37 64.1355 115.621 64.2822C116.269 64.6611 116.687 64.1423 116.146 63.6302C115.843 63.3439 115.608 63.3371 115.43 63.6095ZM121.307 63.6442C121.174 63.8483 121.258 64.1279 121.493 64.2659C121.996 64.5598 122.764 64.1865 122.764 63.6482C122.764 63.1628 121.623 63.1596 121.307 63.6442ZM183.231 63.6916C182.83 64.305 183.379 64.7006 183.92 64.1885C184.222 63.9022 184.23 63.6792 183.942 63.511C183.706 63.373 183.386 63.4543 183.231 63.6916ZM109.085 64.043C108.797 64.4836 109.462 64.9598 109.851 64.5913C110.252 64.2121 110.177 63.6717 109.724 63.6717C109.506 63.6717 109.218 63.8388 109.085 64.043ZM176.487 64.0904C176.087 64.7038 176.635 65.0994 177.176 64.5873C177.479 64.301 177.486 64.078 177.198 63.9098C176.962 63.7718 176.643 63.8531 176.487 64.0904ZM137.363 64.3472C136.889 64.7963 137.075 65.2669 137.726 65.2669C138.074 65.2669 138.358 65.0982 138.358 64.8916C138.358 64.3887 137.7 64.0286 137.363 64.3472ZM156.774 64.3253C156.437 64.644 156.817 65.2669 157.349 65.2669C157.567 65.2669 157.746 64.9977 157.746 64.6687C157.746 64.0521 157.248 63.8763 156.774 64.3253ZM163.224 64.6687C163.224 64.9977 163.414 65.2669 163.646 65.2669C163.878 65.2669 164.067 64.9977 164.067 64.6687C164.067 64.3397 163.878 64.0705 163.646 64.0705C163.414 64.0705 163.224 64.3397 163.224 64.6687ZM169.627 64.4992C169.71 64.7349 169.959 64.9279 170.179 64.9279C170.399 64.9279 170.647 64.7349 170.73 64.4992C170.813 64.2635 170.565 64.0705 170.179 64.0705C169.792 64.0705 169.544 64.2635 169.627 64.4992ZM130.772 65.0675C130.772 65.4332 130.976 65.6677 131.225 65.5891C131.474 65.5106 131.678 65.2757 131.678 65.0675C131.678 64.8593 131.474 64.6244 131.225 64.5458C130.976 64.4673 130.772 64.7018 130.772 65.0675ZM143.627 64.8681C143.483 65.0874 143.757 65.2669 144.234 65.2669C144.711 65.2669 145.102 65.0874 145.102 64.8681C145.102 64.6487 144.829 64.4693 144.494 64.4693C144.16 64.4693 143.77 64.6487 143.627 64.8681ZM150.159 64.8681C150.159 65.0874 150.444 65.2669 150.791 65.2669C151.139 65.2669 151.424 65.0874 151.424 64.8681C151.424 64.6487 151.139 64.4693 150.791 64.4693C150.444 64.4693 150.159 64.6487 150.159 64.8681ZM124.531 65.2968C124.614 65.5325 124.862 65.7255 125.082 65.7255C125.302 65.7255 125.551 65.5325 125.634 65.2968C125.717 65.0611 125.469 64.8681 125.082 64.8681C124.696 64.8681 124.448 65.0611 124.531 65.2968ZM118.613 65.6457C118.706 65.909 118.919 66.1107 119.087 66.0944C119.591 66.0449 119.493 65.4982 118.95 65.3267C118.672 65.239 118.52 65.3825 118.613 65.6457ZM186.064 65.6956C186.147 65.9313 186.395 66.1243 186.616 66.1243C186.836 66.1243 187.084 65.9313 187.167 65.6956C187.25 65.4599 187.002 65.2669 186.616 65.2669C186.229 65.2669 185.981 65.4599 186.064 65.6956ZM105.906 66.0645C105.906 66.2838 106.096 66.4633 106.327 66.4633C106.559 66.4633 106.749 66.2838 106.749 66.0645C106.749 65.8451 106.559 65.6657 106.327 65.6657C106.096 65.6657 105.906 65.8451 105.906 66.0645ZM111.806 66.0645C111.806 66.2838 112.091 66.4633 112.439 66.4633C112.786 66.4633 113.071 66.2838 113.071 66.0645C113.071 65.8451 112.786 65.6657 112.439 65.6657C112.091 65.6657 111.806 65.8451 111.806 66.0645ZM153.379 65.9424C152.904 66.3915 153.09 66.8621 153.742 66.8621C154.089 66.8621 154.374 66.6934 154.374 66.4868C154.374 65.9839 153.716 65.6238 153.379 65.9424ZM160.122 65.9424C159.648 66.3915 159.833 66.8621 160.485 66.8621C160.833 66.8621 161.117 66.6934 161.117 66.4868C161.117 65.9839 160.459 65.6238 160.122 65.9424ZM166.444 65.9424C165.969 66.3915 166.155 66.8621 166.807 66.8621C167.155 66.8621 167.439 66.6934 167.439 66.4868C167.439 65.9839 166.781 65.6238 166.444 65.9424ZM172.918 66.2639C172.918 66.6296 173.122 66.8641 173.371 66.7855C173.62 66.7069 173.824 66.4721 173.824 66.2639C173.824 66.0557 173.62 65.8208 173.371 65.7422C173.122 65.6637 172.918 65.8982 172.918 66.2639ZM179.321 66.0944C179.404 66.3301 179.652 66.5231 179.872 66.5231C180.092 66.5231 180.34 66.3301 180.423 66.0944C180.506 65.8587 180.259 65.6657 179.872 65.6657C179.486 65.6657 179.238 65.8587 179.321 66.0944ZM133.992 66.3412C133.517 66.7903 133.703 67.2609 134.354 67.2609C134.702 67.2609 134.987 67.0922 134.987 66.8856C134.987 66.3827 134.328 66.0226 133.992 66.3412ZM140.273 66.4358C139.961 66.9131 140.754 67.3857 141.315 67.0575C141.787 66.7819 141.477 66.0645 140.887 66.0645C140.683 66.0645 140.406 66.2316 140.273 66.4358ZM147.069 66.3305C146.584 66.7891 146.761 67.2609 147.42 67.2609C147.767 67.2609 148.052 66.9917 148.052 66.6627C148.052 66.0397 147.553 65.8715 147.069 66.3305ZM127.629 66.8346C127.341 67.2752 128.006 67.7514 128.395 67.3829C128.796 67.0037 128.721 66.4633 128.268 66.4633C128.05 66.4633 127.762 66.6304 127.629 66.8346ZM114.954 67.2808C114.554 67.8942 115.102 68.2898 115.643 67.7777C115.946 67.4914 115.953 67.2684 115.665 67.1002C115.429 66.9622 115.109 67.0435 114.954 67.2808ZM121.33 67.1987C121.184 67.422 121.27 67.7247 121.521 67.8714C122.169 68.2503 122.587 67.7315 122.046 67.2194C121.744 66.9331 121.508 66.9263 121.33 67.1987ZM108.919 67.6397C109.012 67.903 109.225 68.1047 109.394 68.0884C109.898 68.0389 109.8 67.4922 109.257 67.3207C108.978 67.233 108.827 67.3765 108.919 67.6397ZM189.355 67.6597C189.355 67.879 189.545 68.0585 189.776 68.0585C190.008 68.0585 190.198 67.879 190.198 67.6597C190.198 67.4403 190.008 67.2609 189.776 67.2609C189.545 67.2609 189.355 67.4403 189.355 67.6597ZM102.405 67.9145C102.069 68.2332 102.449 68.8561 102.981 68.8561C103.199 68.8561 103.377 68.5869 103.377 68.2579C103.377 67.6413 102.88 67.4655 102.405 67.9145ZM156.762 67.9257C156.277 68.3843 156.455 68.8561 157.113 68.8561C157.461 68.8561 157.746 68.5869 157.746 68.2579C157.746 67.6349 157.247 67.4667 156.762 67.9257ZM163.096 67.9145C162.759 68.2332 163.139 68.8561 163.671 68.8561C163.889 68.8561 164.067 68.5869 164.067 68.2579C164.067 67.6413 163.57 67.4655 163.096 67.9145ZM169.627 68.0884C169.71 68.3241 169.959 68.5171 170.179 68.5171C170.399 68.5171 170.647 68.3241 170.73 68.0884C170.813 67.8527 170.565 67.6597 170.179 67.6597C169.792 67.6597 169.544 67.8527 169.627 68.0884ZM175.949 68.0884C176.032 68.3241 176.28 68.5171 176.5 68.5171C176.72 68.5171 176.969 68.3241 177.052 68.0884C177.135 67.8527 176.887 67.6597 176.5 67.6597C176.114 67.6597 175.866 67.8527 175.949 68.0884ZM182.612 68.2814C182.612 68.6232 182.801 68.7923 183.033 68.6567C183.265 68.5211 183.455 68.2415 183.455 68.035C183.455 67.8284 183.265 67.6597 183.033 67.6597C182.801 67.6597 182.612 67.9396 182.612 68.2814ZM137.094 68.4573C137.094 68.6766 137.39 68.8561 137.751 68.8561C138.112 68.8561 138.291 68.6766 138.148 68.4573C138.004 68.2379 137.709 68.0585 137.491 68.0585C137.272 68.0585 137.094 68.2379 137.094 68.4573ZM143.512 68.5322C143.773 69.2716 144.68 69.3941 144.68 68.6898C144.68 68.3424 144.38 68.0585 144.013 68.0585C143.646 68.0585 143.421 68.2714 143.512 68.5322ZM150.24 68.4872C150.323 68.7229 150.571 68.9159 150.791 68.9159C151.011 68.9159 151.26 68.7229 151.343 68.4872C151.426 68.2515 151.178 68.0585 150.791 68.0585C150.405 68.0585 150.157 68.2515 150.24 68.4872ZM130.351 68.8561C130.351 69.0754 130.635 69.2549 130.983 69.2549C131.331 69.2549 131.615 69.0754 131.615 68.8561C131.615 68.6367 131.331 68.4573 130.983 68.4573C130.635 68.4573 130.351 68.6367 130.351 68.8561ZM117.999 69.1109C117.663 69.4296 118.043 70.0525 118.575 70.0525C118.793 70.0525 118.971 69.7833 118.971 69.4543C118.971 68.8377 118.474 68.6619 117.999 69.1109ZM124.125 69.3298C124.386 70.0692 125.293 70.1917 125.293 69.4874C125.293 69.14 124.993 68.8561 124.626 68.8561C124.259 68.8561 124.033 69.069 124.125 69.3298ZM192.305 69.2549C192.305 69.4742 192.495 69.6537 192.727 69.6537C192.958 69.6537 193.148 69.4742 193.148 69.2549C193.148 69.0355 192.958 68.8561 192.727 68.8561C192.495 68.8561 192.305 69.0355 192.305 69.2549ZM105.718 69.6198C105.582 69.8276 105.651 70.1023 105.87 70.2307C106.09 70.3592 106.38 70.2942 106.516 70.0864C106.652 69.8786 106.583 69.6038 106.363 69.4754C106.144 69.347 105.853 69.412 105.718 69.6198ZM111.806 69.6537C111.806 69.873 112.091 70.0525 112.439 70.0525C112.786 70.0525 113.071 69.873 113.071 69.6537C113.071 69.4343 112.786 69.2549 112.439 69.2549C112.091 69.2549 111.806 69.4343 111.806 69.6537ZM166.444 69.5316C165.969 69.9807 166.155 70.4513 166.807 70.4513C167.155 70.4513 167.439 70.2826 167.439 70.076C167.439 69.5731 166.781 69.213 166.444 69.5316ZM185.643 69.6836C185.726 69.9193 185.974 70.1123 186.194 70.1123C186.414 70.1123 186.662 69.9193 186.745 69.6836C186.828 69.4479 186.581 69.2549 186.194 69.2549C185.808 69.2549 185.56 69.4479 185.643 69.6836ZM99.4142 69.9903C99.2684 70.2136 99.3544 70.5163 99.6051 70.663C100.253 71.0419 100.671 70.5231 100.13 70.011C99.8277 69.7247 99.5921 69.7179 99.4142 69.9903ZM146.828 70.029C146.409 70.2742 146.397 70.4222 146.779 70.6459C147.056 70.8078 147.472 70.7607 147.704 70.5414C148.253 70.0218 147.547 69.6086 146.828 70.029ZM153.402 69.9085C153.065 70.2272 153.446 70.8501 153.977 70.8501C154.196 70.8501 154.374 70.5809 154.374 70.2519C154.374 69.6353 153.877 69.4595 153.402 69.9085ZM159.853 70.0525C159.853 70.2718 160.137 70.4513 160.485 70.4513C160.833 70.4513 161.117 70.2718 161.117 70.0525C161.117 69.8331 160.833 69.6537 160.485 69.6537C160.137 69.6537 159.853 69.8331 159.853 70.0525ZM172.497 70.0525C172.497 70.2718 172.781 70.4513 173.129 70.4513C173.477 70.4513 173.761 70.2718 173.761 70.0525C173.761 69.8331 173.477 69.6537 173.129 69.6537C172.781 69.6537 172.497 69.8331 172.497 70.0525ZM178.818 69.9859C178.818 70.5478 179.293 70.8058 179.913 70.5805C180.793 70.2611 180.628 69.6537 179.661 69.6537C179.198 69.6537 178.818 69.8032 178.818 69.9859ZM133.951 70.4238C133.639 70.9011 134.432 71.3737 134.993 71.0455C135.465 70.7699 135.155 70.0525 134.565 70.0525C134.361 70.0525 134.084 70.2196 133.951 70.4238ZM140.238 70.478C140.085 70.7117 140.061 70.9988 140.185 71.1161C140.487 71.4016 141.309 70.8983 141.309 70.4277C141.309 69.9181 140.581 69.952 140.238 70.478ZM127.693 70.7061C127.356 71.0248 127.737 71.6477 128.268 71.6477C128.487 71.6477 128.665 71.3785 128.665 71.0495C128.665 70.4329 128.167 70.2571 127.693 70.7061ZM195.255 70.8501C195.255 71.0694 195.54 71.2489 195.888 71.2489C196.235 71.2489 196.52 71.0694 196.52 70.8501C196.52 70.6307 196.235 70.4513 195.888 70.4513C195.54 70.4513 195.255 70.6307 195.255 70.8501ZM108.664 71.2214C108.352 71.6987 109.144 72.1713 109.706 71.8431C110.177 71.5675 109.868 70.8501 109.278 70.8501C109.073 70.8501 108.797 71.0172 108.664 71.2214ZM115.026 71.1268C114.551 71.5759 114.737 72.0465 115.389 72.0465C115.737 72.0465 116.021 71.8778 116.021 71.6712C116.021 71.1683 115.363 70.8082 115.026 71.1268ZM121.371 71.1049C121.034 71.4236 121.415 72.0465 121.946 72.0465C122.165 72.0465 122.343 71.7773 122.343 71.4483C122.343 70.8317 121.846 70.6559 121.371 71.1049ZM188.934 71.4483C188.934 71.814 189.138 72.0485 189.387 71.9699C189.636 71.8913 189.84 71.6565 189.84 71.4483C189.84 71.2401 189.636 71.0052 189.387 70.9266C189.138 70.8481 188.934 71.0826 188.934 71.4483ZM102.615 71.6776C102.698 71.9133 102.946 72.1063 103.166 72.1063C103.386 72.1063 103.635 71.9133 103.718 71.6776C103.801 71.4419 103.553 71.2489 103.166 71.2489C102.78 71.2489 102.532 71.4419 102.615 71.6776ZM182.483 71.5037C182.146 71.8224 182.527 72.4453 183.058 72.4453C183.276 72.4453 183.455 72.1761 183.455 71.8471C183.455 71.2305 182.957 71.0547 182.483 71.5037ZM96.2124 72.023C96.2124 72.2295 96.402 72.5091 96.6338 72.6447C96.8656 72.7803 97.0553 72.6112 97.0553 72.2694C97.0553 71.9276 96.8656 71.6477 96.6338 71.6477C96.402 71.6477 96.2124 71.8164 96.2124 72.023ZM143.837 72.2459C143.837 72.5749 144.027 72.8441 144.259 72.8441C144.491 72.8441 144.68 72.5749 144.68 72.2459C144.68 71.9169 144.491 71.6477 144.259 71.6477C144.027 71.6477 143.837 71.9169 143.837 72.2459ZM150.03 71.9025C149.694 72.2212 150.074 72.8441 150.606 72.8441C150.824 72.8441 151.002 72.5749 151.002 72.2459C151.002 71.6293 150.505 71.4535 150.03 71.9025ZM156.562 72.0764C156.645 72.3121 156.893 72.5051 157.113 72.5051C157.333 72.5051 157.582 72.3121 157.665 72.0764C157.748 71.8407 157.5 71.6477 157.113 71.6477C156.727 71.6477 156.479 71.8407 156.562 72.0764ZM162.803 72.0465C162.803 72.2658 163.088 72.4453 163.435 72.4453C163.783 72.4453 164.067 72.2658 164.067 72.0465C164.067 71.8271 163.783 71.6477 163.435 71.6477C163.088 71.6477 162.803 71.8271 162.803 72.0465ZM169.125 72.0465C169.125 72.2658 169.409 72.4453 169.757 72.4453C170.105 72.4453 170.389 72.2658 170.389 72.0465C170.389 71.8271 170.105 71.6477 169.757 71.6477C169.409 71.6477 169.125 71.8271 169.125 72.0465ZM175.447 72.0465C175.447 72.2658 175.731 72.4453 176.079 72.4453C176.427 72.4453 176.711 72.2658 176.711 72.0465C176.711 71.8271 176.427 71.6477 176.079 71.6477C175.731 71.6477 175.447 71.8271 175.447 72.0465ZM131.041 72.3232C130.567 72.7723 130.753 73.2429 131.404 73.2429C131.752 73.2429 132.036 73.0742 132.036 72.8676C132.036 72.3647 131.378 72.0046 131.041 72.3232ZM137.175 72.4752C137.258 72.7109 137.506 72.9039 137.726 72.9039C137.946 72.9039 138.194 72.7109 138.277 72.4752C138.36 72.2395 138.113 72.0465 137.726 72.0465C137.34 72.0465 137.092 72.2395 137.175 72.4752ZM124.45 73.0435C124.45 73.4092 124.654 73.6437 124.903 73.5651C125.152 73.4865 125.356 73.2517 125.356 73.0435C125.356 72.8353 125.152 72.6004 124.903 72.5218C124.654 72.4433 124.45 72.6778 124.45 73.0435ZM192.153 72.722C191.678 73.1711 191.864 73.6417 192.516 73.6417C192.864 73.6417 193.148 73.473 193.148 73.2664C193.148 72.7635 192.49 72.4034 192.153 72.722ZM105.713 73.2154C105.401 73.6927 106.194 74.1653 106.756 73.8371C107.227 73.5615 106.917 72.8441 106.327 72.8441C106.123 72.8441 105.847 73.0112 105.713 73.2154ZM112.076 73.1208C111.601 73.5699 111.787 74.0405 112.439 74.0405C112.786 74.0405 113.071 73.8718 113.071 73.6652C113.071 73.1623 112.412 72.8022 112.076 73.1208ZM118.357 73.2154C118.069 73.656 118.734 74.1322 119.123 73.7637C119.524 73.3845 119.449 72.8441 118.996 72.8441C118.778 72.8441 118.49 73.0112 118.357 73.2154ZM179.016 73.2628C178.616 73.8762 179.164 74.2718 179.705 73.7597C180.008 73.4734 180.015 73.2505 179.727 73.0822C179.491 72.9442 179.171 73.0255 179.016 73.2628ZM185.777 73.2493C185.923 73.4722 186.218 73.5516 186.434 73.4251C187.018 73.0834 186.91 72.8441 186.169 72.8441C185.808 72.8441 185.631 73.0263 185.777 73.2493ZM99.426 73.5252C99.2937 73.6505 99.2865 73.9073 99.4096 74.0959C99.7054 74.549 100.848 74.539 100.848 74.0832C100.848 73.6429 99.7548 73.2142 99.426 73.5252ZM159.66 73.6142C159.348 74.0915 160.141 74.5641 160.702 74.2359C161.174 73.9603 160.864 73.2429 160.274 73.2429C160.07 73.2429 159.793 73.41 159.66 73.6142ZM166.404 73.6142C166.092 74.0915 166.884 74.5641 167.446 74.2359C167.917 73.9603 167.608 73.2429 167.018 73.2429C166.813 73.2429 166.537 73.41 166.404 73.6142ZM172.138 73.6217C172.231 73.8849 172.444 74.0867 172.613 74.0704C173.117 74.0209 173.019 73.4742 172.476 73.3027C172.197 73.215 172.046 73.3585 172.138 73.6217ZM93.2622 74.0405C93.2622 74.2598 93.4518 74.4393 93.6836 74.4393C93.9154 74.4393 94.1051 74.2598 94.1051 74.0405C94.1051 73.8211 93.9154 73.6417 93.6836 73.6417C93.4518 73.6417 93.2622 73.8211 93.2622 74.0405ZM140.466 74.2399C140.466 74.6056 140.67 74.8401 140.919 74.7615C141.168 74.683 141.372 74.4481 141.372 74.2399C141.372 74.0317 141.168 73.7968 140.919 73.7182C140.67 73.6397 140.466 73.8742 140.466 74.2399ZM146.595 74.013C146.461 74.2171 146.545 74.4967 146.781 74.6347C147.284 74.9286 148.052 74.5553 148.052 74.017C148.052 73.5316 146.911 73.5284 146.595 74.013ZM153.109 74.0405C153.109 74.2598 153.394 74.4393 153.742 74.4393C154.089 74.4393 154.374 74.2598 154.374 74.0405C154.374 73.8211 154.089 73.6417 153.742 73.6417C153.394 73.6417 153.109 73.8211 153.109 74.0405ZM133.96 74.3974C133.832 74.594 134.004 74.8552 134.344 74.9785C135.002 75.2173 135.564 74.72 135.116 74.2953C134.735 73.9348 134.234 73.9791 133.96 74.3974ZM121.769 74.716C121.295 75.1651 121.481 75.6357 122.132 75.6357C122.48 75.6357 122.764 75.467 122.764 75.2604C122.764 74.7575 122.106 74.3974 121.769 74.716ZM127.822 75.0706C127.822 75.4179 128.047 75.6313 128.323 75.5443C129.104 75.2979 129.233 74.4393 128.489 74.4393C128.122 74.4393 127.822 74.7232 127.822 75.0706ZM182.388 74.858C181.987 75.4714 182.536 75.867 183.077 75.3549C183.38 75.0686 183.387 74.8456 183.099 74.6774C182.863 74.5394 182.543 74.6207 182.388 74.858ZM188.593 74.868C188.676 75.1037 188.924 75.2967 189.144 75.2967C189.365 75.2967 189.613 75.1037 189.696 74.868C189.779 74.6323 189.531 74.4393 189.144 74.4393C188.758 74.4393 188.51 74.6323 188.593 74.868ZM108.937 75.2668C109.02 75.5025 109.268 75.6955 109.488 75.6955C109.708 75.6955 109.957 75.5025 110.04 75.2668C110.123 75.0311 109.875 74.8381 109.488 74.8381C109.102 74.8381 108.854 75.0311 108.937 75.2668ZM115.178 75.2369C115.178 75.4562 115.463 75.6357 115.81 75.6357C116.158 75.6357 116.442 75.4562 116.442 75.2369C116.442 75.0175 116.158 74.8381 115.81 74.8381C115.463 74.8381 115.178 75.0175 115.178 75.2369ZM175.716 75.1148C175.242 75.5639 175.427 76.0345 176.079 76.0345C176.427 76.0345 176.711 75.8658 176.711 75.6592C176.711 75.1563 176.053 74.7962 175.716 75.1148ZM90.1598 75.5136C89.6852 75.9627 89.8711 76.4333 90.5227 76.4333C90.8704 76.4333 91.1549 76.2646 91.1549 76.058C91.1549 75.5551 90.4966 75.195 90.1598 75.5136ZM102.615 75.6656C102.698 75.9013 102.946 76.0943 103.166 76.0943C103.386 76.0943 103.635 75.9013 103.718 75.6656C103.801 75.4299 103.553 75.2369 103.166 75.2369C102.78 75.2369 102.532 75.4299 102.615 75.6656ZM150.429 75.5136C149.954 75.9627 150.14 76.4333 150.791 76.4333C151.139 76.4333 151.424 76.2646 151.424 76.058C151.424 75.5551 150.765 75.195 150.429 75.5136ZM156.481 75.8351C156.481 76.2008 156.685 76.4353 156.934 76.3567C157.183 76.2782 157.387 76.0433 157.387 75.8351C157.387 75.6269 157.183 75.392 156.934 75.3134C156.685 75.2349 156.481 75.4694 156.481 75.8351ZM163.032 75.6082C162.744 76.0488 163.409 76.525 163.798 76.1565C164.198 75.7773 164.124 75.2369 163.671 75.2369C163.452 75.2369 163.165 75.404 163.032 75.6082ZM169.125 75.6357C169.125 75.855 169.409 76.0345 169.757 76.0345C170.105 76.0345 170.389 75.855 170.389 75.6357C170.389 75.4163 170.105 75.2369 169.757 75.2369C169.409 75.2369 169.125 75.4163 169.125 75.6357ZM96.4273 76.0409C96.5732 76.2638 96.8686 76.3432 97.0844 76.2167C97.669 75.875 97.5602 75.6357 96.8197 75.6357C96.4585 75.6357 96.2819 75.8179 96.4273 76.0409ZM137.346 75.9723C137.2 76.1956 137.286 76.4983 137.537 76.645C138.185 77.0239 138.603 76.5051 138.062 75.993C137.759 75.7067 137.523 75.6999 137.346 75.9723ZM143.645 76.007C143.333 76.4843 144.126 76.9569 144.687 76.6287C145.159 76.3531 144.849 75.6357 144.259 75.6357C144.054 75.6357 143.778 75.8028 143.645 76.007ZM131.439 76.3798C131.258 76.6578 131.223 76.9928 131.362 77.1244C131.739 77.4813 132.151 76.9565 131.947 76.3782C131.804 75.9731 131.705 75.9731 131.439 76.3798ZM185.41 76.3112C184.935 76.7603 185.121 77.2309 185.773 77.2309C186.12 77.2309 186.405 77.0622 186.405 76.8556C186.405 76.3527 185.746 75.9926 185.41 76.3112ZM118.558 76.8273C118.035 77.1332 118.054 77.2289 118.685 77.4582C119.565 77.7772 120.139 77.3784 119.572 76.842C119.332 76.6155 118.93 76.6096 118.558 76.8273ZM124.679 76.8046C124.367 77.2819 125.16 77.7545 125.721 77.4263C126.193 77.1507 125.883 76.4333 125.293 76.4333C125.089 76.4333 124.812 76.6004 124.679 76.8046ZM172.748 76.7699C172.602 76.9932 172.688 77.2959 172.939 77.4426C173.587 77.8215 174.005 77.3027 173.464 76.7906C173.162 76.5043 172.926 76.4975 172.748 76.7699ZM178.818 77.0315C178.818 77.3972 179.022 77.6317 179.272 77.5531C179.521 77.4746 179.725 77.2397 179.725 77.0315C179.725 76.8233 179.521 76.5884 179.272 76.5098C179.022 76.4313 178.818 76.6658 178.818 77.0315ZM99.5841 77.4303C99.5841 77.796 99.7881 78.0305 100.037 77.9519C100.286 77.8734 100.49 77.6385 100.49 77.4303C100.49 77.2221 100.286 76.9872 100.037 76.9086C99.7881 76.8301 99.5841 77.0646 99.5841 77.4303ZM106.158 77.1687C106.012 77.392 106.098 77.6947 106.348 77.8414C106.997 78.2203 107.415 77.7015 106.874 77.1894C106.571 76.9031 106.335 76.8963 106.158 77.1687ZM112.309 77.2608C112.392 77.4965 112.64 77.6895 112.86 77.6895C113.08 77.6895 113.328 77.4965 113.411 77.2608C113.494 77.0251 113.247 76.8321 112.86 76.8321C112.474 76.8321 112.226 77.0251 112.309 77.2608ZM166.467 77.0869C166.13 77.4056 166.511 78.0285 167.042 78.0285C167.261 78.0285 167.439 77.7593 167.439 77.4303C167.439 76.8137 166.942 76.6379 166.467 77.0869ZM86.9403 77.8291C86.9403 78.1948 87.1443 78.4293 87.3933 78.3507C87.6424 78.2722 87.8464 78.0373 87.8464 77.8291C87.8464 77.6209 87.6424 77.386 87.3933 77.3074C87.1443 77.2289 86.9403 77.4634 86.9403 77.8291ZM93.2622 77.6297C93.2622 77.849 93.5467 78.0285 93.8944 78.0285C94.2421 78.0285 94.5265 77.849 94.5265 77.6297C94.5265 77.4103 94.2421 77.2309 93.8944 77.2309C93.5467 77.2309 93.2622 77.4103 93.2622 77.6297ZM147.04 77.5244C146.587 77.9523 146.774 78.4273 147.395 78.4273C147.729 78.4273 148.107 78.2666 148.235 78.0704C148.503 77.6596 147.419 77.1647 147.04 77.5244ZM153.531 77.8291C153.531 78.1948 153.735 78.4293 153.984 78.3507C154.233 78.2722 154.437 78.0373 154.437 77.8291C154.437 77.6209 154.233 77.386 153.984 77.3074C153.735 77.2289 153.531 77.4634 153.531 77.8291ZM159.853 77.796C159.853 78.1433 160.153 78.4273 160.52 78.4273C161.264 78.4273 161.135 77.5687 160.354 77.3222C160.078 77.2353 159.853 77.4486 159.853 77.796ZM134.413 77.9064C133.939 78.3555 134.124 78.8261 134.776 78.8261C135.124 78.8261 135.408 78.6574 135.408 78.4508C135.408 77.9479 134.75 77.5878 134.413 77.9064ZM140.466 78.2279C140.466 78.5936 140.67 78.8281 140.919 78.7495C141.168 78.671 141.372 78.4361 141.372 78.2279C141.372 78.0197 141.168 77.7848 140.919 77.7062C140.67 77.6277 140.466 77.8622 140.466 78.2279ZM8.0312 81.1192C5.31236 82.8189 3.09253 84.2996 3.09801 84.4093C3.10391 84.519 5.95172 86.2876 9.42749 88.3395L15.7469 92.0706L20.6704 89.0713C23.3782 87.4218 25.6381 85.9223 25.692 85.7393C25.7776 85.4478 14.7876 78.6713 13.4735 78.2051C13.1987 78.1078 10.7496 79.4191 8.0312 81.1192ZM121.752 78.3651C121.606 78.5884 121.692 78.8911 121.942 79.0378C122.591 79.4167 123.009 78.8979 122.468 78.3858C122.165 78.0995 121.929 78.0927 121.752 78.3651ZM128.091 78.3053C127.617 78.7543 127.802 79.2249 128.454 79.2249C128.802 79.2249 129.086 79.0562 129.086 78.8496C129.086 78.3467 128.428 77.9866 128.091 78.3053ZM182.038 78.3053C181.563 78.7543 181.749 79.2249 182.401 79.2249C182.749 79.2249 183.033 79.0562 183.033 78.8496C183.033 78.3467 182.375 77.9866 182.038 78.3053ZM102.763 78.7986C102.451 79.2759 103.244 79.7485 103.805 79.4203C104.277 79.1447 103.967 78.4273 103.377 78.4273C103.173 78.4273 102.896 78.5944 102.763 78.7986ZM108.953 78.9011C109.213 79.6404 110.121 79.7629 110.121 79.0586C110.121 78.7112 109.82 78.4273 109.453 78.4273C109.086 78.4273 108.861 78.6402 108.953 78.9011ZM115.407 78.7986C115.119 79.2392 115.784 79.7154 116.173 79.3469C116.574 78.9677 116.499 78.4273 116.046 78.4273C115.828 78.4273 115.54 78.5944 115.407 78.7986ZM175.716 78.704C175.242 79.1531 175.427 79.6237 176.079 79.6237C176.427 79.6237 176.711 79.455 176.711 79.2484C176.711 78.7455 176.053 78.3854 175.716 78.704ZM89.8905 79.4243C89.8905 79.79 90.0945 80.0245 90.3436 79.9459C90.5926 79.8674 90.7966 79.6325 90.7966 79.4243C90.7966 79.2161 90.5926 78.9812 90.3436 78.9026C90.0945 78.8241 89.8905 79.0586 89.8905 79.4243ZM96.2933 79.2548C96.3763 79.4905 96.6246 79.6835 96.8446 79.6835C97.0646 79.6835 97.3128 79.4905 97.3959 79.2548C97.4789 79.0191 97.2311 78.8261 96.8446 78.8261C96.4581 78.8261 96.2103 79.0191 96.2933 79.2548ZM163.422 79.2448C163.022 79.8582 163.57 80.2538 164.111 79.7417C164.414 79.4554 164.421 79.2325 164.133 79.0642C163.897 78.9262 163.577 79.0075 163.422 79.2448ZM169.839 79.0809C169.502 79.3996 169.883 80.0225 170.414 80.0225C170.632 80.0225 170.811 79.7533 170.811 79.4243C170.811 78.8077 170.313 78.6319 169.839 79.0809ZM83.5686 79.6237C83.5686 79.843 83.8531 80.0225 84.2008 80.0225C84.5485 80.0225 84.833 79.843 84.833 79.6237C84.833 79.4043 84.5485 79.2249 84.2008 79.2249C83.8531 79.2249 83.5686 79.4043 83.5686 79.6237ZM144.035 79.6436C143.635 80.257 144.183 80.6526 144.724 80.1405C145.027 79.8542 145.034 79.6313 144.746 79.463C144.51 79.325 144.19 79.4063 144.035 79.6436ZM150.388 79.5962C150.076 80.0735 150.869 80.5461 151.43 80.2179C151.902 79.9423 151.592 79.2249 151.002 79.2249C150.798 79.2249 150.521 79.392 150.388 79.5962ZM156.903 79.6237C156.903 79.843 157.092 80.0225 157.324 80.0225C157.556 80.0225 157.746 79.843 157.746 79.6237C157.746 79.4043 157.556 79.2249 157.324 79.2249C157.092 79.2249 156.903 79.4043 156.903 79.6237ZM137.323 79.995C137.011 80.4723 137.804 80.9449 138.365 80.6167C138.837 80.3411 138.527 79.6237 137.937 79.6237C137.732 79.6237 137.456 79.7908 137.323 79.995ZM118.819 80.2992C118.345 80.7483 118.53 81.2189 119.182 81.2189C119.53 81.2189 119.814 81.0502 119.814 80.8436C119.814 80.3407 119.156 79.9806 118.819 80.2992ZM125.101 80.3938C124.789 80.8711 125.581 81.3437 126.143 81.0155C126.614 80.7399 126.305 80.0225 125.715 80.0225C125.51 80.0225 125.234 80.1896 125.101 80.3938ZM131.274 80.4512C131.357 80.6869 131.606 80.8799 131.826 80.8799C132.046 80.8799 132.294 80.6869 132.377 80.4512C132.46 80.2155 132.212 80.0225 131.826 80.0225C131.439 80.0225 131.191 80.2155 131.274 80.4512ZM179.088 80.2992C178.613 80.7483 178.799 81.2189 179.451 81.2189C179.798 81.2189 180.083 81.0502 180.083 80.8436C180.083 80.3407 179.425 79.9806 179.088 80.2992ZM86.7881 80.6981C86.3136 81.1471 86.4994 81.6177 87.151 81.6177C87.4987 81.6177 87.7832 81.449 87.7832 81.2424C87.7832 80.7395 87.1249 80.3794 86.7881 80.6981ZM93.1218 80.6873C92.6367 81.1459 92.8146 81.6177 93.4729 81.6177C93.8206 81.6177 94.1051 81.3485 94.1051 81.0195C94.1051 80.3966 93.6065 80.2283 93.1218 80.6873ZM99.5841 81.0195C99.5841 81.3852 99.7881 81.6197 100.037 81.5411C100.286 81.4626 100.49 81.2277 100.49 81.0195C100.49 80.8113 100.286 80.5764 100.037 80.4978C99.7881 80.4193 99.5841 80.6538 99.5841 81.0195ZM105.969 80.8001C106.062 81.0634 106.275 81.2651 106.443 81.2488C106.947 81.1993 106.85 80.6526 106.306 80.4811C106.028 80.3934 105.876 80.5369 105.969 80.8001ZM112.309 80.85C112.392 81.0857 112.64 81.2787 112.86 81.2787C113.08 81.2787 113.328 81.0857 113.411 80.85C113.494 80.6143 113.247 80.4213 112.86 80.4213C112.474 80.4213 112.226 80.6143 112.309 80.85ZM172.766 80.6981C172.291 81.1471 172.477 81.6177 173.129 81.6177C173.477 81.6177 173.761 81.449 173.761 81.2424C173.761 80.7395 173.103 80.3794 172.766 80.6981ZM160.145 81.0749C159.809 81.3936 160.189 82.0165 160.721 82.0165C160.939 82.0165 161.117 81.7473 161.117 81.4183C161.117 80.8017 160.62 80.6259 160.145 81.0749ZM166.596 81.2189C166.596 81.4382 166.881 81.6177 167.228 81.6177C167.576 81.6177 167.861 81.4382 167.861 81.2189C167.861 80.9995 167.576 80.8201 167.228 80.8201C166.881 80.8201 166.596 80.9995 166.596 81.2189ZM80.1969 81.6177C80.1969 81.837 80.4814 82.0165 80.8291 82.0165C81.1768 82.0165 81.4613 81.837 81.4613 81.6177C81.4613 81.3983 81.1768 81.2189 80.8291 81.2189C80.4814 81.2189 80.1969 81.3983 80.1969 81.6177ZM140.758 81.4737C140.421 81.7924 140.802 82.4153 141.333 82.4153C141.552 82.4153 141.73 82.1461 141.73 81.8171C141.73 81.2005 141.233 81.0247 140.758 81.4737ZM146.868 81.6476C146.951 81.8833 147.2 82.0763 147.42 82.0763C147.64 82.0763 147.888 81.8833 147.971 81.6476C148.054 81.4119 147.806 81.2189 147.42 81.2189C147.033 81.2189 146.785 81.4119 146.868 81.6476ZM153.531 81.6177C153.531 81.837 153.815 82.0165 154.163 82.0165C154.511 82.0165 154.795 81.837 154.795 81.6177C154.795 81.3983 154.511 81.2189 154.163 81.2189C153.815 81.2189 153.531 81.3983 153.531 81.6177ZM134.835 81.8944C134.36 82.3435 134.546 82.8141 135.197 82.8141C135.545 82.8141 135.83 82.6454 135.83 82.4388C135.83 81.9359 135.171 81.5758 134.835 81.8944ZM96.4817 82.2933C96.0071 82.7423 96.193 83.2129 96.8446 83.2129C97.1923 83.2129 97.4768 83.0442 97.4768 82.8376C97.4768 82.3347 96.8184 81.9746 96.4817 82.2933ZM109.108 82.3531C108.962 82.5764 109.048 82.8791 109.299 83.0258C109.947 83.4047 110.365 82.8859 109.824 82.3738C109.521 82.0875 109.286 82.0807 109.108 82.3531ZM115.407 82.3878C115.095 82.8651 115.888 83.3377 116.449 83.0095C116.921 82.7339 116.611 82.0165 116.021 82.0165C115.817 82.0165 115.54 82.1836 115.407 82.3878ZM122.214 82.2713C121.877 82.59 122.258 83.2129 122.789 83.2129C123.008 83.2129 123.186 82.9437 123.186 82.6147C123.186 81.9981 122.688 81.8223 122.214 82.2713ZM128.243 82.4153C128.243 82.6346 128.528 82.8141 128.876 82.8141C129.223 82.8141 129.508 82.6346 129.508 82.4153C129.508 82.1959 129.223 82.0165 128.876 82.0165C128.528 82.0165 128.243 82.1959 128.243 82.4153ZM89.5499 82.844C89.633 83.0797 89.8812 83.2727 90.1012 83.2727C90.3212 83.2727 90.5695 83.0797 90.6525 82.844C90.7355 82.6083 90.4877 82.4153 90.1012 82.4153C89.7147 82.4153 89.4669 82.6083 89.5499 82.844ZM102.745 82.8141C102.888 83.0334 103.184 83.2129 103.402 83.2129C103.62 83.2129 103.799 83.0334 103.799 82.8141C103.799 82.5947 103.503 82.4153 103.142 82.4153C102.78 82.4153 102.602 82.5947 102.745 82.8141ZM175.447 82.8141C175.447 83.0334 175.731 83.2129 176.079 83.2129C176.427 83.2129 176.711 83.0334 176.711 82.8141C176.711 82.5947 176.427 82.4153 176.079 82.4153C175.731 82.4153 175.447 82.5947 175.447 82.8141ZM83.5686 83.2129C83.5686 83.4322 83.7469 83.6117 83.9652 83.6117C84.1835 83.6117 84.4789 83.4322 84.6222 83.2129C84.7655 82.9935 84.5868 82.8141 84.2256 82.8141C83.8645 82.8141 83.5686 82.9935 83.5686 83.2129ZM150.429 83.0909C149.954 83.5399 150.14 84.0105 150.791 84.0105C151.139 84.0105 151.424 83.8418 151.424 83.6352C151.424 83.1323 150.765 82.7722 150.429 83.0909ZM156.903 83.4454C156.903 83.7927 157.128 84.0061 157.403 83.9192C158.185 83.6727 158.314 82.8141 157.57 82.8141C157.203 82.8141 156.903 83.098 156.903 83.4454ZM163.435 83.2129C163.579 83.4322 163.874 83.6117 164.092 83.6117C164.311 83.6117 164.489 83.4322 164.489 83.2129C164.489 82.9935 164.193 82.8141 163.832 82.8141C163.471 82.8141 163.292 82.9935 163.435 83.2129ZM169.336 83.2129C169.479 83.4322 169.774 83.6117 169.993 83.6117C170.211 83.6117 170.389 83.4322 170.389 83.2129C170.389 82.9935 170.093 82.8141 169.732 82.8141C169.371 82.8141 169.192 82.9935 169.336 83.2129ZM77.036 83.6117C77.1793 83.831 77.4747 84.0105 77.693 84.0105C77.9113 84.0105 78.0896 83.831 78.0896 83.6117C78.0896 83.3923 77.7938 83.2129 77.4326 83.2129C77.0714 83.2129 76.8927 83.3923 77.036 83.6117ZM143.837 83.5451C143.837 84.1066 144.312 84.365 144.93 84.1405C145.253 84.0232 145.414 83.7664 145.285 83.5698C144.991 83.1196 143.837 83.1 143.837 83.5451ZM118.801 83.9483C118.656 84.1716 118.742 84.4743 118.992 84.621C119.64 84.9999 120.059 84.4811 119.517 83.969C119.215 83.6827 118.979 83.6759 118.801 83.9483ZM125.356 83.9905C125.449 84.2538 125.662 84.4556 125.83 84.4392C126.335 84.3897 126.237 83.843 125.693 83.6715C125.415 83.5838 125.264 83.7273 125.356 83.9905ZM131.678 83.9905C131.771 84.2538 131.984 84.4556 132.152 84.4392C132.656 84.3897 132.559 83.843 132.015 83.6715C131.737 83.5838 131.585 83.7273 131.678 83.9905ZM137.937 84.0105C137.937 84.2298 138.115 84.4093 138.333 84.4093C138.552 84.4093 138.847 84.2298 138.991 84.0105C139.134 83.7911 138.955 83.6117 138.594 83.6117C138.233 83.6117 137.937 83.7911 137.937 84.0105ZM93.11 84.2872C92.6355 84.7363 92.8213 85.2069 93.4729 85.2069C93.8206 85.2069 94.1051 85.0382 94.1051 84.8316C94.1051 84.3287 93.4468 83.9686 93.11 84.2872ZM99.5841 84.6087C99.5841 84.9744 99.7881 85.2089 100.037 85.1303C100.286 85.0518 100.49 84.8169 100.49 84.6087C100.49 84.4005 100.286 84.1656 100.037 84.087C99.7881 84.0085 99.5841 84.243 99.5841 84.6087ZM106.175 84.2872C105.701 84.7363 105.887 85.2069 106.538 85.2069C106.886 85.2069 107.17 85.0382 107.17 84.8316C107.17 84.3287 106.512 83.9686 106.175 84.2872ZM112.426 84.4292C112.025 85.0426 112.573 85.4382 113.115 84.9261C113.417 84.6398 113.424 84.4169 113.137 84.2486C112.901 84.1106 112.581 84.1919 112.426 84.4292ZM172.766 84.2872C172.291 84.7363 172.477 85.2069 173.129 85.2069C173.477 85.2069 173.761 85.0382 173.761 84.8316C173.761 84.3287 173.103 83.9686 172.766 84.2872ZM74.1443 84.6861C73.6698 85.1351 73.8556 85.6057 74.5072 85.6057C74.8549 85.6057 75.1394 85.437 75.1394 85.2304C75.1394 84.7275 74.4811 84.3674 74.1443 84.6861ZM80.1969 85.0406C80.1969 85.3879 80.422 85.6013 80.6976 85.5144C81.479 85.2679 81.6084 84.4093 80.8641 84.4093C80.497 84.4093 80.1969 84.6932 80.1969 85.0406ZM86.5188 84.8081C86.5188 85.0274 86.8033 85.2069 87.151 85.2069C87.4987 85.2069 87.7832 85.0274 87.7832 84.8081C87.7832 84.5887 87.4987 84.4093 87.151 84.4093C86.8033 84.4093 86.5188 84.5887 86.5188 84.8081ZM166.404 84.7806C166.116 85.2212 166.78 85.6974 167.17 85.3289C167.57 84.9497 167.496 84.4093 167.042 84.4093C166.824 84.4093 166.537 84.5764 166.404 84.7806ZM147.49 85.0741C147.005 85.5327 147.183 86.0045 147.841 86.0045C148.189 86.0045 148.473 85.7353 148.473 85.4063C148.473 84.7834 147.975 84.6151 147.49 85.0741ZM153.612 85.2368C153.695 85.4725 153.943 85.6655 154.163 85.6655C154.383 85.6655 154.631 85.4725 154.714 85.2368C154.797 85.0011 154.55 84.8081 154.163 84.8081C153.777 84.8081 153.529 85.0011 153.612 85.2368ZM160.274 85.2069C160.274 85.4262 160.464 85.6057 160.696 85.6057C160.928 85.6057 161.117 85.4262 161.117 85.2069C161.117 84.9875 160.928 84.8081 160.696 84.8081C160.464 84.8081 160.274 84.9875 160.274 85.2069ZM1.59424 87.6013C1.12727 89.0601 0.974277 90.1572 1.20777 90.3689C1.4206 90.562 4.43952 92.4347 7.91656 94.5308L14.2385 98.3422L14.7467 96.0614C15.0266 94.8072 15.2634 93.5817 15.2736 93.3376C15.2879 92.9998 4.08844 85.8673 2.64663 85.2954C2.49322 85.2344 2.0195 86.2721 1.59424 87.6013ZM134.858 85.4617C134.521 85.7804 134.902 86.4033 135.433 86.4033C135.651 86.4033 135.83 86.1341 135.83 85.8051C135.83 85.1885 135.332 85.0127 134.858 85.4617ZM141.156 85.4837C140.682 85.9327 140.868 86.4033 141.519 86.4033C141.867 86.4033 142.152 86.2346 142.152 86.028C142.152 85.5251 141.493 85.165 141.156 85.4837ZM109.137 85.8717C108.652 86.3303 108.83 86.8021 109.488 86.8021C109.836 86.8021 110.121 86.5329 110.121 86.2039C110.121 85.581 109.622 85.4127 109.137 85.8717ZM115.387 86.0073C115.243 86.2282 115.429 86.5197 115.802 86.6549C116.609 86.9476 117.058 86.625 116.67 86.0312C116.321 85.4952 115.729 85.4844 115.387 86.0073ZM122.15 85.977C121.838 86.4543 122.631 86.9269 123.193 86.5987C123.664 86.3231 123.354 85.6057 122.764 85.6057C122.56 85.6057 122.283 85.7728 122.15 85.977ZM128.324 86.0344C128.407 86.2701 128.656 86.4631 128.876 86.4631C129.096 86.4631 129.344 86.2701 129.427 86.0344C129.51 85.7987 129.262 85.6057 128.876 85.6057C128.489 85.6057 128.241 85.7987 128.324 86.0344ZM83.5686 86.6027C83.5686 86.9317 83.7582 87.2009 83.9901 87.2009C84.2219 87.2009 84.4115 86.9317 84.4115 86.6027C84.4115 86.2737 84.2219 86.0045 83.9901 86.0045C83.7582 86.0045 83.5686 86.2737 83.5686 86.6027ZM89.6979 86.3758C89.41 86.8164 90.0747 87.2926 90.4641 86.9241C90.8645 86.5449 90.7899 86.0045 90.3368 86.0045C90.1185 86.0045 89.8311 86.1716 89.6979 86.3758ZM95.7909 86.4033C95.7909 86.6226 96.0754 86.8021 96.4231 86.8021C96.7708 86.8021 97.0553 86.6226 97.0553 86.4033C97.0553 86.1839 96.7708 86.0045 96.4231 86.0045C96.0754 86.0045 95.7909 86.1839 95.7909 86.4033ZM102.534 86.4033C102.534 86.6226 102.819 86.8021 103.166 86.8021C103.514 86.8021 103.799 86.6226 103.799 86.4033C103.799 86.1839 103.514 86.0045 103.166 86.0045C102.819 86.0045 102.534 86.1839 102.534 86.4033ZM71.1225 86.822C70.7221 87.4354 71.2704 87.831 71.8116 87.3189C72.1142 87.0326 72.1213 86.8097 71.8335 86.6414C71.5975 86.5034 71.2776 86.5847 71.1225 86.822ZM76.8252 86.8021C76.8252 87.0214 77.1097 87.2009 77.4574 87.2009C77.8051 87.2009 78.0896 87.0214 78.0896 86.8021C78.0896 86.5827 77.8051 86.4033 77.4574 86.4033C77.1097 86.4033 76.8252 86.5827 76.8252 86.8021ZM163.096 86.6581C162.759 86.9768 163.139 87.5997 163.671 87.5997C163.889 87.5997 164.067 87.3305 164.067 87.0015C164.067 86.3849 163.57 86.2091 163.096 86.6581ZM169.125 86.8021C169.125 87.0214 169.409 87.2009 169.757 87.2009C170.105 87.2009 170.389 87.0214 170.389 86.8021C170.389 86.5827 170.105 86.4033 169.757 86.4033C169.409 86.4033 169.125 86.5827 169.125 86.8021ZM144.34 87.2308C144.423 87.4665 144.671 87.6595 144.891 87.6595C145.111 87.6595 145.359 87.4665 145.442 87.2308C145.525 86.9951 145.277 86.8021 144.891 86.8021C144.505 86.8021 144.257 86.9951 144.34 87.2308ZM150.388 87.1734C150.076 87.6507 150.869 88.1233 151.43 87.7951C151.902 87.5195 151.592 86.8021 151.002 86.8021C150.798 86.8021 150.521 86.9692 150.388 87.1734ZM156.903 87.2009C156.903 87.4202 157.187 87.5997 157.535 87.5997C157.882 87.5997 158.167 87.4202 158.167 87.2009C158.167 86.9815 157.882 86.8021 157.535 86.8021C157.187 86.8021 156.903 86.9815 156.903 87.2009ZM125.293 87.7991C125.293 88.1648 125.497 88.3993 125.746 88.3207C125.995 88.2422 126.199 88.0073 126.199 87.7991C126.199 87.5909 125.995 87.356 125.746 87.2775C125.497 87.1989 125.293 87.4334 125.293 87.7991ZM131.884 87.4777C131.41 87.9267 131.596 88.3973 132.247 88.3973C132.595 88.3973 132.879 88.2286 132.879 88.022C132.879 87.5191 132.221 87.159 131.884 87.4777ZM137.937 87.5997C137.937 87.819 138.221 87.9985 138.569 87.9985C138.917 87.9985 139.201 87.819 139.201 87.5997C139.201 87.3803 138.917 87.2009 138.569 87.2009C138.221 87.2009 137.937 87.3803 137.937 87.5997ZM86.5272 87.9937C86.0038 88.2996 86.0232 88.3953 86.6541 88.6246C87.5337 88.9436 88.1077 88.5448 87.5408 88.0085C87.3015 87.7819 86.8994 87.776 86.5272 87.9937ZM93.0923 87.9363C92.9465 88.1596 93.0325 88.4623 93.2832 88.609C93.9314 88.9879 94.3495 88.4691 93.8084 87.957C93.5058 87.6707 93.2702 87.6639 93.0923 87.9363ZM99.3561 88.0252C99.2031 88.2589 99.1795 88.546 99.303 88.6633C99.6051 88.9488 100.427 88.4455 100.427 87.975C100.427 87.4653 99.6995 87.4992 99.3561 88.0252ZM105.713 87.971C105.401 88.4483 106.194 88.9209 106.756 88.5927C107.227 88.3171 106.917 87.5997 106.327 87.5997C106.123 87.5997 105.847 87.7668 105.713 87.971ZM112.309 88.0284C112.392 88.2641 112.64 88.4571 112.86 88.4571C113.08 88.4571 113.328 88.2641 113.411 88.0284C113.494 87.7927 113.247 87.5997 112.86 87.5997C112.474 87.5997 112.226 87.7927 112.309 88.0284ZM118.779 87.971C118.645 88.1752 118.729 88.4547 118.964 88.5927C119.467 88.8866 120.236 88.5133 120.236 87.975C120.236 87.4896 119.095 87.4864 118.779 87.971ZM74.0857 88.3973C73.9176 88.6549 73.9694 89.0449 74.2012 89.2643C74.4823 89.5303 74.7247 89.5071 74.9287 89.1949C75.0968 88.9373 75.045 88.5472 74.8132 88.3279C74.5321 88.0619 74.2897 88.085 74.0857 88.3973ZM79.8564 88.4272C79.9394 88.6629 80.1876 88.8559 80.4076 88.8559C80.6276 88.8559 80.8759 88.6629 80.9589 88.4272C81.0419 88.1915 80.7941 87.9985 80.4076 87.9985C80.0212 87.9985 79.7733 88.1915 79.8564 88.4272ZM147.63 88.9955C147.63 89.3612 147.834 89.5957 148.084 89.5171C148.333 89.4386 148.537 89.2037 148.537 88.9955C148.537 88.7873 148.333 88.5524 148.084 88.4738C147.834 88.3953 147.63 88.6298 147.63 88.9955ZM153.812 88.6633C153.327 89.1219 153.505 89.5937 154.163 89.5937C154.511 89.5937 154.795 89.3245 154.795 88.9955C154.795 88.3726 154.297 88.2043 153.812 88.6633ZM160.05 88.816C159.65 89.4294 160.198 89.825 160.74 89.3129C161.042 89.0266 161.049 88.8037 160.761 88.6354C160.525 88.4974 160.206 88.5787 160.05 88.816ZM165.753 88.7961C165.753 89.0154 166.038 89.1949 166.385 89.1949C166.733 89.1949 167.018 89.0154 167.018 88.7961C167.018 88.5767 166.733 88.3973 166.385 88.3973C166.038 88.3973 165.753 88.5767 165.753 88.7961ZM41.2207 89.4425C40.3074 90.3071 40.5574 91.234 41.8946 91.9442C44.1221 93.1271 46.8367 90.8882 45.1315 89.2747C44.4015 88.5839 42.0202 88.6864 41.2207 89.4425ZM141.309 89.3943C141.309 89.76 141.513 89.9945 141.762 89.9159C142.011 89.8374 142.215 89.6025 142.215 89.3943C142.215 89.1861 142.011 88.9512 141.762 88.8727C141.513 88.7941 141.309 89.0286 141.309 89.3943ZM19.8097 90.5588L17.7947 91.8784L18.9668 92.607C22.1349 94.5767 35.569 102.551 49.0089 110.44C57.2379 115.27 69.5656 122.581 76.4038 126.686C83.242 130.791 92.63 136.405 97.266 139.163C101.902 141.919 109.014 146.201 113.071 148.677C134.304 161.636 155.228 174.139 155.682 174.139C156.123 174.139 159.828 171.997 159.82 171.747C159.817 171.637 156.65 169.663 152.781 167.36C148.913 165.057 139.391 159.331 131.622 154.636C123.853 149.941 113.039 143.471 107.592 140.258C102.144 137.044 92.4719 131.264 86.0974 127.414C79.7228 123.563 66.6364 115.787 57.0166 110.134C35.3742 97.4162 30.4078 94.4646 25.6933 91.5183C23.6488 90.2405 21.9419 89.2048 21.9002 89.2168C21.8589 89.2288 20.9182 89.8326 19.8097 90.5588ZM83.4396 89.4497C83.1029 89.7684 83.4835 90.3913 84.0149 90.3913C84.2332 90.3913 84.4115 90.1221 84.4115 89.7931C84.4115 89.1765 83.9142 89.0007 83.4396 89.4497ZM89.7383 89.4716C89.2638 89.9207 89.4496 90.3913 90.1012 90.3913C90.4489 90.3913 90.7334 90.2226 90.7334 90.016C90.7334 89.5131 90.0751 89.153 89.7383 89.4716ZM96.0425 89.5315C95.8967 89.7548 95.9827 90.0575 96.2335 90.2042C96.8817 90.5831 97.2997 90.0643 96.7586 89.5522C96.456 89.2659 96.2204 89.2591 96.0425 89.5315ZM109.125 89.4716C108.651 89.9207 108.837 90.3913 109.488 90.3913C109.836 90.3913 110.121 90.2226 110.121 90.016C110.121 89.5131 109.462 89.153 109.125 89.4716ZM115.869 89.4716C115.394 89.9207 115.58 90.3913 116.232 90.3913C116.579 90.3913 116.864 90.2226 116.864 90.016C116.864 89.5131 116.206 89.153 115.869 89.4716ZM122.383 89.5702C121.964 89.8154 121.952 89.9634 122.334 90.1871C122.611 90.349 123.027 90.302 123.259 90.0826C123.808 89.563 123.102 89.1498 122.383 89.5702ZM128.454 89.5937C128.597 89.813 128.999 89.9925 129.347 89.9925C129.694 89.9925 129.862 89.813 129.718 89.5937C129.575 89.3743 129.173 89.1949 128.826 89.1949C128.478 89.1949 128.311 89.3743 128.454 89.5937ZM134.987 89.5937C134.987 89.813 135.271 89.9925 135.619 89.9925C135.967 89.9925 136.251 89.813 136.251 89.5937C136.251 89.3743 135.967 89.1949 135.619 89.1949C135.271 89.1949 134.987 89.3743 134.987 89.5937ZM41.8955 89.9442C40.9666 90.5165 41.7657 91.1889 43.3748 91.1889C44.5579 91.1889 44.828 91.0485 44.7163 90.491C44.5608 89.7145 42.8168 89.3767 41.8955 89.9442ZM102.534 89.9925C102.534 90.2118 102.819 90.3913 103.166 90.3913C103.514 90.3913 103.799 90.2118 103.799 89.9925C103.799 89.7731 103.514 89.5937 103.166 89.5937C102.819 89.5937 102.534 89.7731 102.534 89.9925ZM76.9062 90.4212C76.9892 90.6569 77.2374 90.8499 77.4574 90.8499C77.6774 90.8499 77.9257 90.6569 78.0087 90.4212C78.0917 90.1855 77.8439 89.9925 77.4574 89.9925C77.0709 89.9925 76.8231 90.1855 76.9062 90.4212ZM162.803 90.3913C162.803 90.6106 162.993 90.7901 163.224 90.7901C163.456 90.7901 163.646 90.6106 163.646 90.3913C163.646 90.1719 163.456 89.9925 163.224 89.9925C162.993 89.9925 162.803 90.1719 162.803 90.3913ZM144.528 90.6681C144.054 91.1171 144.239 91.5877 144.891 91.5877C145.239 91.5877 145.523 91.419 145.523 91.2124C145.523 90.7095 144.865 90.3494 144.528 90.6681ZM150.81 90.7626C150.676 90.9668 150.76 91.2463 150.995 91.3843C151.231 91.5219 151.424 91.3548 151.424 91.013C151.424 90.3123 151.171 90.2094 150.81 90.7626ZM156.903 91.013C156.903 91.3548 157.092 91.5239 157.324 91.3883C157.556 91.2527 157.746 90.9731 157.746 90.7666C157.746 90.56 157.556 90.3913 157.324 90.3913C157.092 90.3913 156.903 90.6712 156.903 91.013ZM119.241 91.0669C118.766 91.5159 118.952 91.9865 119.603 91.9865C119.951 91.9865 120.236 91.8178 120.236 91.6112C120.236 91.1083 119.577 90.7482 119.241 91.0669ZM125.715 91.3883C125.715 91.7173 125.904 91.9865 126.136 91.9865C126.368 91.9865 126.557 91.7173 126.557 91.3883C126.557 91.0593 126.368 90.7901 126.136 90.7901C125.904 90.7901 125.715 91.0593 125.715 91.3883ZM131.884 91.0669C131.41 91.5159 131.596 91.9865 132.247 91.9865C132.595 91.9865 132.879 91.8178 132.879 91.6112C132.879 91.1083 132.221 90.7482 131.884 91.0669ZM138.206 91.0669C137.732 91.5159 137.918 91.9865 138.569 91.9865C138.917 91.9865 139.201 91.8178 139.201 91.6112C139.201 91.1083 138.543 90.7482 138.206 91.0669ZM86.3262 91.5602C86.0383 92.0008 86.703 92.477 87.0924 92.1085C87.4928 91.7293 87.4182 91.1889 86.9651 91.1889C86.7468 91.1889 86.4594 91.356 86.3262 91.5602ZM92.8407 91.7871C92.8407 92.1528 93.0447 92.3873 93.2938 92.3087C93.5429 92.2302 93.7468 91.9953 93.7468 91.7871C93.7468 91.5789 93.5429 91.344 93.2938 91.2654C93.0447 91.1869 92.8407 91.4214 92.8407 91.7871ZM99.3915 91.5602C99.0796 92.0375 99.8723 92.5101 100.434 92.1819C100.905 91.9063 100.596 91.1889 100.006 91.1889C99.8011 91.1889 99.5246 91.356 99.3915 91.5602ZM105.985 91.6128C106.086 91.9003 106.418 92.2146 106.723 92.3107C107.039 92.4104 107.197 92.2609 107.092 91.9618C106.99 91.6738 106.658 91.3596 106.354 91.2639C106.038 91.1642 105.88 91.3137 105.985 91.6128ZM112.457 91.5602C112.169 92.0008 112.833 92.477 113.223 92.1085C113.623 91.7293 113.549 91.1889 113.096 91.1889C112.877 91.1889 112.59 91.356 112.457 91.5602ZM0.962476 126.23C0.962476 150.411 1.10619 161.581 1.4362 163.053C2.05869 165.829 3.50219 168.46 5.24493 169.996C6.5013 171.103 14.5423 176.277 14.6262 176.032C14.6447 175.978 14.6018 158.706 14.5305 137.649L14.4011 99.3643L8.04173 95.5757C4.54446 93.492 1.52049 91.7273 1.3224 91.6543C1.12474 91.5809 0.962476 107.14 0.962476 126.23ZM79.9862 91.9865C79.8429 92.2058 80.0216 92.3853 80.3828 92.3853C80.744 92.3853 81.0398 92.2058 81.0398 91.9865C81.0398 91.7671 80.8615 91.5877 80.6432 91.5877C80.4249 91.5877 80.1295 91.7671 79.9862 91.9865ZM287.983 94.3741C285.553 95.8911 283.525 97.2754 283.477 97.4508C283.395 97.7476 293.504 104.086 294.825 104.565C295.372 104.764 304.709 99.2977 304.355 98.987C304.012 98.6867 292.647 91.5889 292.53 91.6016C292.459 91.6092 290.413 92.8571 287.983 94.3741ZM159.853 92.3618C159.853 92.5683 160.042 92.8479 160.274 92.9835C160.506 93.1191 160.696 92.95 160.696 92.6082C160.696 92.2664 160.506 91.9865 160.274 91.9865C160.042 91.9865 159.853 92.1552 159.853 92.3618ZM16.4381 92.6577C16.3264 92.8371 16.0082 94.2397 15.7308 95.7751C15.0852 99.3519 15.2677 175.999 15.9243 176.931C16.2071 177.333 16.4149 163.57 16.5565 135.057C16.6724 111.697 16.739 92.5281 16.704 92.4583C16.6694 92.3889 16.5493 92.4786 16.4381 92.6577ZM141.349 92.7606C140.93 93.0058 140.918 93.1538 141.3 93.3775C141.577 93.5394 141.993 93.4924 142.225 93.273C142.774 92.7534 142.068 92.3402 141.349 92.7606ZM147.209 92.7841C147.209 93.0034 147.493 93.1829 147.841 93.1829C148.189 93.1829 148.473 93.0034 148.473 92.7841C148.473 92.5647 148.189 92.3853 147.841 92.3853C147.493 92.3853 147.209 92.5647 147.209 92.7841ZM153.531 92.7841C153.531 93.0034 153.815 93.1829 154.163 93.1829C154.511 93.1829 154.795 93.0034 154.795 92.7841C154.795 92.5647 154.511 92.3853 154.163 92.3853C153.815 92.3853 153.531 92.5647 153.531 92.7841ZM264.691 92.816C263.844 93.2826 263.714 94.7908 264.459 95.4959C265.181 96.1787 267.567 96.0877 268.349 95.348C269.264 94.4814 269.177 93.7372 268.074 93.0062C267.003 92.2964 265.761 92.2266 264.691 92.816ZM96.0602 93.0609C95.5857 93.5099 95.7715 93.9805 96.4231 93.9805C96.7708 93.9805 97.0553 93.8118 97.0553 93.6052C97.0553 93.1023 96.397 92.7422 96.0602 93.0609ZM109.074 93.1729C108.733 93.6942 109.703 94.1364 110.185 93.6798C110.455 93.4246 110.374 93.2072 109.952 93.0537C109.596 92.9245 109.201 92.9783 109.074 93.1729ZM115.833 93.149C115.697 93.3568 115.766 93.6315 115.985 93.7599C116.205 93.8884 116.495 93.8234 116.631 93.6156C116.767 93.4078 116.698 93.133 116.478 93.0046C116.259 92.8762 115.968 92.9412 115.833 93.149ZM122.424 93.2128C122.507 93.4485 122.755 93.6415 122.975 93.6415C123.195 93.6415 123.443 93.4485 123.526 93.2128C123.609 92.9771 123.362 92.7841 122.975 92.7841C122.589 92.7841 122.341 92.9771 122.424 93.2128ZM128.894 93.1554C128.582 93.6327 129.375 94.1053 129.936 93.7771C130.408 93.5015 130.098 92.7841 129.508 92.7841C129.303 92.7841 129.027 92.9512 128.894 93.1554ZM135.079 93.2443C135.297 93.8656 136.24 93.9741 136.273 93.3823C136.286 93.1629 135.979 92.9217 135.593 92.8455C135.153 92.7598 134.961 92.9089 135.079 93.2443ZM17.6675 95.0333C17.5199 96.0507 17.3994 114.788 17.3994 136.672V176.461L23.4052 180.121C26.7086 182.134 35.3852 187.384 42.687 191.786C59.4185 201.875 111.605 233.555 134.354 247.434C154.823 259.922 153.587 259.181 153.673 259.016C153.711 258.943 153.647 254.599 153.531 249.362L153.32 239.84L144.47 234.421C139.602 231.441 131.638 226.638 126.773 223.749L117.927 218.496L116.731 219.448C115.166 220.694 111.988 220.747 109.42 219.571C104.689 217.404 100.006 209.447 100.006 203.578C100.006 201.016 101.511 198.451 103.588 197.474C104.515 197.038 107.26 195.629 109.686 194.344C114.946 191.559 116.072 191.318 118.702 192.419C121.07 193.41 124.984 196.827 126.436 199.173C127.932 201.589 129.086 205.349 129.086 207.81V209.905L137.41 214.83C141.988 217.539 147.386 220.798 149.406 222.072C151.425 223.346 153.183 224.388 153.313 224.388C153.443 224.388 153.542 214.473 153.533 202.354C153.517 181.452 153.56 180.188 154.357 177.739C154.818 176.319 155.059 175.035 154.891 174.885C154.722 174.735 148.8 171.159 141.73 166.939C134.66 162.718 123.375 155.913 116.653 151.816C109.931 147.72 101.396 142.564 97.6875 140.36C93.9786 138.156 84.2113 132.323 75.9823 127.399C67.7533 122.475 53.7187 114.168 44.7943 108.939C35.8699 103.71 26.2745 98.0251 23.471 96.3071C20.6674 94.5887 18.2752 93.1829 18.1547 93.1829C18.0341 93.1829 17.815 94.0156 17.6675 95.0333ZM83.4165 93.4597C82.9419 93.9087 83.1277 94.3793 83.7793 94.3793C84.127 94.3793 84.4115 94.2106 84.4115 94.004C84.4115 93.5011 83.7532 93.141 83.4165 93.4597ZM89.5499 93.6116C89.633 93.8473 89.8812 94.0403 90.1012 94.0403C90.3212 94.0403 90.5695 93.8473 90.6525 93.6116C90.7355 93.3759 90.4877 93.1829 90.1012 93.1829C89.7147 93.1829 89.4669 93.3759 89.5499 93.6116ZM102.534 93.5817C102.534 93.801 102.819 93.9805 103.166 93.9805C103.514 93.9805 103.799 93.801 103.799 93.5817C103.799 93.3623 103.514 93.1829 103.166 93.1829C102.819 93.1829 102.534 93.3623 102.534 93.5817ZM265.323 93.4469C263.744 94.0499 265.625 95.488 267.325 94.9775C268.391 94.6576 268.401 94.1264 267.353 93.5956C266.481 93.1542 266.153 93.1302 265.323 93.4469ZM156.903 94.1799C156.903 94.5089 157.092 94.7781 157.324 94.7781C157.556 94.7781 157.746 94.5089 157.746 94.1799C157.746 93.8509 157.556 93.5817 157.324 93.5817C157.092 93.5817 156.903 93.8509 156.903 94.1799ZM150.37 94.3793C150.227 94.5986 150.405 94.7781 150.767 94.7781C151.128 94.7781 151.424 94.5986 151.424 94.3793C151.424 94.16 151.245 93.9805 151.027 93.9805C150.809 93.9805 150.513 94.16 150.37 94.3793ZM119.241 94.6561C118.766 95.1051 118.952 95.5757 119.603 95.5757C119.951 95.5757 120.236 95.407 120.236 95.2004C120.236 94.6975 119.577 94.3374 119.241 94.6561ZM125.715 94.9775C125.715 95.3432 125.919 95.5777 126.168 95.4991C126.417 95.4206 126.621 95.1857 126.621 94.9775C126.621 94.7693 126.417 94.5344 126.168 94.4558C125.919 94.3773 125.715 94.6118 125.715 94.9775ZM144.066 94.7506C143.778 95.1912 144.443 95.6674 144.832 95.2989C145.233 94.9197 145.158 94.3793 144.705 94.3793C144.487 94.3793 144.199 94.5464 144.066 94.7506ZM92.7117 95.0329C92.375 95.3516 92.7556 95.9745 93.287 95.9745C93.5053 95.9745 93.6836 95.7053 93.6836 95.3763C93.6836 94.7597 93.1863 94.5839 92.7117 95.0329ZM99.1626 95.3763C99.1626 95.742 99.3666 95.9765 99.6157 95.8979C99.8648 95.8194 100.069 95.5845 100.069 95.3763C100.069 95.1681 99.8648 94.9332 99.6157 94.8547C99.3666 94.7761 99.1626 95.0106 99.1626 95.3763ZM105.713 95.1494C105.401 95.6267 106.194 96.0993 106.756 95.7711C107.227 95.4955 106.917 94.7781 106.327 94.7781C106.123 94.7781 105.847 94.9452 105.713 95.1494ZM112.309 95.2068C112.392 95.4425 112.64 95.6355 112.86 95.6355C113.08 95.6355 113.328 95.4425 113.411 95.2068C113.494 94.9711 113.247 94.7781 112.86 94.7781C112.474 94.7781 112.226 94.9711 112.309 95.2068ZM132.458 95.1769C132.458 95.3962 132.648 95.5757 132.879 95.5757C133.111 95.5757 133.301 95.3962 133.301 95.1769C133.301 94.9576 133.111 94.7781 132.879 94.7781C132.648 94.7781 132.458 94.9576 132.458 95.1769ZM138.78 95.3998C138.78 95.7416 138.969 95.9107 139.201 95.7751C139.433 95.6395 139.623 95.3599 139.623 95.1534C139.623 94.9468 139.433 94.7781 139.201 94.7781C138.969 94.7781 138.78 95.058 138.78 95.3998ZM86.3262 95.5482C86.0383 95.9888 86.703 96.465 87.0924 96.0965C87.4928 95.7173 87.4182 95.1769 86.9651 95.1769C86.7468 95.1769 86.4594 95.344 86.3262 95.5482ZM147.29 96.4032C147.373 96.6389 147.621 96.8319 147.841 96.8319C148.061 96.8319 148.309 96.6389 148.392 96.4032C148.476 96.1675 148.228 95.9745 147.841 95.9745C147.455 95.9745 147.207 96.1675 147.29 96.4032ZM153.531 96.3733C153.531 96.5926 153.709 96.7721 153.928 96.7721C154.146 96.7721 154.441 96.5926 154.585 96.3733C154.728 96.1539 154.549 95.9745 154.188 95.9745C153.827 95.9745 153.531 96.1539 153.531 96.3733ZM115.6 96.9384C115.6 97.2857 115.9 97.5697 116.267 97.5697C117.011 97.5697 116.882 96.7111 116.1 96.4646C115.825 96.3777 115.6 96.591 115.6 96.9384ZM122.343 97.0046C122.343 97.3519 122.568 97.5653 122.844 97.4784C123.625 97.2319 123.754 96.3733 123.01 96.3733C122.643 96.3733 122.343 96.6572 122.343 97.0046ZM128.894 96.7446C128.582 97.2219 129.375 97.6945 129.936 97.3663C130.408 97.0907 130.098 96.3733 129.508 96.3733C129.303 96.3733 129.027 96.5404 128.894 96.7446ZM135.408 96.9384C135.408 97.2857 135.708 97.5697 136.075 97.5697C136.82 97.5697 136.69 96.7111 135.909 96.4646C135.633 96.3777 135.408 96.591 135.408 96.9384ZM141.405 96.8471C141.666 97.5864 142.573 97.7089 142.573 97.0046C142.573 96.6572 142.273 96.3733 141.906 96.3733C141.539 96.3733 141.313 96.5862 141.405 96.8471ZM89.469 97.6183C89.469 98.323 89.5744 98.3824 90.0966 97.9721C90.7309 97.474 90.5956 96.7721 89.8656 96.7721C89.6473 96.7721 89.469 97.1529 89.469 97.6183ZM95.7909 97.3703C95.7909 97.736 95.9949 97.9705 96.244 97.8919C96.4931 97.8134 96.6971 97.5785 96.6971 97.3703C96.6971 97.1621 96.4931 96.9272 96.244 96.8486C95.9949 96.7701 95.7909 97.0046 95.7909 97.3703ZM102.342 97.1434C102.03 97.6207 102.823 98.0933 103.384 97.7651C103.856 97.4895 103.546 96.7721 102.956 96.7721C102.751 96.7721 102.475 96.9392 102.342 97.1434ZM108.937 97.2008C109.02 97.4365 109.268 97.6295 109.488 97.6295C109.708 97.6295 109.957 97.4365 110.04 97.2008C110.123 96.9651 109.875 96.7721 109.488 96.7721C109.102 96.7721 108.854 96.9651 108.937 97.2008ZM150.581 98.1914C150.581 98.5332 150.77 98.7023 151.002 98.5667C151.234 98.4311 151.424 98.1515 151.424 97.945C151.424 97.7384 151.234 97.5697 151.002 97.5697C150.77 97.5697 150.581 97.8496 150.581 98.1914ZM118.971 98.5998C118.971 98.9471 119.196 99.1605 119.472 99.0736C120.253 98.8271 120.383 97.9685 119.638 97.9685C119.271 97.9685 118.971 98.2524 118.971 98.5998ZM125.715 98.5998C125.715 98.9471 125.94 99.1605 126.215 99.0736C126.997 98.8271 127.126 97.9685 126.382 97.9685C126.015 97.9685 125.715 98.2524 125.715 98.5998ZM132.27 98.3334C132.134 98.5412 132.203 98.8159 132.422 98.9444C132.642 99.0728 132.932 99.0078 133.068 98.8C133.203 98.5922 133.135 98.3174 132.915 98.189C132.696 98.0606 132.405 98.1256 132.27 98.3334ZM138.358 98.5667C138.358 98.8957 138.548 99.1649 138.78 99.1649C139.012 99.1649 139.201 98.8957 139.201 98.5667C139.201 98.2377 139.012 97.9685 138.78 97.9685C138.548 97.9685 138.358 98.2377 138.358 98.5667ZM144.259 98.3673C144.259 98.5866 144.543 98.7661 144.891 98.7661C145.239 98.7661 145.523 98.5866 145.523 98.3673C145.523 98.1479 145.239 97.9685 144.891 97.9685C144.543 97.9685 144.259 98.1479 144.259 98.3673ZM273.858 102.91C269.453 105.601 259.212 111.841 251.099 116.777C224.951 132.686 208.025 143.085 192.727 152.638C184.498 157.776 175.609 163.289 172.974 164.889C170.339 166.489 168.253 167.855 168.338 167.925C168.423 167.995 171.282 169.7 174.692 171.714L180.891 175.376L185.228 172.629C187.614 171.118 196.393 165.695 204.738 160.578C213.083 155.462 223.514 149.001 227.919 146.22C232.323 143.44 244.082 136.176 254.049 130.078C264.017 123.98 276.749 116.1 282.343 112.567C287.937 109.034 292.848 105.957 293.255 105.729C293.881 105.379 293.082 104.746 288.089 101.641C284.84 99.6215 282.111 97.9797 282.024 97.9936C281.937 98.0072 278.262 100.22 273.858 102.91ZM105.581 98.8411C105.841 99.5804 106.749 99.7029 106.749 98.9986C106.749 98.6512 106.449 98.3673 106.082 98.3673C105.715 98.3673 105.489 98.5802 105.581 98.8411ZM112.228 98.9986C112.228 99.3459 112.453 99.5593 112.729 99.4724C113.51 99.2259 113.639 98.3673 112.895 98.3673C112.528 98.3673 112.228 98.6512 112.228 98.9986ZM92.7117 99.0209C92.375 99.3396 92.7556 99.9625 93.287 99.9625C93.5053 99.9625 93.6836 99.6933 93.6836 99.3643C93.6836 98.7477 93.1863 98.5719 92.7117 99.0209ZM98.97 99.1374C98.8364 99.3416 98.9203 99.6211 99.1559 99.7591C99.6587 100.053 100.427 99.6797 100.427 99.1414C100.427 98.656 99.2861 98.6528 98.97 99.1374ZM122.203 99.8297C121.717 100.288 121.895 100.76 122.554 100.76C122.901 100.76 123.186 100.491 123.186 100.162C123.186 99.539 122.687 99.3707 122.203 99.8297ZM128.934 99.8405C128.46 100.29 128.645 100.76 129.297 100.76C129.645 100.76 129.929 100.591 129.929 100.385C129.929 99.8819 129.271 99.5218 128.934 99.8405ZM135.256 99.8405C134.781 100.29 134.967 100.76 135.619 100.76C135.967 100.76 136.251 100.591 136.251 100.385C136.251 99.8819 135.593 99.5218 135.256 99.8405ZM141.116 99.935C140.828 100.376 141.493 100.852 141.882 100.483C142.283 100.104 142.208 99.5637 141.755 99.5637C141.537 99.5637 141.249 99.7308 141.116 99.935ZM147.209 99.9625C147.209 100.182 147.505 100.361 147.866 100.361C148.227 100.361 148.406 100.182 148.263 99.9625C148.119 99.7431 147.824 99.5637 147.606 99.5637C147.387 99.5637 147.209 99.7431 147.209 99.9625ZM300.751 102.487L296.057 105.346L295.915 108.935C295.837 110.91 295.776 112.557 295.779 112.597C295.796 112.783 305.976 106.593 306.614 106.009C307.268 105.41 307.28 105.193 306.737 103.751C306.407 102.874 306.128 101.673 306.118 101.083C306.108 100.492 305.952 99.9234 305.772 99.8185C305.593 99.7132 303.333 100.914 300.751 102.487ZM115.407 100.334C115.095 100.811 115.888 101.284 116.449 100.955C116.921 100.68 116.611 99.9625 116.021 99.9625C115.817 99.9625 115.54 100.13 115.407 100.334ZM96.0602 100.638C95.5857 101.087 95.7715 101.558 96.4231 101.558C96.7708 101.558 97.0553 101.389 97.0553 101.182C97.0553 100.68 96.397 100.319 96.0602 100.638ZM102.78 100.707C102.598 100.985 102.564 101.32 102.703 101.451C103.08 101.808 103.491 101.283 103.287 100.705C103.145 100.3 103.046 100.3 102.78 100.707ZM108.937 100.79C109.02 101.026 109.268 101.219 109.488 101.219C109.708 101.219 109.957 101.026 110.04 100.79C110.123 100.554 109.875 100.361 109.488 100.361C109.102 100.361 108.854 100.554 108.937 100.79ZM144.259 101.734C144.259 102.075 144.448 102.355 144.68 102.355C144.912 102.355 145.102 102.187 145.102 101.98C145.102 101.773 144.912 101.494 144.68 101.358C144.448 101.223 144.259 101.392 144.259 101.734ZM125.374 101.986C125.457 102.222 125.705 102.415 125.925 102.415C126.145 102.415 126.394 102.222 126.477 101.986C126.56 101.751 126.312 101.558 125.925 101.558C125.539 101.558 125.291 101.751 125.374 101.986ZM132.036 102.156C132.036 102.485 132.226 102.754 132.458 102.754C132.69 102.754 132.879 102.485 132.879 102.156C132.879 101.827 132.69 101.558 132.458 101.558C132.226 101.558 132.036 101.827 132.036 102.156ZM138 101.937C138.093 102.2 138.306 102.402 138.474 102.385C138.978 102.336 138.881 101.789 138.337 101.618C138.059 101.53 137.907 101.673 138 101.937ZM112.035 102.328C111.723 102.805 112.516 103.278 113.078 102.95C113.549 102.674 113.239 101.956 112.649 101.956C112.445 101.956 112.168 102.124 112.035 102.328ZM118.971 102.578C118.971 102.92 119.161 103.089 119.393 102.953C119.624 102.818 119.814 102.538 119.814 102.332C119.814 102.125 119.624 101.956 119.393 101.956C119.161 101.956 118.971 102.236 118.971 102.578ZM99.1626 102.953C99.1626 103.319 99.3666 103.554 99.6157 103.475C99.8648 103.397 100.069 103.162 100.069 102.953C100.069 102.745 99.8648 102.51 99.6157 102.432C99.3666 102.353 99.1626 102.588 99.1626 102.953ZM105.565 102.784C105.648 103.02 105.897 103.213 106.117 103.213C106.337 103.213 106.585 103.02 106.668 102.784C106.751 102.548 106.503 102.355 106.117 102.355C105.73 102.355 105.482 102.548 105.565 102.784ZM128.472 103.524C128.16 104.002 128.953 104.474 129.514 104.146C129.986 103.87 129.676 103.153 129.086 103.153C128.882 103.153 128.605 103.32 128.472 103.524ZM141.085 103.572C140.684 104.185 141.233 104.581 141.774 104.069C142.076 103.782 142.084 103.559 141.796 103.391C141.56 103.253 141.24 103.334 141.085 103.572ZM122.002 103.98C122.085 104.216 122.334 104.409 122.554 104.409C122.774 104.409 123.022 104.216 123.105 103.98C123.188 103.745 122.94 103.552 122.554 103.552C122.167 103.552 121.919 103.745 122.002 103.98ZM134.646 103.98C134.729 104.216 134.977 104.409 135.197 104.409C135.417 104.409 135.666 104.216 135.749 103.98C135.832 103.745 135.584 103.552 135.197 103.552C134.811 103.552 134.563 103.745 134.646 103.98ZM109.125 104.227C108.651 104.676 108.837 105.147 109.488 105.147C109.836 105.147 110.121 104.978 110.121 104.772C110.121 104.269 109.462 103.909 109.125 104.227ZM115.178 104.549C115.178 104.878 115.463 105.147 115.81 105.147C116.158 105.147 116.442 104.878 116.442 104.549C116.442 104.22 116.158 103.95 115.81 103.95C115.463 103.95 115.178 104.22 115.178 104.549ZM102.534 104.981C102.534 105.328 102.759 105.541 103.035 105.454C103.816 105.208 103.946 104.349 103.201 104.349C102.834 104.349 102.534 104.633 102.534 104.981ZM125.141 105.424C124.666 105.873 124.852 106.343 125.504 106.343C125.852 106.343 126.136 106.175 126.136 105.968C126.136 105.465 125.478 105.105 125.141 105.424ZM131.422 105.518C131.135 105.959 131.799 106.435 132.189 106.067C132.589 105.687 132.514 105.147 132.061 105.147C131.843 105.147 131.556 105.314 131.422 105.518ZM118.795 105.891C118.614 106.169 118.579 106.504 118.718 106.636C119.096 106.993 119.507 106.468 119.303 105.889C119.16 105.484 119.061 105.484 118.795 105.891ZM137.515 105.944C137.515 106.164 137.8 106.343 138.148 106.343C138.495 106.343 138.78 106.164 138.78 105.944C138.78 105.725 138.495 105.546 138.148 105.546C137.8 105.546 137.515 105.725 137.515 105.944ZM105.581 106.418C105.841 107.158 106.749 107.28 106.749 106.576C106.749 106.228 106.449 105.944 106.082 105.944C105.715 105.944 105.489 106.157 105.581 106.418ZM112.035 106.316C111.723 106.793 112.516 107.266 113.078 106.938C113.549 106.662 113.239 105.944 112.649 105.944C112.445 105.944 112.168 106.112 112.035 106.316ZM285.237 111.795C280.137 115.016 267.374 122.917 256.873 129.352C246.373 135.789 234.351 143.223 230.159 145.874C225.967 148.524 217.394 153.838 211.109 157.683C204.823 161.528 195.366 167.361 190.093 170.647L180.504 176.621V180.398C180.504 182.476 180.67 184.116 180.872 184.043C181.232 183.913 185.169 181.488 230.447 153.516C242.733 145.926 259.992 135.292 268.8 129.886C284.602 120.186 292.526 115.242 293.998 114.163C294.646 113.689 294.735 113.072 294.631 109.776L294.509 105.94L285.237 111.795ZM303.694 108.888L299.813 111.328L299.796 143.932L299.777 176.536L303.771 174.042L307.765 171.547L307.775 138.945C307.781 121.014 307.738 106.367 307.68 106.396C307.622 106.425 305.828 107.546 303.694 108.888ZM128.051 107.113C127.739 107.591 128.532 108.063 129.093 107.735C129.565 107.46 129.255 106.742 128.665 106.742C128.46 106.742 128.184 106.909 128.051 107.113ZM134.413 107.418C133.939 107.867 134.124 108.337 134.776 108.337C135.124 108.337 135.408 108.169 135.408 107.962C135.408 107.459 134.75 107.099 134.413 107.418ZM121.581 107.968C121.664 108.204 121.912 108.397 122.132 108.397C122.352 108.397 122.6 108.204 122.683 107.968C122.766 107.733 122.519 107.54 122.132 107.54C121.746 107.54 121.498 107.733 121.581 107.968ZM108.856 108.537C108.856 108.902 109.06 109.137 109.309 109.058C109.558 108.98 109.762 108.745 109.762 108.537C109.762 108.329 109.558 108.094 109.309 108.015C109.06 107.936 108.856 108.171 108.856 108.537ZM115.6 108.537C115.6 108.866 115.789 109.135 116.021 109.135C116.253 109.135 116.442 108.866 116.442 108.537C116.442 108.208 116.253 107.938 116.021 107.938C115.789 107.938 115.6 108.208 115.6 108.537ZM124.72 109.412C124.245 109.861 124.431 110.331 125.082 110.331C125.43 110.331 125.715 110.163 125.715 109.956C125.715 109.453 125.056 109.093 124.72 109.412ZM130.97 109.554C130.569 110.167 131.118 110.563 131.659 110.051C131.961 109.764 131.969 109.541 131.681 109.373C131.445 109.235 131.125 109.316 130.97 109.554ZM118.322 109.959C118.169 110.193 118.145 110.48 118.269 110.597C118.571 110.883 119.393 110.38 119.393 109.909C119.393 109.399 118.665 109.433 118.322 109.959ZM112.035 110.304C111.723 110.781 112.516 111.254 113.078 110.925C113.549 110.65 113.239 109.932 112.649 109.932C112.445 109.932 112.168 110.1 112.035 110.304ZM127.481 111.558C127.564 111.793 127.813 111.986 128.033 111.986C128.253 111.986 128.501 111.793 128.584 111.558C128.667 111.322 128.419 111.129 128.033 111.129C127.646 111.129 127.398 111.322 127.481 111.558ZM121.5 111.926C121.5 112.146 121.69 112.325 121.921 112.325C122.153 112.325 122.343 112.146 122.343 111.926C122.343 111.707 122.153 111.528 121.921 111.528C121.69 111.528 121.5 111.707 121.5 111.926ZM115.178 112.325C115.178 112.545 115.356 112.724 115.575 112.724C115.793 112.724 116.088 112.545 116.232 112.325C116.375 112.106 116.196 111.926 115.835 111.926C115.474 111.926 115.178 112.106 115.178 112.325ZM296.755 113.299C295.751 114.054 294.125 115.176 293.14 115.792L291.35 116.911L291.349 144.733L291.348 172.554L294.615 174.536C296.411 175.626 298.114 176.521 298.398 176.525C298.802 176.531 298.919 169.481 298.929 144.229C298.937 126.463 298.862 111.926 298.761 111.926C298.661 111.926 297.758 112.544 296.755 113.299ZM117.976 113.4C117.502 113.849 117.687 114.319 118.339 114.319C118.687 114.319 118.971 114.151 118.971 113.944C118.971 113.441 118.313 113.081 117.976 113.4ZM124.45 113.721C124.45 114.05 124.64 114.319 124.872 114.319C125.103 114.319 125.293 114.05 125.293 113.721C125.293 113.392 125.103 113.123 124.872 113.123C124.64 113.123 124.45 113.392 124.45 113.721ZM121.079 115.715C121.079 116.081 121.283 116.315 121.532 116.237C121.781 116.158 121.985 115.923 121.985 115.715C121.985 115.507 121.781 115.272 121.532 115.193C121.283 115.115 121.079 115.349 121.079 115.715ZM288.082 118.988C286.748 119.848 285.869 120.71 285.869 121.156C285.869 122.145 286.087 122.103 288.466 120.659C289.973 119.744 290.505 119.171 290.505 118.465C290.505 117.94 290.458 117.521 290.4 117.535C290.342 117.548 289.299 118.202 288.082 118.988ZM287.871 121.989C286.251 122.975 285.869 123.425 285.869 124.347C285.869 124.973 285.961 125.486 286.074 125.486C286.186 125.486 287.229 124.932 288.392 124.255C290.148 123.232 290.505 122.828 290.505 121.862C290.505 120.449 290.39 120.455 287.871 121.989ZM283.446 121.766L282.498 122.393V147.382V172.372L283.762 173.079L285.026 173.786V147.442C285.026 132.953 284.884 121.108 284.71 121.12C284.536 121.131 283.967 121.422 283.446 121.766ZM269.59 130.377C248.72 143.18 244.162 146.02 244.154 146.223C244.143 146.525 281.267 168.259 281.468 168.068C281.72 167.829 281.906 123.091 281.655 123.099C281.539 123.102 276.11 126.377 269.59 130.377ZM287.871 125.578C286.118 126.645 285.869 126.968 285.869 128.175V129.553L287.239 128.785C290.421 127 290.505 126.918 290.505 125.589C290.505 124.874 290.363 124.305 290.189 124.324C290.015 124.343 288.972 124.907 287.871 125.578ZM288.082 129.315C286.115 130.54 285.869 130.848 285.869 132.082V133.47L288.187 132.014C290.231 130.729 290.505 130.399 290.505 129.218C290.505 128.481 290.458 127.892 290.4 127.908C290.342 127.924 289.299 128.557 288.082 129.315ZM287.871 133.155C286.136 134.211 285.869 134.553 285.869 135.713C285.869 136.449 285.951 137.051 286.052 137.051C286.152 137.051 287.196 136.486 288.37 135.795C290.247 134.691 290.505 134.377 290.505 133.203C290.505 132.468 290.363 131.882 290.189 131.901C290.015 131.92 288.972 132.485 287.871 133.155ZM288.082 136.934L285.869 138.361V142.492C285.869 144.763 285.961 146.622 286.074 146.622C286.186 146.622 287.229 146.068 288.392 145.391L290.505 144.161V139.808C290.505 137.414 290.458 135.467 290.4 135.481C290.342 135.494 289.299 136.148 288.082 136.934ZM308.639 137.566L308.651 139.244L321.336 146.822C348.747 163.195 345.612 161.486 346.774 160.687C347.337 160.299 347.803 159.873 347.811 159.739C347.83 159.392 334.48 151.23 314.423 139.327L308.628 135.888L308.639 137.566ZM308.628 144.748V149.302L325.758 159.597C342.508 169.664 342.911 169.879 343.986 169.309C344.676 168.942 345.073 168.397 345.054 167.843C345.038 167.358 344.99 165.81 344.949 164.405L344.874 161.848L337.393 157.362C326.866 151.05 309.783 140.843 309.155 140.49C308.746 140.26 308.628 141.213 308.628 144.748ZM287.871 146.684C286.104 147.745 285.869 148.05 285.869 149.287V150.689L287.239 149.921C290.421 148.137 290.505 148.055 290.505 146.725C290.505 146.011 290.363 145.438 290.189 145.454C290.015 145.469 288.972 146.022 287.871 146.684ZM242.05 147.404C241.709 147.608 241.519 147.856 241.628 147.954C241.737 148.053 244.482 149.647 247.727 151.497C250.972 153.347 258.274 157.613 263.953 160.977C282.026 171.682 281.655 171.485 281.655 170.371C281.655 169.621 281.079 169.081 279.021 167.899C277.572 167.067 269 162.03 259.972 156.704C250.944 151.378 243.358 147.024 243.114 147.027C242.869 147.03 242.391 147.2 242.05 147.404ZM237.17 150.362C235.382 151.485 221.094 160.303 205.42 169.957L176.922 187.509L176.814 213.028L176.706 238.546L179.269 240.061L181.832 241.576L221.312 216.702C243.026 203.021 267.478 187.635 275.649 182.51C286.225 175.877 290.505 172.981 290.505 172.459C290.505 171.832 290.184 171.93 288.298 173.132C287.084 173.905 285.704 174.538 285.231 174.538C284.372 174.538 282.662 173.636 281.865 172.763C281.634 172.509 277.664 170.09 273.044 167.388C268.424 164.687 263.303 161.66 261.664 160.663C260.026 159.666 254.576 156.48 249.553 153.585L240.422 148.319L237.17 150.362ZM287.877 150.535C286.044 151.52 285.881 151.732 285.875 153.136C285.872 153.977 286.011 154.603 286.185 154.528C286.359 154.453 287.403 153.856 288.503 153.202C290.225 152.179 290.505 151.83 290.505 150.713C290.505 149.998 290.363 149.424 290.189 149.438C290.015 149.451 288.975 149.945 287.877 150.535ZM308.704 151.08C308.806 151.738 312.708 154.277 324.854 161.588C338.999 170.102 341.923 171.646 341.923 170.601C341.923 170.456 335.523 166.495 327.699 161.797C319.876 157.1 312.371 152.571 311.022 151.734C308.772 150.338 308.581 150.283 308.704 151.08ZM288.082 154.481L285.869 155.909V160.637C285.869 163.238 285.995 165.366 286.148 165.366C286.302 165.366 287.345 164.809 288.466 164.128L290.505 162.89V157.946C290.505 155.227 290.458 153.014 290.4 153.028C290.342 153.042 289.299 153.696 288.082 154.481ZM308.62 162.275C308.611 172.175 308.313 175.246 306.964 179.336L306.114 181.916L292.514 190.438C256.22 213.182 199.926 248.623 198.719 249.488C197.114 250.638 197.088 250.753 198.268 251.451C199.054 251.916 199.437 251.869 201.169 251.102L203.165 250.217L205.802 251.912L208.439 253.606L209.749 252.897C210.471 252.506 220.448 246.317 231.922 239.142C243.397 231.968 259.043 222.236 266.693 217.516C280.867 208.77 337.096 173.705 338.954 172.454C339.516 172.075 339.892 171.688 339.791 171.593C339.418 171.249 309.037 153.003 308.836 153.003C308.722 153.003 308.624 157.175 308.62 162.275ZM351.124 158.882C349.889 159.656 348.251 160.73 347.485 161.269L346.093 162.249L350.224 164.655C352.497 165.979 355.153 167.58 356.125 168.213L357.894 169.363L361.549 167.132C363.594 165.884 365.042 164.751 364.837 164.56C364.636 164.372 361.974 162.701 358.921 160.846L353.371 157.473L351.124 158.882ZM157.122 158.834C156.183 159.723 156.476 160.671 157.887 161.311C159.347 161.973 160.939 161.64 161.56 160.542C162.595 158.713 158.796 157.251 157.122 158.834ZM157.818 159.5C157.157 160.254 157.611 160.58 159.322 160.58C160.461 160.58 160.729 160.436 160.618 159.882C160.442 159.008 158.484 158.741 157.818 159.5ZM345.802 165.138C345.909 166.36 346.107 167.463 346.241 167.591C346.376 167.718 346.974 167.52 347.57 167.15C348.631 166.493 348.725 166.518 352.056 168.366C353.927 169.404 355.741 170.521 356.087 170.848C356.587 171.322 356.701 172.507 356.648 176.665C356.611 179.537 356.744 181.938 356.944 182.002C357.144 182.065 357.212 179.321 357.096 175.902L356.885 169.688L351.246 166.303L345.607 162.918L345.802 165.138ZM287.871 165.458C286.146 166.508 285.869 166.859 285.869 167.997V169.316L288.179 168.039C290.222 166.909 290.49 166.612 290.497 165.465C290.502 164.752 290.363 164.185 290.189 164.204C290.015 164.223 288.972 164.787 287.871 165.458ZM361.627 168.058L357.939 170.281V176.198C357.939 179.453 358.027 182.115 358.135 182.115C358.243 182.115 359.95 181.127 361.928 179.92L365.525 177.724V172.375C365.525 169.433 365.64 166.742 365.781 166.395C366.172 165.431 365.619 165.653 361.627 168.058ZM288.082 169.065C286.031 170.25 285.869 170.456 285.869 171.876C285.869 172.719 286.011 173.346 286.185 173.27C286.359 173.194 287.396 172.596 288.49 171.941C290.276 170.871 290.48 170.597 290.492 169.254C290.499 168.432 290.458 167.764 290.4 167.772C290.342 167.779 289.299 168.361 288.082 169.065ZM342.956 170.991C335.713 175.64 293.444 201.985 268.8 217.21C257.21 224.37 243.175 233.1 237.612 236.61C232.049 240.119 223.609 245.38 218.857 248.3C214.105 251.219 210.066 253.737 209.88 253.893C209.579 254.148 214.51 257.489 215.187 257.489C215.433 257.489 223.118 252.795 234.451 245.723C236.653 244.348 244.05 239.77 250.888 235.549C263.699 227.64 285.696 213.961 326.233 188.696C339.046 180.711 350.662 173.515 352.048 172.706C353.433 171.896 354.565 171.125 354.563 170.992C354.555 170.567 349.481 167.759 348.722 167.759C348.321 167.759 345.727 169.213 342.956 170.991ZM161.855 171.587C159.131 173.25 156.903 174.749 156.903 174.917C156.903 175.235 167.577 181.884 168.802 182.329C169.264 182.497 171.298 181.47 174.801 179.301L180.101 176.019L178.722 175.151C175.195 172.93 167.548 168.557 167.198 168.56C166.983 168.562 164.578 169.924 161.855 171.587ZM342.331 179.74C335.269 184.137 323.936 191.18 317.147 195.393C310.359 199.605 295.739 208.705 284.659 215.615C273.58 222.524 259.979 230.981 254.435 234.408C222.76 253.989 216.926 257.612 216.587 257.908C216.376 258.094 216.512 258.517 216.903 258.887C217.433 259.388 217.593 260.321 217.593 262.901C217.593 264.749 217.694 266.262 217.817 266.262C217.941 266.262 220.075 264.971 222.559 263.394C227.495 260.259 244.393 249.777 270.275 233.793C279.431 228.138 292.423 220.051 299.145 215.821C309.694 209.183 329.484 196.936 350.037 184.327L355.832 180.772V176.259C355.832 173.777 355.683 171.747 355.501 171.747C355.32 171.747 349.393 175.344 342.331 179.74ZM301.358 176.617L295.563 180.28V183.823C295.563 185.772 295.705 187.307 295.879 187.233C296.053 187.16 298.315 185.754 300.906 184.109C305.57 181.148 305.624 181.096 306.274 178.917C307.161 175.946 307.735 172.942 307.415 172.948C307.271 172.951 304.545 174.602 301.358 176.617ZM275.544 183.54C257.845 194.66 200.855 230.553 189.902 237.478L182.653 242.061L186.027 244.027C187.915 245.126 189.679 245.891 190.031 245.763C190.831 245.473 296.592 178.712 297.765 177.758C298.007 177.561 291.835 173.738 291.282 173.742C291.202 173.742 284.12 178.151 275.544 183.54ZM155.495 176.816C155.355 177.427 154.964 178.766 154.627 179.79L154.013 181.652L160.997 185.881C164.838 188.208 168.041 190.054 168.114 189.984C168.188 189.915 168.372 188.43 168.524 186.684L168.8 183.511L162.563 179.723C159.132 177.639 156.196 175.882 156.038 175.819C155.88 175.755 155.635 176.204 155.495 176.816ZM174.393 180.622L169.757 183.511L169.296 187.3C169.043 189.383 168.878 191.142 168.931 191.208C168.983 191.273 171.32 189.927 174.125 188.217L179.224 185.106L179.232 181.417C179.237 179.389 179.192 177.73 179.135 177.731C179.077 177.732 176.943 179.033 174.393 180.622ZM252.758 207.302C229.824 221.812 206.454 236.592 200.825 240.146L190.589 246.608L193.386 248.332C195.3 249.513 196.348 249.939 196.708 249.685C198.097 248.704 269.363 203.901 285.342 193.963L294.72 188.131V184.525C294.72 182.542 294.661 180.919 294.588 180.919C294.515 180.919 275.692 192.791 252.758 207.302ZM154.374 203.611C154.374 215.039 154.373 224.523 154.372 224.687C154.37 224.953 166.841 232.763 167.267 232.763C167.362 232.763 167.435 223.297 167.431 211.726L167.422 190.69L162.105 187.499C159.18 185.744 156.244 183.977 155.58 183.572L154.374 182.835V203.611ZM171.995 190.466L168.331 192.684L168.307 213.084L168.282 233.484L171.97 235.694L175.658 237.903L175.769 225.334C175.83 218.421 175.83 207.249 175.769 200.507L175.658 188.248L171.995 190.466ZM113.176 193.385C112.191 193.853 111.386 194.336 111.387 194.457C111.387 194.578 112.241 195.01 113.284 195.416C116.19 196.546 119.161 199.317 120.749 202.378C121.51 203.844 122.778 205.582 123.567 206.241C125.124 207.542 127.636 209.234 128.01 209.234C128.465 209.234 128.234 206.177 127.607 203.898C126.399 199.509 122.793 195.125 118.943 193.364C116.583 192.284 115.483 192.288 113.176 193.385ZM108.501 195.951L107.092 196.608L109.182 197.345C111.724 198.243 115.406 201.73 117.047 204.795C117.665 205.95 118.304 206.831 118.466 206.755C121.519 205.315 121.45 205.461 120.258 202.977C119.033 200.422 116.132 197.693 113.282 196.412C110.339 195.091 110.345 195.091 108.501 195.951ZM103.68 198.377C102.185 199.254 100.847 201.856 100.854 203.876C100.871 209.332 105.316 216.701 109.842 218.773C116.232 221.701 120.314 216.316 117.722 208.378C115.258 200.834 108.138 195.763 103.68 198.377ZM106.523 205.915C105.036 207.322 106.534 211.202 109.006 212.349C112.464 213.954 113.839 209.801 110.899 206.633C109.454 205.076 107.712 204.79 106.523 205.915ZM107.255 206.522C106.036 207.675 107.215 210.582 109.337 211.657C111.556 212.78 112.219 209.164 110.153 207.209C108.824 205.952 108.051 205.769 107.255 206.522ZM120.177 206.807C119.63 207.227 119.277 207.643 119.393 207.733C119.509 207.822 122.922 209.889 126.979 212.324C134.639 216.925 145.902 223.747 159.642 232.112C164.046 234.792 173.055 240.196 179.661 244.119C186.268 248.043 192.621 251.905 193.78 252.702C195.816 254.102 195.927 254.129 197.046 253.526C197.683 253.183 198.204 252.788 198.205 252.649C198.206 252.33 190.246 247.408 180.083 241.444C175.795 238.927 167.165 233.765 160.906 229.972C154.648 226.179 144.596 220.13 138.569 216.529C132.542 212.929 126.238 209.096 124.561 208.013C122.884 206.929 121.435 206.043 121.341 206.043C121.248 206.043 120.724 206.387 120.177 206.807ZM119.469 210.829C119.828 212.695 119.518 215.623 118.79 217.258C118.563 217.766 119.801 218.663 124.531 221.423C127.848 223.358 136.915 228.823 144.68 233.568C159.852 242.837 173.52 250.975 185.983 258.162L193.78 262.657L193.991 259.375C194.107 257.569 194.422 255.739 194.692 255.308C195.278 254.368 194.949 254.145 179.033 244.72C169.438 239.037 162.18 234.666 145.945 224.79C136.469 219.026 119.415 208.835 119.245 208.835C119.158 208.835 119.259 209.732 119.469 210.829ZM154.374 247.665V254.942L160.563 258.708C163.967 260.779 166.907 262.533 167.096 262.606C167.284 262.68 167.439 259.492 167.439 255.523V248.306L163.623 246.018C161.524 244.76 158.584 242.978 157.09 242.059L154.374 240.389V247.665ZM168.282 254.099V259.445L171.97 257.141C173.998 255.873 176.005 254.655 176.429 254.434C177.088 254.09 176.551 253.647 172.741 251.392L168.282 248.753V254.099ZM199.154 253.218C197.241 254.349 195.677 255.419 195.677 255.596C195.677 255.978 207.92 263.599 208.531 263.597C208.907 263.595 214.76 260.197 215.611 259.486C215.889 259.254 203.3 251.051 202.794 251.135C202.704 251.15 201.067 252.087 199.154 253.218ZM173.023 257.422L168.282 260.386V263.965C168.282 266.816 168.398 267.502 168.854 267.336C169.17 267.222 171.635 265.772 174.333 264.114L179.24 261.1V258.112C179.24 253.793 178.89 253.755 173.023 257.422ZM154.652 257.796C154.795 258.833 155.099 259.907 155.328 260.182C156.049 261.048 166.508 267.459 167.201 267.459C167.332 267.459 167.439 266.653 167.439 265.669C167.439 264.035 167.302 263.797 165.859 262.933C164.99 262.413 162.054 260.62 159.335 258.949L154.392 255.91L154.652 257.796ZM180.504 258.087V260.291L182.19 259.236C183.117 258.655 183.876 258.138 183.876 258.087C183.876 258.035 183.117 257.518 182.19 256.938L180.504 255.882V258.087ZM195.255 262.239V267.753L201.683 271.606L208.11 275.458L208.228 270.194C208.293 267.299 208.198 264.792 208.017 264.623C207.836 264.454 204.891 262.608 201.472 260.521L195.255 256.725V262.239ZM212.872 262.186L209.206 264.455L209.079 269.945C209.01 272.965 209.026 275.436 209.116 275.435C209.206 275.435 210.96 274.412 213.014 273.162L216.75 270.89V265.386C216.75 262.358 216.703 259.89 216.645 259.9C216.586 259.91 214.889 260.939 212.872 262.186Z" fill="currentColor"/>
</svg>
