<?xml version="1.0" standalone="no"?>
<!DOCTYPE svg PUBLIC "-//W3C//DTD SVG 20010904//EN"
 "http://www.w3.org/TR/2001/REC-SVG-20010904/DTD/svg10.dtd">
<svg version="1.0" xmlns="http://www.w3.org/2000/svg"
 width="472.000000pt" height="57.000000pt" viewBox="0 0 472.000000 57.000000"
 preserveAspectRatio="xMidYMid meet">

<g transform="translate(0.000000,57.000000) scale(0.100000,-0.100000)"
   fill="currentColor" stroke="none">
<path d="M1738 550 c-63 -11 -104 -37 -125 -80 -14 -28 -19 -66 -21 -185 -3
-141 -2 -153 20 -195 40 -76 67 -84 303 -88 382 -8 415 14 415 285 0 114 -3
134 -22 173 -29 56 -59 77 -127 90 -62 12 -373 11 -443 0z m381 -141 c39 -14
43 -29 39 -149 -4 -123 -1 -121 -204 -118 -195 4 -194 3 -194 132 0 99 12 131
53 139 48 9 276 6 306 -4z" fill="currentColor"/>
<path d="M4195 554 c-62 -15 -107 -39 -127 -67 -22 -30 -23 -42 -23 -198 0
-263 15 -277 298 -286 208 -7 319 12 351 62 8 12 18 50 22 84 l7 61 -59 1
c-33 1 -71 3 -86 4 -23 3 -27 -1 -32 -30 -4 -18 -14 -36 -22 -39 -9 -3 -76 -6
-150 -6 -173 0 -174 1 -174 134 0 138 2 140 168 144 140 4 168 -3 174 -40 3
-21 9 -23 86 -26 l82 -3 0 48 c0 66 -26 114 -75 138 -35 17 -63 20 -230 22
-104 1 -199 0 -210 -3z" fill="currentColor"/>
<path d="M10 280 l0 -270 80 0 79 0 3 103 3 102 45 3 c45 2 46 1 150 -98 58
-55 114 -102 125 -105 11 -3 69 -5 128 -3 l109 3 -99 81 c-54 45 -116 97 -138
117 -22 19 -53 45 -68 58 l-29 24 84 70 c45 38 99 84 118 101 19 17 49 43 65
57 l30 26 -110 1 -110 0 -40 -38 c-178 -166 -173 -162 -220 -162 l-45 0 0 100
0 100 -80 0 -80 0 0 -270z" fill="currentColor"/>
<path d="M830 281 l0 -271 80 0 80 0 0 65 0 65 148 0 c248 0 297 22 322 142
15 71 2 167 -28 208 -38 52 -57 55 -339 58 l-263 3 0 -270z m453 120 c25 -20
23 -97 -2 -111 -11 -5 -81 -10 -155 -10 l-136 0 0 63 c0 35 3 67 8 71 13 14
267 2 285 -13z" fill="currentColor"/>
<path d="M2470 280 l0 -270 80 0 80 0 0 200 0 200 180 0 180 0 0 -200 0 -200
80 0 80 0 0 270 0 270 -340 0 -340 0 0 -270z" fill="currentColor"/>
<path d="M3279 503 c26 -45 61 -100 168 -265 66 -102 66 -98 -16 -98 l-71 0 0
-67 0 -66 118 6 c77 4 128 11 149 22 32 16 79 68 103 115 7 14 38 65 70 115
107 169 170 272 170 279 0 3 -42 6 -93 6 l-94 0 -28 -52 c-115 -215 -136 -251
-145 -241 -9 8 -89 137 -147 236 l-34 57 -89 0 -89 0 28 -47z" fill="currentColor"/>
</g>
</svg>
