<svg xmlns="http://www.w3.org/2000/svg" width="26" height="26" viewBox="0 0 26 26" fill="none">
    <path d="M13.0003 12.4583C12.282 12.4583 11.5932 12.173 11.0852 11.6651C10.5773 11.1572 10.292 10.4683 10.292 9.74999C10.292 9.03169 10.5773 8.34282 11.0852 7.83491C11.5932 7.327 12.282 7.04166 13.0003 7.04166C13.7186 7.04166 14.4075 7.327 14.9154 7.83491C15.4233 8.34282 15.7087 9.03169 15.7087 9.74999C15.7087 10.1057 15.6386 10.4578 15.5025 10.7864C15.3664 11.115 15.1669 11.4136 14.9154 11.6651C14.6639 11.9166 14.3654 12.1161 14.0368 12.2522C13.7082 12.3883 13.356 12.4583 13.0003 12.4583ZM13.0003 2.16666C10.9891 2.16666 9.06025 2.96561 7.6381 4.38776C6.21595 5.80991 5.41699 7.73876 5.41699 9.74999C5.41699 15.4375 13.0003 23.8333 13.0003 23.8333C13.0003 23.8333 20.5837 15.4375 20.5837 9.74999C20.5837 7.73876 19.7847 5.80991 18.3626 4.38776C16.9404 2.96561 15.0116 2.16666 13.0003 2.16666Z" fill="currentColor"/>
</svg>
