<svg xmlns="http://www.w3.org/2000/svg" width="26" height="26" viewBox="0 0 26 26" fill="#000000">
    <path d="M23 17.9111V21.84C23.0001 22.1213 22.8936 22.3922 22.7018 22.598C22.51 22.8038 22.2473 22.9292 21.9667 22.9489C21.4815 22.983 21.0852 23 20.7778 23C10.9589 23 3 15.0411 3 5.22222C3 4.91556 3.01704 4.51926 3.05111 4.03333C3.0708 3.75272 3.1962 3.49001 3.402 3.29823C3.60781 3.10645 3.87869 2.99987 4.16 3H8.08889C8.22671 2.99986 8.35966 3.05095 8.46192 3.14336C8.56418 3.23576 8.62844 3.36287 8.64222 3.5C8.66741 3.75482 8.69111 3.95926 8.71333 4.11333C8.93413 5.65436 9.38665 7.15315 10.0556 8.55889C10.1611 8.78111 10.0922 9.04667 9.89222 9.18889L7.49444 10.9022C8.96079 14.3181 11.683 17.0403 15.0989 18.5067L16.81 16.1133C16.8797 16.0152 16.9817 15.9448 17.0982 15.9145C17.2146 15.8842 17.338 15.896 17.4467 15.9478C18.8522 16.6154 20.3506 17.0668 21.8911 17.2867C22.0452 17.3089 22.2489 17.3326 22.5022 17.3578C22.6392 17.3718 22.766 17.4362 22.8582 17.5384C22.9503 17.6407 23.0002 17.7735 23 17.9111Z" fill="currentColor"/>
</svg>
