<svg xmlns="http://www.w3.org/2000/svg" width="35" height="35" viewBox="0 0 35 35" fill="none">
    <path fill-rule="evenodd" clip-rule="evenodd" d="M11.6667 5.83334H23.3333V2.91667H26.25V5.83334H27.7083C28.4819 5.83334 29.2237 6.14063 29.7707 6.68761C30.3177 7.23459 30.625 7.97646 30.625 8.75V29.1667C30.625 29.9402 30.3177 30.6821 29.7707 31.2291C29.2237 31.776 28.4819 32.0833 27.7083 32.0833H7.29167C6.51812 32.0833 5.77625 31.776 5.22927 31.2291C4.68229 30.6821 4.375 29.9402 4.375 29.1667V8.75C4.375 7.97646 4.68229 7.23459 5.22927 6.68761C5.77625 6.14063 6.51812 5.83334 7.29167 5.83334H8.75V2.91667H11.6667V5.83334ZM7.29167 11.6667V29.1667H27.7083V11.6667H7.29167ZM10.2083 16.0417H13.125V18.9583H10.2083V16.0417ZM16.0417 16.0417H18.9583V18.9583H16.0417V16.0417ZM21.875 16.0417H24.7917V18.9583H21.875V16.0417ZM21.875 21.875H24.7917V24.7917H21.875V21.875ZM16.0417 21.875H18.9583V24.7917H16.0417V21.875ZM10.2083 21.875H13.125V24.7917H10.2083V21.875Z" fill="currentColor"/>
</svg>
