<svg xmlns="http://www.w3.org/2000/svg" width="367" height="276" viewBox="0 0 367 276" fill="none">
    <path fill-rule="evenodd" clip-rule="evenodd" d="M127.652 6.08026C120.021 10.6978 117.607 12.4218 117.326 13.4564C116.77 15.5011 116.788 19.3476 117.359 20.4156C117.789 21.2218 117.16 21.7714 113.18 24.0629C110.602 25.5472 102.306 30.411 94.7435 34.8725C87.181 39.3334 70.3172 49.2586 57.2682 56.9284C44.2193 64.5982 32.059 71.7815 30.2456 72.8911L26.9483 74.9083L24.6637 73.6092C23.4068 72.8944 21.7293 72.3096 20.9356 72.3096C19.236 72.3096 2.13595 82.3854 1.16861 83.9571C0.707579 84.7066 0.601891 87.8495 0.791694 95.1781L1.05482 105.358L4.08843 107.327L7.1215 109.295L6.9689 114.756L6.81577 120.216L4.69289 121.175C0.681695 122.986 0.689243 122.961 0.853163 134.293C0.959388 141.621 1.19826 144.701 1.72453 145.519C2.71452 147.06 17.9877 156 19.6296 156C20.9976 156 25.1786 153.799 26.2371 152.522C26.7267 151.932 29.275 153.232 39.6284 159.356C53.6081 167.625 101.075 195.356 130.062 212.189C164.805 232.364 167.856 234.146 182.365 242.743C190.373 247.487 198.171 252.068 199.696 252.922C202.247 254.352 202.494 254.666 202.796 256.877C202.977 258.198 203.125 260.175 203.125 261.269C203.125 263.868 203.704 264.355 213.95 270.384C220.703 274.358 222.764 275.325 224.465 275.321C226.156 275.317 228.228 274.34 234.794 270.455C243.541 265.278 244.644 264.163 244.644 260.505C244.644 259.45 244.865 258.588 245.135 258.588C245.559 258.588 267.447 245.764 273.092 242.207C274.202 241.508 278.264 239.156 282.12 236.981C285.975 234.807 294.71 229.577 301.531 225.359C308.352 221.142 319.944 214.003 327.292 209.495L340.651 201.3L342.204 202.407C344.673 204.168 346.409 203.813 351.707 200.468C354.36 198.793 358.504 196.249 360.915 194.816C363.327 193.383 365.476 191.777 365.692 191.248C365.908 190.719 366.213 185.762 366.369 180.233L366.654 170.18L363.899 168C362.383 166.8 360.915 165.736 360.635 165.634C360.356 165.532 360.056 163.331 359.969 160.743L359.811 156.037L363.159 153.87L366.506 151.704V141.138C366.506 130.654 366.496 130.562 365.204 129.382C362.744 127.137 346.773 118.744 344.959 118.744C343.941 118.744 342.302 119.394 340.923 120.344L338.603 121.943L313.327 107.472C299.425 99.5133 278.224 87.3037 266.213 80.3396C254.202 73.3754 225.879 57.1179 203.273 44.2118L162.171 20.7455L162.151 17.5059C162.14 15.7241 161.996 13.7674 161.833 13.1572C161.652 12.4823 159.241 10.6195 155.68 8.40362C144.927 1.71055 141.546 -0.0453281 139.511 0.00596596C138.095 0.0416019 135.074 1.58906 127.652 6.08026ZM128.863 7.14232C123.755 10.1698 119.577 12.7679 119.578 12.9164C119.58 13.0649 122.788 14.9477 126.708 17.1004C130.629 19.2531 135.171 21.7703 136.802 22.6942L139.768 24.3739L148.665 19.1181C153.558 16.2273 157.974 13.5741 158.478 13.2226C159.265 12.6734 158.087 11.8031 150.166 7.08024C144.583 3.75152 140.387 1.5896 139.544 1.60796C138.777 1.6247 133.971 4.11543 128.863 7.14232ZM150.822 19.6997C144.136 23.6844 140.881 25.3253 139.657 25.3296C138.679 25.3328 136.687 24.6007 135.073 23.6455C130.329 20.8368 119.032 14.5362 118.741 14.5362C118.591 14.5362 118.469 15.9903 118.469 17.7678V20.9998L120.221 19.9297C121.185 19.3411 122.317 18.859 122.736 18.8579C123.156 18.8568 127.024 20.9691 131.334 23.5521C135.644 26.1352 139.648 28.2123 140.232 28.1686C140.818 28.1243 142.286 27.377 143.497 26.5083C144.708 25.6395 148.221 23.4128 151.305 21.5597L156.911 18.1911L158.786 19.0868C159.817 19.5793 160.693 19.9108 160.731 19.8238C160.77 19.7369 160.679 18.4076 160.53 16.8704L160.258 14.0751L150.822 19.6997ZM151.788 23.0678C148.908 24.76 146.551 26.2664 146.549 26.4149C146.548 26.5634 149.631 28.3635 153.402 30.4153C168.883 38.8394 193.149 52.6094 220.11 68.2719C235.828 77.4028 265.421 94.4573 285.871 106.171C306.322 117.885 323.703 127.932 324.496 128.497L325.938 129.525L331.408 126.202C334.418 124.374 336.691 122.702 336.46 122.487C336.23 122.271 331.047 119.297 324.943 115.876C314.572 110.065 277.56 88.7539 254.889 75.5411C249.403 72.3431 239.576 66.704 233.051 63.0092C226.527 59.3144 212.089 51.0647 200.968 44.6772C176.83 30.8127 158.661 20.5403 157.712 20.2218C157.333 20.0944 154.667 21.3751 151.788 23.0678ZM119.547 22.0527C116.555 23.9047 100.508 33.3574 65.3564 53.976C50.5281 62.6733 36.1381 71.1163 33.3784 72.7378L28.3605 75.6869L29.907 76.628C30.7573 77.1458 33.3143 78.5923 35.5887 79.8428L39.725 82.1154L41.217 81.0647C42.0382 80.4869 50.8381 75.2139 60.7731 69.347C90.0334 52.0673 108.244 41.302 121.093 33.6873L133.153 26.5396L128.079 23.5078C125.289 21.84 122.773 20.4923 122.489 20.5134C122.206 20.5339 120.882 21.2266 119.547 22.0527ZM143.328 28.3511C141.101 29.9353 138.74 30.0109 136.385 28.5725L134.619 27.4947L115.471 38.8523C104.94 45.0989 88.9922 54.5208 80.0311 59.79C42.9484 81.5949 40.9031 82.8427 41.3997 83.3513C41.6753 83.6337 41.9007 84.9209 41.9007 86.2119C41.9007 88.3144 41.7297 88.6319 40.2674 89.2474L38.6347 89.9348L49.2992 96.1856C55.1653 99.6234 63.1187 104.192 66.974 106.337C70.8294 108.483 78.4727 112.849 83.9592 116.04C89.4457 119.231 103.155 127.133 114.425 133.6C145.05 151.172 161.33 160.612 177.782 170.335C193.585 179.675 207.705 187.702 213.265 190.506L216.665 192.221L219.643 190.515C223.349 188.391 224.886 188.558 229.702 191.604L233.203 193.818L243.372 187.808C248.965 184.502 263.369 175.905 275.379 168.701C287.39 161.498 303.977 151.563 312.238 146.623C320.5 141.684 326.887 137.642 326.432 137.642C324.295 137.642 323.088 133.706 324.446 131.166C324.887 130.341 324.718 130.027 323.503 129.419C320.492 127.911 261.618 94.1517 229.546 75.5422C192.164 53.8507 184.316 49.3606 165.919 39.138C155.391 33.2877 146.508 28.1535 146.179 27.728C145.448 26.7842 145.566 26.7588 143.328 28.3511ZM188.189 73.849C183.089 77.0114 177.811 80.2607 176.462 81.0701C174.998 81.948 174.014 82.9286 174.024 83.4998C174.041 84.4512 181.703 89.1508 206.907 103.667C212.397 106.829 221.982 112.449 228.206 116.155C246.211 126.877 247.468 127.513 249.296 126.822C252.103 125.761 273.762 112.678 273.734 112.06C273.706 111.429 265.53 106.486 245.453 94.9594C238.929 91.2134 230.072 86.0672 225.772 83.5225C213.673 76.364 198.652 67.9842 198.027 68.0446C197.717 68.0749 193.29 70.6865 188.189 73.849ZM187.218 76.405C181.584 79.8212 176.65 82.8087 176.256 83.0436C175.754 83.3416 176.519 84.0554 178.797 85.4139L182.055 87.3577L189.894 82.4718L197.733 77.5853V73.8679C197.733 71.8231 197.673 70.1596 197.598 70.1714C197.524 70.1833 192.853 72.9883 187.218 76.405ZM199.351 72.4462C199.351 73.7815 199.211 75.573 199.042 76.4266C198.742 77.9314 198.961 78.1128 206.186 82.3562C210.286 84.7638 236.287 99.8465 236.287 99.8465C232.243 97.5001 198.073 79.3288 197.989 79.3288C197.762 79.3288 184.591 87.5002 184.098 87.9473C183.705 88.3026 190.41 92.3559 205.821 101.081C209.232 103.012 216.754 107.441 222.537 110.923C234.81 118.313 247.686 125.763 248.184 125.763C248.376 125.763 251.116 124.215 254.273 122.322C257.429 120.429 260.696 118.53 261.532 118.103L263.052 117.325L213.909 87.7774C210.108 85.5448 236.287 99.8465 236.287 99.8465C236.287 99.8465 254.036 109.974 259.473 113.353L264.326 116.37L268.007 114.249L271.688 112.129L268.007 110.127C265.982 109.026 262.384 106.907 260.012 105.417C257.639 103.927 251.695 100.451 246.801 97.6921C241.908 94.933 234.386 90.5546 230.086 87.9624C225.785 85.3696 217.414 80.514 211.483 77.1717C205.552 73.8295 200.396 70.8523 200.025 70.5564C199.505 70.1412 199.351 70.5759 199.351 72.4462ZM11.226 79.061C6.66209 81.8444 2.7156 84.3345 2.4557 84.5948C1.95154 85.0996 18.7561 94.987 20.1176 94.987C20.5527 94.987 25.1177 92.4919 30.2618 89.4429L39.615 83.8988L33.8831 80.7207C30.7304 78.9724 26.7844 76.7295 25.1145 75.736C23.4445 74.7426 21.5034 73.9451 20.8008 73.9645C20.0982 73.9839 15.7893 76.2776 11.226 79.061ZM30.9358 90.9315C25.9432 93.9843 21.6301 96.711 21.3508 96.9907C21.0634 97.2785 20.9075 101.185 20.9922 106L21.141 114.501L23.0283 113.228L24.9155 111.955L25.1851 103.927L25.4547 95.8995L32.4197 91.9487C36.2503 89.7755 39.6106 87.9224 39.8867 87.8301C40.1628 87.7378 40.3041 87.1492 40.2011 86.5218C40.0318 85.4927 39.1205 85.9268 30.9358 90.9315ZM2.19526 89.9332C2.38399 91.3106 2.5382 95.1571 2.5382 98.4798V104.522L10.3411 109.204C14.6327 111.778 18.3937 113.885 18.6989 113.885C19.0548 113.885 19.2538 110.977 19.2538 105.786C19.2538 98.4064 19.1578 97.5906 18.1753 96.6068C17.5822 96.0129 16.8753 95.5269 16.6041 95.5269C15.8977 95.5269 3.71962 88.5709 3.33462 87.9478C3.1583 87.6622 2.75226 87.4279 2.43305 87.4279C2.05237 87.4279 1.97041 88.2912 2.19526 89.9332ZM32.2806 93.6982C29.5101 95.3628 27.4476 96.9184 27.6973 97.1548C27.9469 97.3919 35.0662 101.523 43.5183 106.337C51.9705 111.15 60.3417 115.995 62.1211 117.103C63.9005 118.212 70.452 122.047 76.6799 125.625C82.9078 129.202 92.2496 134.612 97.4395 137.646C102.629 140.681 114.155 147.351 123.052 152.469C148.618 167.176 169.699 179.402 187.652 189.933L204.262 199.676L208.412 197.201C210.694 195.839 213.119 194.381 213.8 193.961C215.013 193.213 214.961 193.155 211.374 191.273C204.564 187.699 193.218 181.231 178.861 172.738C171.002 168.089 156.321 159.533 146.238 153.726C108.557 132.022 87.6253 119.991 74.7926 112.661C46.079 96.2602 42.6189 94.2456 40.1472 92.4887C38.7377 91.4871 37.5244 90.6686 37.4511 90.6696C37.3772 90.6707 35.0511 92.0335 32.2806 93.6982ZM26.4372 99.3427C26.6302 100.065 26.7946 102.843 26.8022 105.516L26.8162 110.375L32.3367 113.586C35.3724 115.352 48.6543 123.028 61.8515 130.642C100.525 152.956 156.133 185.307 176.434 197.303C182.069 200.632 190.137 205.354 194.363 207.796C198.589 210.237 202.047 212.581 202.047 213.004C202.047 213.427 201.921 213.773 201.768 213.773C201.39 213.773 185.635 204.669 173.738 197.577C160.177 189.492 126.015 169.555 103.91 156.826C93.6785 150.934 78.6345 142.226 70.4789 137.475C62.3233 132.723 50.1911 125.681 43.5183 121.826C36.8456 117.97 30.3718 114.12 29.1321 113.27C26.6054 111.538 26.2641 111.435 26.2625 112.4C26.2614 113.116 21.993 116.045 20.9496 116.045C20.5188 116.045 20.3322 118.084 20.3322 122.794V129.543H22.261C25.0508 129.543 27.342 131.942 27.342 134.865C27.342 136.609 27.5684 137.101 28.5061 137.4C29.1467 137.603 31.8643 139.102 34.5453 140.729C37.2262 142.357 44.2851 146.496 50.231 149.927C66.9261 159.56 159.913 213.848 178.052 224.552C205.044 240.48 205.002 240.459 208.62 240.481L211.751 240.5L211.752 235.01C211.752 231.99 211.894 229.151 212.067 228.699C212.295 228.104 211.175 227.177 207.994 225.326C205.581 223.921 203.358 222.308 203.054 221.741C202.715 221.106 202.571 216.776 202.679 210.491C202.776 204.871 202.701 200.274 202.513 200.274C202.325 200.275 198.685 198.243 194.425 195.758C190.165 193.275 175.639 184.803 162.145 176.934C148.651 169.064 130.817 158.737 122.513 153.985C108.676 146.066 95.9594 138.7 72.9054 125.252C68.1603 122.483 56.5133 115.73 47.0232 110.243C37.5331 104.757 28.9396 99.7644 27.927 99.1488L26.0861 98.0285L26.4372 99.3427ZM8.58924 117.713L8.73914 125.421L13.8244 128.554C16.6219 130.277 18.9599 131.63 19.0214 131.56C19.0823 131.49 19.0057 128.012 18.8515 123.831L18.5706 116.229L13.9517 113.302C11.4109 111.692 9.13169 110.292 8.88581 110.19C8.64047 110.089 8.50674 113.473 8.58924 117.713ZM342.511 121.231C341.918 121.69 337.943 124.164 333.676 126.729C328.232 130.003 326.142 131.525 326.667 131.834C331.495 134.682 344.66 141.962 344.98 141.962C345.212 141.962 347.299 140.775 349.618 139.325C351.937 137.874 356.227 135.299 359.15 133.603L364.465 130.519L362.729 129.462C357.024 125.988 345.975 120.367 344.88 120.381C344.171 120.391 343.105 120.773 342.511 121.231ZM4.55216 123.199C3.43545 123.84 2.59697 124.59 2.6881 124.864C2.88545 125.457 13.2658 132.023 16.8004 133.791L19.2743 135.028L21.6522 133.522C22.9603 132.694 23.912 131.824 23.767 131.589C23.258 130.765 21.4424 131.175 20.8714 132.243C20.0027 133.868 18.7809 133.583 13.8228 130.6C8.08777 127.148 6.94787 126.058 6.74567 123.831L6.58229 122.032L4.55216 123.199ZM2.42874 135.961C2.56462 143.248 2.72692 144.657 3.50716 145.32C4.0124 145.749 7.09454 147.64 10.3568 149.521C13.619 151.401 16.8338 153.292 17.5013 153.723L18.7146 154.504L18.7129 145.668L18.7108 136.832L13.9948 134.159C11.4007 132.689 7.79606 130.562 5.98484 129.434C4.17363 128.306 2.59643 127.383 2.47996 127.383C2.36349 127.382 2.34085 131.242 2.42874 135.961ZM363.541 132.975C362.948 133.39 359.187 135.607 355.183 137.902C351.179 140.197 347.479 142.451 346.96 142.911C346.131 143.647 346.016 144.864 346.016 152.902C346.016 163.498 345.341 162.913 352.479 158.491C355.004 156.926 358.482 154.814 360.208 153.798C365.138 150.894 364.936 151.453 364.767 141.218C364.621 132.343 364.605 132.231 363.541 132.975ZM22.6238 134.749L20.3322 136.132L20.2961 142.422C20.2761 145.88 20.2033 149.986 20.1343 151.545C20.0653 153.105 20.2082 154.38 20.4514 154.38C20.6951 154.38 21.8237 153.765 22.9592 153.012L25.0233 151.644L25.3738 145.909C25.8386 138.302 25.8171 133.318 25.3199 133.344C25.0978 133.355 23.8845 133.987 22.6238 134.749ZM325.623 134.514C325.747 135.368 326.484 135.961 328.222 136.607C332.682 138.263 340.33 142.947 340.705 144.251C341.25 146.146 341.223 157.04 340.671 158.073C340.274 158.815 340.59 159.221 342.288 160.152L344.399 161.31V152.502V143.694L335.248 138.508C330.216 135.656 325.952 133.323 325.774 133.323C325.597 133.323 325.529 133.859 325.623 134.514ZM26.8027 144.391C26.8027 147.806 27.0227 150.601 27.2918 150.601C27.5609 150.601 30.2904 152.095 33.3579 153.92C43.0449 159.687 138.115 215.198 148.054 220.892C153.283 223.888 165.448 231.006 175.086 236.71C199.558 251.193 202.046 252.649 202.333 252.649C202.472 252.649 202.586 250.621 202.586 248.143C202.586 244.343 202.752 243.486 203.65 242.673C204.69 241.731 204.523 241.599 196.506 237.034C191.991 234.463 178.955 226.871 167.537 220.162C138.53 203.118 72.2314 164.417 49.9889 151.544C39.7573 145.622 30.4812 140.193 29.3753 139.48C28.2699 138.766 27.2384 138.182 27.0837 138.182C26.9295 138.182 26.8027 140.976 26.8027 144.391ZM327.926 138.68C327.095 139.488 307.968 151.209 299.852 155.884C295.734 158.257 279.747 167.756 264.326 176.994C248.904 186.232 235.928 193.997 235.49 194.249C234.873 194.604 235.238 195.047 237.108 196.214C238.435 197.043 240.579 198.426 241.872 199.289L244.221 200.857L251.308 196.711C278.585 180.756 313.552 159.827 330.555 149.279L339.09 143.985L335.195 141.869C333.054 140.705 330.797 139.4 330.181 138.968C328.868 138.046 328.611 138.014 327.926 138.68ZM330.109 151.506C325.068 154.655 317.182 159.458 312.585 162.178C307.988 164.899 293.187 173.7 279.693 181.737C266.199 189.774 252.793 197.732 249.902 199.423L244.644 202.498V208.405C244.644 211.655 244.836 214.313 245.07 214.313C245.304 214.313 253.615 209.43 263.538 203.46C273.462 197.491 286.069 189.923 291.556 186.641C317.357 171.212 332.053 162.404 335.593 160.246L339.46 157.89L339.637 151.814C339.736 148.473 339.694 145.748 339.546 145.759C339.397 145.77 335.151 148.356 330.109 151.506ZM353.97 159.39L349.791 162.046V169V175.954L353.877 173.47C356.124 172.104 358.074 170.699 358.208 170.347C358.343 169.996 358.385 166.79 358.301 163.222L358.149 156.735L353.97 159.39ZM332.536 163.795C329.125 165.955 316.751 173.433 305.036 180.414C293.322 187.395 274.942 198.404 264.191 204.878L244.644 216.649V218.756C244.644 221.777 243.962 222.705 239.76 225.403L236.017 227.805V234.867V241.928L237.438 240.81C238.219 240.194 239.134 239.69 239.47 239.69C240.694 239.69 244.105 242.452 244.105 243.443C244.105 244.229 253.242 238.98 284.681 220.131C306.998 206.751 328.654 193.707 332.806 191.142L340.355 186.48L340.624 182.989L340.894 179.497L344.516 177.332L348.138 175.168L348.155 169.187L348.173 163.206L346.626 163.434C345.135 163.653 341.216 161.716 340.368 160.342C339.773 159.377 338.913 159.756 332.536 163.795ZM359.932 169.605C359.768 171.848 359.708 171.909 354.913 174.71C350.239 177.441 348.465 178.08 348.083 177.169C347.984 176.933 346.751 177.502 345.343 178.434L342.782 180.128L344.605 181.11L346.427 182.093L355.254 176.529C360.108 173.468 364.197 170.861 364.341 170.734C364.609 170.499 362.646 168.805 361.011 167.861C360.223 167.406 360.075 167.644 359.932 169.605ZM355.614 178.099L346.609 183.807L346.582 192.817L346.555 201.827L352.352 198.187C355.54 196.186 359.544 193.754 361.249 192.783C363.129 191.712 364.463 190.554 364.639 189.842C364.798 189.195 364.859 185.004 364.773 180.528L364.619 172.39L355.614 178.099ZM342.132 190.621C341.986 199.193 342.059 200.086 342.976 200.95C343.527 201.469 344.195 201.895 344.458 201.895C344.722 201.895 344.938 197.806 344.938 192.81C344.938 183.863 344.918 183.706 343.615 182.481L342.292 181.236L342.132 190.621ZM339.249 188.892C338.592 189.529 313.693 204.598 290.477 218.409C280.542 224.32 266.134 232.939 258.458 237.563L244.502 245.971L244.606 251.593C244.664 254.685 244.757 257.247 244.812 257.286C244.868 257.325 251.587 253.357 259.742 248.468C267.898 243.578 277.725 237.747 281.58 235.509C287.698 231.957 334.136 203.653 338.865 200.595L340.611 199.465L340.618 193.931C340.624 188.64 340.392 187.786 339.249 188.892ZM213.777 195.826C208.812 198.718 204.747 201.21 204.745 201.362C204.744 201.514 209.029 204.173 214.268 207.27L223.794 212.902L227.074 211.088C234.097 207.205 242.544 201.737 242.122 201.346C240.529 199.87 224.798 190.557 223.906 190.561C223.301 190.564 218.743 192.933 213.777 195.826ZM204.204 212.351V221.187L213.327 226.659C218.345 229.669 222.592 232.131 222.763 232.131C222.935 232.131 223.076 228.256 223.076 223.52V214.908L221.323 213.595C220.359 212.873 216.538 210.53 212.831 208.389C209.124 206.248 205.86 204.276 205.578 204.006C205.297 203.735 204.872 203.515 204.635 203.515C204.398 203.515 204.204 207.491 204.204 212.351ZM233.726 209.164L224.696 214.583L224.695 223.659C224.694 230.764 224.84 232.652 225.368 232.354C225.739 232.144 229.741 229.686 234.262 226.892C239.93 223.39 242.573 221.445 242.774 220.628C242.935 219.976 242.997 215.911 242.912 211.594L242.757 203.746L233.726 209.164ZM213.49 236.528L213.64 244.165L218.223 247.016L222.806 249.865L223.144 246.263C223.658 240.774 223.669 234.291 223.165 234.291C222.917 234.291 220.717 233.076 218.276 231.591C215.834 230.106 213.725 228.892 213.589 228.892C213.452 228.892 213.408 232.328 213.49 236.528ZM229.764 231.585L225.399 234.283L225.035 241.925C224.835 246.128 224.789 249.685 224.934 249.83C225.079 249.976 226.856 249.091 228.884 247.864C234.991 244.169 234.451 245.3 234.28 236.579L234.13 228.887L229.764 231.585ZM237.973 242.345C237.134 242.896 236.169 243.905 235.828 244.587C235.175 245.894 225.579 252.109 224.216 252.109C222.92 252.109 212.292 245.579 212.292 244.783C212.292 243.765 210.129 241.85 208.98 241.85C207.73 241.85 205.282 242.98 205.282 243.557C205.282 243.806 205.502 244.01 205.772 244.01C206.419 244.01 220.181 251.892 222.306 253.479L223.962 254.717L229.585 251.248C232.678 249.34 236.72 246.869 238.567 245.759C240.414 244.649 241.857 243.518 241.773 243.246C241.688 242.975 241.143 242.435 240.559 242.048C239.66 241.449 239.267 241.495 237.973 242.345ZM204.267 250.624C204.301 253.668 204.483 257.711 204.671 259.609L205.012 263.059L213.909 268.376L222.806 273.694L222.959 264.926L223.113 256.158L221.611 254.951C220.045 253.69 205.169 245.09 204.555 245.09C204.361 245.09 204.232 247.58 204.267 250.624ZM234.224 250.182C229.827 252.942 225.878 255.551 225.448 255.982C224.816 256.615 224.694 258.448 224.814 265.552L224.963 274.339L232.243 269.931C236.246 267.506 240.31 264.922 241.274 264.188L243.027 262.853L242.973 256.806C242.944 253.48 242.762 249.5 242.569 247.963L242.218 245.166L234.224 250.182Z" fill="currentColor"/>
</svg>
