<?xml version="1.0" encoding="utf-8" ?>
<svg xmlns="http://www.w3.org/2000/svg" width="26" height="26" viewBox="0 0 26 26" fill="#00000">
    <path d="M2.0748 5.57462L11.8373 15.0054C12.1261 15.2845 12.5119 15.4503 12.9199 15.4705C13.3279 15.4907 13.7292 15.364 14.0461 15.1148L14.1715 15.0054L23.9274 5.581C23.9589 5.69787 23.9802 5.81723 23.9912 5.93906L24 6.125V18.875C24.0002 19.4111 23.7906 19.9275 23.4132 20.3206C23.0358 20.7137 22.5185 20.9545 21.965 20.9947L21.8 21H4.2C3.64497 21.0002 3.11038 20.7977 2.7034 20.4332C2.29642 20.0686 2.04713 19.569 2.0055 19.0344L2 18.875V6.125C2 5.9975 2.011 5.87354 2.033 5.75313L2.0748 5.57462ZM21.8 4C21.9335 4 22.0636 4.01098 22.1905 4.03294L22.3775 4.07438L13.0055 13.1269L3.6302 4.07225C3.75193 4.04037 3.8766 4.01912 4.0042 4.0085L4.2 4H21.8Z" fill="currentColor"/>
</svg>
