<svg width="48" height="48" viewBox="0 0 48 48" fill="none" xmlns="http://www.w3.org/2000/svg">
    <g clip-path="url(#clip0_1040_384)">
        <path d="M13.1993 3.9C11.3993 4.8 10.7993 7.2 11.9993 8.4C13.4993 5.7 15.8993 6.6 19.4993 9.6C21.8993 11.7 25.1993 9.9 25.1993 9.9C25.1993 9.9 25.7993 13.5 30.2993 14.1C35.3993 14.7 37.1993 11.7 37.1993 11.7C37.1993 11.7 38.3993 14.7 42.8993 12.9C46.1993 11.7 44.9993 9.6 44.9993 9.6C44.9993 9.6 47.9993 9.6 47.9993 7.5C47.9993 4.8 44.6993 5.1 44.6993 5.1C44.6993 5.1 45.2993 2.1 41.9993 1.8C38.9993 1.5 38.0993 3.3 38.0993 3.3C38.0993 3.3 37.1993 0 32.6993 0C28.4993 0 26.9993 3.9 26.9993 3.9C26.9993 3.9 25.7993 2.1 22.1993 2.1C19.4993 2.1 18.2993 4.2 18.2993 4.2C18.2993 4.2 14.9993 2.7 13.1993 3.9Z" fill="currentColor"/>
        <path d="M36 36.3002V30.0002L24 36.3002V30.0002H16.8L15 9.00024H9L7.2 30.0002H0V48.0002H48V30.0002L36 36.3002ZM18 42.0002H6V36.0002H18V42.0002Z" fill="currentColor"/>
    </g>
    <defs>
        <clipPath id="clip0_1040_384">
            <rect width="48" height="48" fill="white"/>
        </clipPath>
    </defs>
</svg>
