<svg width="60" height="60" viewBox="0 0 60 60" fill="none" xmlns="http://www.w3.org/2000/svg">
    <path d="M41.0514 36.9436V46.7456C41.0514 46.7815 40.6957 47.2402 40.625 47.3121C39.5381 48.4218 37.6656 47.8373 37.4316 46.3751C36.8963 43.0298 37.8017 38.3735 37.4316 34.8843C37.3771 34.4401 38.4948 33.3448 38.7815 33.3448H45.4042V25.791C44.7274 26.0752 44.2611 26.7407 43.4881 26.8594C42.4031 27.0248 39.3803 26.9835 38.2299 26.8791C36.9562 26.764 35.9473 25.6669 36.4717 24.399C37.3045 22.3828 41.0223 23.7084 42.6952 23.194C43.6877 22.89 45.9159 20.6095 46.8703 19.9584C49.4213 18.2193 52.3299 19.9692 52.642 22.8469C52.9141 25.3648 52.9014 30.7154 52.6619 33.2531C52.5422 34.5121 52.0976 35.5696 51.0199 36.3016C50.8312 36.4293 49.7915 36.9419 49.6699 36.9419H41.0514V36.9436Z" fill="currentColor"/>
    <path d="M9.77822 36.9127C7.98285 36.6175 6.94267 34.8733 6.78655 33.2191C6.54511 30.656 6.54511 25.5278 6.78655 22.9647C7.07156 19.9281 9.9888 18.1731 12.6519 20.0235C13.6049 20.6859 15.8069 22.8603 16.7582 23.1519C18.4319 23.6667 22.1479 22.3383 22.9848 24.3579C23.3805 25.3154 22.8722 26.462 21.8593 26.75C21.1622 26.948 16.7909 26.948 15.9649 26.8202C15.1897 26.7014 14.725 26.0354 14.0479 25.751V33.3109H20.6739C21.2275 33.3109 21.9373 34.2919 22.0245 34.8517C22.5455 38.2339 21.6687 42.8346 22.0245 46.35C21.6904 47.5128 20.5032 48.3498 19.3196 47.6118C19.1127 47.4822 18.4029 46.7118 18.4029 46.5408V36.9109H9.78004L9.77822 36.9127Z" fill="currentColor"/>
    <path d="M16.8911 30.8933C15.6879 30.6207 15.6044 28.4379 16.9356 28.1086L41.5852 28.0732C42.7991 28.1777 43.3891 29.624 42.5254 30.4914C42.4827 30.5339 41.8162 30.8951 41.7736 30.8951H30.8431V45.0573H35.1086V47.8898H23.7338V45.0573H27.9994V30.8951H16.8911V30.8933Z" fill="currentColor"/>
    <path d="M3.19254 41.2528C2.86049 41.1773 2.15532 40.3366 2.20352 39.9126L2.22316 23.9295C2.41954 22.7151 3.53352 22.1474 4.57789 22.9252C4.65465 22.9827 5.06704 23.5181 5.06704 23.5594V38.3802H15.3322C15.8017 38.3802 16.4872 39.2066 16.5122 39.7294C16.5408 40.3348 15.8856 41.2546 15.3322 41.2546H10.7798V45.5661H13.6362V48.4404H5.06704V45.5661H7.92342V41.2546C6.59164 41.048 4.40829 41.533 3.19254 41.2546V41.2528Z" fill="currentColor"/>
    <path d="M53.7031 23.6998C53.9732 22.1644 56.33 22.1644 56.5348 23.8711C56.1235 28.7431 57.0573 34.4666 56.5313 39.235C56.4677 39.8135 56.0016 40.7489 55.3785 40.7489H50.8768V45.0335H53.7014V47.8899H45.2276V45.0335H48.0522V40.7489H43.374C43.058 40.7489 42.403 39.8117 42.3854 39.4064C42.3624 38.9226 42.9821 37.8925 43.374 37.8925H53.7014V23.6998H53.7031Z" fill="currentColor"/>
    <path d="M9.40768 11.0828C14.8027 10.1829 15.2303 17.8236 10.4303 18.155C6.01601 18.4597 5.09349 11.8026 9.40768 11.0828Z" fill="currentColor"/>
    <path d="M47.9409 11.0828C53.3359 10.1829 53.7635 17.8236 48.9635 18.155C44.5492 18.4597 43.6267 11.8026 47.9409 11.0828Z" fill="currentColor"/>
</svg>
