<svg width="60" height="60" viewBox="0 0 60 60" fill="none" xmlns="http://www.w3.org/2000/svg">
    <path d="M31.1324 15.3734V25.5543C33.1201 25.8517 34.4966 27.2202 35.6796 28.8385L44.303 25.1219C44.5016 24.9158 44.5513 23.1861 44.6899 22.615C45.914 17.5647 52.7963 16.8969 54.9432 21.617C57.3007 26.8023 52.0105 32.1701 47.2614 29.2563C46.5851 28.8422 46.1777 28.2455 45.5904 27.7602L36.6743 31.7669C36.967 33.5969 36.2959 35.4196 35.4433 36.9796L42.2486 44.4602C42.7793 44.7211 43.3426 44.192 43.9212 44.0552C49.9492 42.6339 53.0822 50.6436 48.5642 54.2945C44.6232 57.4801 39.3108 54.0464 39.8466 48.8355C39.9305 48.0126 40.4065 47.354 40.4561 46.5621L33.6046 39.2457C33.4608 39.0833 33.3255 39.0724 33.1269 39.1016C32.5021 39.1983 31.5382 39.8587 30.6685 39.9682C29.0678 40.1689 27.6622 39.7876 26.2309 39.0797L19.037 46.5621L18.9874 46.9653C20.8107 50.1382 18.8265 54.778 15.3733 55.4166C11.4391 56.1428 8.22735 52.917 8.88476 48.684C9.54218 44.4511 13.7007 42.9185 17.0802 44.6482L24.0738 37.0125C22.9747 35.447 22.658 33.5367 22.7059 31.6173L14.0653 27.9445C13.5432 27.9117 13.2795 28.5229 12.8532 28.8276C6.15923 33.6188 0.802322 23.7699 6.23456 19.5845C10.2818 16.4681 15.4127 20.0972 15.0497 25.1803L23.8273 29.052C24.7175 27.315 26.3662 26.0342 28.2083 25.6711L28.3778 25.3044V15.815C28.2905 15.3278 26.8507 14.8151 26.3165 14.3608C21.4886 10.2428 25.9228 2.09625 31.7214 4.40429C36.5886 6.34012 36.236 14.1528 31.1307 15.3771L31.1324 15.3734Z" fill="currentColor"/>
</svg>
