<svg xmlns="http://www.w3.org/2000/svg" width="544" height="182" viewBox="0 0 544 182" fill="none">
    <path opacity="0.3" fill-rule="evenodd" clip-rule="evenodd" d="M188.404 -75.4947C177.081 -68.6434 173.499 -66.0853 173.082 -64.5503C172.257 -61.5164 172.283 -55.8092 173.13 -54.2245C173.77 -53.0284 172.835 -52.2129 166.93 -48.8128C163.106 -46.6105 150.796 -39.3939 139.575 -32.7741C128.354 -26.1551 103.333 -11.4287 83.9712 -0.0485458C64.6098 11.3316 46.5668 21.9899 43.8763 23.6362L38.9839 26.6292L35.5941 24.7017C33.7291 23.641 31.2401 22.7734 30.0625 22.7734C27.5407 22.7734 2.16843 37.7234 0.733124 40.0555C0.0490737 41.1675 -0.107742 45.8309 0.173879 56.7047L0.5643 71.8093L5.06543 74.7302L9.56576 77.6512L9.33934 85.7531L9.11213 93.8549L5.9623 95.2778C0.0106671 97.9648 0.0218664 97.9271 0.265084 114.741C0.422696 125.614 0.777119 130.184 1.55798 131.399C3.02688 133.684 25.6885 146.949 28.1247 146.949C30.1545 146.949 36.3581 143.684 37.9286 141.789C38.6551 140.913 42.4362 142.843 57.7981 151.929C78.5404 164.199 148.97 205.344 191.979 230.32C243.53 260.255 248.056 262.898 269.585 275.654C281.466 282.694 293.037 289.491 295.299 290.758C299.084 292.879 299.45 293.346 299.899 296.626C300.168 298.586 300.387 301.519 300.387 303.143C300.387 306.999 301.246 307.722 316.449 316.667C326.468 322.563 329.526 323.999 332.05 323.992C334.56 323.986 337.634 322.537 347.375 316.772C360.354 309.091 361.991 307.437 361.991 302.009C361.991 300.444 362.319 299.165 362.719 299.165C363.348 299.165 395.824 280.137 404.2 274.859C405.847 273.822 411.875 270.333 417.595 267.106C423.316 263.879 436.277 256.119 446.398 249.862C456.518 243.604 473.718 233.011 484.62 226.323L504.441 214.163L506.745 215.806C510.409 218.419 512.986 217.892 520.845 212.929C524.782 210.443 530.931 206.669 534.509 204.543C538.087 202.416 541.276 200.034 541.596 199.249C541.917 198.464 542.369 191.11 542.601 182.905L543.023 167.99L538.936 164.754C536.687 162.974 534.508 161.395 534.094 161.243C533.679 161.093 533.234 157.827 533.106 153.987L532.871 147.004L537.838 143.79L542.805 140.576V124.897C542.805 109.342 542.789 109.205 540.872 107.455C537.223 104.123 513.526 91.671 510.833 91.671C509.324 91.671 506.891 92.6348 504.846 94.044L501.402 96.417L463.899 74.9457C443.273 63.137 411.815 45.0209 393.994 34.6879C376.172 24.3548 334.148 0.232651 300.606 -18.9169L239.622 -53.735L239.591 -58.5418C239.574 -61.1856 239.362 -64.0889 239.119 -64.9942C238.85 -65.9956 235.273 -68.7595 229.991 -72.0474C214.036 -81.9782 209.019 -84.5835 205.999 -84.5074C203.898 -84.4546 199.416 -82.1585 188.404 -75.4947ZM190.201 -73.9188C182.622 -69.4269 176.423 -65.5718 176.424 -65.3515C176.426 -65.1312 181.186 -62.3376 187.003 -59.1435C192.82 -55.9494 199.56 -52.2145 201.98 -50.8437L206.38 -48.3514L219.581 -56.1497C226.842 -60.4389 233.394 -64.3757 234.142 -64.8973C235.309 -65.712 233.562 -67.0034 221.809 -74.0109C213.525 -78.9499 207.299 -82.1577 206.048 -82.1305C204.91 -82.1056 197.779 -78.41 190.201 -73.9188ZM222.781 -55.2868C212.862 -49.3745 208.032 -46.9398 206.215 -46.9334C204.765 -46.9286 201.809 -48.0149 199.415 -49.4321C192.375 -53.5996 175.614 -62.9481 175.182 -62.9481C174.959 -62.9481 174.778 -60.7906 174.778 -58.1533V-53.3577L177.378 -54.9455C178.808 -55.8188 180.487 -56.5342 181.109 -56.5358C181.732 -56.5374 187.472 -53.4034 193.866 -49.5707C200.261 -45.7381 206.202 -42.6561 207.07 -42.721C207.938 -42.7867 210.117 -43.8955 211.914 -45.1845C213.711 -46.4735 218.923 -49.7774 223.499 -52.5269L231.816 -57.5252L234.598 -56.1961C236.129 -55.4655 237.428 -54.9736 237.485 -55.1026C237.542 -55.2315 237.408 -57.2039 237.186 -59.4848L236.782 -63.6322L222.781 -55.2868ZM224.215 -50.2893C219.943 -47.7786 216.446 -45.5434 216.442 -45.3231C216.44 -45.1028 221.015 -42.4318 226.61 -39.3875C249.581 -26.8882 285.584 -6.45682 325.589 16.7825C348.91 30.3305 392.818 55.6352 423.161 73.0158C453.505 90.3964 479.294 105.303 480.471 106.142L482.611 107.667L490.728 102.736C495.193 100.024 498.566 97.5434 498.224 97.2237C497.881 96.9041 490.191 92.4906 481.135 87.4154C465.747 78.7936 410.829 47.1728 377.193 27.5682C369.052 22.8231 354.471 14.456 344.79 8.97385C335.109 3.49168 313.688 -8.74887 297.187 -18.2263C261.372 -38.7979 234.413 -54.0395 233.004 -54.5121C232.442 -54.7012 228.486 -52.8009 224.215 -50.2893ZM176.378 -51.7955C171.938 -49.0476 148.129 -35.0221 95.9721 -4.42914C73.9705 8.47555 52.6193 21.0029 48.5246 23.4087L41.0793 27.7845L43.3738 29.1809C44.6355 29.9492 48.4294 32.0954 51.804 33.9508L57.9413 37.3228L60.155 35.7638C61.3735 34.9066 74.4305 27.0827 89.1716 18.3776C132.587 -7.26117 159.606 -23.2342 178.672 -34.5326L196.566 -45.138L189.037 -49.6364C184.897 -52.1111 181.165 -54.1107 180.743 -54.0795C180.322 -54.0491 178.358 -53.0212 176.378 -51.7955ZM211.662 -42.4502C208.359 -40.0997 204.855 -39.9875 201.361 -42.1218L198.741 -43.7208L170.33 -26.8689C154.704 -17.6006 131.042 -3.62082 117.746 4.19746C62.724 36.5505 59.6894 38.4019 60.4263 39.1566C60.8351 39.5756 61.1695 41.4855 61.1695 43.401C61.1695 46.5206 60.9159 46.9917 58.7461 47.905L56.3236 48.9249L72.1471 58.1996C80.8509 63.3004 92.6518 70.0788 98.3722 73.2617C104.093 76.4454 115.433 82.9242 123.574 87.659C131.715 92.3937 152.056 104.117 168.777 113.713C214.218 139.786 238.374 153.793 262.784 168.219C286.232 182.077 307.183 193.987 315.432 198.148L320.476 200.693L324.895 198.161C330.395 195.01 332.674 195.257 339.821 199.777L345.015 203.062L360.103 194.144C368.402 189.24 389.773 176.483 407.595 165.795C425.416 155.107 450.027 140.366 462.284 133.037C474.543 125.707 484.019 119.711 483.343 119.711C480.174 119.711 478.383 113.871 480.398 110.102C481.052 108.877 480.801 108.412 478.998 107.509C474.53 105.272 387.176 55.1817 339.59 27.5698C284.123 -4.61502 272.478 -11.2773 245.183 -26.4452C229.562 -35.1255 216.381 -42.7434 215.893 -43.3747C214.809 -44.7751 214.983 -44.8128 211.662 -42.4502ZM278.226 25.0574C270.658 29.7497 262.827 34.5709 260.825 35.7718C258.653 37.0745 257.193 38.5293 257.209 39.3769C257.233 40.7885 268.602 47.7616 305.999 69.3001C314.145 73.9916 328.366 82.3298 337.601 87.8296C364.316 103.739 366.18 104.681 368.893 103.656C373.059 102.082 405.195 82.6703 405.154 81.753C405.111 80.8172 392.98 73.4821 363.191 56.3802C353.511 50.8219 340.37 43.1863 333.989 39.4106C316.038 28.7891 293.75 16.3555 292.822 16.4452C292.362 16.4901 285.794 20.3652 278.226 25.0574ZM276.785 28.85C268.425 33.9188 261.105 38.3515 260.519 38.7C259.775 39.1422 260.91 40.2013 264.29 42.2169L269.125 45.101L280.755 37.8516L292.386 30.6013V25.0855C292.386 22.0516 292.297 19.5833 292.186 19.6009C292.076 19.6185 285.146 23.7804 276.785 28.85ZM294.787 22.9761C294.787 24.9573 294.58 27.6155 294.328 28.882C293.884 31.1148 294.209 31.384 304.929 37.6801C311.012 41.2524 349.591 63.6314 349.591 63.6314C343.59 60.15 292.89 33.1881 292.766 33.1881C292.43 33.1881 272.887 45.3125 272.155 45.9759C271.573 46.503 281.521 52.5171 304.387 65.4635C309.448 68.3283 320.608 74.8993 329.189 80.0666C347.399 91.0309 366.504 102.086 367.244 102.086C367.529 102.086 371.594 99.7881 376.277 96.9794C380.961 94.1714 385.808 91.3538 387.048 90.7193L389.304 89.5657L316.388 45.7238C310.748 42.4111 349.591 63.6314 349.591 63.6314C349.591 63.6314 375.926 78.6574 383.993 83.6717L391.194 88.1476L396.656 85.0016L402.118 81.8555L396.656 78.8857C393.651 77.2522 388.313 74.1069 384.793 71.8966C381.273 69.6863 372.452 64.5286 365.192 60.4348C357.931 56.341 346.77 49.8445 340.39 45.9983C334.009 42.1512 321.588 34.9466 312.788 29.9876C303.987 25.0286 296.337 20.6111 295.787 20.1721C295.016 19.556 294.787 20.2009 294.787 22.9761ZM15.6558 32.7908C8.88411 36.9206 3.02849 40.6155 2.64286 41.0016C1.8948 41.7507 26.8286 56.4211 28.8488 56.4211C29.4944 56.4211 36.2677 52.719 43.9003 48.195L57.7781 39.969L49.2734 35.2535C44.5955 32.6594 38.7407 29.3315 36.2629 27.8574C33.7851 26.3833 30.9049 25.2 29.8624 25.2289C28.82 25.2577 22.4267 28.6609 15.6558 32.7908ZM44.9003 50.4038C37.4926 54.9334 31.0929 58.9791 30.6785 59.3941C30.2521 59.8211 30.0208 65.6173 30.1465 72.7618L30.3673 85.3749L33.1675 83.4858L35.9677 81.5975L36.3677 69.6863L36.7677 57.775L47.1021 51.9131C52.7857 48.6885 57.7717 45.939 58.1813 45.802C58.5909 45.665 58.8006 44.7918 58.6477 43.8609C58.3965 42.3339 57.0444 42.978 44.9003 50.4038ZM2.25643 48.9225C2.53645 50.9662 2.76527 56.6734 2.76527 61.6036V70.5683L14.3429 77.515C20.7106 81.3348 26.291 84.4608 26.7438 84.4608C27.2718 84.4608 27.5671 80.1459 27.5671 72.4438C27.5671 61.4947 27.4247 60.2841 25.967 58.8245C25.0869 57.9432 24.038 57.2222 23.6356 57.2222C22.5875 57.2222 4.5182 46.9012 3.94696 45.9767C3.68534 45.5529 3.08288 45.2052 2.60925 45.2052C2.04441 45.2052 1.9228 46.4862 2.25643 48.9225ZM46.8957 54.5088C42.785 56.9787 39.7248 59.2867 40.0952 59.6376C40.4656 59.9893 51.0288 66.1196 63.5697 73.2617C76.1106 80.4031 88.5315 87.5916 91.1717 89.2364C93.8119 90.8811 103.533 96.5708 112.773 101.88C122.014 107.188 135.875 115.216 143.576 119.717C151.276 124.22 168.377 134.116 181.578 141.71C219.511 163.532 250.791 181.672 277.428 197.298L302.074 211.754L308.231 208.081C311.617 206.06 315.215 203.897 316.226 203.274C318.026 202.164 317.948 202.079 312.626 199.286C302.522 193.982 285.687 184.386 264.384 171.785C252.723 164.887 230.942 152.192 215.981 143.575C160.071 111.372 129.014 93.5208 109.973 82.6446C67.3692 58.3102 62.2352 55.3211 58.5677 52.7142C56.4764 51.2281 54.6762 50.0136 54.5674 50.0152C54.4578 50.0168 51.0064 52.0389 46.8957 54.5088ZM38.2255 62.8838C38.5119 63.9557 38.7559 68.0776 38.7671 72.0432L38.7879 79.2534L46.9789 84.0178C51.4832 86.6383 71.1902 98.0264 90.7717 109.325C148.153 142.433 230.663 190.434 260.784 208.233C269.145 213.173 281.116 220.179 287.386 223.801C293.656 227.424 298.787 230.902 298.787 231.529C298.787 232.157 298.6 232.671 298.373 232.671C297.813 232.671 274.436 219.163 256.784 208.639C236.663 196.644 185.975 167.062 153.176 148.175C137.995 139.433 115.673 126.512 103.573 119.462C91.4717 112.412 73.4704 101.964 63.5697 96.2431C53.669 90.5222 44.0635 84.8101 42.2241 83.5491C38.4751 80.9791 37.9686 80.8253 37.9662 82.2577C37.9646 83.3208 31.6314 87.6653 30.0833 87.6653C29.444 87.6653 29.1672 90.6912 29.1672 97.6795V107.694H32.029C36.1685 107.694 39.5679 111.254 39.5679 115.59C39.5679 118.177 39.904 118.908 41.2953 119.351C42.2457 119.653 46.278 121.876 50.2559 124.292C54.2338 126.706 64.7074 132.848 73.5296 137.939C98.301 152.232 236.27 232.781 263.184 248.664C303.234 272.297 303.172 272.265 308.54 272.298L313.186 272.327L313.187 264.181C313.188 259.7 313.397 255.487 313.654 254.817C313.993 253.934 312.331 252.558 307.611 249.812C304.03 247.728 300.733 245.334 300.282 244.492C299.779 243.55 299.564 237.126 299.725 227.801C299.869 219.463 299.758 212.641 299.479 212.642C299.2 212.642 293.799 209.627 287.478 205.941C281.157 202.256 259.604 189.687 239.583 178.01C219.561 166.334 193.099 151.011 180.778 143.96C160.248 132.21 141.379 121.281 107.173 101.326C100.132 97.2189 82.8511 87.1983 68.7701 79.058C54.689 70.9176 41.9385 63.5095 40.436 62.5962L37.7046 60.9339L38.2255 62.8838ZM11.7435 90.1409L11.9659 101.577L19.5113 106.226C23.662 108.782 27.131 110.79 27.2222 110.686C27.3127 110.583 27.199 105.422 26.9702 99.2185L26.5534 87.9393L19.7001 83.5964C15.9302 81.2074 12.5484 79.1301 12.1836 78.9787C11.8195 78.828 11.6211 83.8503 11.7435 90.1409ZM507.202 95.3611C506.322 96.0412 500.423 99.712 494.093 103.518C486.015 108.376 482.914 110.634 483.692 111.093C490.857 115.318 510.389 126.12 510.865 126.12C511.209 126.12 514.305 124.359 517.746 122.207C521.188 120.054 527.552 116.235 531.889 113.718L539.776 109.142L537.199 107.574C528.735 102.419 512.341 94.0784 510.717 94.1001C509.664 94.1137 508.082 94.6817 507.202 95.3611ZM5.75348 98.2804C4.09656 99.2321 2.85247 100.344 2.98768 100.751C3.2805 101.632 18.6824 111.374 23.9268 113.997L27.5975 115.832L31.1257 113.597C33.0667 112.368 34.4788 111.078 34.2636 110.73C33.5083 109.507 30.8145 110.115 29.9672 111.699C28.6784 114.112 26.8654 113.689 19.5089 109.262C10.9995 104.14 9.30814 102.522 9.00812 99.2185L8.7657 96.5499L5.75348 98.2804ZM2.60285 117.216C2.80447 128.028 3.04528 130.119 4.20297 131.103C4.95262 131.74 9.52576 134.545 14.3661 137.336C19.2065 140.126 23.9764 142.932 24.9669 143.57L26.767 144.73L26.7646 131.62L26.7614 118.509L19.7641 114.543C15.915 112.361 10.5666 109.206 7.87924 107.533C5.19184 105.858 2.85167 104.488 2.67886 104.488C2.50605 104.488 2.47244 110.215 2.60285 117.216ZM538.404 112.786C537.524 113.401 531.944 116.69 526.003 120.096C520.063 123.501 514.572 126.846 513.802 127.529C512.573 128.62 512.402 130.426 512.402 142.352C512.402 158.074 511.401 157.207 521.991 150.645C525.738 148.323 530.898 145.19 533.459 143.682C540.775 139.374 540.474 140.203 540.224 125.017C540.008 111.848 539.983 111.682 538.404 112.786ZM32.5674 115.417L29.1672 117.47L29.1136 126.802C29.084 131.934 28.976 138.026 28.8736 140.34C28.7712 142.654 28.9832 144.546 29.344 144.546C29.7056 144.546 31.3801 143.633 33.0651 142.516L36.1277 140.487L36.6477 131.977C37.3374 120.69 37.3054 113.294 36.5677 113.333C36.2381 113.35 34.438 114.288 32.5674 115.417ZM482.144 115.07C482.327 116.336 483.421 117.217 486 118.175C492.618 120.632 503.966 127.582 504.522 129.517C505.33 132.328 505.29 148.492 504.471 150.025C503.883 151.126 504.351 151.728 506.871 153.11L510.002 154.828V141.759V128.69L496.425 120.996C488.958 116.764 482.632 113.302 482.368 113.302C482.105 113.302 482.004 114.097 482.144 115.07ZM38.7679 129.725C38.7679 134.792 39.0943 138.938 39.4935 138.938C39.8928 138.938 43.9427 141.155 48.4942 143.863C62.8672 152.42 203.928 234.785 218.675 243.233C226.434 247.679 244.483 258.24 258.784 266.704C295.094 288.193 298.786 290.353 299.212 290.353C299.418 290.353 299.587 287.344 299.587 283.667C299.587 278.029 299.834 276.757 301.166 275.551C302.709 274.153 302.461 273.957 290.565 267.185C283.867 263.37 264.524 252.105 247.583 242.151C204.543 216.861 106.173 159.438 73.1704 140.338C57.9893 131.552 44.2259 123.496 42.585 122.437C40.9448 121.379 39.4143 120.512 39.1847 120.512C38.9559 120.512 38.7679 124.658 38.7679 129.725ZM485.56 121.251C484.328 122.449 455.948 139.841 443.905 146.778C437.795 150.298 414.075 164.392 391.194 178.1C368.312 191.807 349.059 203.328 348.409 203.702C347.494 204.228 348.035 204.886 350.809 206.617C352.779 207.847 355.96 209.899 357.878 211.18L361.363 213.506L371.879 207.355C412.35 183.681 464.233 152.627 489.462 136.977L502.125 129.122L496.347 125.983C493.169 124.256 489.821 122.318 488.906 121.678C486.958 120.311 486.577 120.263 485.56 121.251ZM488.801 140.281C481.32 144.954 469.619 152.08 462.799 156.117C455.978 160.154 434.017 173.212 413.995 185.137C393.974 197.061 374.082 208.87 369.792 211.379L361.991 215.941V224.706C361.991 229.527 362.275 233.472 362.623 233.472C362.97 233.472 375.301 226.226 390.025 217.368C404.749 208.512 423.456 197.282 431.596 192.414C469.879 169.521 491.685 156.451 496.937 153.25L502.674 149.753L502.938 140.739C503.083 135.781 503.022 131.738 502.802 131.754C502.582 131.771 496.281 135.608 488.801 140.281ZM524.203 151.98L518.003 155.92V166.238V176.557L524.066 172.871C527.4 170.843 530.292 168.759 530.492 168.237C530.692 167.716 530.754 162.958 530.629 157.665L530.404 148.041L524.203 151.98ZM492.401 158.515C487.341 161.72 468.979 172.816 451.598 183.174C434.217 193.532 406.945 209.867 390.994 219.472L361.991 236.938V240.065C361.991 244.546 360.979 245.923 354.744 249.926L349.19 253.49V263.968V274.446L351.299 272.786C352.458 271.873 353.815 271.125 354.313 271.125C356.13 271.125 361.191 275.222 361.191 276.694C361.191 277.86 374.748 270.071 421.396 242.104C454.509 222.252 486.641 202.897 492.801 199.092L504.002 192.174L504.402 186.994L504.802 181.813L510.176 178.601L515.55 175.39L515.576 166.515L515.603 157.641L513.306 157.979C511.095 158.304 505.28 155.43 504.022 153.391C503.139 151.96 501.863 152.522 492.401 158.515ZM533.05 167.136C532.807 170.464 532.718 170.554 525.603 174.711C518.668 178.762 516.036 179.71 515.469 178.359C515.323 178.009 513.493 178.854 511.403 180.236L507.604 182.749L510.308 184.207L513.011 185.665L526.108 177.409C533.311 172.868 539.379 168.999 539.592 168.812C539.99 168.462 537.076 165.949 534.65 164.548C533.482 163.873 533.262 164.227 533.05 167.136ZM526.643 179.738L513.282 188.208L513.242 201.576L513.202 214.946L521.803 209.545C526.534 206.575 532.473 202.966 535.003 201.526C537.793 199.937 539.772 198.22 540.033 197.162C540.269 196.203 540.36 189.985 540.233 183.343L540.004 171.269L526.643 179.738ZM506.64 198.318C506.423 211.037 506.531 212.363 507.891 213.644C508.709 214.415 509.7 215.046 510.091 215.046C510.482 215.046 510.802 208.98 510.802 201.566C510.802 188.292 510.773 188.058 508.84 186.24L506.876 184.394L506.64 198.318ZM502.362 195.754C501.386 196.697 464.442 219.056 429.996 239.549C415.255 248.319 393.876 261.108 382.487 267.969L361.78 280.444L361.935 288.786C362.02 293.374 362.158 297.175 362.24 297.233C362.323 297.291 372.292 291.404 384.393 284.149C396.494 276.894 411.075 268.242 416.795 264.921C425.872 259.651 494.776 217.655 501.792 213.117L504.382 211.441L504.392 203.229C504.401 195.38 504.057 194.112 502.362 195.754ZM316.192 206.041C308.824 210.333 302.793 214.029 302.791 214.255C302.789 214.481 309.147 218.426 316.92 223.022L331.054 231.378L335.922 228.686C346.342 222.925 358.874 214.811 358.249 214.232C355.885 212.042 332.544 198.224 331.22 198.23C330.323 198.234 323.561 201.749 316.192 206.041ZM301.987 230.56V243.67L315.524 251.79C322.97 256.255 329.271 259.909 329.525 259.909C329.78 259.909 329.989 254.16 329.989 247.132V234.355L327.389 232.406C325.958 231.335 320.288 227.858 314.788 224.682C309.288 221.505 304.445 218.579 304.027 218.178C303.61 217.777 302.979 217.449 302.627 217.449C302.275 217.449 301.987 223.349 301.987 230.56ZM345.792 225.832L332.393 233.873L332.391 247.339C332.39 257.88 332.607 260.683 333.389 260.24C333.94 259.928 339.878 256.282 346.586 252.136C354.996 246.939 358.918 244.053 359.216 242.841C359.454 241.874 359.546 235.843 359.421 229.437L359.191 217.792L345.792 225.832ZM315.766 266.434L315.988 277.765L322.789 281.994L329.589 286.223L330.09 280.878C330.852 272.733 330.869 263.114 330.121 263.114C329.754 263.114 326.49 261.311 322.867 259.108C319.244 256.905 316.115 255.103 315.912 255.103C315.71 255.103 315.644 260.202 315.766 266.434ZM339.913 259.099L333.437 263.102L332.896 274.44C332.599 280.676 332.531 285.955 332.746 286.171C332.961 286.386 335.598 285.073 338.607 283.254C347.669 277.77 346.866 279.448 346.613 266.509L346.39 255.096L339.913 259.099ZM352.093 275.064C350.847 275.882 349.415 277.379 348.91 278.391C347.942 280.33 333.704 289.551 331.68 289.551C329.757 289.551 313.988 279.863 313.988 278.682C313.988 277.172 310.779 274.33 309.074 274.33C307.219 274.33 303.587 276.006 303.587 276.862C303.587 277.232 303.914 277.534 304.314 277.534C305.274 277.534 325.694 289.229 328.847 291.585L331.304 293.421L339.647 288.274C344.236 285.442 350.233 281.777 352.974 280.13C355.715 278.482 357.856 276.805 357.73 276.402C357.605 275.999 356.796 275.198 355.93 274.623C354.596 273.735 354.012 273.803 352.093 275.064ZM302.081 287.348C302.132 291.865 302.402 297.863 302.681 300.679L303.187 305.798L316.388 313.688L329.589 321.578L329.816 308.569L330.043 295.56L327.816 293.768C325.492 291.898 303.419 279.137 302.509 279.137C302.221 279.137 302.029 282.832 302.081 287.348ZM346.529 286.693C340.006 290.787 334.146 294.659 333.509 295.298C332.571 296.237 332.39 298.958 332.568 309.497L332.789 322.535L343.59 315.995C349.531 312.397 355.561 308.562 356.991 307.474L359.591 305.492L359.512 296.521C359.469 291.586 359.198 285.681 358.912 283.4L358.391 279.25L346.529 286.693Z" fill="url(#paint0_linear_1040_439)"/>
    <defs>
        <linearGradient id="paint0_linear_1040_439" x1="-41" y1="206" x2="373" y2="120" gradientUnits="userSpaceOnUse">
            <stop stop-color="#3F6075" stop-opacity="0"/>
            <stop offset="1" stop-color="#3F6075"/>
        </linearGradient>
    </defs>
</svg>
