<svg width="186" height="40" viewBox="0 0 186 40" fill="none" xmlns="http://www.w3.org/2000/svg">
<path fill-rule="evenodd" clip-rule="evenodd" d="M17.3529 0.0957213C16.6142 0.263671 15.8703 0.653472 12.6703 2.54986C11.1726 3.43736 8.90683 4.77389 7.63512 5.51998C6.36341 6.26606 4.65701 7.27661 3.84312 7.76567C3.02923 8.25474 2.1604 8.77025 1.91244 8.9112C0.941687 9.46326 0.309533 10.2788 0.107262 11.24C-0.0356316 11.9192 -0.0358151 27.4007 0.107079 28.0811C0.278551 28.8975 0.720734 29.7013 1.33643 30.3157C1.78925 30.7676 2.44942 31.2022 4.67551 32.5139C6.20156 33.413 9.38545 35.2956 11.7508 36.6974C14.1162 38.0992 16.2241 39.3318 16.4352 39.4365C17.0218 39.7276 18.1157 40 18.6982 40C19.415 40 20.5734 39.6495 21.3361 39.2018C22.9452 38.2573 24.3738 37.4064 25.3928 36.7855C26.0032 36.4136 27.8553 35.2963 29.5085 34.3027C32.1808 32.6965 34.1792 31.4638 35.1502 30.8223C35.5502 30.558 36.2386 29.747 36.5074 29.2233C37.0051 28.2537 37 28.3526 37 19.7207C37 11.4357 36.9875 11.1367 36.6121 10.4C36.1525 9.49815 35.5588 9.09788 29.3698 5.51731C28.2507 4.86994 26.794 4.02404 26.1327 3.63763C25.4714 3.25123 24.4309 2.65234 23.8205 2.30662C23.2101 1.96098 22.2517 1.40461 21.6908 1.07027C21.1299 0.73584 20.3808 0.366608 20.026 0.249621C19.2343 -0.0114402 18.109 -0.0762689 17.3529 0.0957213ZM17.6238 3.34765C17.0542 3.61606 15.161 4.69005 12.9532 5.9972C12.2664 6.4038 11.2468 7.00379 10.6872 7.33051C10.1277 7.65713 9.21204 8.20258 8.65249 8.54252C8.09294 8.88246 7.01573 9.49834 6.25863 9.91109C4.74978 10.7338 4.5206 10.9424 4.74784 11.2867C4.82479 11.4033 6.23421 12.2778 7.87994 13.2301C12.4323 15.8644 14.9955 17.3592 16.4104 18.2047C17.8395 19.0587 18.4342 19.2821 19.0389 19.1923C19.5698 19.1134 20.6168 18.5675 22.5719 17.3498C23.4621 16.7955 25.0853 15.8138 26.1789 15.1683C32.661 11.343 32.6619 11.3425 32.4832 11.011C32.3953 10.848 31.8173 10.5037 27.6587 8.13766C24.5959 6.39508 23.3842 5.69481 21.8875 4.80236C20.3011 3.85646 18.7453 3.08916 18.41 3.08732C18.2828 3.08668 17.929 3.20376 17.6238 3.34765ZM17.0151 7.79607C16.7904 7.91195 15.8781 8.42195 14.9879 8.92957C14.0977 9.43709 12.8699 10.1332 12.2595 10.4764C10.3953 11.5245 9.90107 11.8677 9.90107 12.1146C9.90107 12.2987 10.0801 12.4267 11.0803 12.9578C12.0984 13.4983 15.1194 15.2634 16.8839 16.3486C17.7224 16.8643 18.0568 16.8108 19.5266 15.9262C23.2533 13.6833 24.9593 12.6517 25.1811 12.5073C25.4621 12.3242 25.5715 12.0789 25.4881 11.8182C25.4257 11.6232 20.8526 8.87282 18.8825 7.84538C18.2425 7.51168 17.5999 7.49469 17.0151 7.79607ZM3.17471 14.5371C3.02248 14.7677 3.00897 15.2268 2.98567 20.9249L2.9607 27.0642L3.20042 27.5405C3.6168 28.3675 3.60783 28.361 7.21893 30.4301C7.70218 30.7069 8.55538 31.2118 9.11493 31.552C9.67448 31.8922 10.5901 32.4309 11.1497 32.7491C11.7092 33.0672 13.1243 33.8935 14.2942 34.585C15.4642 35.2767 16.5578 35.9118 16.7244 35.9965L17.0273 36.1504L17.0018 29.4665C16.9788 23.4047 16.9619 22.7564 16.8207 22.5006C16.4418 21.8142 16.3807 21.7751 7.68137 16.6544C4.69789 14.8983 3.60617 14.2887 3.44431 14.2887C3.38623 14.2887 3.26489 14.4005 3.17471 14.5371ZM32.2369 15.0843C31.5756 15.5117 30.5351 16.1546 29.9247 16.5129C29.3143 16.8712 28.1281 17.578 27.2888 18.0836C26.4495 18.5891 24.7037 19.6363 23.4094 20.4106C22.115 21.1849 20.9354 21.932 20.7881 22.071C20.6408 22.2098 20.4304 22.4888 20.3206 22.6908C20.1229 23.0544 20.1207 23.1164 20.0918 28.935C20.061 35.114 20.0881 35.9353 20.3253 36.0257C20.5008 36.0925 21.3986 35.6619 22.6181 34.9256C23.1268 34.6184 24.1673 33.9895 24.9303 33.5279C25.6934 33.0663 26.5882 32.5297 26.9188 32.3354C27.6767 31.8901 29.2355 30.9281 30.2101 30.3044C30.6214 30.0411 31.1833 29.7125 31.4587 29.5743C32.065 29.2698 32.9734 28.6752 33.3321 28.3482C33.4766 28.2163 33.6847 27.9432 33.7946 27.7412C33.9928 27.3763 33.9943 27.3319 34.0203 20.9591C34.0396 16.2102 34.0187 14.5111 33.9396 14.4165C33.7452 14.1839 33.4512 14.2993 32.2369 15.0843ZM30.2484 21.2365C29.9793 21.3398 29.4177 21.9484 29.3198 22.243C29.1919 22.6275 29.3455 23.226 29.6494 23.5278C29.9211 23.7975 30.3131 23.8114 30.7929 23.5685C31.6223 23.1484 31.7854 22.0384 31.1073 21.4291C30.912 21.2535 30.4652 21.1534 30.2484 21.2365ZM29.7983 26.408C29.4049 26.8105 29.1711 27.4459 29.2711 27.8411C29.3051 27.9758 29.4577 28.21 29.6101 28.3613C29.8526 28.6021 29.9346 28.6303 30.2637 28.5865C31.3458 28.4423 31.8929 27.1292 31.2076 26.3206C31.0108 26.0884 30.9045 26.0424 30.5638 26.0424C30.2095 26.0424 30.1085 26.0907 29.7983 26.408Z" fill="#FF5E00"/>
<path d="M46.4348 29V12.492H52.9477C54.1998 12.492 55.2664 12.7312 56.1477 13.2094C57.029 13.6823 57.7007 14.3406 58.1628 15.1842C58.6304 16.0225 58.8641 16.9898 58.8641 18.086C58.8641 19.1823 58.6277 20.1495 58.1548 20.9878C57.6819 21.8261 56.9968 22.479 56.0994 22.9465C55.2073 23.4141 54.1272 23.6478 52.859 23.6478H48.7078V20.8508H52.2948C52.9665 20.8508 53.52 20.7353 53.9553 20.5042C54.3959 20.2678 54.7237 19.9426 54.9386 19.5289C55.159 19.1097 55.2691 18.6288 55.2691 18.086C55.2691 17.5379 55.159 17.0597 54.9386 16.6513C54.7237 16.2375 54.3959 15.9178 53.9553 15.6921C53.5146 15.461 52.9557 15.3455 52.2787 15.3455H49.925V29H46.4348ZM61.1311 29V12.492H67.644C68.8907 12.492 69.9547 12.715 70.836 13.1611C71.7227 13.6017 72.3971 14.2277 72.8592 15.0392C73.3267 15.8452 73.5605 16.7937 73.5605 17.8845C73.5605 18.9808 73.324 19.9238 72.8512 20.7138C72.3783 21.4983 71.6931 22.1002 70.7957 22.5193C69.9037 22.9385 68.8236 23.1481 67.5554 23.1481H63.1946V20.343H66.9911C67.6575 20.343 68.211 20.2516 68.6516 20.0689C69.0923 19.8862 69.4201 19.6122 69.635 19.2468C69.8553 18.8813 69.9655 18.4273 69.9655 17.8845C69.9655 17.3364 69.8553 16.8743 69.635 16.4981C69.4201 16.122 69.0896 15.8372 68.6436 15.6437C68.2029 15.4449 67.6467 15.3455 66.975 15.3455H64.6213V29H61.1311ZM70.0461 21.4876L74.1489 29H70.296L66.2818 21.4876H70.0461ZM91.1969 20.746C91.1969 22.5462 90.8557 24.0777 90.1732 25.3405C89.4962 26.6033 88.5719 27.5679 87.4004 28.2342C86.2343 28.8952 84.9231 29.2257 83.4669 29.2257C81.9999 29.2257 80.6833 28.8925 79.5172 28.2262C78.3511 27.5599 77.4295 26.5953 76.7525 25.3325C76.0754 24.0696 75.7368 22.5408 75.7368 20.746C75.7368 18.9458 76.0754 17.4143 76.7525 16.1515C77.4295 14.8887 78.3511 13.9268 79.5172 13.2658C80.6833 12.5995 81.9999 12.2663 83.4669 12.2663C84.9231 12.2663 86.2343 12.5995 87.4004 13.2658C88.5719 13.9268 89.4962 14.8887 90.1732 16.1515C90.8557 17.4143 91.1969 18.9458 91.1969 20.746ZM87.6584 20.746C87.6584 19.5799 87.4837 18.5965 87.1344 17.7959C86.7905 16.9952 86.3042 16.388 85.6755 15.9742C85.0467 15.5604 84.3105 15.3535 83.4669 15.3535C82.6232 15.3535 81.887 15.5604 81.2583 15.9742C80.6296 16.388 80.1406 16.9952 79.7913 17.7959C79.4474 18.5965 79.2754 19.5799 79.2754 20.746C79.2754 21.9121 79.4474 22.8955 79.7913 23.6962C80.1406 24.4968 80.6296 25.1041 81.2583 25.5179C81.887 25.9316 82.6232 26.1385 83.4669 26.1385C84.3105 26.1385 85.0467 25.9316 85.6755 25.5179C86.3042 25.1041 86.7905 24.4968 87.1344 23.6962C87.4837 22.8955 87.6584 21.9121 87.6584 20.746ZM93.7823 29V12.492H97.2725V19.7707H97.4902L103.431 12.492H107.614L101.488 19.8835L107.687 29H103.511L98.9894 22.213L97.2725 24.3088V29H93.7823ZM123.671 20.746C123.671 22.5462 123.33 24.0777 122.647 25.3405C121.97 26.6033 121.046 27.5679 119.874 28.2342C118.708 28.8952 117.397 29.2257 115.941 29.2257C114.474 29.2257 113.157 28.8925 111.991 28.2262C110.825 27.5599 109.903 26.5953 109.226 25.3325C108.549 24.0696 108.211 22.5408 108.211 20.746C108.211 18.9458 108.549 17.4143 109.226 16.1515C109.903 14.8887 110.825 13.9268 111.991 13.2658C113.157 12.5995 114.474 12.2663 115.941 12.2663C117.397 12.2663 118.708 12.5995 119.874 13.2658C121.046 13.9268 121.97 14.8887 122.647 16.1515C123.33 17.4143 123.671 18.9458 123.671 20.746ZM120.132 20.746C120.132 19.5799 119.958 18.5965 119.608 17.7959C119.264 16.9952 118.778 16.388 118.149 15.9742C117.521 15.5604 116.784 15.3535 115.941 15.3535C115.097 15.3535 114.361 15.5604 113.732 15.9742C113.103 16.388 112.614 16.9952 112.265 17.7959C111.921 18.5965 111.749 19.5799 111.749 20.746C111.749 21.9121 111.921 22.8955 112.265 23.6962C112.614 24.4968 113.103 25.1041 113.732 25.5179C114.361 25.9316 115.097 26.1385 115.941 26.1385C116.784 26.1385 117.521 25.9316 118.149 25.5179C118.778 25.1041 119.264 24.4968 119.608 23.6962C119.958 22.8955 120.132 21.9121 120.132 20.746ZM126.256 29V12.492H132.769C134.016 12.492 135.08 12.715 135.961 13.1611C136.848 13.6017 137.522 14.2277 137.984 15.0392C138.452 15.8452 138.686 16.7937 138.686 17.8845C138.686 18.9808 138.449 19.9238 137.976 20.7138C137.503 21.4983 136.818 22.1002 135.921 22.5193C135.029 22.9385 133.949 23.1481 132.68 23.1481H128.32V20.343H132.116C132.783 20.343 133.336 20.2516 133.777 20.0689C134.217 19.8862 134.545 19.6122 134.76 19.2468C134.98 18.8813 135.091 18.4273 135.091 17.8845C135.091 17.3364 134.98 16.8743 134.76 16.4981C134.545 16.122 134.215 15.8372 133.769 15.6437C133.328 15.4449 132.772 15.3455 132.1 15.3455H129.746V29H126.256ZM135.171 21.4876L139.274 29H135.421L131.407 21.4876H135.171ZM141.152 29V12.492H147.665C148.917 12.492 149.984 12.7312 150.865 13.2094C151.746 13.6823 152.418 14.3406 152.88 15.1842C153.348 16.0225 153.581 16.9898 153.581 18.086C153.581 19.1823 153.345 20.1495 152.872 20.9878C152.399 21.8261 151.714 22.479 150.817 22.9465C149.925 23.4141 148.845 23.6478 147.576 23.6478H143.425V20.8508H147.012C147.684 20.8508 148.237 20.7353 148.673 20.5042C149.113 20.2678 149.441 19.9426 149.656 19.5289C149.876 19.1097 149.986 18.6288 149.986 18.086C149.986 17.5379 149.876 17.0597 149.656 16.6513C149.441 16.2375 149.113 15.9178 148.673 15.6921C148.232 15.461 147.673 15.3455 146.996 15.3455H144.642V29H141.152ZM166.045 12.492H169.535V23.2125C169.535 24.4162 169.248 25.4695 168.673 26.3723C168.103 27.275 167.305 27.979 166.279 28.4841C165.252 28.9839 164.057 29.2338 162.692 29.2338C161.322 29.2338 160.123 28.9839 159.097 28.4841C158.07 27.979 157.272 27.275 156.703 26.3723C156.133 25.4695 155.848 24.4162 155.848 23.2125V12.492H159.339V22.9143C159.339 23.543 159.476 24.1019 159.75 24.5909C160.029 25.0799 160.421 25.4641 160.927 25.7435C161.432 26.023 162.02 26.1627 162.692 26.1627C163.369 26.1627 163.957 26.023 164.457 25.7435C164.962 25.4641 165.352 25.0799 165.626 24.5909C165.905 24.1019 166.045 23.543 166.045 22.9143V12.492ZM181.362 17.2397C181.298 16.5895 181.021 16.0843 180.532 15.7243C180.043 15.3643 179.379 15.1842 178.541 15.1842C177.971 15.1842 177.49 15.2649 177.098 15.4261C176.706 15.5819 176.405 15.7995 176.195 16.079C175.991 16.3584 175.889 16.6754 175.889 17.0301C175.878 17.3257 175.94 17.5836 176.074 17.8039C176.214 18.0242 176.405 18.215 176.647 18.3762C176.888 18.5321 177.168 18.6691 177.485 18.7873C177.802 18.9002 178.141 18.9969 178.501 19.0775L179.984 19.4321C180.704 19.5934 181.365 19.8083 181.967 20.077C182.568 20.3457 183.09 20.6762 183.53 21.0684C183.971 21.4607 184.312 21.9229 184.554 22.4548C184.801 22.9868 184.927 23.5968 184.933 24.2846C184.927 25.2948 184.67 26.1708 184.159 26.9123C183.654 27.6485 182.923 28.2208 181.967 28.6292C181.015 29.0322 179.868 29.2338 178.525 29.2338C177.192 29.2338 176.031 29.0296 175.043 28.6212C174.059 28.2128 173.291 27.6082 172.737 26.8075C172.189 26.0015 171.902 25.0047 171.875 23.8171H175.252C175.29 24.3706 175.448 24.8327 175.728 25.2035C176.013 25.5689 176.391 25.8456 176.864 26.0337C177.343 26.2164 177.883 26.3078 178.484 26.3078C179.076 26.3078 179.589 26.2218 180.024 26.0498C180.465 25.8779 180.806 25.6388 181.048 25.3325C181.289 25.0262 181.41 24.6742 181.41 24.2765C181.41 23.9057 181.3 23.5941 181.08 23.3415C180.865 23.0889 180.548 22.874 180.129 22.6967C179.715 22.5193 179.207 22.3581 178.605 22.213L176.808 21.7616C175.416 21.4231 174.317 20.8938 173.511 20.1737C172.705 19.4536 172.305 18.4837 172.31 17.2639C172.305 16.2644 172.571 15.3911 173.108 14.6442C173.651 13.8973 174.395 13.3142 175.341 12.8951C176.287 12.4759 177.361 12.2663 178.565 12.2663C179.79 12.2663 180.86 12.4759 181.773 12.8951C182.692 13.3142 183.407 13.8973 183.917 14.6442C184.428 15.3911 184.691 16.2563 184.707 17.2397H181.362Z" fill="white"/>
</svg>
