<svg xmlns="http://www.w3.org/2000/svg" width="51" height="51" viewBox="0 0 51 51" fill="none">
    <path fill-rule="evenodd" clip-rule="evenodd" d="M36.2253 1.61393C34.5956 2.13074 33.3611 3.41255 32.9416 5.02355C32.629 6.22426 32.7431 7.31244 33.3014 8.45269L33.6025 9.0674L32.5179 10.1519L31.4334 11.2365L30.7666 10.6928C28.5324 8.87059 25.7169 7.56654 22.5428 6.88355C21.5498 6.66995 21.0011 6.62911 19.0399 6.62321C17.049 6.6172 16.5308 6.65339 15.4378 6.87493C7.23156 8.53822 1.23516 14.9272 0.158096 23.1551C-1.12678 32.9709 5.55125 42.1474 15.4184 44.1248C16.4993 44.3415 17.0817 44.385 18.9265 44.3873C21.5274 44.3905 22.6199 44.2251 24.8818 43.4855C27.2542 42.7097 29.2426 41.6038 31.1611 39.9929L32.1089 39.1972L33.4547 40.5458L34.8004 41.8944L34.4598 42.5781C33.4799 44.5444 33.8961 46.7445 35.5383 48.2807C36.5726 49.2482 37.2233 49.4872 38.8343 49.4914C40.0126 49.4944 40.1236 49.4743 40.8278 49.1297C42.7479 48.1901 43.8979 46.0492 43.5643 44.0359C43.2946 42.4075 42.2592 41.0511 40.7354 40.3292C40.0233 39.9919 39.8832 39.966 38.7704 39.966C37.6258 39.966 37.5358 39.9841 36.7609 40.3687L35.9498 40.7714L34.5718 39.3901L33.1939 38.009L33.7373 37.3426C36.0278 34.5349 37.5787 30.6536 37.8311 27.098L37.904 26.0703H39.6273H41.3506L41.4948 26.5524C42.0496 28.4076 43.5622 29.7419 45.456 30.047C46.9074 30.2807 48.5402 29.7239 49.6067 28.6316C52.3639 25.8074 50.8076 21.1501 46.8817 20.4776C44.5865 20.0844 42.2384 21.5582 41.5403 23.8299L41.3399 24.4822H39.6254H37.9109L37.7748 23.3115C37.3469 19.6306 35.846 16.1623 33.441 13.2977L32.6698 12.3792L33.7322 11.3212L34.7945 10.2633L35.6194 10.6436C38.0057 11.7434 40.7526 10.7691 41.9189 8.40925C42.295 7.64821 42.3465 7.4387 42.3875 6.5015C42.4526 5.01085 42.1218 4.06185 41.1681 3.00498C40.2443 1.98123 39.0026 1.45013 37.5618 1.46249C37.0763 1.46669 36.4749 1.53486 36.2253 1.61393ZM36.7288 3.19124C35.369 3.57522 34.4529 4.81688 34.4529 6.27588C34.4529 8.44566 36.4616 9.90182 38.6074 9.2878C39.4462 9.04777 40.3963 8.0703 40.6546 7.18165C40.9642 6.11707 40.712 4.96241 39.9814 4.09804C39.311 3.30501 37.8088 2.88621 36.7288 3.19124ZM17.5969 8.27449C10.9185 8.75636 5.01198 13.2413 2.7029 19.5839C2.02728 21.4394 1.78634 22.7505 1.71919 24.9359C1.66723 26.6294 1.69344 27.1271 1.89807 28.3243C2.72275 33.1495 5.38552 37.2411 9.45466 39.9361C12.6435 42.048 16.2874 42.9969 20.1955 42.7331C25.6481 42.3651 30.6803 39.3346 33.643 34.6346C36.7609 29.6884 37.0968 23.1953 34.5057 17.9597C33.5271 15.9823 32.4843 14.5638 30.8783 13.0253C27.2703 9.56878 22.6353 7.91093 17.5969 8.27449ZM18.6898 13.1707C18.5909 13.2467 17.8074 14.5212 16.9487 16.0029L15.3875 18.697H12.2846C10.3132 18.697 9.08418 18.7415 8.91414 18.8189C8.56589 18.9776 5.13902 24.865 5.15559 25.2762C5.16761 25.5764 8.35071 31.1853 8.72845 31.5719C8.93705 31.7855 9.14021 31.802 12.1933 31.8554L15.4365 31.9122L16.9496 34.5212C17.7819 35.9561 18.5729 37.2196 18.7072 37.3287C18.9283 37.5083 19.2888 37.5272 22.4906 37.5272C25.1453 37.5272 26.0767 37.4918 26.2185 37.3854C26.3224 37.3075 27.2017 35.8654 28.1723 34.1809C29.4362 31.9875 29.9202 31.0488 29.8774 30.874C29.8445 30.7398 29.1729 29.5147 28.3852 28.1516C27.5974 26.7885 26.9046 25.5687 26.8454 25.4408C26.7568 25.2493 26.9807 24.7904 28.1186 22.8318C29.5835 20.31 29.9297 19.6755 29.9297 19.5118C29.9297 19.3164 26.5053 13.4206 26.2775 13.2238C26.0689 13.0435 25.7168 13.0256 22.4587 13.0289C19.8164 13.0315 18.8223 13.0689 18.6898 13.1707ZM18.3008 16.963C17.5531 18.2574 16.9288 19.3942 16.9133 19.4889C16.898 19.5836 17.4924 20.7076 18.2343 21.9866L19.5833 24.312L22.4594 24.3404L25.3355 24.3689L26.522 22.2986C27.1746 21.16 27.7984 20.0734 27.9085 19.884L28.1085 19.5396L26.7023 17.1048L25.2963 14.6701L22.4782 14.6398L19.6602 14.6096L18.3008 16.963ZM20.5899 16.4484C20.1845 16.8081 18.813 19.209 18.813 19.559C18.813 19.8976 19.2799 20.3985 19.5956 20.3985C19.7197 20.3985 19.9481 20.2837 20.103 20.1433C20.4749 19.8065 21.8758 17.3536 21.8758 17.0394C21.8758 16.7119 21.5481 16.341 21.1828 16.2547C20.9665 16.2037 20.8069 16.2558 20.5899 16.4484ZM8.29399 22.8351L6.90645 25.2627L8.30114 27.68L9.69582 30.0972L12.5287 30.1275L15.3618 30.1577L16.7187 27.8061C17.4651 26.5127 18.0911 25.3943 18.11 25.3209C18.1289 25.2474 17.5224 24.1099 16.7622 22.7929L15.3803 20.3985L12.5309 20.4029L9.68153 20.4075L8.29399 22.8351ZM44.9031 22.3354C44.1697 22.6664 43.4677 23.3998 43.2004 24.1141C42.7333 25.3627 42.9949 26.5591 43.9421 27.5062C45.1558 28.7199 46.9549 28.7742 48.2478 27.636C48.9391 27.0275 49.2346 26.422 49.3025 25.4744C49.3996 24.1218 48.7982 23.0443 47.6163 22.4536C46.7358 22.0137 45.7145 21.9691 44.9031 22.3354ZM9.38716 24.523C9.24094 24.596 9.04697 24.788 8.95611 24.9498C8.80581 25.2176 8.8142 25.2885 9.0506 25.7419C9.75549 27.0944 10.5788 28.3649 10.8218 28.4758C11.3781 28.7292 12.0297 28.1704 11.9072 27.5449C11.8889 27.4513 11.5197 26.7541 11.087 25.9954C10.2352 24.5024 9.94061 24.2471 9.38716 24.523ZM18.2722 28.4816C17.5091 29.8099 16.8856 30.9465 16.8866 31.0074C16.8876 31.0683 17.4944 32.1646 18.235 33.4435L19.5814 35.769L22.4585 35.7954L25.3355 35.8217L26.724 33.3986L28.1123 30.9755L26.7095 28.5512L25.3065 26.127L22.4832 26.0967L19.6598 26.0665L18.2722 28.4816ZM24.7906 30.4092C24.362 30.8084 23.0862 33.1139 23.086 33.4896C23.0856 34.1573 23.9938 34.4855 24.4495 33.9824C24.7372 33.6646 26.0464 31.4064 26.0772 31.1748C26.1255 30.8103 26.064 30.5988 25.846 30.3808C25.5472 30.082 25.1298 30.0932 24.7906 30.4092ZM38.1307 41.6196C37.2239 41.7927 36.4705 42.3562 35.9926 43.2189C35.7004 43.7465 35.6581 43.9376 35.6581 44.7303C35.6581 45.5356 35.6977 45.7081 36.01 46.2617C36.6399 47.3785 37.9447 48.0764 39.1068 47.9184C41.3548 47.6125 42.6019 45.3263 41.6069 43.3351C41.4161 42.9532 41.0971 42.5031 40.8979 42.3348C40.1666 41.7166 39.0858 41.4373 38.1307 41.6196Z" fill="currentColor"/>
</svg>
