<svg xmlns="http://www.w3.org/2000/svg" width="51" height="51" viewBox="0 0 51 51" fill="none">
    <path fill-rule="evenodd" clip-rule="evenodd" d="M10.0902 5.52851C9.15038 6.15925 8.95129 6.36161 9.01612 6.61995C9.03486 6.69453 9.23987 7.02424 9.47179 7.35262C10.5613 8.89564 11.4633 10.2204 11.4696 10.2869C11.4775 10.3695 10.8487 11.0277 8.41324 13.4863L6.72873 15.1868L6.72867 18.9573V22.7278H5.55969C4.40707 22.7278 4.38908 22.7298 4.27061 22.8762C4.15766 23.0157 4.15043 23.151 4.15043 25.1174C4.15043 27.0834 4.15773 27.2191 4.27054 27.3586C4.38776 27.5036 4.41807 27.5075 5.55969 27.5267L6.72873 27.5463V29.2021V30.8578L5.54963 30.8853C4.50422 30.9095 4.32796 30.9292 3.99517 31.0589C3.50227 31.251 3.01491 31.7295 2.87109 32.1626C2.66835 32.7733 2.64508 33.4234 2.64313 38.5277L2.64118 43.6371H1.44636C0.335367 43.6371 0.242737 43.6459 0.125771 43.7629C0.00748335 43.8812 0 43.9725 0 45.2938C0 46.5753 0.0101247 46.7082 0.115017 46.8031C0.221608 46.8996 2.07503 46.9072 25.5109 46.9072C49.9228 46.9072 50.7954 46.9032 50.8959 46.7922C50.9863 46.6923 51 46.4901 51 45.2551C51 43.8567 50.9977 43.8313 50.8602 43.7351C50.7461 43.6551 50.5096 43.6371 49.5711 43.6371H48.4217L48.4204 38.4334C48.4197 35.3463 48.394 33.0549 48.3571 32.8C48.2685 32.1872 48.0805 31.796 47.7184 31.4703C47.1903 30.9956 46.8837 30.9142 45.5133 30.8849L44.3342 30.8597V29.199V27.5385H45.4003C46.5382 27.5385 46.7266 27.5002 46.8427 27.2456C46.8893 27.1434 46.9125 26.4125 46.9125 25.0487V23.005L46.7581 22.8507C46.6056 22.6982 46.5899 22.6963 45.4689 22.6963H44.3342V18.9453V15.1942L43.6587 14.4961C43.2872 14.1122 42.2189 13.0254 41.2848 12.0811C40.3506 11.1367 39.5763 10.3532 39.5641 10.3399C39.5518 10.3266 40.1022 9.51456 40.787 8.53531C41.472 7.55612 42.0441 6.67705 42.0585 6.58184C42.0729 6.48669 42.0404 6.34143 41.9865 6.25905C41.9325 6.17667 41.4764 5.83715 40.9729 5.50455C39.9687 4.84123 39.7814 4.78225 39.5361 5.05221C39.46 5.13604 38.7892 6.09699 38.0456 7.18761L36.6936 9.17051L25.5314 9.17057L14.3693 9.17064L14.0832 8.7488C12.9417 7.06605 11.6518 5.21723 11.5184 5.07271C11.4218 4.96807 11.2931 4.89978 11.1928 4.89978C11.087 4.89978 10.6874 5.12768 10.0902 5.52851ZM15.4956 10.7738C15.7225 11.0993 16.3835 12.0544 16.9643 12.8962C17.5452 13.7381 18.5007 15.1183 19.0876 15.9634L20.1547 17.5L20.1938 16.8124C20.2618 15.6155 20.5566 14.8299 21.2823 13.9121C22.2812 12.649 23.6558 11.9304 25.2485 11.8387C27.0327 11.736 28.7663 12.5415 29.8425 13.9732C30.504 14.8531 30.83 15.7881 30.8395 16.8318C30.8427 17.1861 30.8594 17.4751 30.8767 17.474C30.894 17.4729 31.3043 16.9026 31.7885 16.2068C32.2728 15.511 33.1934 14.1891 33.8344 13.2694C34.4754 12.3496 35.2199 11.2787 35.489 10.8896L35.9781 10.1821H25.5306H15.0831L15.4956 10.7738ZM9.91746 13.416L7.7349 15.6427V23.2571V30.8714L12.3412 30.8677L16.9476 30.8641L16.5388 30.7209C14.867 30.1354 13.623 28.8288 13.139 27.1499C12.9485 26.4891 12.9051 25.3375 13.0446 24.6416C13.253 23.6009 13.7326 22.7287 14.5293 21.9417C15.1098 21.3682 15.8039 20.945 16.6017 20.678C17.0931 20.5136 17.3298 20.4726 17.9355 20.4468L18.6718 20.4154L18.3623 20.0682C18.1921 19.8772 17.7073 19.2372 17.2849 18.646C16.8625 18.0549 16.509 17.5607 16.4993 17.5478C16.4897 17.5351 16.3695 17.6135 16.2323 17.7222C15.7815 18.0792 15.4371 18.1958 14.8409 18.1932C13.8653 18.1888 13.1132 17.7229 12.6886 16.8598C12.4998 16.4758 12.4827 16.3916 12.4827 15.8428C12.4827 15.0559 12.6425 14.6985 13.2944 14.027L13.7608 13.5465L12.9881 12.4256C12.5632 11.8091 12.1895 11.2787 12.1577 11.2469C12.1228 11.212 11.2414 12.0652 9.91746 13.416ZM38.133 12.3619L37.3151 13.5412L37.759 13.9863C38.0234 14.2513 38.2791 14.5829 38.3915 14.8064C38.5636 15.1486 38.5802 15.2368 38.5802 15.8117C38.5802 16.3968 38.5654 16.4719 38.3738 16.8609C37.9329 17.7566 36.9619 18.3056 36.0046 18.2005C35.5504 18.1507 35.2958 18.0492 34.8863 17.755C34.7148 17.6319 34.5681 17.5401 34.56 17.5511C34.552 17.5622 34.3302 17.8844 34.0671 18.2673C33.5822 18.973 32.8245 19.9718 32.5818 20.2254C32.5086 20.3018 32.4488 20.3757 32.4488 20.3896C32.4488 20.4035 32.7672 20.4293 33.1563 20.4469C35.0251 20.5313 36.6879 21.6253 37.5483 23.3366C37.8827 24.0016 38.0446 24.6211 38.0886 25.403C38.1719 26.8817 37.6788 28.2456 36.6772 29.3074C36.012 30.0126 35.3479 30.4426 34.4926 30.722L34.0524 30.8658L38.6902 30.8686L43.328 30.8714V23.2148V15.5582L41.1395 13.3703L38.951 11.1825L38.133 12.3619ZM24.7139 12.9133C23.7668 13.1143 22.9121 13.5997 22.2926 14.2884C21.8991 14.7258 21.4343 15.6026 21.2871 16.1852C21.1515 16.7217 21.1641 17.7237 21.3139 18.3091C21.5424 19.2029 22.0951 20.067 22.7834 20.6065C23.2847 20.9996 23.533 21.1399 24.0973 21.3489C24.7056 21.5744 25.7874 21.632 26.4876 21.4762C27.6006 21.2286 28.5851 20.5336 29.2082 19.5557C29.7131 18.7632 29.8947 18.128 29.8923 17.1624C29.8893 15.9745 29.4826 15.0121 28.6146 14.139C27.7815 13.3009 26.9052 12.9123 25.7201 12.8553C25.3427 12.8371 24.9721 12.8585 24.7139 12.9133ZM24.5672 14.3372C22.467 15.0597 21.7876 17.6378 23.27 19.2598C23.8909 19.9391 24.6085 20.2547 25.5314 20.2545C27.0747 20.254 28.3279 19.182 28.5588 17.6647C28.7757 16.24 27.8795 14.8058 26.477 14.3333C25.963 14.1602 25.0766 14.162 24.5672 14.3372ZM14.0271 14.6871C13.6061 15.0656 13.4376 15.3955 13.4373 15.8418C13.4367 17.0057 14.821 17.6423 15.7001 16.8824L15.9334 16.6807L15.3123 15.7739C14.9707 15.2752 14.6147 14.761 14.5214 14.6313L14.3515 14.3954L14.0271 14.6871ZM36.3004 15.0074C35.1144 16.694 35.1365 16.6581 35.2206 16.7595C35.3602 16.9277 35.8045 17.1546 36.0808 17.1987C36.692 17.2964 37.378 16.8721 37.5769 16.2733C37.7745 15.6784 37.5705 15.0799 37.0151 14.6247L36.7324 14.3931L36.3004 15.0074ZM24.8248 15.3082C23.9986 15.6116 23.4992 16.3334 23.4928 17.2333C23.4897 17.6606 23.5133 17.7598 23.7086 18.1427C24.0962 18.9026 24.7527 19.2702 25.6458 19.2274C26.2222 19.1998 26.5941 19.0399 26.9842 18.652C27.7546 17.8859 27.7814 16.6636 27.0461 15.8262C26.935 15.6997 26.6716 15.51 26.4608 15.4046C26.1245 15.2366 26.0148 15.2135 25.5685 15.2174C25.2888 15.2198 24.954 15.2607 24.8248 15.3082ZM17.4191 21.4649C15.8094 21.8026 14.4631 23.0875 14.0532 24.6772C13.8128 25.6095 13.9695 26.8312 14.4482 27.7558C14.7249 28.2902 15.5803 29.1799 16.0986 29.4723C18.9825 31.0989 22.5758 29.0145 22.5758 25.7148C22.5758 23.7795 21.2256 22.0357 19.3372 21.5324C18.8108 21.3921 17.9163 21.3606 17.4191 21.4649ZM31.9143 21.4738C30.4455 21.7959 29.1983 22.9094 28.6993 24.344C28.4811 24.9714 28.4279 25.9462 28.5758 26.6105C28.9135 28.1287 30.0524 29.3708 31.537 29.8401C33.9641 30.6074 36.5471 29.033 37.0425 26.4842C37.156 25.9003 37.0894 24.9757 36.8892 24.3545C36.4827 23.094 35.4163 22.0306 34.1233 21.5965C33.4898 21.3838 32.56 21.3322 31.9143 21.4738ZM22.6768 22.8474C22.9657 23.2516 23.296 23.9645 23.4223 24.479C24.0682 27.1094 22.5324 29.8837 19.9661 30.722L19.5259 30.8658L25.5 30.8649L31.4741 30.8641L31.0596 30.7203C30.2373 30.4352 29.7538 30.1259 29.0845 29.4565C28.1821 28.5542 27.7276 27.6748 27.5382 26.4655C27.4433 25.8591 27.5022 24.8702 27.6684 24.2801C27.8234 23.73 28.066 23.097 28.5588 22.5979C27.8879 23.4767 26.8321 23.7986 25.6458 23.7986C24.8291 23.7986 24.3725 23.6573 23.9715 23.5416C23.6855 23.4592 22.6192 22.7523 22.6768 22.8474ZM17.7337 22.7599C16.134 23.0358 15.003 24.6019 15.2703 26.1707C15.4317 27.1178 16.0239 27.9499 16.8367 28.3715C17.4147 28.6714 17.8217 28.7565 18.4943 28.7182C18.9624 28.6914 19.1242 28.6511 19.5224 28.462C20.6367 27.9329 21.2552 26.9608 21.2552 25.7387C21.2552 24.2829 20.2742 23.097 18.8137 22.7874C18.3563 22.6905 18.1644 22.6856 17.7337 22.7599ZM32.2602 22.7667C31.7883 22.8427 31.0962 23.1939 30.7334 23.5416C30.0528 24.1938 29.7737 24.9192 29.8215 25.9115C29.8492 26.4869 29.8719 26.5765 30.1124 27.062C30.6711 28.1895 31.7102 28.7858 32.9988 28.7184C33.5305 28.6906 33.6384 28.6624 34.1114 28.4281C36.0157 27.4845 36.4012 25.0519 34.8783 23.5896C34.4032 23.1333 33.8671 22.8583 33.2663 22.7625C32.8048 22.6888 32.7421 22.6891 32.2602 22.7667ZM5.1566 25.1331V26.5323H5.94266H6.72873V25.1331V23.7339H5.94266H5.1566V25.1331ZM17.746 23.7986C17.5627 23.849 17.3535 23.922 17.2811 23.9606C17.0151 24.103 16.5859 24.5551 16.4241 24.8634C16.282 25.1339 16.2576 25.2585 16.2576 25.7148C16.2576 26.1709 16.282 26.2955 16.4234 26.5638C16.6473 26.9884 17.0023 27.3334 17.4192 27.5314C17.9123 27.7656 18.622 27.7657 19.1214 27.5315C20.407 26.9286 20.6762 25.2989 19.6542 24.3056C19.1693 23.8344 18.3796 23.6246 17.746 23.7986ZM32.4 23.7669C30.8792 24.0798 30.277 25.9171 31.3209 27.0593C31.7448 27.523 32.1372 27.6921 32.7947 27.6941C33.2089 27.6953 33.3588 27.6666 33.6437 27.5313C34.5389 27.1062 35.0159 26.1056 34.7535 25.203C34.4635 24.2055 33.4057 23.5601 32.4 23.7669ZM44.3342 25.1174V26.5323H45.1202H45.9063V25.1174V23.7025H45.1202H44.3342V25.1174ZM4.44499 31.9685C4.12484 32.0829 3.97001 32.2297 3.81117 32.5693C3.6803 32.8491 3.6786 32.9131 3.66106 38.2447L3.64332 43.6371H25.5314H47.4196L47.4018 38.2133L47.3841 32.7894L47.2269 32.4783C47.1138 32.2545 46.9991 32.1309 46.8181 32.0381L46.5666 31.909L25.6258 31.8959C8.07328 31.8848 4.64616 31.8966 4.44499 31.9685ZM6.82306 34.4046C6.54077 34.5698 6.54416 34.5302 6.54209 37.7017C6.54014 40.6691 6.54259 40.7306 6.67044 40.8931C6.84545 41.1157 7.17547 41.1208 7.39186 40.9045L7.54624 40.7501V37.7323V34.7145L7.40475 34.5561C7.23508 34.3662 6.99524 34.3037 6.82306 34.4046ZM9.26659 34.3925C8.92575 34.53 8.92972 34.4907 8.92972 37.7315C8.92972 40.6672 8.93236 40.7308 9.06008 40.8931C9.16057 41.021 9.24584 41.0588 9.4328 41.0588C9.61976 41.0588 9.70503 41.021 9.80552 40.8931C9.93324 40.7308 9.93588 40.6669 9.93588 37.7518C9.93588 35.705 9.91406 34.7284 9.86608 34.623C9.82766 34.5387 9.72729 34.4383 9.64302 34.3999C9.46657 34.3195 9.44821 34.3192 9.26659 34.3925ZM11.6023 34.4012C11.3151 34.5618 11.3194 34.5117 11.3194 37.698C11.3194 40.6676 11.3219 40.7307 11.4497 40.8931C11.6247 41.1157 11.9548 41.1208 12.1711 40.9045L12.3255 40.7501V37.7323V34.7145L12.184 34.5561C12.0158 34.3678 11.7763 34.304 11.6023 34.4012ZM13.9898 34.3886C13.6992 34.5095 13.7025 34.4727 13.7007 37.5791C13.6998 39.1989 13.7013 40.588 13.704 40.6658C13.7165 41.0202 14.2363 41.19 14.5146 40.9306L14.6523 40.8024V37.7304C14.6523 34.8962 14.6438 34.6484 14.5422 34.5284C14.4127 34.3753 14.1696 34.3138 13.9898 34.3886ZM16.3102 34.4023C16.0448 34.5335 16.0358 34.6438 16.0358 37.7518C16.0358 40.6669 16.0384 40.7308 16.1661 40.8931C16.3411 41.1157 16.6712 41.1208 16.8875 40.9045L17.0419 40.7501V37.7323V34.7145L16.9004 34.5561C16.7345 34.3703 16.4989 34.309 16.3102 34.4023ZM29.6819 36.028C29.5607 36.1492 29.5561 36.2376 29.5561 38.4406C29.5561 40.659 29.56 40.7324 29.6865 40.8931L29.8168 41.0588H37.044C44.1874 41.0588 44.2727 41.0574 44.397 40.9331C44.5183 40.8118 44.5228 40.7235 44.5228 38.4589C44.5228 36.2636 44.5153 36.1036 44.4078 36.0063C44.3022 35.9107 43.7013 35.9022 37.0502 35.9022C29.8915 35.9022 29.8062 35.9037 29.6819 36.028ZM30.5623 38.4648V40.0527H37.0552H43.5481L43.5346 38.48L43.5211 36.9072L37.0417 36.8921L30.5623 36.877V38.4648ZM0.969377 45.3035L0.974723 45.9638H25.5157L50.0567 45.9639V45.3036V44.6433H25.5104H0.964032L0.969377 45.3035Z" fill="currentColor"/>
</svg>
