<svg xmlns="http://www.w3.org/2000/svg" width="51" height="51" viewBox="0 0 51 51" fill="none">
    <path fill-rule="evenodd" clip-rule="evenodd" d="M35.2717 1.05937C34.667 1.36069 34.1655 1.97299 34.1655 2.41008C34.1655 2.81947 34.5621 3.18753 35.003 3.18753C35.2897 3.18753 35.4082 3.117 35.6716 2.78909C35.8888 2.51885 36.0708 2.39065 36.237 2.39065C36.5098 2.39065 44.8681 7.17848 45.1475 7.49474C45.2433 7.60321 45.3218 7.81637 45.3218 7.96838C45.3218 8.14797 44.4116 9.82719 42.7227 12.7636C41.2931 15.2488 40.1093 17.2969 40.0919 17.3148C40.0666 17.3409 30.6094 11.9085 30.4992 11.8045C30.4824 11.7887 31.3452 10.2396 32.4167 8.36203C33.7081 6.09881 34.3648 4.8515 34.3648 4.66105C34.3648 4.00163 33.5313 3.65569 33.0345 4.10891C32.7144 4.40087 28.5879 11.7984 28.5859 12.0836C28.5851 12.2036 28.8382 13.2279 29.1483 14.3597L29.7121 16.4177L28.5899 18.3195C27.5233 20.127 27.4737 20.2356 27.5878 20.5113C27.6557 20.6749 27.8387 20.8553 28.0076 20.9254C28.606 21.1733 28.7277 21.044 30.1184 18.6833L31.4034 16.502L31.0277 15.1708C30.8212 14.4386 30.6695 13.826 30.6906 13.8094C30.7117 13.7927 32.0513 14.5449 33.6675 15.4809C35.2837 16.4168 36.9861 17.4027 37.4506 17.6716L38.2951 18.1606L36.9232 18.5191L35.5512 18.8775L35.2586 19.3748C34.869 20.0366 34.872 20.4257 35.2689 20.7597C35.4375 20.9016 35.686 21.0176 35.8213 21.0176C36.0591 21.0176 36.4252 20.733 36.6138 20.4014C36.6735 20.2967 37.3677 20.0618 38.5982 19.73C39.6391 19.4493 40.6252 19.1587 40.7896 19.0842C41.0394 18.971 41.5638 18.118 43.9875 13.8822C45.582 11.0955 46.938 8.66305 47.0007 8.47688C47.2685 7.6822 47.0369 6.80136 46.4047 6.21037C46.0452 5.87409 37.6626 1.16257 37.0168 0.933665C36.4249 0.723987 35.8637 0.764329 35.2717 1.05937ZM40.4863 7.21722C40.3186 7.38487 40.2417 7.57273 40.2417 7.81488C40.2417 8.20724 40.4412 8.46005 40.9586 8.72322C41.1396 8.81526 41.3029 8.90381 41.3214 8.91995C41.3399 8.93618 41.2391 9.12016 41.0973 9.32884C40.7857 9.78745 40.7699 10.1446 41.0459 10.4954C41.2928 10.8093 41.805 10.8516 42.1139 10.5835C42.3971 10.3378 43.23 8.86267 43.23 8.60687C43.23 8.26063 42.8797 7.91439 42.0387 7.42929C41.1395 6.91063 40.8344 6.86899 40.4863 7.21722ZM1.04095 20.1664C0.546784 20.6605 0.896911 21.5157 1.59328 21.5157C2.00277 21.5157 2.39015 21.1283 2.39015 20.7188C2.39015 20.3093 2.00277 19.9219 1.59328 19.9219C1.39924 19.9219 1.19504 20.0123 1.04095 20.1664ZM2.6347 21.7602C2.14053 22.2543 2.49066 23.1094 3.18703 23.1094C3.59652 23.1094 3.9839 22.722 3.9839 22.3125C3.9839 21.903 3.59652 21.5157 3.18703 21.5157C2.99299 21.5157 2.78879 21.606 2.6347 21.7602ZM15.0542 21.652C14.5679 21.828 13.9762 22.3609 13.8357 22.7496L13.7138 23.0866L12.8582 23.1296C12.3417 23.1556 11.8815 23.2363 11.6976 23.3331C11.2962 23.5442 10.8017 24.0568 10.6531 24.4157C10.5392 24.6904 10.5055 24.7032 9.89403 24.7032C9.34747 24.7032 9.21848 24.7388 9.0097 24.9477C8.8555 25.1018 8.76515 25.306 8.76515 25.5C8.76515 25.6941 8.8555 25.8983 9.0097 26.0524C9.21848 26.2612 9.34747 26.2969 9.89403 26.2969C10.5055 26.2969 10.5392 26.3097 10.6531 26.5844C10.8017 26.9433 11.2962 27.4559 11.6976 27.6669C11.8823 27.7642 12.343 27.8445 12.8669 27.8708C13.7001 27.9128 13.7354 27.9243 13.8454 28.19C14.252 29.1715 15.7093 29.7991 16.3718 29.2779C16.9109 28.8539 16.5841 27.8907 15.9012 27.8907C15.7452 27.8907 15.5248 27.7864 15.3847 27.6461C15.1421 27.4037 15.1402 27.3862 15.1402 25.5C15.1402 23.6138 15.1421 23.5964 15.3847 23.3539L15.6291 23.1094H28.9361H42.243L42.4874 22.8649C42.6416 22.7108 42.7319 22.5066 42.7319 22.3125C42.7319 22.1185 42.6416 21.9143 42.4874 21.7602L42.243 21.5157L28.816 21.5232C18.5347 21.529 15.3107 21.5592 15.0542 21.652ZM44.0722 21.7602C43.5603 22.272 43.8906 23.0144 44.6868 23.1417C45.4126 23.2577 45.4668 23.3995 45.503 25.2767C45.5383 27.1098 45.5138 27.2988 45.2022 27.589C44.9866 27.7899 44.909 27.791 31.5026 27.791H18.0198L17.7753 28.0356C17.4521 28.3587 17.4454 28.8715 17.7606 29.1675L17.9904 29.3834L24.8079 29.409L31.6255 29.4346L32.1021 30.3809C32.8531 31.8719 32.9536 32.5948 32.7119 34.7639C32.6582 35.2458 32.6773 35.3359 32.8704 35.511C33.0626 35.6852 33.2717 35.7162 34.5491 35.7598L36.0083 35.8096L36.5764 38.001C37.3537 41.0001 37.3201 40.9023 37.7325 41.3596C38.2728 41.9591 38.7259 42.13 39.781 42.1326L40.6651 42.1348L40.6016 42.4585C40.5272 42.8384 40.2878 43.1871 39.9048 43.4733C39.6458 43.667 39.4586 43.6818 36.6239 43.7334C34.4275 43.7734 33.5238 43.8249 33.2691 43.9244C32.6959 44.1485 32.2304 44.4798 31.7968 44.9724C30.4688 46.4812 31.0487 48.9757 32.9467 49.9189L33.4185 50.1534L41.5638 50.1805L49.7092 50.2076L49.9559 49.9609C50.2816 49.6352 50.2825 49.1784 49.9581 48.8539L49.7137 48.6094H41.8557H33.9977L33.5586 48.3778C32.4591 47.7978 32.3794 46.4375 33.4005 45.6801C33.6678 45.4819 33.8334 45.4693 36.7873 45.4219C39.7907 45.3737 39.9087 45.3644 40.3662 45.1391C41.3519 44.6537 42.0588 43.7093 42.1983 42.6917C42.2578 42.2573 42.2768 42.2344 42.578 42.2344C43.6672 42.2344 44.6944 41.4957 44.9215 40.549C45.179 39.4754 44.787 38.6509 44.0856 38.7911C43.5793 38.8924 43.3825 39.1688 43.4075 39.7437C43.4243 40.1288 43.3839 40.2875 43.23 40.4414C43.0456 40.6258 42.898 40.6407 41.2425 40.6407C39.3117 40.6407 39.0249 40.5822 38.859 40.1546C38.744 39.858 36.1577 29.738 36.1577 29.5844C36.1577 29.5204 36.9904 29.4844 38.4739 29.4844H40.7903L41.6282 32.7964C42.6792 36.9505 42.7918 37.3253 43.0277 37.4516C43.5559 37.7342 44.2261 37.3799 44.2261 36.818C44.2261 36.6675 43.8451 34.9944 43.3794 33.0998C42.9137 31.2054 42.5327 29.6168 42.5327 29.5699C42.5327 29.5229 43.0818 29.4841 43.7529 29.4838C45.3254 29.4831 45.6419 29.3915 46.282 28.7513C46.8546 28.1788 47.0138 27.77 47.0146 26.8697L47.0152 26.2969H47.812H48.6089V27.6461C48.6089 28.9459 48.6179 29.0044 48.8534 29.2399C49.0075 29.3941 49.2117 29.4844 49.4058 29.4844C49.5998 29.4844 49.804 29.3941 49.9581 29.2399L50.2027 28.9954V25.5V22.0046L49.9581 21.7602C49.804 21.606 49.5998 21.5157 49.4058 21.5157C49.2117 21.5157 49.0075 21.606 48.8534 21.7602C48.6179 21.9957 48.6089 22.0541 48.6089 23.3539V24.7032H47.812H47.0152L47.0146 24.1304C47.0138 23.23 46.8546 22.8212 46.282 22.2488C45.5282 21.4949 44.553 21.2793 44.0722 21.7602ZM1.04095 23.3539C0.546784 23.848 0.896911 24.7032 1.59328 24.7032C2.00277 24.7032 2.39015 24.3158 2.39015 23.9063C2.39015 23.4968 2.00277 23.1094 1.59328 23.1094C1.39924 23.1094 1.19504 23.1998 1.04095 23.3539ZM4.22845 23.3539C4.07425 23.508 3.9839 23.7122 3.9839 23.9063C3.9839 24.1003 4.07425 24.3045 4.22845 24.4586C4.72251 24.9528 5.57765 24.6026 5.57765 23.9063C5.57765 23.4968 5.19027 23.1094 4.78078 23.1094C4.58674 23.1094 4.38254 23.1998 4.22845 23.3539ZM2.6347 24.9477C2.14053 25.4418 2.49066 26.2969 3.18703 26.2969C3.59652 26.2969 3.9839 25.9095 3.9839 25.5C3.9839 25.0905 3.59652 24.7032 3.18703 24.7032C2.99299 24.7032 2.78879 24.7935 2.6347 24.9477ZM5.8222 24.9477C5.32803 25.4418 5.67816 26.2969 6.37453 26.2969C6.78402 26.2969 7.1714 25.9095 7.1714 25.5C7.1714 25.306 7.08106 25.1018 6.92686 24.9477C6.77277 24.7935 6.56857 24.7032 6.37453 24.7032C6.18049 24.7032 5.97629 24.7935 5.8222 24.9477ZM12.1972 24.9477C12.043 25.1018 11.9527 25.306 11.9527 25.5C11.9527 26.0086 12.3294 26.2969 12.9941 26.2969H13.5464V25.5V24.7032H12.9941C12.5403 24.7032 12.3979 24.7469 12.1972 24.9477ZM16.9784 24.9477C16.8242 25.1018 16.7339 25.306 16.7339 25.5C16.7339 25.6941 16.8242 25.8983 16.9784 26.0524C17.2086 26.2826 17.2875 26.2969 18.3277 26.2969C19.3678 26.2969 19.4467 26.2826 19.6769 26.0524C19.8311 25.8983 19.9214 25.6941 19.9214 25.5C19.9214 25.306 19.8311 25.1018 19.6769 24.9477C19.4467 24.7175 19.3678 24.7032 18.3277 24.7032C17.2875 24.7032 17.2086 24.7175 16.9784 24.9477ZM21.7597 24.9477C21.6055 25.1018 21.5152 25.306 21.5152 25.5C21.5152 25.6941 21.6055 25.8983 21.7597 26.0524L22.0041 26.2969H26.2964H30.5887L30.8331 26.0524C30.9873 25.8983 31.0777 25.6941 31.0777 25.5C31.0777 25.306 30.9873 25.1018 30.8331 24.9477L30.5887 24.7032H26.2964H22.0041L21.7597 24.9477ZM1.04095 26.5414C0.546784 27.0355 0.896911 27.8907 1.59328 27.8907C2.00277 27.8907 2.39015 27.5033 2.39015 27.0938C2.39015 26.6843 2.00277 26.2969 1.59328 26.2969C1.39924 26.2969 1.19504 26.3872 1.04095 26.5414ZM4.22845 26.5414C3.73428 27.0355 4.08441 27.8907 4.78078 27.8907C5.19027 27.8907 5.57765 27.5033 5.57765 27.0938C5.57765 26.6843 5.19027 26.2969 4.78078 26.2969C4.58674 26.2969 4.38254 26.3872 4.22845 26.5414ZM2.6347 28.1352C2.14053 28.6293 2.49066 29.4844 3.18703 29.4844C3.59652 29.4844 3.9839 29.097 3.9839 28.6875C3.9839 28.278 3.59652 27.8907 3.18703 27.8907C2.99299 27.8907 2.78879 27.981 2.6347 28.1352ZM1.04095 29.7289C0.546784 30.223 0.896911 31.0782 1.59328 31.0782C2.00277 31.0782 2.39015 30.6908 2.39015 30.2813C2.39015 29.8718 2.00277 29.4844 1.59328 29.4844C1.39924 29.4844 1.19504 29.5748 1.04095 29.7289ZM33.6518 29.8579C34.1431 30.8368 34.4644 32.2713 34.4644 33.4871V34.2657H35.0122C35.3135 34.2657 35.5612 34.2321 35.5625 34.1909C35.5639 34.1498 35.3071 33.0741 34.9919 31.8003L34.4188 29.4844H33.9415H33.4642L33.6518 29.8579Z" fill="currentColor"/>
</svg>
